<?xml version="1.0" encoding="UTF-8"?>
<svg id="Layer_1" data-name="Layer 1" xmlns="http://www.w3.org/2000/svg" viewBox="0 0 500 500">
  <defs>
    <style>
      .cls-1 {
        fill: #153961;
        stroke-width: 0px;
      }
    </style>
  </defs>
  <g id="Allianz-1">
    <path id="path37627" class="cls-1" d="M72.917,376.894h-25.678l13.617-44.353,12.061,44.353ZM35.178,421.636l7.976-27.04h32.876l7.976,27.04h27.234l-28.79-102.517c-1.556-6.809-4.863-8.949-12.061-8.949H30.315v9.143h3.112c4.863,0,7.198,1.556,7.198,5.252,0,2.334,0,3.891-2.334,9.337l-28.79,87.733"/>
    <path id="path37629" class="cls-1" d="M145.866,421.636v-103.296c0-5.447-3.113-8.17-8.754-8.17h-24.9v9.143h1.556c4.863,0,7.198,1.945,7.198,6.419v95.903"/>
    <path id="path37631" class="cls-1" d="M190.802,421.636v-103.296c0-5.447-3.112-8.17-8.754-8.17h-24.9v9.143h1.556c4.863,0,7.198,1.945,7.198,6.419v95.903"/>
    <path id="path37633" class="cls-1" d="M236.517,320.091c0-7.392-5.641-11.672-14.395-11.672-9.532,0-14.395,4.28-14.395,11.672,0,7.587,4.863,11.866,14.395,11.866,8.754,0,14.395-4.28,14.395-11.866M235.739,421.636v-75.283c0-5.252-3.113-8.17-7.976-8.17h-24.9v9.143h1.556c4.863,0,6.419,1.945,6.419,6.614v67.891"/>
    <path id="path37635" class="cls-1" d="M295.071,381.174v16.73c-4.863,4.863-10.505,7.587-15.173,7.587-4.863,0-7.198-2.335-7.198-8.559,0-6.808,1.556-9.532,7.198-11.672,3.891-1.751,7.976-2.918,15.173-4.085M259.861,361.137l2.334-.973c6.419-2.529,10.505-3.501,15.173-4.474,2.334-.389,5.641-.584,7.198-.584,7.976,0,10.505,2.723,10.505,10.116v2.14c-11.283,1.751-14.395,2.529-20.815,3.891-3.113.778-6.42,1.751-9.532,3.113-10.505,4.085-15.173,12.255-15.173,24.705,0,15.757,6.419,23.344,20.815,23.344,5.641,0,11.283-1.362,15.173-3.891,4.085-1.751,5.641-2.723,10.505-7.198v2.529c0,5.252,2.334,7.781,7.198,7.781h24.122v-8.559h-.778c-4.863,0-7.198-2.14-7.198-6.419v-41.046c0-21.398-7.198-28.596-28.012-28.596-7.198,0-13.617.778-20.037,2.334-6.419,1.556-9.532,2.723-16.924,6.419"/>
    <path id="path37637" class="cls-1" d="M364.907,421.636v-56.608c5.641-5.252,9.532-7.198,15.173-7.198s7.198,2.334,7.198,10.894v52.912h24.9v-56.997c0-11.672-1.556-16.73-4.863-21.204-4.085-4.28-8.754-6.419-15.952-6.419-9.532,0-16.924,3.501-28.012,13.228v-4.474c0-5.252-2.334-7.781-7.198-7.781h-24.122v9.143h.778c4.863,0,7.198,1.945,7.198,6.614v67.891"/>
    <path id="path37645" class="cls-1" d="M489.181,406.186h-36.935l35.615-50.125v-17.148h-52.764c-6.595,0-9.233,2.638-9.233,9.234v14.51h9.233v-1.319c0-3.957,2.638-6.595,6.596-6.595h19.786l-35.615,50.125v17.148h64.636"/>
    <g id="g37643">
      <path id="path37647" class="cls-1" d="M263.191,216.091v-94.975c0-7.914-2.638-10.553-10.553-10.553h-21.105v10.553h2.638c3.958,0,5.277,1.319,5.277,6.596v88.38h23.744ZM275.063,216.091h23.744v-71.231c0-6.595-2.638-10.553-10.553-10.553h-13.191v81.784ZM226.257,216.091v-81.784h-13.191c-6.595,0-10.553,2.638-10.553,10.553v71.231h23.744ZM326.508,168.604c0,44.85-31.659,76.507-75.188,76.507s-75.188-31.659-75.188-76.507,31.659-76.507,75.188-76.507c42.21,0,75.188,32.977,75.188,76.507M341.018,168.604c0-51.445-38.254-91.018-91.018-91.018-51.445,0-91.018,38.254-91.018,91.018,0,51.445,39.573,91.018,91.018,91.018,52.764,0,91.018-38.254,91.018-91.018"/>
    </g>
  </g>
</svg>