<?xml version="1.0" encoding="UTF-8"?>
<svg id="Layer_1" data-name="Layer 1" xmlns="http://www.w3.org/2000/svg" viewBox="0 0 800 500">
  <defs>
    <style>
      .cls-1 {
        fill: #153961;
        stroke-width: 0px;
      }
    </style>
  </defs>
  <g id="Allianz-1">
    <path id="path37627" class="cls-1" d="M106.981,257.816h-26.256l13.924-45.351,12.332,45.351ZM68.392,303.565l8.155-27.648h33.616l8.155,27.648h27.847l-29.439-104.825c-1.591-6.962-4.973-9.15-12.332-9.15h-40.975v9.349h3.183c4.973,0,7.36,1.591,7.36,5.371,0,2.387,0,3.978-2.387,9.548l-29.439,89.708"/>
    <path id="path37629" class="cls-1" d="M181.572,303.565v-105.621c0-5.57-3.183-8.354-8.951-8.354h-25.46v9.349h1.591c4.973,0,7.36,1.989,7.36,6.564v98.062"/>
    <path id="path37631" class="cls-1" d="M227.52,303.565v-105.621c0-5.57-3.182-8.354-8.951-8.354h-25.46v9.349h1.591c4.973,0,7.36,1.989,7.36,6.564v98.062"/>
    <path id="path37633" class="cls-1" d="M274.264,199.734c0-7.559-5.768-11.935-14.719-11.935-9.746,0-14.719,4.376-14.719,11.935,0,7.758,4.973,12.134,14.719,12.134,8.951,0,14.719-4.376,14.719-12.134M273.468,303.565v-76.978c0-5.37-3.183-8.354-8.155-8.354h-25.46v9.349h1.591c4.973,0,6.564,1.989,6.564,6.763v69.419"/>
    <path id="path37635" class="cls-1" d="M334.136,262.192v17.106c-4.973,4.973-10.741,7.758-15.515,7.758-4.973,0-7.36-2.387-7.36-8.752,0-6.962,1.591-9.746,7.36-11.934,3.978-1.79,8.155-2.984,15.515-4.177M298.133,241.704l2.387-.995c6.564-2.586,10.741-3.58,15.515-4.575,2.387-.398,5.768-.597,7.36-.597,8.155,0,10.741,2.785,10.741,10.343v2.188c-11.537,1.79-14.719,2.586-21.283,3.978-3.183.796-6.564,1.79-9.747,3.183-10.741,4.177-15.515,12.531-15.515,25.262,0,16.112,6.564,23.869,21.283,23.869,5.768,0,11.537-1.392,15.515-3.978,4.177-1.79,5.768-2.785,10.741-7.36v2.586c0,5.37,2.387,7.956,7.36,7.956h24.665v-8.752h-.796c-4.973,0-7.36-2.188-7.36-6.564v-41.97c0-21.88-7.36-29.24-28.643-29.24-7.36,0-13.924.796-20.488,2.387-6.564,1.591-9.747,2.785-17.305,6.564"/>
    <path id="path37637" class="cls-1" d="M405.544,303.565v-57.883c5.768-5.371,9.747-7.36,15.515-7.36s7.36,2.387,7.36,11.139v54.103h25.46v-58.28c0-11.935-1.591-17.106-4.973-21.681-4.177-4.376-8.951-6.564-16.311-6.564-9.747,0-17.305,3.58-28.643,13.526v-4.575c0-5.371-2.387-7.956-7.36-7.956h-24.665v9.349h.796c4.973,0,7.36,1.989,7.36,6.763v69.419"/>
    <g id="g37643">
      <path id="path37645" class="cls-1" d="M532.616,287.767h-37.767l36.417-51.254v-17.534h-53.952c-6.744,0-9.441,2.698-9.441,9.442v14.836h9.441v-1.349c0-4.046,2.697-6.744,6.744-6.744h20.232l-36.417,51.254v17.534h66.091"/>
      <path id="path37647" class="cls-1" d="M678.285,298.557v-97.113c0-8.092-2.697-10.79-10.791-10.79h-21.58v10.79h2.697c4.047,0,5.395,1.349,5.395,6.744v90.369h24.279ZM690.424,298.557h24.279v-72.835c0-6.744-2.697-10.79-10.791-10.79h-13.488v83.625ZM640.52,298.557v-83.625h-13.488c-6.744,0-10.791,2.698-10.791,10.79v72.835h24.279ZM743.027,250c0,45.859-32.371,78.23-76.88,78.23s-76.88-32.371-76.88-78.23,32.371-78.23,76.88-78.23c43.161,0,76.88,33.72,76.88,78.23M757.864,250c0-52.603-39.115-93.067-93.067-93.067-52.603,0-93.067,39.115-93.067,93.067,0,52.603,40.464,93.067,93.067,93.067,53.952,0,93.067-39.115,93.067-93.067"/>
    </g>
  </g>
</svg>