<?xml version="1.0" encoding="UTF-8"?>
<svg id="Layer_1" data-name="Layer 1" xmlns="http://www.w3.org/2000/svg" viewBox="0 0 500 500">
  <defs>
    <style>
      .cls-1 {
        fill: #134b90;
        stroke-width: 0px;
      }
    </style>
  </defs>
  <g id="Anadolu-1">
    <path class="cls-1" d="M177.422,287.296c0,15.334,14.814,27.68,34.567,27.68s34.567-12.345,34.567-27.68-14.944-27.68-34.567-27.68c-19.753,0-34.567,12.345-34.567,27.68ZM223.165,286.516c0,8.187-5.588,14.944-11.176,14.944s-11.176-6.628-11.176-14.944,5.588-14.944,11.176-14.944,11.176,6.628,11.176,14.944Z"/>
    <path class="cls-1" d="M25.38,290.675l15.464,3.899s9.226,1.559,9.226,4.808c0,3.119-2.339,4.288-5.848,4.288-3.639,0-5.718-1.559-6.108-3.379-.39-1.949-.26-2.729-.26-2.729l-24.821-.13c0,10.006,13.255,17.673,29.499,17.673,16.374,0,30.668-6.757,30.668-16.894,0-7.667-6.757-13.905-19.753-15.594,0,0-6.757-.91-9.486-1.56-2.729-.65-5.198-2.209-5.198-4.548s2.339-3.639,5.328-3.639,4.808,1.17,5.328,2.339c.52,1.3.91,2.469.91,2.469h21.312c0-9.356-13.255-17.024-29.499-17.024s-29.499,7.537-29.499,17.024c0,5.848,5.068,9.876,12.735,12.995Z"/>
    <path class="cls-1" d="M251.754,260.916v51.071h23.781v-17.673s5.328-.91,8.317.78c2.989,1.689,4.938,10.266,5.458,12.475.39,2.209,1.43,4.418,1.43,4.418h22.352l-2.469-10.526s-1.689-8.187-4.678-9.876c-2.859-1.689-7.017-2.729-7.017-2.599,6.628-1.949,11.306-7.407,11.306-13.645,0-8.057-7.407-14.425-16.764-14.425h-41.714ZM284.762,284.047h-9.356v-11.696h9.356c3.119,0,5.718,2.599,5.718,5.978,0,3.249-2.469,5.718-5.718,5.718Z"/>
    <path class="cls-1" d="M267.738,186.714h-39.635v50.811l39.635.13c14.425,0,26.25-11.436,26.25-25.47s-11.696-25.47-26.25-25.47ZM258.382,225.439h-6.367v-28.459h6.367c7.147,0,12.865,6.368,12.865,14.295s-5.718,14.165-12.865,14.165Z"/>
    <path class="cls-1" d="M333.883,184.375c-19.753,0-34.567,12.345-34.567,27.68s14.814,27.68,34.567,27.68,34.567-12.475,34.567-27.68c0-15.334-14.944-27.68-34.567-27.68ZM333.883,226.219c-5.588,0-11.176-6.627-11.176-14.944s5.588-14.944,11.176-14.944,11.176,6.628,11.176,14.944c0,8.187-5.588,14.944-11.176,14.944Z"/>
    <path class="cls-1" d="M383.654,261.955l-18.973,50.811h23.391l3.249-6.887h17.154l2.209,6.887h25.34l-17.933-50.811h-34.437ZM393.661,291.454l5.978-18.193,6.108,18.193h-12.085Z"/>
    <polygon class="cls-1" points="373.258 186.714 373.258 237.525 421.21 237.525 421.21 224.01 397.819 224.01 397.819 186.714 373.258 186.714"/>
    <path class="cls-1" d="M423.159,186.714v34.437c0,12.215,14.425,18.193,32.098,18.193s32.098-5.848,32.098-18.193v-34.437h-24.041v31.968c0,4.548-3.639,8.187-8.187,8.187s-8.187-3.639-8.187-8.187v-31.968h-23.781Z"/>
    <polygon class="cls-1" points="313.611 277.68 332.714 277.68 332.714 312.766 356.365 312.766 356.365 277.68 375.078 277.68 375.078 261.696 313.611 261.696 313.611 277.68"/>
    <polygon class="cls-1" points="90.615 257.667 104.52 249.74 90.615 242.203 76.711 249.74 90.615 257.667"/>
    <rect class="cls-1" x="78.4" y="261.696" width="23.131" height="51.071"/>
    <polygon class="cls-1" points="131.16 212.314 115.956 186.714 86.717 186.714 86.717 237.525 86.717 237.655 107.119 237.655 107.119 212.314 122.453 237.525 151.432 237.525 151.432 186.714 131.16 186.714 131.16 212.314"/>
    <path class="cls-1" d="M32.008,186.714l-18.973,50.811h23.261l3.249-6.887h17.283l2.209,6.887h25.34l-17.933-50.811h-34.437ZM42.014,216.213l5.978-18.193,6.108,18.193h-12.085Z"/>
    <path class="cls-1" d="M173.264,186.714l-18.973,50.811h23.391l3.249-6.887h17.154l2.209,6.887h25.34l-17.933-50.811h-34.437ZM183.27,215.303l5.978-18.193,6.108,18.193h-12.085Z"/>
    <path class="cls-1" d="M105.95,287.426c0,15.334,14.944,28.199,34.567,28.199,11.955,0,23.651-2.729,33.787-5.978h-.13v-25.99h-33.137v11.306h10.006l-.13,7.927h-8.707c-5.458,0-11.176-5.848-11.176-14.165s5.588-13.905,11.176-13.905c5.328,0,8.057.78,8.577,3.899h22.611c-1.559-9.357-17.153-18.973-32.878-18.973-19.753,0-34.567,12.345-34.567,27.68Z"/>
  </g>
</svg>