<?xml version="1.0" encoding="UTF-8"?>
<svg id="Layer_1" data-name="Layer 1" xmlns="http://www.w3.org/2000/svg" viewBox="0 0 800 500">
  <defs>
    <style>
      .cls-1 {
        fill: #134b90;
        stroke-width: 0px;
      }
    </style>
  </defs>
  <g id="Anadolu-2">
    <g>
      <path class="cls-1" d="M226.752,235.732h-33.759v43.278l33.759.111c12.286,0,22.359-9.74,22.359-21.695s-9.962-21.695-22.359-21.695ZM218.783,268.716h-5.424v-24.24h5.424c6.088,0,10.958,5.424,10.958,12.176s-4.87,12.065-10.958,12.065Z"/>
      <path class="cls-1" d="M283.092,233.739c-16.824,0-29.443,10.515-29.443,23.576s12.618,23.576,29.443,23.576,29.443-10.626,29.443-23.576c0-13.061-12.729-23.576-29.443-23.576ZM283.092,269.38c-4.76,0-9.519-5.645-9.519-12.729s4.76-12.729,9.519-12.729,9.519,5.645,9.519,12.729c0,6.973-4.76,12.729-9.519,12.729Z"/>
      <polygon class="cls-1" points="316.63 235.732 316.63 279.01 357.473 279.01 357.473 267.499 337.549 267.499 337.549 235.732 316.63 235.732"/>
      <path class="cls-1" d="M359.133,235.732v29.332c0,10.404,12.286,15.496,27.34,15.496s27.34-4.981,27.34-15.496v-29.332h-20.477v27.229c0,3.874-3.099,6.973-6.973,6.973s-6.973-3.099-6.973-6.973v-27.229h-20.256Z"/>
      <polygon class="cls-1" points="110.421 257.537 97.47 235.732 72.566 235.732 72.566 279.01 72.566 279.121 89.944 279.121 89.944 257.537 103.005 279.01 127.688 279.01 127.688 235.732 110.421 235.732 110.421 257.537"/>
      <path class="cls-1" d="M25.967,235.732l-16.16,43.278h19.813l2.767-5.866h14.721l1.882,5.866h21.584l-15.275-43.278h-29.332ZM34.49,260.858l5.092-15.496,5.202,15.496h-10.294Z"/>
      <path class="cls-1" d="M146.283,235.732l-16.16,43.278h19.924l2.767-5.866h14.611l1.882,5.866h21.584l-15.275-43.278h-29.332ZM154.806,260.083l5.092-15.496,5.202,15.496h-10.294Z"/>
    </g>
    <g>
      <path class="cls-1" d="M569.927,257.139c0,13.061,12.618,23.576,29.443,23.576s29.443-10.515,29.443-23.576-12.729-23.576-29.443-23.576c-16.824,0-29.443,10.515-29.443,23.576ZM608.889,256.475c0,6.973-4.76,12.729-9.519,12.729s-9.519-5.645-9.519-12.729,4.759-12.729,9.519-12.729,9.519,5.645,9.519,12.729Z"/>
      <path class="cls-1" d="M440.424,260.017l13.172,3.321s7.859,1.328,7.859,4.095c0,2.656-1.992,3.653-4.981,3.653-3.099,0-4.87-1.328-5.202-2.878-.332-1.66-.221-2.324-.221-2.324l-21.141-.111c0,8.523,11.29,15.053,25.126,15.053,13.947,0,26.122-5.756,26.122-14.389,0-6.53-5.756-11.843-16.824-13.282,0,0-5.756-.775-8.08-1.328-2.324-.553-4.427-1.882-4.427-3.874s1.992-3.099,4.538-3.099,4.095.996,4.538,1.992c.443,1.107.775,2.103.775,2.103h18.153c0-7.969-11.29-14.5-25.126-14.5s-25.126,6.42-25.126,14.5c0,4.981,4.317,8.412,10.847,11.069Z"/>
      <path class="cls-1" d="M633.24,234.67v43.5h20.256v-15.053s4.538-.775,7.084.664c2.546,1.439,4.206,8.744,4.649,10.626.332,1.882,1.218,3.763,1.218,3.763h19.038l-2.103-8.966s-1.439-6.973-3.985-8.412c-2.435-1.439-5.977-2.324-5.977-2.214,5.645-1.66,9.63-6.309,9.63-11.622,0-6.863-6.309-12.286-14.278-12.286h-35.53ZM661.354,254.372h-7.969v-9.962h7.969c2.656,0,4.87,2.214,4.87,5.092,0,2.767-2.103,4.87-4.87,4.87Z"/>
      <path class="cls-1" d="M745.587,235.555l-16.16,43.278h19.924l2.767-5.866h14.611l1.882,5.866h21.584l-15.275-43.278h-29.332ZM754.11,260.681l5.092-15.496,5.202,15.496h-10.294Z"/>
      <polygon class="cls-1" points="685.927 248.948 702.198 248.948 702.198 278.834 722.343 278.834 722.343 248.948 738.282 248.948 738.282 235.334 685.927 235.334 685.927 248.948"/>
      <polygon class="cls-1" points="495.989 231.903 507.832 225.151 495.989 218.731 484.145 225.151 495.989 231.903"/>
      <rect class="cls-1" x="485.584" y="235.334" width="19.702" height="43.5"/>
      <path class="cls-1" d="M509.05,257.25c0,13.061,12.729,24.019,29.443,24.019,10.183,0,20.145-2.324,28.779-5.092h-.111v-22.137h-28.225v9.63h8.523l-.111,6.752h-7.416c-4.649,0-9.519-4.981-9.519-12.065s4.76-11.843,9.519-11.843c4.538,0,6.863.664,7.305,3.321h19.259c-1.328-7.969-14.611-16.16-28.004-16.16-16.824,0-29.443,10.515-29.443,23.576Z"/>
    </g>
  </g>
</svg>