<?xml version="1.0" encoding="UTF-8"?>
<svg id="Layer_1" data-name="Layer 1" xmlns="http://www.w3.org/2000/svg" viewBox="0 0 800 500">
  <defs>
    <style>
      .cls-1 {
        fill: #231f20;
      }

      .cls-1, .cls-2 {
        fill-rule: evenodd;
        stroke-width: 0px;
      }

      .cls-2 {
        fill: #ed1c24;
      }
    </style>
  </defs>
  <g id="Ankara-2">
    <path class="cls-2" d="M345.829,408.264c-59.933-39.436-97.031-94.092-83.884-182.261h-77.804c-4.191,112.136,74.487,169.483,161.688,182.261h0ZM465.483,91.736c64.819,40.615,74.847,85.994,83.115,131.529h66.699c-15.063-60.803-63.601-120.42-149.813-131.529h0Z"/>
    <path class="cls-1" d="M528.175,236.77c-.951,6.43-.622,14.691-1.576,21.126-2.974.117-5.943.243-8.917.36-.626.377-1.207.75-1.732,1.123,2.789-8.532.07-9.88-3.488-10.146-11.817,4.171-16.052,13.08-21.305,21.348.391-3.855.787-7.708,1.182-11.564,1.479-7.511-1.182-12.349-13.312-6.519-1.477,15.908-5.031,31.818-8.88,47.725-3.874,4.955,1.271,6.429,7.69,7.411,3.355.699,6.412.802,7.4-3.26,2.809-24.109,13.562-40.028,21.009-34.683,1.59.21,3.266-.034,5.397-2.532,4.499-2.275,9.832-1.891,13.53-1.403-1.549,9.65-3.091,19.297-4.639,28.943,1.753,17.202,14.365,15.157,28.538,10.362,2.537-2.692,3.08-7.123,2.555-10.319-3.315-1.313-6.638,4.678-11.115,3.534-10.564-3.856-1.885-22.157-.358-33.229,5.694.42,10.39.184,14.625-.36,2.154-2.739,3.579-5.715,4.278-8.933-2.733-.12-5.468-.238-8.199-.357-.904,1.809-4.486,2.283-9.279,2.14.768-4.764,1.29-9.53,3.568-14.293,1.348-7.405-1.876-11.517-16.973-6.474h0ZM504.314,176.979c-.434-3.103-1.799-8.987-6.669-8.598-15.714.473-16.982,32.79-15.805,38.158,8.75,3.982,15.984-17.418,22.473-29.559h0ZM523.564,162.41c-4.423-1.546-9.891-1.859-13.778.45-1.835.554-3.72.577-5.664.074-17.448-13.673-35.415,15.744-37.57,32.967-2.765,14.103-.86,24.312,10.363,24.397,10.46-.833,16.594-9.798,21.511-21.022.586.155,1.18.31,1.771.47-2.578,9.274-1.7,15.428,2.631,18.476,5.533,1.427,10.115.479,14.253-1.556-3.467-14.18.943-33.831,6.483-54.256h0ZM432.146,162.634c-1.472,15.912-5.025,31.816-8.876,47.731-3.871,4.947,1.265,6.419,7.692,7.409,3.356.692,6.412.792,7.396-3.263,2.814-24.114,13.558-40.023,21.01-34.686,2.367.309,4.923-.378,8.879-8.005,4.062-10.602,1.198-12.17-2.663-12.446-11.817,4.165-16.053,13.072-21.305,21.338.392-3.847.788-7.7,1.181-11.555,1.475-7.51-1.181-12.355-13.315-6.522h0ZM401.74,176.979c-.435-3.103-1.8-8.987-6.672-8.598-15.714.473-16.981,32.79-15.805,38.158,8.748,3.982,15.99-17.418,22.477-29.559h0ZM420.984,162.41c-4.417-1.546-9.885-1.859-13.777.45-1.832.554-3.717.577-5.658.074-17.45-13.673-35.419,15.744-37.576,32.967-2.766,14.103-.861,24.312,10.368,24.397,10.46-.833,16.589-9.798,21.509-21.022.583.155,1.176.31,1.768.47-2.574,9.274-1.7,15.428,2.633,18.476,5.534,1.427,10.114.479,14.252-1.556-3.468-14.18.947-33.831,6.482-54.256h0ZM320.808,150.179c-2.769,19.542-5.375,39.113-10.831,57.985-3.451,10.612,6.65,11.109,14.035,9.625,1.724-9.455,3.45-18.918,5.171-28.374,6.85,19.062,14.504,27.974,22.668,30.597,2.626-2.965,5.253-5.923,7.883-8.883-8.773-4.009-15.133-12.031-17.983-25.914,7.467-9.148,14.774-16.812,20.936-14.065-.327-1.645-.658-3.291-.986-4.934-.823-2.632-2.955-4.282-6.4-4.935-10.67,1.59-18.177,12.664-26.118,22.457,1.973-10.532,3.946-21.061,5.915-31.584.412-7.327-9.031-7.984-14.289-1.976h0ZM251.001,208.66c3.519-15.07,7.325-30.146,8.348-45.223,3.952-3.693,9.209-3.062,15.05-.471-1.019,6.359-2.034,12.716-3.053,19.08,9.382-15.592,18.194-23.503,26.334-22.146,12.347,3.14.607,31.384-.237,43.817-.906,5.297-.437,9.612,3.055,11.777-2.427,3.062-18.964,7.772-17.868-9.185,2.604-11.228,4.836-22.456,6.818-33.69-1.648-1.173-3.12-.641-4.832.901-11.739,11.163-15.103,25.612-20.326,39.384-.501,1.734.047,2.986,1.647,3.766-4.73,5.171-18.881,2.247-14.935-8.011h0ZM225.178,157.209l-13.879,28.714h13.66l.219-28.714h0ZM186.261,214.121c11.439-21.902,22.877-43.796,34.313-65.7,4.41-4.597,16.941-4.256,17.709-.83.497,19.024-.899,38.084,2.215,57.104.746,5.473,7.766,12.235,3.321,13.305-10.052,2.314-15.686.921-16.876-4.157-.925-6.558-1.849-13.119-2.772-19.684h-16.876c-2.442,5.728-4.933,11.462-8.578,17.188,1.446,2.035,2.449,4.066,1.655,6.098-8.059,1.357-15.228,4.291-14.111-3.325h0ZM323.605,247.934c3.79-3.099,6.648-7.359,3.019-11.392-14.461-8.092-39.431,1.282-41.287,18.593-1.933,7.819.308,13.551,9.511,19.975,7.812,4.729,11.216,9.449,11.596,14.178-.913,9.47-6.713,11.32-13.218,12.084-7.436-.613-9.984-5.028-11.829-9.993-4.991,1.044-9.011,3.448-10.9,8.832,15.847,20.132,46.772,2.397,48.24-12.084,3.561-11.076,1.548-20.062-12.293-28.348-7.73-4.644-9.202-8.13-7.186-14.634,4.984-7.788,18.283-4.761,24.348,2.788h0ZM336.932,250.814c1.792,9.333.67,18.66-2.451,27.996-3.994,13.54-4.296,22.566-.928,27.08,5.016,1.738,9.625,1.019,13.823-2.157-2.331-6.921-1.255-16.767,2.151-28.611,4.605-13.742,4.705-21.741.3-23.996-4.298-.103-8.594-.206-12.895-.311h0ZM448.883,248.865c-13.425,0-27.643,13.644-31.657,30.371-4.01,16.725,3.655,30.37,17.082,30.37s27.645-13.645,31.651-30.37c4.02-16.728-3.657-30.371-17.076-30.371h0ZM447.288,258.395c-4.252-.605-10.1,8.27-13.039,19.746-2.916,11.478-1.835,21.329,2.419,21.935,4.257.608,10.098-8.27,13.039-19.744,2.92-11.478,1.837-21.329-2.419-21.937h0ZM395.708,264.325c-1.473-2.479-3.243-5.241-9.605-6.276-9.436,2.809-12.019,12.923-11.492,28.031,5.476.875,11.794-2.63,21.097-21.755h0ZM399.46,250.196v2.307c-4.731-3.207-10.086-4.564-16.064-4.062-19.207,3.047-22.704,18.439-24.19,26.815-2.336,14.367-1.373,23.505,9.389,24.149,10.404-.018,17.665-10.153,23.397-16.077-2.822,22.462-8.062,30.868-14.67,31.401-10.695-.478-14.74-5.392-17.832-10.951-2.971,2.883-5.945,5.766-8.912,8.645,19.36,18.627,47.734,8.063,50.61-7.488,3.161-15.37,6.329-30.734,9.493-46.091.956-3.08,1.918-6.148,2.876-9.22-4.697.191-9.398.383-14.096.571h0ZM342.156,231.744v7.072c0,.307.306,2.465.306,2.465.614.616,4.301.616,5.223.616h1.842c.3,0,1.528,0,1.528-.31,0-.306.31-.306.619-.306l.306-.308c0-.617,2.153-.617,2.769-.617.61,0,2.145-.925,2.145-1.233,0-.614.614-.614.614-1.229,0-1.537,0-4.001-.614-4.613-.307-.309-2.145-.925-2.761-1.537-1.538-1.541-10.137,0-11.978,0h0ZM596.762,265.92c-.424-3.099-1.794-8.984-6.665-8.59-15.719.467-16.987,32.789-15.808,38.16,8.754,3.975,15.989-17.426,22.473-29.571h0ZM616.012,251.355c-4.422-1.542-9.883-1.853-13.776.449-1.831.558-3.719.578-5.657.07-17.454-13.672-35.418,15.752-37.579,32.974-2.759,14.104-.864,24.309,10.364,24.4,10.464-.84,16.59-9.795,21.509-21.025.594.158,1.182.312,1.769.476-2.576,9.27-1.692,15.427,2.639,18.473,5.533,1.425,10.11.471,14.256-1.56-3.474-14.175.938-33.827,6.476-54.256h0Z"/>
  </g>
</svg>