<?xml version="1.0" encoding="UTF-8"?>
<svg id="Layer_1" data-name="Layer 1" xmlns="http://www.w3.org/2000/svg" viewBox="0 0 500 500">
  <defs>
    <style>
      .cls-1 {
        fill: #231f20;
      }

      .cls-1, .cls-2 {
        fill-rule: evenodd;
        stroke-width: 0px;
      }

      .cls-2 {
        fill: #ed1c24;
      }
    </style>
  </defs>
  <g id="Ankara-1">
    <path class="cls-2" d="M194.661,409.941c-60.517-39.821-97.977-95.009-84.702-184.038H31.397c-4.232,113.229,75.213,171.135,163.264,184.038h0ZM315.481,90.327c65.451,41.011,75.577,86.833,83.925,132.811h67.349c-15.21-61.396-64.221-121.594-151.274-132.811h0Z"/>
    <path class="cls-1" d="M378.784,236.775c-.961,6.493-.628,14.834-1.591,21.332-3.003.118-6.001.245-9.004.364-.632.381-1.218.757-1.749,1.134,2.816-8.615.071-9.977-3.522-10.245-11.932,4.212-16.209,13.207-21.513,21.557.395-3.893.795-7.783,1.193-11.676,1.493-7.584-1.193-12.469-13.441-6.582-1.491,16.063-5.08,32.128-8.967,48.19-3.911,5.003,1.283,6.492,7.765,7.483,3.387.706,6.474.809,7.472-3.292,2.837-24.344,13.694-40.418,21.214-35.021,1.606.212,3.298-.035,5.449-2.556,4.543-2.297,9.928-1.91,13.662-1.417-1.564,9.744-3.121,19.485-4.684,29.225,1.77,17.37,14.505,15.305,28.816,10.463,2.562-2.718,3.11-7.193,2.58-10.42-3.347-1.326-6.702,4.724-11.223,3.568-10.667-3.894-1.904-22.373-.362-33.553,5.75.424,10.491.185,14.768-.364,2.175-2.766,3.614-5.77,4.319-9.02-2.76-.121-5.521-.241-8.279-.36-.912,1.826-4.53,2.305-9.369,2.161.775-4.811,1.303-9.623,3.603-14.433,1.361-7.478-1.894-11.63-17.138-6.537h0ZM354.69,176.401c-.438-3.133-1.816-9.074-6.734-8.682-15.867.477-17.148,33.11-15.959,38.53,8.835,4.021,16.14-17.587,22.692-29.847h0ZM374.128,161.69c-4.466-1.561-9.988-1.877-13.912.454-1.853.559-3.756.583-5.719.075-17.618-13.807-35.761,15.898-37.936,33.289-2.792,14.24-.868,24.549,10.464,24.634,10.562-.841,16.755-9.893,21.721-21.227.591.156,1.191.313,1.788.475-2.603,9.364-1.717,15.578,2.656,18.656,5.586,1.441,10.213.484,14.392-1.571-3.501-14.319.952-34.161,6.546-54.785h0ZM281.819,161.917c-1.486,16.067-5.074,32.126-8.962,48.196-3.909,4.996,1.277,6.482,7.767,7.481,3.388.699,6.474.8,7.468-3.294,2.841-24.349,13.69-40.413,21.214-35.024,2.39.312,4.971-.382,8.966-8.083,4.101-10.705,1.209-12.289-2.689-12.567-11.932,4.206-16.209,13.2-21.513,21.545.396-3.885.795-7.776,1.193-11.668,1.49-7.583-1.193-12.475-13.445-6.586h0ZM251.116,176.401c-.439-3.133-1.817-9.074-6.737-8.682-15.867.477-17.146,33.11-15.959,38.53,8.834,4.021,16.146-17.587,22.696-29.847h0ZM270.548,161.69c-4.46-1.561-9.981-1.877-13.911.454-1.85.559-3.753.583-5.713.075-17.62-13.807-35.764,15.898-37.942,33.289-2.792,14.24-.869,24.549,10.469,24.634,10.562-.841,16.751-9.893,21.718-21.227.589.156,1.188.313,1.785.475-2.6,9.364-1.717,15.578,2.658,18.656,5.588,1.441,10.212.484,14.391-1.571-3.502-14.319.956-34.161,6.545-54.785h0ZM169.395,149.34c-2.796,19.733-5.428,39.494-10.937,58.55-3.485,10.716,6.714,11.218,14.172,9.719,1.741-9.547,3.484-19.102,5.222-28.65,6.917,19.248,14.646,28.246,22.889,30.895,2.652-2.994,5.304-5.981,7.96-8.969-8.859-4.048-15.28-12.148-18.158-26.166,7.54-9.237,14.918-16.976,21.14-14.202-.33-1.661-.665-3.323-.996-4.983-.831-2.657-2.984-4.323-6.463-4.983-10.774,1.605-18.354,12.787-26.372,22.676,1.992-10.635,3.984-21.266,5.972-31.892.416-7.399-9.119-8.061-14.429-1.995h0ZM98.908,208.391c3.554-15.217,7.396-30.44,8.429-45.664,3.991-3.729,9.299-3.091,15.196-.475-1.029,6.421-2.054,12.84-3.083,19.265,9.473-15.744,18.371-23.732,26.591-22.362,12.467,3.171.613,31.69-.239,44.244-.915,5.349-.441,9.706,3.085,11.892-2.451,3.092-19.149,7.848-18.042-9.274,2.629-11.337,4.883-22.674,6.884-34.018-1.665-1.184-3.151-.647-4.879.91-11.854,11.272-15.25,25.862-20.524,39.768-.506,1.751.047,3.015,1.663,3.803-4.776,5.222-19.065,2.269-15.081-8.089h0ZM72.834,156.438l-14.014,28.994h13.793l.221-28.994h0ZM33.537,213.905c11.55-22.115,23.1-44.223,34.648-66.34,4.453-4.642,17.106-4.297,17.882-.838.502,19.209-.908,38.455,2.236,57.66.754,5.527,7.841,12.354,3.354,13.435-10.15,2.336-15.839.93-17.041-4.197-.934-6.622-1.867-13.246-2.799-19.876h-17.041c-2.466,5.784-4.981,11.574-8.661,17.356,1.46,2.055,2.473,4.105,1.671,6.158-8.138,1.37-15.376,4.332-14.249-3.357h0ZM172.22,248.047c3.827-3.129,6.713-7.43,3.048-11.503-14.602-8.171-39.815,1.294-41.69,18.775-1.951,7.895.311,13.683,9.604,20.17,7.889,4.776,11.325,9.541,11.709,14.316-.922,9.563-6.778,11.43-13.347,12.202-7.508-.619-10.082-5.077-11.944-10.091-5.039,1.054-9.099,3.482-11.006,8.918,16.001,20.329,47.228,2.42,48.71-12.202,3.596-11.184,1.563-20.257-12.413-28.624-7.805-4.689-9.291-8.209-7.256-14.776,5.033-7.864,18.461-4.808,24.585,2.815h0ZM185.677,250.956c1.809,9.424.676,18.842-2.475,28.269-4.033,13.672-4.338,22.786-.937,27.344,5.065,1.755,9.719,1.029,13.958-2.178-2.354-6.989-1.267-16.93,2.172-28.89,4.65-13.876,4.751-21.953.303-24.23-4.34-.104-8.677-.208-13.021-.314h0ZM298.719,248.988c-13.556,0-27.912,13.777-31.965,30.667-4.049,16.888,3.691,30.666,17.248,30.666s27.914-13.778,31.96-30.666c4.06-16.891-3.692-30.667-17.243-30.667h0ZM297.108,258.61c-4.293-.611-10.198,8.35-13.166,19.939-2.945,11.59-1.853,21.537,2.442,22.148,4.299.614,10.197-8.35,13.166-19.936,2.949-11.59,1.855-21.536-2.442-22.151h0ZM245.026,264.599c-1.487-2.503-3.275-5.292-9.699-6.337-9.528,2.837-12.136,13.049-11.604,28.305,5.529.883,11.909-2.656,21.303-21.967h0ZM248.814,250.332v2.33c-4.777-3.238-10.184-4.609-16.22-4.101-19.394,3.076-22.926,18.619-24.426,27.076-2.359,14.507-1.386,23.734,9.481,24.384,10.505-.018,17.837-10.252,23.625-16.234-2.849,22.681-8.141,31.169-14.813,31.707-10.799-.483-14.884-5.444-18.006-11.058-3,2.911-6.003,5.822-8.999,8.729,19.549,18.808,48.199,8.142,51.103-7.561,3.192-15.52,6.391-31.034,9.585-46.54.966-3.11,1.936-6.208,2.904-9.31-4.742.193-9.49.386-14.234.577h0ZM190.952,231.7v7.141c0,.31.309,2.489.309,2.489.62.622,4.343.622,5.274.622h1.86c.303,0,1.543,0,1.543-.313,0-.309.313-.309.625-.309l.309-.311c0-.623,2.174-.623,2.796-.623.616,0,2.166-.934,2.166-1.245,0-.62.62-.62.62-1.241,0-1.552,0-4.04-.62-4.658-.31-.312-2.166-.934-2.788-1.552-1.553-1.556-10.235,0-12.095,0h0ZM448.04,266.209c-.428-3.129-1.811-9.071-6.73-8.673-15.872.471-17.153,33.109-15.962,38.532,8.839,4.014,16.145-17.596,22.692-29.859h0ZM467.478,251.502c-4.465-1.557-9.979-1.871-13.91.453-1.849.564-3.755.584-5.712.07-17.624-13.805-35.763,15.905-37.945,33.295-2.786,14.241-.873,24.546,10.465,24.638,10.566-.848,16.752-9.89,21.719-21.23.6.159,1.193.315,1.786.481-2.601,9.361-1.708,15.577,2.665,18.653,5.586,1.439,10.208.475,14.395-1.576-3.508-14.313.947-34.157,6.539-54.785h0Z"/>
  </g>
</svg>