<?xml version="1.0" encoding="UTF-8"?>
<svg id="Layer_1" data-name="Layer 1" xmlns="http://www.w3.org/2000/svg" viewBox="0 0 500 500">
  <defs>
    <style>
      .cls-1, .cls-2 {
        fill: #1b449c;
      }

      .cls-1, .cls-2, .cls-3, .cls-4 {
        stroke-width: 0px;
      }

      .cls-1, .cls-3, .cls-4 {
        fill-rule: evenodd;
      }

      .cls-3 {
        fill: #ed1b31;
      }

      .cls-4 {
        fill: #fff;
      }
    </style>
  </defs>
  <g id="Axa-1">
    <g>
      <rect class="cls-2" x="84.274" y="42.833" width="331.451" height="330.676"/>
      <polygon class="cls-3" points="270.99 206.807 290.431 206.807 415.726 44.424 415.726 42.833 396.857 42.833 270.99 206.807"/>
      <path class="cls-4" d="M153.142,270.799l20.414-27.484s1.925,8.798,3.328,14.38c1.292,5.133,3.536,13.104,3.536,13.104h-27.278ZM84.274,339.467l14.841.059,39.918-52.171h46.526l7.327,19.722-26.311,32.387h23.262l9.444-14.525s2.349,3.792,3.311,6.454c1.18,3.27,1.683,8.76,1.683,8.76h25.198l9.568-12.924s2.107,3.769,3.148,7.099c1.04,3.326,1.664,5.825,1.664,5.825h30.605l-4.16-7.074-11.468-32.505,10.011-13.311h44.337l15.211,45.193s.833,2.081.416,4.161c-.416,2.079-.416,3.537-.416,3.537h32.062s-1.873-3.122-3.328-6.867c-2.133-5.483-34.143-111.632-34.143-111.632l-.415-5.617h-26.239s-1.065,2.968-1.889,4.807c-6.252,13.941-41.849,58.305-41.849,58.305l-3.538-13.341,39.786-49.562h-25.638l-.21,2.913-22.051,29.772-8.968-28.524v-4.161h-29.775l18.749,55.18-8.14,10.634-18.721-60.613v-5.201h-26.445s.057,1.389-2.497,7.281c-3.425,7.897-64.008,85.75-80.866,107.346v8.596h0ZM218.636,299.939l8.52-10.648,5.613,16.263-9.294,11.422-4.839-17.038h0ZM281.114,270.799l20.414-27.484s1.925,8.798,3.328,14.38c1.29,5.133,3.537,13.104,3.537,13.104h-27.278Z"/>
    </g>
    <g>
      <path class="cls-1" d="M47.525,439.69c1.998,5.278,3.995,10.914,5.635,16.621h11.415c-5.922-15.765-11.986-31.746-17.336-47.584h-12.913c-7.919,15.98-16.266,31.961-24.826,47.584h11.771c2.569-5.635,5.208-11.343,7.919-16.621h18.335ZM32.33,432.128l7.776-15.908,5.493,15.908h-13.268Z"/>
      <path class="cls-1" d="M87.003,424.422l-9.416-15.694h-12.341c4.78,7.562,9.987,14.84,14.482,22.544-6.207,8.49-12.556,16.836-19.047,25.04h11.842l12.483-17.55c3.354,5.922,7.278,11.558,10.487,17.55h12.413c-5.279-8.062-10.701-16.123-15.694-24.469,5.563-7.848,11.628-15.337,17.334-23.115h-11.557l-10.987,15.694Z"/>
      <path class="cls-1" d="M142.834,439.69c1.997,5.278,3.994,10.914,5.635,16.621h11.414c-5.921-15.765-11.985-31.746-17.335-47.584h-12.912c-7.92,15.98-16.267,31.961-24.826,47.584h11.77c2.569-5.635,5.209-11.343,7.919-16.621h18.334ZM127.639,432.128l7.775-15.908,5.493,15.908h-13.268Z"/>
      <path class="cls-1" d="M215.042,409.156c-3.71-.784-7.49-1.283-11.272-1.283-8.418,0-16.48,3.781-16.48,12.128,0,11.699,18.406,16.765,18.406,24.255,0,4.067-4.424,5.351-7.776,5.351-4.351,0-8.633-1.284-12.556-3.067l.784,8.774c4.423.999,8.846,1.855,13.412,1.855,13.198,0,16.908-7.561,16.908-12.84,0-11.272-18.407-16.194-18.407-23.542,0-3.139,3.283-5.35,7.776-5.35,3.424,0,6.778.927,9.916,2.067l-.712-8.346Z"/>
      <path class="cls-1" d="M235.489,456.311c.285-20.688.856-34.029,1.855-47.584h-11.2c0,19.049-.999,33.173-1.926,47.584h11.271ZM236.131,405.447l.214-6.563h-8.275l-.286,6.563h8.347Z"/>
      <path class="cls-1" d="M272.922,429.131l-.357,6.992h8.704l-.572,12.271c-2.996.713-6.135,1.213-9.274,1.213-9.844,0-16.337-4.851-16.337-15.196,0-12.198,8.56-18.976,20.261-18.976,5.065,0,10.13,1.14,14.91,2.71l-.428-8.418c-5.28-1.142-10.63-1.855-15.98-1.855-21.26,0-29.535,13.483-29.535,26.182,0,14.838,9.132,23.113,27.538,23.113,6.349,0,12.485-.927,18.548-2.14.358-10.7.785-18.333,1.356-25.896h-18.834Z"/>
      <path class="cls-1" d="M326.615,407.872c-16.337,0-28.179,9.131-28.179,26.182,0,15.48,11.985,23.113,26.395,23.113,16.123,0,27.68-8.703,27.68-25.61,0-15.48-11.271-23.685-25.896-23.685h0ZM326.258,415.435c9.775,0,15.48,6.848,15.48,16.336,0,10.13-5.849,17.835-16.408,17.835-9.773,0-16.122-6.349-16.122-16.123,0-10.344,6.349-18.049,17.05-18.049Z"/>
      <path class="cls-1" d="M384.886,434.554c7.562-1.499,13.126-5.637,13.126-13.984,0-8.918-7.205-11.842-15.481-11.842h-21.473c-.071,15.909-.571,31.819-2.14,47.584h10.773c.072-7.134.926-34.029,1.142-40.235,2.567-.215,5.065-.357,7.633-.357,4.28,0,9.346.642,9.346,6.207,0,6.063-5.136,8.488-10.558,8.488-1.427,0-2.854-.213-4.28-.427,4.208,8.703,8.774,17.264,12.198,26.324h11.487l-11.772-21.757Z"/>
      <path class="cls-1" d="M400.489,408.728l-.285,7.847c3.281-.07,4.493-.285,14.91-.285-.428,13.627-1.07,28.108-2.069,40.022h11.13c.071-15.552.785-27.965,1.497-40.022,6.065,0,10.416.072,14.84.357l.285-7.919h-40.307Z"/>
      <path class="cls-1" d="M473.45,439.69c1.997,5.278,3.994,10.914,5.635,16.621h11.415c-5.921-15.765-11.985-31.746-17.336-47.584h-12.913c-7.919,15.98-16.266,31.961-24.826,47.584h11.771c2.569-5.635,5.209-11.343,7.919-16.621h18.335ZM458.254,432.128l7.776-15.908,5.493,15.908h-13.268Z"/>
    </g>
  </g>
</svg>