<?xml version="1.0" encoding="UTF-8"?>
<svg id="Layer_1" data-name="Layer 1" xmlns="http://www.w3.org/2000/svg" viewBox="0 0 800 500">
  <defs>
    <style>
      .cls-1 {
        fill: #ed1942;
      }

      .cls-1, .cls-2, .cls-3, .cls-4, .cls-5 {
        stroke-width: 0px;
      }

      .cls-1, .cls-2, .cls-4, .cls-5 {
        fill-rule: evenodd;
      }

      .cls-2, .cls-3 {
        fill: #1b449c;
      }

      .cls-4 {
        fill: #ed1b31;
      }

      .cls-5 {
        fill: #fff;
      }

      .cls-6 {
        fill: none;
        stroke: #ed1b31;
        stroke-miterlimit: 3.864;
        stroke-width: 1.797px;
      }
    </style>
  </defs>
  <g id="Axa-2">
    <path class="cls-2" d="M317.917,331.985l-7.377,20.427c-.37,1.052-.753,2.117-1.153,3.198-.482,1.251-1.008,2.232-1.577,2.942-.966,1.223-2.317,2.019-4.051,2.388-.995.228-2.617.342-4.861.342h-3.839v-6.738h1.962c1.421,0,2.275-.071,2.559-.214.54-.283.81-.838.81-1.662,0-.455-.554-2.175-1.663-5.16-.682-1.791-1.365-3.568-2.047-5.33l-3.753-10.192h9.04l3.539,12.708h.086l3.581-12.708h8.743Z"/>
    <path class="cls-2" d="M327.023,340.557h8.06c0-1.052-.355-1.934-1.066-2.644-.682-.711-1.564-1.067-2.644-1.067-2.502,0-3.952,1.237-4.35,3.711h0ZM343.186,344.948h-16.206c.256,2.872,1.691,4.308,4.306,4.308,1.678,0,2.858-.526,3.54-1.578h7.889c-.824,2.303-2.302,4.065-4.435,5.288-1.99,1.138-4.307,1.705-6.951,1.705-3.64,0-6.596-1.008-8.871-3.027-2.359-2.075-3.539-4.918-3.539-8.528,0-3.298,1.08-6.07,3.24-8.315,2.19-2.247,5.004-3.37,8.444-3.37,8.387,0,12.581,4.506,12.581,13.518Z"/>
    <path class="cls-2" d="M347.004,354.117v-22.132h8.145v2.815h.084c1.594-2.247,3.994-3.37,7.207-3.37,2.133,0,3.896.611,5.289,1.833,1.536,1.366,2.303,3.255,2.303,5.672v15.181h-8.443v-11.599c0-1.479-.157-2.531-.469-3.156-.399-.795-1.165-1.194-2.303-1.194-2.247,0-3.368,1.422-3.368,4.264v11.684h-8.444Z"/>
    <path class="cls-2" d="M375.513,354.117v-22.132h8.444v22.132h-8.444ZM383.956,323.669v5.928h-8.444v-5.928h8.444Z"/>
    <path class="cls-2" d="M412.934,323.669v30.448h-8.146v-2.43h-.086c-.71.938-1.406,1.605-2.089,2.004-1.079.654-2.544.98-4.391.98-2.929,0-5.259-1.264-6.994-3.794-1.535-2.219-2.303-4.861-2.303-7.933,0-3.127.64-5.7,1.919-7.719,1.621-2.53,4.122-3.795,7.505-3.795,2.673,0,4.691.995,6.056,2.985h.084v-10.747h8.444ZM404.788,343.03c0-3.639-1.236-5.458-3.709-5.458s-3.71,1.819-3.71,5.458c0,3.667,1.236,5.5,3.71,5.5s3.709-1.833,3.709-5.5Z"/>
    <path class="cls-2" d="M425.407,340.557h8.061c0-1.052-.355-1.934-1.066-2.644-.682-.711-1.564-1.067-2.644-1.067-2.501,0-3.952,1.237-4.35,3.711h0ZM441.57,344.948h-16.205c.256,2.872,1.692,4.308,4.307,4.308,1.678,0,2.857-.526,3.54-1.578h7.889c-.824,2.303-2.302,4.065-4.435,5.288-1.99,1.138-4.307,1.705-6.951,1.705-3.639,0-6.596-1.008-8.87-3.027-2.36-2.075-3.54-4.918-3.54-8.528,0-3.298,1.08-6.07,3.241-8.315,2.19-2.247,5.003-3.37,8.444-3.37,8.386,0,12.58,4.506,12.58,13.518Z"/>
    <path class="cls-2" d="M445.814,354.117v-22.132h8.145v2.815h.086c1.592-2.247,3.993-3.37,7.207-3.37,2.133,0,3.895.611,5.288,1.833,1.535,1.366,2.303,3.255,2.303,5.672v15.181h-8.443v-11.599c0-1.479-.157-2.531-.47-3.156-.398-.795-1.165-1.194-2.302-1.194-2.246,0-3.369,1.422-3.369,4.264v11.684h-8.444Z"/>
    <path class="cls-2" d="M497.119,325.247v6.737h4.52v5.203h-4.52v7.719c0,1.081.17,1.819.511,2.218.37.483,1.067.725,2.091.725.654,0,1.293-.043,1.919-.129v6.397c-.569,0-1.464.042-2.687.128-1.222.084-2.133.128-2.729.128-2.303,0-4.009-.341-5.119-1.023-1.619-1.024-2.429-2.886-2.429-5.586v-10.577h-3.754v-5.203h3.754v-6.737h8.444Z"/>
    <path class="cls-2" d="M518.506,346.227v-2.046c-.768.397-1.877.753-3.327,1.066-1.023.227-1.734.497-2.132.81-.483.34-.725.868-.725,1.578,0,.541.255,1.024.768,1.45.512.398,1.136.597,1.876.597,1.023,0,1.862-.298,2.515-.895.684-.597,1.024-1.451,1.024-2.56h0ZM526.609,340.088v9.083c0,2.275.341,3.923,1.024,4.947h-8.615c-.256-.711-.355-1.407-.298-2.089h-.085c-1.536,1.762-3.909,2.643-7.122,2.643-2.275,0-4.108-.54-5.501-1.619-1.536-1.166-2.303-2.858-2.303-5.075,0-2.104.767-3.739,2.303-4.904,1.136-.853,2.814-1.478,5.032-1.876,1.734-.257,3.454-.511,5.16-.767,1.536-.284,2.303-.939,2.303-1.961,0-1.365-.925-2.048-2.772-2.048-2.046,0-3.099.754-3.157,2.26h-7.845c.199-4.832,3.994-7.249,11.386-7.249,4.691,0,7.759.909,9.211,2.729.852,1.08,1.279,3.056,1.279,5.928Z"/>
    <path class="cls-2" d="M530.938,354.117v-22.132h8.146v2.815h.086c1.592-2.247,3.994-3.37,7.206-3.37,2.132,0,3.895.611,5.288,1.833,1.534,1.366,2.302,3.255,2.302,5.672v15.181h-8.444v-11.599c0-1.479-.157-2.531-.469-3.156-.399-.795-1.165-1.194-2.303-1.194-2.246,0-3.369,1.422-3.369,4.264v11.684h-8.444Z"/>
    <rect class="cls-3" x="558.595" y="331.985" width="8.444" height="22.132"/>
    <path class="cls-2" d="M572.519,354.117v-22.132h8.145v2.942h.085c1.564-2.331,3.981-3.497,7.25-3.497,1.251,0,2.431.313,3.539.939,1.138.597,1.948,1.436,2.432,2.515.284-.341.582-.682.895-1.023.655-.654,1.435-1.18,2.346-1.578,1.251-.568,2.686-.853,4.307-.853,2.616,0,4.591.796,5.928,2.388,1.109,1.365,1.662,3.071,1.662,5.118v15.181h-8.443v-11.983c0-1.279-.142-2.203-.427-2.772-.397-.795-1.18-1.194-2.345-1.194-1.905,0-2.858,1.322-2.858,3.966v11.983h-8.444v-11.983c0-1.279-.143-2.203-.427-2.772-.397-.795-1.18-1.194-2.345-1.194-1.904,0-2.858,1.322-2.858,3.966v11.983h-8.443Z"/>
    <rect class="cls-3" x="614.504" y="323.669" width="8.445" height="30.448"/>
    <path class="cls-2" d="M642.373,346.227v-2.046c-.768.397-1.878.753-3.326,1.066-1.024.227-1.734.497-2.132.81-.483.34-.725.868-.725,1.578,0,.541.256,1.024.768,1.45.512.398,1.136.597,1.875.597,1.024,0,1.863-.298,2.516-.895.684-.597,1.024-1.451,1.024-2.56h0ZM650.475,340.088v9.083c0,2.275.341,3.923,1.023,4.947h-8.614c-.257-.711-.356-1.407-.298-2.089h-.086c-1.534,1.762-3.908,2.643-7.122,2.643-2.274,0-4.108-.54-5.501-1.619-1.535-1.166-2.302-2.858-2.302-5.075,0-2.104.767-3.739,2.302-4.904,1.138-.853,2.815-1.478,5.032-1.876,1.735-.257,3.454-.511,5.161-.767,1.535-.284,2.303-.939,2.303-1.961,0-1.365-.924-2.048-2.771-2.048-2.048,0-3.099.754-3.157,2.26h-7.847c.199-4.832,3.994-7.249,11.385-7.249,4.693,0,7.761.909,9.212,2.729.852,1.08,1.279,3.056,1.279,5.928Z"/>
    <path class="cls-2" d="M656.509,354.117v-22.132h8.146v2.815h.086c1.592-2.247,3.993-3.37,7.206-3.37,2.132,0,3.895.611,5.288,1.833,1.535,1.366,2.302,3.255,2.302,5.672v15.181h-8.444v-11.599c0-1.479-.157-2.531-.468-3.156-.399-.795-1.166-1.194-2.304-1.194-2.246,0-3.368,1.422-3.368,4.264v11.684h-8.445Z"/>
    <rect class="cls-3" x="683.74" y="331.985" width="8.444" height="22.132"/>
    <path class="cls-2" d="M721.034,331.985l-7.377,20.427c-.37,1.052-.753,2.117-1.152,3.198-.482,1.251-1.01,2.232-1.578,2.942-.967,1.223-2.317,2.019-4.051,2.388-.996.228-2.616.342-4.862.342h-3.839v-6.738h1.963c1.421,0,2.274-.071,2.558-.214.541-.283.811-.838.811-1.662,0-.455-.555-2.175-1.663-5.16-.682-1.791-1.365-3.568-2.047-5.33l-3.753-10.192h9.04l3.54,12.708h.085l3.583-12.708h8.742Z"/>
    <path class="cls-2" d="M746.601,343.03c0,3.297-.967,5.998-2.901,8.102-2.188,2.36-5.246,3.539-9.168,3.539s-6.981-1.179-9.169-3.539c-1.933-2.104-2.899-4.804-2.899-8.102s.966-5.999,2.899-8.103c2.161-2.331,5.216-3.497,9.169-3.497s7.008,1.165,9.168,3.497c1.934,2.104,2.9,4.805,2.901,8.103h0ZM738.156,343.03c0-3.639-1.207-5.458-3.624-5.458s-3.626,1.819-3.626,5.458c0,3.667,1.209,5.5,3.626,5.5s3.624-1.833,3.624-5.5Z"/>
    <path class="cls-2" d="M749.692,354.117v-22.132h8.103v3.539h.085c1.421-2.729,3.497-4.094,6.226-4.094.796,0,1.62.114,2.474.342v7.462c-1.053-.369-2.162-.555-3.327-.555-3.412,0-5.116,2.233-5.116,6.696v8.742h-8.445Z"/>
    <path class="cls-2" d="M33.503,347.339h3.498c.355,1.418.635,2.275.842,2.57.532.827,1.595,1.476,3.19,1.949.886.265,1.979.309,3.278.133,1.329-.177,2.303-.487,2.924-.93.975-.709,1.461-1.653,1.461-2.835,0-1.505-.842-2.495-2.525-2.968-2.215-.502-5.094-1.284-8.636-2.347-2.276-.945-3.412-2.834-3.412-5.67,0-2.126.856-3.839,2.569-5.138,1.595-1.211,3.588-1.816,5.979-1.816,5.67,0,8.549,2.392,8.637,7.176h-3.632c0-2.392-1.772-3.632-5.314-3.72-1.477.118-2.643.531-3.5,1.24-.826.679-1.24,1.446-1.24,2.302,0,.945.443,1.654,1.33,2.126,1.18.621,2.996,1.197,5.448,1.728,1.269.266,2.185.487,2.746.665,1.003.296,1.874.664,2.613,1.107,1.712,1.034,2.569,2.642,2.569,4.828,0,1.329-.37,2.599-1.107,3.809-.738,1.212-1.772,2.112-3.101,2.702-1.18.531-2.598.857-4.253.975-1.535.118-3.025.014-4.473-.311-3.927-.856-5.891-3.38-5.891-7.573Z"/>
    <path class="cls-2" d="M61.07,330.95v23.254h-3.721v-23.254h3.721ZM61.07,321.915v4.606h-3.721v-4.606h3.721Z"/>
    <path class="cls-2" d="M68.602,343.9c.508.596,1.102,1.125,1.761,1.56-2.072,1.87-2.527,3.588-2.527,4.7,0,1.264.657,2.375,1.718,2.982-3.032,1.466-4.448,3.74-4.448,6.166,0,4.347,4.144,6.875,10.462,6.875,7.126,0,11.524-2.983,11.524-7.48,0-8.896-15.769-4.701-15.769-9.452,0-.859.353-1.719,1.263-2.729.91.303,1.971.505,3.133.505,3.185,0,5.779-1.166,7.401-3.146l-6.504.018c-.274.027-.558.043-.846.043-.212,0-.418-.009-.619-.027l-6.551-.017h0ZM75.874,363.252c-4.297,0-7.329-1.669-7.329-4.549,0-2.325,2.072-3.689,3.285-4.499,4.397,1.315,11.523.557,11.523,4.903,0,2.274-2.426,4.144-7.479,4.145Z"/>
    <path class="cls-2" d="M75.153,343.9c-3.012-.257-4.789-2.537-4.789-5.616,0-3.337,2.224-5.459,5.409-5.459s5.408,2.325,5.408,5.509c0,3.297-1.91,5.225-4.563,5.558l6.504.008c1.183-1.462,1.849-3.34,1.849-5.516,0-2.275-.909-4.548-2.729-6.166.708-.454,1.517-.657,2.325-.657.455,0,.91.051,1.364.152l.911-2.932c-.253-.05-.86-.151-1.466-.151-2.173,0-3.74.809-4.903,1.971-.152.151-.253.151-.505.05-1.011-.455-2.425-.909-4.498-.909-5.156,0-8.795,3.689-8.795,8.491,0,2.274.725,4.199,1.928,5.65l6.551.016Z"/>
    <path class="cls-2" d="M90.774,350.662c-1.211-2.038-1.817-4.681-1.817-7.929,0-3.219.606-5.848,1.817-7.885,1.801-3.04,4.695-4.561,8.682-4.561s6.88,1.521,8.682,4.561c1.21,2.038,1.816,4.666,1.816,7.885,0,3.249-.606,5.892-1.816,7.929-1.802,3.04-4.695,4.561-8.682,4.561s-6.881-1.521-8.682-4.561h0ZM99.456,351.503c2.658,0,4.488-1.181,5.492-3.544.797-1.889,1.196-3.632,1.196-5.226,0-1.566-.399-3.293-1.196-5.182-.945-2.245-2.776-3.426-5.492-3.544-2.776-.118-4.696,1.063-5.759,3.544-.619,2.421-.93,4.149-.93,5.182,0,1.594.399,3.337,1.196,5.226,1.004,2.363,2.834,3.544,5.493,3.544Z"/>
    <path class="cls-2" d="M115.328,354.204v-23.254h3.722v3.633c.708-1.299,1.564-2.333,2.568-3.1,1.004-.797,1.934-1.196,2.791-1.196h2.082s0,3.898,0,3.898c-4.961,0-7.442,2.643-7.442,7.928v12.092h-3.722Z"/>
    <path class="cls-2" d="M136.648,324.661v6.29h3.677v3.411h-3.677v16.122c0,.916.65,1.374,1.949,1.374.472,0,1.049-.059,1.728-.177v3.276c-1.624.296-2.968.384-4.031.267-1.122-.118-2.008-.591-2.658-1.417-.472-.621-.709-1.241-.709-1.861v-17.584h-3.233v-3.411h3.233v-6.29h3.721Z"/>
    <path class="cls-2" d="M164.082,335.159v15.591c0,.354.192.68.575.974.384.266.842.399,1.373.399.236,0,.457-.029.664-.088v2.79l-3.1.399c-2.009-.503-3.086-1.623-3.234-3.366-1.477,1.122-2.496,1.831-3.056,2.126-1.358.737-2.805,1.151-4.341,1.24-2.568.118-4.606-.488-6.112-1.816-1.476-1.359-2.141-3.175-1.993-5.449.207-3.16,1.831-5.182,4.872-6.068,1.623-.473,3.307-.797,5.049-.974,1.949-.177,3.13-.309,3.544-.399,1.24-.295,1.861-.886,1.861-1.771v-2.747c-.148-.767-.917-1.372-2.303-1.816-1.359-.472-2.718-.664-4.076-.575-2.688.177-4.148,1.609-4.385,4.297h-3.5l.133-2.037c.473-2.038,1.758-3.558,3.854-4.563,1.24-.59,2.629-.93,4.164-1.019,1.536-.088,3.071.044,4.606.399,3.603.827,5.404,2.318,5.404,4.474h0ZM160.228,347.472v-4.65c-1.034.412-2.703.782-5.006,1.106-2.185.325-3.632.65-4.341.975-1.446.649-2.185,1.698-2.215,3.145-.029,1.329.385,2.348,1.241,3.056.738.591,1.683.901,2.835.93,2.185.059,4.06-.592,5.625-1.949,1.24-1.064,1.861-1.934,1.861-2.614Z"/>
    <path class="cls-2" d="M185.004,346.188h3.587c-.088,1.89-.501,3.455-1.24,4.695-.886,1.477-2.126,2.584-3.72,3.322-1.594.768-3.278,1.107-5.049,1.019-1.771-.089-3.367-.546-4.784-1.373-1.536-.886-2.658-2.066-3.367-3.544-1.151-2.362-1.682-4.99-1.594-7.884.118-3.603,1.225-6.6,3.322-8.992,1.772-2.008,4.105-3.056,6.998-3.145,2.688-.058,4.872.634,6.555,2.081,1.596,1.005,2.556,3.145,2.88,6.423h-3.676c-.355-2.245-1.18-3.691-2.48-4.341-1.093-.56-2.156-.812-3.19-.752-1.682.088-3.203.9-4.562,2.436-1.004,1.151-1.609,3.071-1.816,5.758-.206,2.658.074,4.74.842,6.245,1.27,2.539,3.189,3.735,5.758,3.588,1.004-.058,1.919-.324,2.746-.797.856-.503,1.417-1.078,1.682-1.727.592-1.094.961-2.096,1.109-3.012Z"/>
    <rect class="cls-3" x="193.17" y="330.95" width="3.72" height="23.254"/>
    <rect class="cls-3" x="203.728" y="321.915" width="3.72" height="32.289"/>
    <rect class="cls-3" x="214.107" y="330.95" width="3.721" height="23.254"/>
    <polygon class="cls-2" points="224.666 321.915 228.386 321.915 228.386 340.65 238.219 330.95 243.003 330.95 234.897 339.012 244.332 354.204 239.769 354.204 232.107 341.803 228.386 345.479 228.386 354.204 224.666 354.204 224.666 321.915"/>
    <polygon class="cls-1" points="287.708 322.985 280.745 322.985 250.744 361.556 258.122 361.556 287.708 322.985"/>
    <path class="cls-2" d="M261.439,248.494c2.271,6.001,4.542,12.408,6.407,18.898h12.979c-6.733-17.924-13.627-36.094-19.71-54.101h-14.681c-9.003,18.169-18.494,36.338-28.226,54.101h13.383c2.92-6.407,5.922-12.896,9.003-18.898h20.846ZM244.163,239.896l8.84-18.087,6.245,18.087h-15.086Z"/>
    <path class="cls-2" d="M306.324,231.135l-10.706-17.844h-14.032c5.435,8.598,11.355,16.872,16.465,25.631-7.057,9.652-14.276,19.142-21.656,28.47h13.464l14.193-19.953c3.813,6.733,8.274,13.14,11.924,19.953h14.113c-6.002-9.166-12.167-18.331-17.843-27.82,6.325-8.923,13.22-17.438,19.709-26.28h-13.14l-12.492,17.844Z"/>
    <path class="cls-2" d="M369.803,248.494c2.271,6.001,4.542,12.408,6.407,18.898h12.978c-6.732-17.924-13.627-36.094-19.709-54.101h-14.681c-9.004,18.169-18.495,36.338-28.227,54.101h13.382c2.92-6.407,5.922-12.896,9.004-18.898h20.846ZM352.527,239.896l8.84-18.087,6.245,18.087h-15.085Z"/>
    <path class="cls-2" d="M451.9,213.778c-4.218-.892-8.516-1.459-12.816-1.459-9.571,0-18.737,4.298-18.737,13.789,0,13.302,20.927,19.061,20.927,27.577,0,4.625-5.03,6.084-8.841,6.084-4.947,0-9.815-1.46-14.275-3.488l.892,9.975c5.029,1.136,10.058,2.109,15.249,2.109,15.005,0,19.224-8.596,19.224-14.599,0-12.816-20.928-18.412-20.928-26.767,0-3.569,3.732-6.083,8.841-6.083,3.893,0,7.706,1.053,11.274,2.351l-.81-9.489Z"/>
    <path class="cls-2" d="M475.148,267.392c.324-23.522.973-38.689,2.109-54.101h-12.734c0,21.658-1.136,37.717-2.189,54.101h12.814ZM475.878,209.561l.243-7.462h-9.408l-.325,7.462h9.49Z"/>
    <path class="cls-2" d="M517.708,236.489l-.406,7.949h9.896l-.65,13.951c-3.406.811-6.976,1.379-10.544,1.379-11.193,0-18.575-5.516-18.575-17.277,0-13.869,9.733-21.575,23.036-21.575,5.758,0,11.517,1.297,16.952,3.082l-.486-9.571c-6.003-1.299-12.086-2.109-18.168-2.109-24.171,0-33.581,15.329-33.581,29.768,0,16.87,10.383,26.278,31.309,26.278,7.219,0,14.194-1.054,21.088-2.433.407-12.165.892-20.844,1.542-29.442h-21.413Z"/>
    <path class="cls-2" d="M578.754,212.319c-18.574,0-32.038,10.382-32.038,29.768,0,17.601,13.626,26.278,30.01,26.278,18.332,0,31.471-9.895,31.471-29.118,0-17.601-12.815-26.929-29.442-26.929h0ZM578.349,220.917c11.114,0,17.601,7.786,17.601,18.574,0,11.518-6.65,20.278-18.656,20.278-11.111,0-18.33-7.219-18.33-18.331,0-11.761,7.219-20.521,19.385-20.521Z"/>
    <path class="cls-2" d="M645.006,242.655c8.597-1.705,14.924-6.409,14.924-15.899,0-10.14-8.191-13.464-17.601-13.464h-24.414c-.08,18.088-.649,36.177-2.433,54.101h12.248c.081-8.111,1.053-38.689,1.298-45.746,2.919-.244,5.758-.406,8.678-.406,4.866,0,10.626.729,10.626,7.057,0,6.893-5.84,9.651-12.004,9.651-1.622,0-3.245-.243-4.866-.486,4.785,9.896,9.976,19.629,13.869,29.93h13.061l-13.384-24.737Z"/>
    <path class="cls-2" d="M662.747,213.291l-.324,8.922c3.73-.08,5.109-.324,16.952-.324-.486,15.493-1.217,31.958-2.353,45.503h12.654c.08-17.682.892-31.795,1.702-45.503,6.896,0,11.843.081,16.872.406l.324-9.003h-45.827Z"/>
    <path class="cls-2" d="M745.7,248.494c2.271,6.001,4.542,12.408,6.406,18.898h12.979c-6.732-17.924-13.627-36.094-19.71-54.101h-14.681c-9.004,18.169-18.494,36.338-28.226,54.101h13.383c2.92-6.407,5.923-12.896,9.004-18.898h20.846ZM728.423,239.896l8.84-18.087,6.245,18.087h-15.085Z"/>
    <line class="cls-6" x1="33.419" y1="294.007" x2="765.47" y2="294.007"/>
    <rect class="cls-3" x="33.562" y="133.817" width="148.299" height="147.952"/>
    <polygon class="cls-4" points="117.103 207.183 125.802 207.183 181.861 134.529 181.861 133.817 173.419 133.817 117.103 207.183"/>
    <path class="cls-5" d="M64.375,235.814l9.134-12.297s.861,3.937,1.489,6.434c.578,2.297,1.582,5.863,1.582,5.863h-12.205ZM33.562,266.538l6.64.026,17.86-23.342h20.817l3.278,8.824-11.772,14.491h10.408l4.226-6.499s1.051,1.697,1.481,2.888c.528,1.463.753,3.919.753,3.919h11.274l4.281-5.783s.943,1.687,1.409,3.176c.465,1.488.745,2.606.745,2.606h13.693l-1.861-3.165-5.131-14.543,4.479-5.956h19.838l6.806,20.22s.373.931.186,1.862c-.186.93-.186,1.582-.186,1.582h14.345s-.838-1.397-1.489-3.072c-.955-2.453-15.276-49.947-15.276-49.947l-.186-2.513h-11.74s-.476,1.328-.845,2.151c-2.797,6.238-18.724,26.087-18.724,26.087l-1.583-5.969,17.801-22.175h-11.471l-.094,1.304-9.866,13.321-4.013-12.763v-1.862h-13.322l8.389,24.689-3.642,4.758-8.376-27.12v-2.327h-11.832s.025.621-1.117,3.258c-1.533,3.533-28.639,38.367-36.181,48.029v3.846h0ZM93.679,248.852l3.812-4.764,2.512,7.276-4.159,5.111-2.165-7.623h0ZM121.633,235.814l9.133-12.297s.862,3.937,1.489,6.434c.577,2.297,1.582,5.863,1.582,5.863h-12.205Z"/>
  </g>
</svg>