<?xml version="1.0" encoding="UTF-8"?>
<svg id="Layer_1" data-name="Layer 1" xmlns="http://www.w3.org/2000/svg" viewBox="0 0 500 500">
  <defs>
    <style>
      .cls-1 {
        fill: #576062;
      }

      .cls-1, .cls-2, .cls-3 {
        stroke-width: 0px;
      }

      .cls-2 {
        fill: #b42655;
      }

      .cls-3 {
        fill: #3c474c;
      }
    </style>
  </defs>
  <g id="bereket-1">
    <path id="bereket" class="cls-3" d="M36.507,246.768H10.713v-59.182h24.539c2.74-.038,5.466.386,8.065,1.255,2.223.722,4.266,1.909,5.994,3.483,1.594,1.498,2.818,3.346,3.577,5.397.854,2.233,1.28,4.607,1.255,6.998,0,1.536-.287,3.058-.847,4.487-.418,1.239-1.009,2.411-1.757,3.483-.595.883-1.326,1.667-2.165,2.322l-1.726,1.412,2.165,1.506c.912.692,1.725,1.504,2.416,2.416.84,1.131,1.486,2.392,1.914,3.734.598,1.68.875,3.458.816,5.24.055,2.561-.426,5.104-1.412,7.468-1.787,4.218-5.311,7.456-9.665,8.881-2.382.763-4.873,1.134-7.374,1.098ZM25.273,223.328v10.387h9.822c1.574.189,3.136-.438,4.142-1.663.774-1.066,1.181-2.354,1.161-3.671,0-1.256-.407-2.478-1.161-3.483-1.006-1.225-2.568-1.852-4.142-1.663l-9.822.094ZM25.273,200.64v9.634h9.194c1.518.196,3.038-.353,4.079-1.475.68-.974,1.032-2.139,1.004-3.326-.008-1.144-.407-2.251-1.13-3.138-.961-1.175-2.442-1.798-3.954-1.663l-9.194-.031ZM65.031,246.768v-59.182h40.229v12.96h-25.7v9.916h21.966v12.96h-21.966v10.387h25.7v12.96h-40.229ZM130.082,246.768h-14.529v-59.182h23.441c2.972-.065,5.924.502,8.661,1.663,2.375.94,4.516,2.386,6.276,4.236,1.694,1.753,3.026,3.821,3.922,6.088.877,2.25,1.324,4.645,1.318,7.06.027,1.86-.281,3.71-.91,5.46-.5,1.585-1.252,3.079-2.228,4.425-.886,1.25-1.942,2.369-3.138,3.326-1.027.888-2.166,1.638-3.389,2.228l12.803,24.696h-16.82l-10.481-21.966h-4.927v21.966ZM130.082,200.64v12.05h8.253c3.293.338,6.236-2.057,6.575-5.35.338-3.293-2.057-6.236-5.35-6.575-.198-.02-.398-.031-.597-.031h-8.881v-.094ZM169.777,246.768v-59.182h40.229v12.96h-25.7v9.916h21.966v12.96h-21.966v10.387h25.7v12.96h-40.229ZM253.311,246.768l-13.65-24.257-4.989,5.868v18.546h-14.372v-59.339h14.372v20.962l17.133-20.962h17.792l-20.209,23.943,20.868,35.24h-16.945ZM276.249,246.768v-59.182h40.229v12.96h-25.669v9.916h21.966v12.96h-21.966v10.387h25.669v12.96h-40.229ZM352.408,200.546v46.223h-14.56v-46.223h-14.529v-12.96h43.775v12.96h-14.686Z"/>
    <path id="icon" class="cls-2" d="M440.774,312.352c-11.922.034-23.427-4.387-32.259-12.395l-11.108,11.077-17.541-17.541,12.552-12.96v-92.947h25.543v33.953c6.987-3.975,14.901-6.032,22.939-5.962,26.724,0,48.388,21.664,48.388,48.388s-21.664,48.388-48.388,48.388h-.125ZM435.408,240.367l-5.115,2.918-5.429,3.138c-3.945,2.55-6.439,6.827-6.715,11.516v13.117c.246,4.691,2.703,8.988,6.621,11.579l5.397,3.138,5.366,3.138c4.189,2.135,9.147,2.135,13.336,0l5.429-3.138,5.397-3.138c3.945-2.55,6.439-6.827,6.715-11.516v-12.991c-.231-4.696-2.691-8.999-6.621-11.579l-5.397-3.138-4.707-2.73c.636-2.927,2.07-5.62,4.142-7.782-.697-.183-1.413-.289-2.134-.314-2.248.092-4.315,1.26-5.554,3.138,0-.251,0-.565-.188-.91-.377-2.165-1.036-5.805-3.138-5.805h0c-2.353.157-3.797,6.59-3.797,6.653-1.043-1.574-2.76-2.572-4.644-2.699-.932-.005-1.842.28-2.605.816,2.073,1.675,3.404,4.098,3.703,6.747h0l-.063-.157Z"/>
    <path id="text_sigorta" data-name="text sigorta" class="cls-1" d="M25.383,312.352l-3.138-.69c-2.109-.452-4.161-1.136-6.119-2.04-1.908-.881-3.691-2.01-5.303-3.358l4.299-6.276c1.849,1.583,3.978,2.807,6.276,3.609,2.398.848,4.925,1.272,7.468,1.255,2.672.104,5.319-.561,7.625-1.914,1.747-1.03,2.794-2.931,2.73-4.958h0c.108-1.338-.309-2.666-1.161-3.703-.855-.915-1.938-1.587-3.138-1.946-1.659-.497-3.346-.895-5.052-1.192h-1.004c-2.738-.434-5.436-1.095-8.065-1.977-2.156-.778-4.041-2.162-5.429-3.985-1.621-2.388-2.404-5.246-2.228-8.127h0c-.051-2.771.677-5.5,2.102-7.876,1.462-2.25,3.575-4.001,6.056-5.021,3.042-1.212,6.297-1.799,9.571-1.726,1.779-.027,3.557.13,5.303.471,1.777.409,3.511.987,5.178,1.726,1.731.777,3.381,1.723,4.927,2.824l-3.891,6.621c-1.767-1.314-3.711-2.37-5.774-3.138-1.835-.696-3.78-1.057-5.743-1.067-2.514-.159-5.018.442-7.186,1.726-1.645,1.031-2.614,2.861-2.542,4.801h0c-.07,1.351.405,2.673,1.318,3.671.928.908,2.057,1.585,3.295,1.977,1.807.532,3.64.972,5.491,1.318h1.255c2.596.47,5.14,1.195,7.594,2.165,2.047.879,3.816,2.3,5.115,4.111,1.477,2.293,2.191,4.996,2.04,7.719h0c.084,2.769-.658,5.5-2.134,7.845-1.544,2.248-3.732,3.976-6.276,4.958-3.157,1.231-6.529,1.818-9.916,1.726l-3.546.471ZM78.917,311.819h-8.222v-48.921h8.222v48.921ZM70.759,250.66h8.065v8.159h-8.065v-8.159ZM139.543,284.864v9.069c.089,3.381-.655,6.733-2.165,9.759-1.42,2.71-3.601,4.946-6.276,6.433-2.81,1.559-5.981,2.349-9.194,2.291-3.218.066-6.402-.679-9.257-2.165-2.637-1.35-4.819-3.445-6.276-6.025-1.517-2.778-2.285-5.904-2.228-9.069v-14.529c-.062-3.332.692-6.629,2.197-9.602,1.42-2.71,3.601-4.946,6.276-6.433,2.81-1.559,5.981-2.349,9.194-2.291,2.742-.016,5.449.607,7.908,1.82,2.426,1.153,4.528,2.888,6.119,5.052,1.64,2.283,2.765,4.896,3.295,7.657h-8.692c-.346-1.293-.991-2.486-1.883-3.483-.863-.964-1.937-1.716-3.138-2.197-1.154-.52-2.406-.788-3.671-.784-1.7-.034-3.375.412-4.833,1.287-1.356.866-2.443,2.094-3.138,3.546-.781,1.679-1.167,3.515-1.13,5.366v14.466c-.047,1.675.354,3.333,1.161,4.801.725,1.324,1.814,2.413,3.138,3.138,1.525.774,3.217,1.162,4.927,1.13,1.698.034,3.374-.377,4.864-1.192,1.36-.835,2.449-2.044,3.138-3.483.839-1.591,1.311-3.349,1.381-5.146v-1.506h-8.692v-7.908h16.977ZM171.425,309.968c-2.668-1.424-4.852-3.608-6.276-6.276-1.505-2.906-2.26-6.142-2.197-9.414v-13.901c-.063-3.272.692-6.508,2.197-9.414,1.433-2.661,3.615-4.843,6.276-6.276,5.759-3.013,12.629-3.013,18.389,0,2.652,1.444,4.832,3.624,6.276,6.276,1.479,2.914,2.223,6.146,2.165,9.414v13.901c.057,3.268-.686,6.5-2.165,9.414-1.433,2.661-3.615,4.843-6.276,6.276-5.759,3.013-12.629,3.013-18.389,0ZM185.483,303.001c1.363-.816,2.455-2.017,3.138-3.452.784-1.611,1.171-3.386,1.13-5.178v-14.215c.042-1.791-.346-3.567-1.13-5.178-.692-1.428-1.782-2.627-3.138-3.452-1.484-.833-3.163-1.255-4.864-1.224-1.702-.039-3.383.384-4.864,1.224-1.363.816-2.455,2.017-3.138,3.452-.795,1.608-1.193,3.384-1.161,5.178v14.341c-.032,1.794.366,3.569,1.161,5.178.675,1.44,1.769,2.643,3.138,3.452,1.481.84,3.162,1.263,4.864,1.224,1.669.015,3.314-.407,4.77-1.224l.094-.126ZM223.171,262.898h8.065v48.921h-8.065v-48.921ZM226.528,284.016h16.882c1.104.044,2.196-.24,3.138-.816.882-.574,1.58-1.392,2.008-2.353.494-1.117.75-2.325.753-3.546.016-1.21-.23-2.409-.722-3.515-.421-.958-1.121-1.767-2.008-2.322-.933-.6-2.03-.896-3.138-.847h-16.914v-7.719h17.071c2.543-.061,5.055.556,7.28,1.789,2.092,1.181,3.794,2.948,4.895,5.084,1.194,2.327,1.787,4.916,1.726,7.531.066,2.622-.516,5.219-1.695,7.563-1.117,2.116-2.815,3.869-4.895,5.052-2.227,1.226-4.738,1.843-7.28,1.789h-17.102v-7.688ZM238.359,290.292l8.347-1.569,12.897,23.284h-9.728l-11.516-21.715ZM276.768,262.898h35.271v7.719h-35.271v-7.719ZM290.386,266.883h8.033v44.936h-8.033v-44.936ZM344.015,262.898h5.868l18.389,48.984h-8.567l-12.552-36.432-12.552,36.495h-8.661l18.075-49.047ZM334.256,294.874h25.794v7.719h-25.794v-7.719Z"/>
  </g>
</svg>