<?xml version="1.0" encoding="UTF-8"?>
<svg id="Layer_1" data-name="Layer 1" xmlns="http://www.w3.org/2000/svg" viewBox="0 0 800 500">
  <defs>
    <style>
      .cls-1 {
        fill: #576062;
      }

      .cls-1, .cls-2, .cls-3 {
        stroke-width: 0px;
      }

      .cls-2 {
        fill: #b42655;
      }

      .cls-3 {
        fill: #3c474c;
      }
    </style>
  </defs>
  <g id="bereket-2">
    <path id="bereket" class="cls-3" d="M53.194,244.75H11.293v-96.138h39.862c4.45-.062,8.879.627,13.1,2.039,3.611,1.173,6.93,3.102,9.736,5.658,2.589,2.434,4.578,5.435,5.811,8.768,1.387,3.628,2.079,7.484,2.039,11.367.001,2.495-.465,4.967-1.376,7.289-.678,2.012-1.639,3.917-2.855,5.658-.967,1.434-2.154,2.707-3.517,3.772l-2.804,2.294,3.517,2.447c1.481,1.123,2.802,2.444,3.925,3.925,1.364,1.837,2.414,3.886,3.109,6.066.972,2.729,1.422,5.617,1.325,8.513.089,4.16-.693,8.292-2.294,12.132-2.902,6.852-8.628,12.112-15.7,14.426-3.87,1.24-7.916,1.842-11.979,1.784ZM34.945,206.672v16.873h15.955c2.557.307,5.094-.712,6.729-2.702,1.257-1.732,1.919-3.824,1.886-5.964,0-2.04-.662-4.026-1.886-5.658-1.635-1.99-4.172-3.009-6.729-2.702l-15.955.153ZM34.945,169.818v15.649h14.936c2.466.319,4.934-.574,6.627-2.396,1.104-1.582,1.676-3.475,1.631-5.403-.013-1.859-.66-3.657-1.835-5.097-1.561-1.909-3.966-2.921-6.423-2.702l-14.936-.051ZM99.53,244.75v-96.138h65.349v21.053h-41.748v16.108h35.682v21.053h-35.682v16.873h41.748v21.053h-65.349ZM205.201,244.75h-23.601v-96.138h38.078c4.828-.106,9.624.815,14.069,2.702,3.857,1.527,7.336,3.875,10.195,6.882,2.751,2.847,4.916,6.207,6.372,9.889,1.425,3.655,2.151,7.546,2.141,11.469.044,3.021-.456,6.026-1.478,8.87-.812,2.575-2.034,5.002-3.619,7.187-1.439,2.03-3.155,3.848-5.097,5.403-1.668,1.443-3.519,2.66-5.505,3.619l20.798,40.117h-27.322l-17.026-35.682h-8.003v35.682ZM205.201,169.818v19.574h13.406c5.349.549,10.131-3.342,10.68-8.691.549-5.349-3.342-10.131-8.691-10.68-.322-.033-.646-.05-.97-.051h-14.426v-.153ZM269.683,244.75v-96.138h65.349v21.053h-41.748v16.108h35.682v21.053h-35.682v16.873h41.748v21.053h-65.349ZM405.378,244.75l-22.174-39.403-8.105,9.532v30.126h-23.346v-96.393h23.346v34.051l27.832-34.051h28.903l-32.828,38.894,33.898,57.244h-27.526ZM442.64,244.75v-96.138h65.349v21.053h-41.697v16.108h35.682v21.053h-35.682v16.873h41.697v21.053h-65.349ZM566.356,169.665v75.086h-23.652v-75.086h-23.601v-21.053h71.11v21.053h-23.856Z"/>
    <path id="icon" class="cls-2" d="M709.9,351.287c-19.366.055-38.055-7.126-52.402-20.135l-18.045,17.994-28.495-28.495,20.39-21.053v-150.987h41.493v55.155c11.35-6.457,24.205-9.798,37.262-9.685,43.411,0,78.603,35.192,78.603,78.603s-35.192,78.603-78.603,78.603h-.204ZM701.183,234.352l-8.309,4.741-8.819,5.097c-6.408,4.143-10.459,11.09-10.909,18.708v21.307c.399,7.621,4.39,14.6,10.756,18.81l8.768,5.097,8.717,5.097c6.805,3.468,14.859,3.468,21.664,0l8.819-5.097,8.768-5.097c6.408-4.143,10.459-11.09,10.909-18.708v-21.103c-.375-7.628-4.372-14.618-10.756-18.81l-8.768-5.097-7.646-4.435c1.033-4.754,3.362-9.13,6.729-12.642-1.133-.298-2.295-.469-3.466-.51-3.652.15-7.009,2.047-9.023,5.097,0-.408,0-.918-.306-1.478-.612-3.517-1.682-9.43-5.097-9.43h0c-3.823.255-6.168,10.705-6.168,10.807-1.694-2.558-4.484-4.179-7.544-4.384-1.514-.008-2.992.455-4.231,1.325,3.368,2.72,5.529,6.658,6.015,10.96h0l-.102-.255Z"/>
    <path id="text_sigorta" data-name="text sigorta" class="cls-1" d="M35.125,351.287l-5.097-1.121c-3.426-.734-6.759-1.845-9.94-3.313-3.099-1.431-5.996-3.265-8.615-5.454l6.984-10.195c3.004,2.572,6.461,4.56,10.195,5.862,3.895,1.377,8,2.067,12.132,2.039,4.341.168,8.64-.911,12.387-3.109,2.838-1.674,4.538-4.761,4.435-8.054h0c.175-2.174-.501-4.33-1.886-6.015-1.389-1.487-3.148-2.578-5.097-3.16-2.695-.808-5.435-1.454-8.207-1.937h-1.631c-4.448-.705-8.83-1.779-13.1-3.211-3.502-1.263-6.564-3.511-8.819-6.474-2.633-3.88-3.906-8.523-3.619-13.202h0c-.084-4.501,1.1-8.934,3.415-12.795,2.375-3.655,5.807-6.499,9.838-8.156,4.942-1.969,10.229-2.923,15.547-2.804,2.89-.044,5.777.212,8.615.765,2.886.665,5.703,1.604,8.411,2.804,2.812,1.262,5.493,2.799,8.003,4.588l-6.321,10.756c-2.87-2.134-6.028-3.85-9.379-5.097-2.981-1.131-6.14-1.718-9.328-1.733-4.084-.258-8.152.719-11.673,2.804-2.672,1.675-4.246,4.648-4.129,7.799h0c-.114,2.194.658,4.343,2.141,5.964,1.508,1.475,3.341,2.575,5.352,3.211,2.935.865,5.913,1.579,8.921,2.141h2.039c4.218.763,8.35,1.941,12.336,3.517,3.326,1.428,6.199,3.737,8.309,6.678,2.4,3.726,3.56,8.115,3.313,12.54h0c.137,4.498-1.07,8.935-3.466,12.744-2.509,3.651-6.062,6.459-10.195,8.054-5.128,2-10.605,2.954-16.108,2.804l-5.76.765ZM122.087,350.421h-13.355v-79.469h13.355v79.469ZM108.834,251.071h13.1v13.253h-13.1v-13.253ZM220.57,306.634v14.732c.144,5.493-1.064,10.937-3.517,15.853-2.307,4.403-5.85,8.035-10.195,10.45-4.564,2.533-9.716,3.816-14.936,3.721-5.228.106-10.399-1.103-15.038-3.517-4.283-2.194-7.828-5.597-10.195-9.787-2.465-4.513-3.712-9.59-3.619-14.732v-23.601c-.101-5.413,1.124-10.768,3.568-15.598,2.307-4.403,5.85-8.035,10.195-10.45,4.564-2.533,9.716-3.816,14.936-3.721,4.453-.026,8.852.986,12.846,2.957,3.94,1.872,7.356,4.692,9.94,8.207,2.665,3.709,4.491,7.953,5.352,12.438h-14.12c-.562-2.1-1.61-4.038-3.058-5.658-1.402-1.566-3.146-2.787-5.097-3.568-1.874-.845-3.908-1.279-5.964-1.274-2.761-.056-5.482.669-7.85,2.09-2.203,1.407-3.969,3.402-5.097,5.76-1.268,2.728-1.896,5.709-1.835,8.717v23.499c-.077,2.721.574,5.414,1.886,7.799,1.178,2.151,2.947,3.92,5.097,5.097,2.477,1.257,5.225,1.888,8.003,1.835,2.758.055,5.482-.613,7.901-1.937,2.209-1.356,3.979-3.321,5.097-5.658,1.364-2.584,2.13-5.44,2.243-8.36v-2.447h-14.12v-12.846h27.577ZM272.36,347.413c-4.334-2.312-7.883-5.861-10.195-10.195-2.445-4.721-3.671-9.977-3.568-15.292v-22.582c-.103-5.315,1.124-10.572,3.568-15.292,2.327-4.323,5.872-7.868,10.195-10.195,9.355-4.895,20.516-4.895,29.871,0,4.309,2.346,7.849,5.886,10.195,10.195,2.403,4.734,3.611,9.984,3.517,15.292v22.582c.093,5.308-1.114,10.558-3.517,15.292-2.327,4.323-5.872,7.868-10.195,10.195-9.355,4.895-20.516,4.895-29.871,0ZM295.197,336.097c2.214-1.326,3.988-3.277,5.097-5.607,1.274-2.617,1.903-5.501,1.835-8.411v-23.091c.068-2.91-.561-5.794-1.835-8.411-1.125-2.32-2.894-4.267-5.097-5.607-2.41-1.353-5.137-2.039-7.901-1.988-2.765-.064-5.496.623-7.901,1.988-2.214,1.326-3.988,3.277-5.097,5.607-1.291,2.613-1.938,5.497-1.886,8.411v23.295c-.052,2.914.595,5.798,1.886,8.411,1.097,2.339,2.873,4.293,5.097,5.607,2.405,1.365,5.136,2.052,7.901,1.988,2.712.024,5.383-.661,7.748-1.988l.153-.204ZM356.418,270.951h13.1v79.469h-13.1v-79.469ZM361.872,305.257h27.424c1.793.072,3.567-.389,5.097-1.325,1.433-.933,2.566-2.261,3.262-3.823.802-1.815,1.219-3.776,1.223-5.76.026-1.965-.374-3.913-1.172-5.709-.684-1.557-1.821-2.871-3.262-3.772-1.516-.975-3.297-1.456-5.097-1.376h-27.475v-12.54h27.73c4.13-.1,8.212.903,11.826,2.906,3.399,1.919,6.162,4.789,7.952,8.258,1.94,3.781,2.903,7.986,2.804,12.234.107,4.259-.838,8.479-2.753,12.285-1.814,3.438-4.573,6.285-7.952,8.207-3.618,1.991-7.697,2.993-11.826,2.906h-27.781v-12.489ZM381.089,315.452l13.559-2.549,20.951,37.823h-15.802l-18.708-35.274ZM443.482,270.951h57.295v12.54h-57.295v-12.54ZM465.605,277.425h13.049v72.996h-13.049v-72.996ZM552.721,270.951h9.532l29.871,79.571h-13.916l-20.39-59.182-20.39,59.283h-14.069l29.361-79.673ZM536.868,322.895h41.901v12.54h-41.901v-12.54Z"/>
  </g>
</svg>