<?xml version="1.0" encoding="UTF-8"?>
<svg id="Layer_1" data-name="Layer 1" xmlns="http://www.w3.org/2000/svg" viewBox="0 0 500 500">
  <defs>
    <style>
      .cls-1 {
        fill: #fff;
      }

      .cls-1, .cls-2, .cls-3 {
        stroke-width: 0px;
      }

      .cls-2 {
        fill: #831d19;
      }

      .cls-3 {
        fill: #737575;
      }
    </style>
  </defs>
  <g id="Corpus-1">
    <path class="cls-2" d="M227.095,128.798c12.284-.014,20.595,1.96,28.442,5.893.236.118.467.25.71.354,1.347.574,2.601.15,3.383-1.172.741-1.253.091-2.078-.896-2.804-10.112-7.435-21.431-11.791-33.888-13.238-3.422-.398-6.857-.548-10.302-.426-.77.027-1.592.038-1.679-.979-.078-.911.672-1.068,1.372-1.215,20.237-4.262,39.135-1.077,56.489,10.293,4.962,3.251,5.399,9.715,1.076,13.798-6.844,6.465-13.748,12.867-20.648,19.271-2.75,2.552-6.124,2.708-9.463.638-8.866-5.498-18.256-6.398-27.756-2.19-10.086,4.467-16.058,12.334-16.026,23.575.033,11.241,6.041,19.106,16.164,23.479,10.705,4.624,20.904,3.056,30.145-4.101,3.515-2.722,7.19-2.673,10.438.349,5.615,5.224,11.23,10.448,16.828,15.691,4.756,4.454,4.242,10.846-1.17,14.408-9.162,6.03-19.198,9.735-30.08,11.153-.262.034-.522.094-.785.114-.471.036-.862-.141-.999-.604-.151-.513.214-.776.628-.942.441-.178.896-.32,1.345-.478,9.055-3.189,17.12-8.014,24.137-14.565,1.664-1.554,1.666-2.36.03-3.903-4.105-3.87-3.22-3.409-7.696-1.001-11.619,6.252-23.962,7.993-36.917,5.675-.312-.056-.624-.122-.929-.21-.443-.128-.791-.382-.696-.898.09-.489.478-.67.943-.664.529.007,1.058.049,1.587.064,11.693.333,22.241-2.937,31.565-10.025,2.035-1.547,1.874-2.218.185-4.182-2.269-2.64-4.356-2.827-7.661-1.452-11.802,4.91-23.468,4.014-34.369-2.672-21.547-13.216-21.577-42.635-.103-55.967,10.129-6.289,21-7.301,32.33-3.68.553.177,1.088.431,1.653.55,1.35.286,2.291-.353,2.772-1.546.462-1.145-.191-1.902-1.173-2.434-3.881-2.105-7.961-3.71-12.281-4.627-14.843-3.153-28.471-.455-40.755,8.562-.654.48-1.33,1.096-2.073.289-.776-.843-.016-1.441.534-1.994,10.766-10.842,23.894-16.005,35.59-16.186Z"/>
    <path class="cls-3" d="M128.831,278.141c7.735.041,14.83,1.968,20.964,6.913,9.7,7.82,12.547,27.819-2.567,37.961-13.083,8.779-31.914,5.926-41.609-2.398-7.533-6.468-9-14.731-6.692-23.908,2.328-9.255,8.874-14.296,17.668-16.881,3.985-1.171,8.077-1.667,12.236-1.687ZM147.805,302.344c-.037-1.168-.093-3.333-.458-5.476-.436-2.558-1.074-5.056-2.177-7.421-3.267-7.003-9.189-10.262-18.065-9.928-9.393.354-15.303,5.073-17.713,14.133-.531,1.998-.797,4.038-.986,6.089-.595,6.48.288,12.677,3.906,18.231,4.474,6.868,11.118,9.43,19.005,8.715,7.229-.656,11.699-5.155,14.433-11.577,1.598-3.754,2.135-7.715,2.055-12.767Z"/>
    <path class="cls-3" d="M222.457,302.248c6.331,1.482,9.437,6.138,11.812,11.524,1.107,2.51,2.152,5.048,3.249,7.563,1.198,2.746,2.841,4.98,6.199,5.137.435.02.716.197.696.665-.022.538-.435.516-.806.51-4.655-.075-9.309-.166-13.965-.222-.735-.009-.825-.38-.886-.988-.529-5.301-2.152-10.311-4.176-15.202-.75-1.812-1.754-3.49-3.085-4.953-1.647-1.811-3.617-2.861-6.147-2.749-1.319.059-2.646.003-3.967-.057-.825-.037-1.105.277-1.094,1.1.084,6.231.104,12.463.213,18.693.032,1.838.82,2.542,2.653,2.676.949.07,1.903.069,2.853.121.545.03,1.229-.152,1.181.815-.047.936-.695.768-1.251.738-5.393-.295-10.79-.27-16.186-.213-1.427.015-2.853.111-4.281.148-.44.012-.996.199-1.057-.568-.065-.818.478-.796,1.029-.806,1.27-.025,2.537-.081,3.786-.353,1.935-.422,2.401-.905,2.509-2.864.483-8.758.46-17.525.406-26.292-.023-3.802-.193-7.605-.15-11.405.02-1.806-.709-2.761-2.421-3.1-.933-.185-1.862-.392-2.786-.62-.517-.128-1.253-.004-1.195-.913.063-.998.821-.627,1.313-.625,6.032.015,12.063.029,18.094.104,2.849.035,5.715-.309,8.545.314,3.226.71,6.101,2.082,8.408,4.488,4.174,4.354,3.784,9.912-.929,13.658-2.507,1.993-5.409,3.033-8.566,3.677ZM210.462,291.684c0,2.901.032,5.803-.018,8.703-.017.947.266,1.328,1.246,1.291,1.424-.053,2.853.013,4.28.011,6.593-.011,10.637-4.392,10.131-10.967-.44-5.711-3.681-8.845-9.376-9.016-1.583-.047-3.17.064-4.753.021-1.15-.031-1.569.378-1.535,1.57.081,2.793.026,5.591.026,8.386Z"/>
    <path class="cls-3" d="M291.43,279.823c4.996.188,9.242-.142,13.453.324,4.22.467,7.954,2.134,10.938,5.233,5.394,5.602,4.292,13.961-2.465,17.793-5.388,3.056-11.293,3.358-17.262,2.417-1.566-.247-1.711.137-1.699,1.482.049,5.333.051,10.669-.055,16.001-.034,1.704.734,2.534,2.21,2.985,1.437.439,2.915.478,4.4.477.437,0,1.043-.185,1.044.582,0,.758-.604.596-1.042.594-7.143-.028-14.285-.067-21.428-.105-.526-.003-1.138.092-1.114-.725.021-.718.583-.618,1.047-.629,1.483-.035,2.96-.109,4.406-.486,1.098-.286,1.677-.87,1.697-2.112.218-13.202.194-26.403-.016-39.605-.017-1.078-.476-1.668-1.432-1.996-1.157-.397-2.345-.643-3.564-.732-.566-.041-1.062-.114-.995-.888.064-.745.61-.604,1.054-.605,3.862-.009,7.725-.005,10.82-.005ZM294.423,292.78c0,3.222.057,6.446-.03,9.665-.033,1.209.324,1.745,1.544,1.747,1.692.003,3.388.157,5.075.084,4.199-.183,7.264-2.521,8.712-6.47,1.017-2.775.916-5.632.476-8.452-.704-4.505-3.231-6.773-7.816-7.413-2.27-.316-4.543-.12-6.814-.185-.907-.026-1.177.311-1.165,1.2.044,3.274.018,6.549.018,9.824Z"/>
    <path class="cls-3" d="M485.371,286.393c0,2.113-.012,4.225.007,6.338.006.649-.041,1.111-.903,1.104-.801-.007-.981-.405-1.017-1.073-.025-.472-.194-.94-.192-1.41.036-8.125-7.786-12.063-13.947-11.849-3.729.13-6.574,1.856-8.482,5.025-1.482,2.461-1.378,4.922.371,7.254,1.973,2.63,4.73,4.199,7.675,5.435,2.532,1.063,5.165,1.884,7.71,2.918,3.405,1.383,6.487,3.284,9.226,5.773,6.261,5.689,4.413,16.378-2.897,19.985-2.945,1.453-6.045,2.205-9.272,2.559-5.991.657-11.75.101-16.874-3.431-.839-.578-1.427-.394-2.112.137-.684.53-1.182,1.205-1.623,1.929-.425.698-1.102.558-1.707.481-.701-.089-.497-.713-.491-1.146.051-3.907.122-7.814.19-11.721.008-.469-.077-.996.674-.977.579.015,1.168-.106,1.321.74.121.67.363,1.322.582,1.971,2.235,6.628,6.333,9.798,13.329,10.272,2.553.173,5.085,0,7.517-.87,3.393-1.213,5.29-3.62,5.93-7.175.661-3.675-.712-6.382-3.599-8.502-2.638-1.937-5.641-3.101-8.735-4.054-3.569-1.1-6.939-2.583-9.855-4.961-6.03-4.919-7.061-12.82-2.374-18.388,2.351-2.793,5.584-3.899,9.049-4.458,5.606-.905,10.877-.227,15.44,3.479.663.538,1.255.489,1.857.039.46-.344.855-.775,1.277-1.169.564-.526.628-1.898,1.749-1.431.962.4.36,1.498.4,2.269.083,1.632.025,3.27.025,4.906-.083,0-.165,0-.248,0Z"/>
    <path class="cls-3" d="M60.243,286.23c0,2.219.005,4.438-.004,6.656-.002.564.126,1.187-.812,1.203-.726.012-.983-.258-1.156-.947-1.838-7.357-7.123-10.619-14.157-11.724-2.409-.378-4.844-.531-7.28-.259-6.323.706-10.54,4.233-12.734,10.031-3.099,8.186-3.215,16.554-.435,24.837,2.069,6.167,6.539,9.753,13.047,10.531,6.61.79,12.817-.038,17.714-5.174,1.879-1.971,3.205-4.318,4.449-6.717.258-.497.389-1.397,1.298-.664.587.473,1.561.597.919,1.871-4.278,8.498-10.967,13.247-20.642,13.334-6.938.063-13.617-1.115-19.574-4.927-6.744-4.316-10.084-10.59-10.452-18.528-.348-7.506,1.651-14.126,7.368-19.288,4.073-3.676,8.986-5.693,14.308-6.791,6.301-1.3,12.521-1.042,18.619,1.083,1.093.381,2.155.884,3.17,1.443,1.45.798,2.316.609,3.065-.884.233-.464.355-.993.466-1.506.304-1.395,1.026-1.811,2.442-1.476.788.186.611.749.604,1.242-.017,1.108-.089,2.216-.109,3.324-.02,1.109-.004,2.219-.004,3.328-.037,0-.074,0-.11,0Z"/>
    <path class="cls-3" d="M399.465,299.014c0-4.911-.022-9.823.016-14.734.009-1.158-.503-1.726-1.557-2.036-1.479-.436-2.988-.678-4.507-.894-.483-.069-1.19.077-1.128-.746.058-.777.712-.474,1.114-.45,5.501.325,11.001.333,16.502.001.456-.028,1.107-.316,1.178.583.068.862-.471.899-1.098.951-1.856.155-3.641.612-5.394,1.244-.821.296-1.127.742-1.15,1.621-.209,8.03-.18,16.06.07,24.088.069,2.23-.065,4.438-.556,6.611-1.598,7.064-6.065,11.327-13.038,12.96-6.154,1.441-12.217.912-18.061-1.478-7.165-2.93-10.94-8.796-10.719-16.518.133-4.646.32-9.29.535-13.933.191-4.123-.086-8.237-.114-12.355-.006-.932-.489-1.32-1.246-1.579-1.561-.534-3.18-.783-4.807-1.004-.489-.066-1.216.07-1.172-.715.048-.872.803-.497,1.241-.475,6.772.336,13.542.33,20.314.002.488-.024,1.248-.407,1.325.59.077.997-.665.884-1.283.945-1.426.141-2.821.401-4.17.916-.908.346-1.324.924-1.326,1.907-.024,9.931-.332,19.869.272,29.789.465,7.627,4.535,11.576,12.139,12.262,2.019.182,4.022.115,6.018-.145,6.435-.841,10.194-5.211,10.744-12.515.373-4.959.084-9.93-.143-14.894Z"/>
    <path class="cls-3" d="M243.113,357.181c3.348-.088,6.52.626,9.475,2.192,9.059,4.798,9.889,17.426,1.549,23.374-7.078,5.048-18.538,4.31-24.902-1.603-6.265-5.821-4.743-17.084,2.885-21.352,3.033-1.697,6.788-2.588,10.993-2.611ZM254.183,371.691c-.124-1.205-.219-2.414-.375-3.615-.987-7.6-6.509-11.432-14.012-9.776-2.595.573-4.722,1.816-6.2,4.048-3.284,4.959-3.032,13.735.573,18.461,2.773,3.635,6.613,4.839,10.975,4.226,3.922-.551,6.33-3.135,7.787-6.683.875-2.131,1.203-4.361,1.254-6.661Z"/>
    <path class="cls-3" d="M296.995,371.038c4.596,1.317,6.127,4.808,7.596,8.352.263.634.533,1.265.788,1.901.795,1.981,1.809,3.729,4.196,3.789.075.472-.089.592-.317.59-2.54-.02-5.08-.082-7.619-.06-.941.008-.953-.56-1.045-1.216-.405-2.893-1.239-5.673-2.421-8.335-1.539-3.464-3.151-4.396-6.926-4.304-.86.021-1.235.226-1.214,1.158.071,3.273.084,6.548.103,9.823.008,1.37.632,2.066,2.041,1.999.369-.018.741.008,1.111.024.316.014.699.007.704.439.005.411-.342.467-.678.466-3.915-.009-7.83-.017-11.746-.029-.264,0-.591.002-.642-.317-.072-.452.318-.438.622-.498q3.598-.709,3.685-4.411c.148-6.18.078-12.359.048-18.539-.008-1.622-.616-2.334-2.109-2.518-.209-.026-.424-.06-.619-.137-.36-.141-1.004,0-.963-.59.044-.627.642-.385,1.02-.387,1.323-.008,2.646.03,3.969.029,2.964-.002,5.928-.045,8.891-.016,2.514.024,4.817.74,6.692,2.473,2.961,2.736,2.667,6.298-.649,8.583-1.222.842-2.59,1.322-4.516,1.73ZM290.079,364.988v2.374q0,3.543,3.563,3.398c2.699-.11,4.608-1.561,5.26-3.997,1.275-4.764-1.649-7.897-6.94-7.569-1.427.088-2.11.418-1.915,1.999.154,1.247.031,2.529.031,3.795Z"/>
    <path class="cls-3" d="M199.097,373.534c1.905,0,3.81-.006,5.715.006.405.003.928-.065.926.569-.002.515-.461.464-.81.554q-2.908.75-2.915,3.82c0,1.954.052,3.909.02,5.862-.007.455.437,1.156-.331,1.351-.642.163-.632-.574-.899-.922-.224-.292-.396-.636-.661-.883-.937-.878-1.787-1.229-2.997-.174-6.46,5.63-22.09,2.981-24.488-7.588-1.421-6.264.47-14.156,9.018-17.2,5.37-1.912,10.674-2.175,15.658,1.17.987.662,1.56.288,2.058-.536.244-.403.43-.847.59-1.292.16-.443.473-.502.874-.48.54.031.532.415.527.787-.028,2.482-.07,4.964-.087,7.447-.004.528-.213.781-.74.791-.443.008-.864-.003-.993-.551-.024-.103-.04-.208-.072-.308-2.179-6.671-10.196-9.427-16.108-5.528-1.55,1.022-2.666,2.436-3.277,4.17-1.606,4.558-1.948,9.201-.348,13.818,2.409,6.949,11.002,9.051,16.53,4.126.587-.523.96-1.089.922-1.909-.029-.631.039-1.266.045-1.9.032-3.424-.071-3.528-3.516-4.076-.453-.072-1.265.239-1.247-.569.021-.945.884-.52,1.366-.535,1.745-.055,3.492-.022,5.238-.021Z"/>
    <path class="cls-3" d="M113.502,362.045c0,.898.04,1.798-.015,2.692-.032.519.327,1.378-.488,1.449-.979.085-.609-.918-.766-1.442-.225-.752-.2-1.583-.457-2.32-1.389-3.975-7.611-5.783-10.962-3.219-2.649,2.028-2.74,4.814-.192,6.952,1.605,1.346,3.503,2.147,5.478,2.793,2.53.828,4.945,1.902,6.983,3.654,4.613,3.967,3.573,10.481-2.158,12.544-4.565,1.643-9.238,1.919-13.613-.783-1.12-.692-1.653-.078-2.215.661-.308.405-.609.788-1.161.562-.52-.213-.316-.729-.317-1.115-.005-1.901.01-3.803.05-5.704.009-.416-.249-1.042.526-1.088.677-.04.68.53.804.975,1.795,6.453,7.094,7.125,11.583,6.132,2.154-.477,3.502-1.857,3.94-4.066.455-2.296-.368-4.012-2.291-5.291-1.472-.979-3.087-1.61-4.761-2.126-2.089-.644-4.057-1.538-5.755-2.94-2.411-1.991-3.446-4.49-2.714-7.598.71-3.015,2.744-4.672,5.67-5.309,3.372-.734,6.657-.657,9.532,1.565,1.062.82,1.61.209,2.213-.525.25-.304.38-.858.938-.614.433.189.247.65.254.993.023,1.056.008,2.112.008,3.168-.038,0-.077,0-.115,0Z"/>
    <path class="cls-3" d="M400.357,385.695c-1.958,0-3.917.005-5.875-.005-.339-.002-.856.153-.866-.39-.009-.528.502-.401.85-.438,2.939-.317,3.353-1.033,2.183-3.784-.91-2.137-1.866-4.256-2.722-6.415-.321-.809-.739-1.133-1.629-1.114-2.54.056-5.083.056-7.623,0-.883-.02-1.311.315-1.669,1.09-1.197,2.588-2.475,5.138-3.714,7.707-.805,1.668-.595,2.1,1.19,2.49.31.068.626.105.939.159.277.048.523.143.464.492-.047.274-.296.272-.496.274-2.858.028-5.716.049-8.575.066-.272.002-.55-.049-.585-.387-.04-.391.181-.582.56-.593,2.643-.076,3.777-1.938,4.852-3.968,3.78-7.143,7.351-14.389,10.936-21.63.287-.579.418-1.285,1.374-1.298,1.005-.014,1.203.675,1.519,1.334,3.376,7.048,6.749,14.098,10.135,21.142,1.03,2.143,2.129,4.222,5.015,4.149.354-.009.607.168.563.583-.065.617-.531.546-.951.546-1.958,0-3.917,0-5.875,0,0-.004,0-.008,0-.011ZM388.648,363.139c-1.443,2.989-2.733,5.696-4.059,8.386-.343.695-.201.934.572.929,2.527-.019,5.055-.007,7.826-.007-1.454-3.119-2.824-6.059-4.339-9.307Z"/>
    <path class="cls-3" d="M341.551,358.171c3.97,0,7.941.032,11.91-.022,1.002-.014,1.408.202,1.366,1.291-.073,1.899.027,3.804.012,5.706-.003.405.27,1.082-.503,1.092-.629.008-.46-.589-.523-.971-.206-1.25-.376-2.507-.911-3.676-.675-1.476-1.714-2.353-3.443-2.296-1.48.049-2.966.027-4.446-.033-.774-.031-.991.238-.987.996.033,7.029.006,14.058.056,21.086.015,2.147.918,3.047,3.029,3.33.366.049.739.054,1.108.083.356.027.85-.047.804.491-.042.504-.536.411-.888.414-1.376.011-2.753.005-4.13.005-3.018,0-6.036.01-9.054-.013-.406-.003-1.115.251-1.056-.522.046-.607.672-.341,1.044-.366,2.935-.195,3.818-1.105,3.838-4.057.045-6.658.049-13.316.142-19.973.016-1.183-.294-1.643-1.5-1.505-.73.084-1.48-.01-2.221-.016-3.331-.03-4.511.798-5.568,3.987-.264.797-.409,1.635-.581,2.46-.072.345-.184.612-.582.608-.418-.004-.521-.291-.512-.641.061-2.271.109-4.542.199-6.812.038-.95.819-.636,1.328-.639,4.023-.021,8.046-.012,12.07-.012v.006Z"/>
    <path class="cls-3" d="M150.782,385.224c-.253.502-.66.385-1.011.388-3.595.032-7.191.065-10.786.071-.376,0-1.039.266-1.076-.276-.049-.713.692-.38,1.088-.468.461-.103.944-.11,1.417-.163,1.003-.114,1.485-.659,1.489-1.684.032-7.442.069-14.885.133-22.327.007-.799-.366-1.151-1.06-1.316-.843-.2-1.686-.397-2.526-.595.165-.744.611-.533.929-.516,3.33.181,6.659.166,9.989.015.376-.017.965-.29,1.052.32.083.584-.512.542-.909.621-2.521.5-2.528.5-2.532,3.095-.011,6.545-.028,13.09-.012,19.634.006,2.318.245,2.52,2.624,2.77.394.041.865-.115,1.192.431Z"/>
    <path class="cls-3" d="M144.398,349.833c1.784-.008,2.979,1.049,2.947,2.604-.032,1.54-1.148,2.519-2.863,2.51-1.572-.008-2.858-1.141-2.903-2.558-.047-1.464,1.149-2.548,2.82-2.556Z"/>
    <path class="cls-1" d="M147.805,302.344c.08,5.052-.457,9.013-2.055,12.767-2.733,6.421-7.204,10.921-14.433,11.577-7.887.715-14.532-1.847-19.005-8.715-3.618-5.555-4.501-11.751-3.906-18.231.188-2.051.454-4.091.986-6.089,2.41-9.06,8.32-13.779,17.713-14.133,8.876-.334,14.799,2.924,18.065,9.928,1.103,2.365,1.741,4.863,2.177,7.421.365,2.142.421,4.307.458,5.476Z"/>
    <path class="cls-1" d="M210.462,291.684c0-2.796.055-5.593-.026-8.386-.035-1.192.384-1.601,1.535-1.57,1.583.043,3.171-.068,4.753-.021,5.696.17,8.936,3.305,9.376,9.016.506,6.575-3.538,10.956-10.131,10.967-1.427.002-2.855-.064-4.28-.011-.98.036-1.263-.344-1.246-1.291.051-2.9.018-5.802.018-8.703Z"/>
    <path class="cls-1" d="M294.423,292.78c0-3.275.027-6.55-.018-9.824-.012-.889.258-1.226,1.165-1.2,2.271.065,4.544-.131,6.814.185,4.585.639,7.112,2.908,7.816,7.413.44,2.82.542,5.677-.476,8.452-1.448,3.949-4.513,6.288-8.712,6.47-1.687.074-3.383-.081-5.075-.084-1.221-.002-1.577-.538-1.544-1.747.087-3.22.03-6.443.029-9.665Z"/>
    <path class="cls-1" d="M254.183,371.691c-.05,2.299-.379,4.53-1.254,6.661-1.456,3.548-3.865,6.132-7.787,6.683-4.362.613-8.202-.591-10.975-4.226-3.605-4.726-3.857-13.503-.573-18.461,1.478-2.232,3.605-3.475,6.2-4.048,7.503-1.656,13.026,2.176,14.012,9.776.156,1.201.252,2.41.375,3.615Z"/>
    <path class="cls-1" d="M290.079,364.988c0-1.266.123-2.548-.031-3.795-.195-1.581.488-1.91,1.915-1.999,5.291-.328,8.215,2.804,6.94,7.569-.652,2.436-2.562,3.887-5.26,3.997q-3.563.145-3.563-3.398c0-.791,0-1.583,0-2.374Z"/>
    <path class="cls-1" d="M388.648,363.139c1.514,3.248,2.885,6.188,4.339,9.307-2.77,0-5.298-.012-7.826.007-.773.006-.914-.233-.572-.929,1.326-2.69,2.616-5.397,4.059-8.386Z"/>
  </g>
</svg>