<?xml version="1.0" encoding="UTF-8"?>
<svg id="Layer_1" data-name="Layer 1" xmlns="http://www.w3.org/2000/svg" viewBox="0 0 800 500">
  <defs>
    <style>
      .cls-1 {
        fill: #fff;
      }

      .cls-1, .cls-2, .cls-3 {
        stroke-width: 0px;
      }

      .cls-2 {
        fill: #831d19;
      }

      .cls-3 {
        fill: #737575;
      }
    </style>
  </defs>
  <g id="Corpus-2">
    <path class="cls-2" d="M59.878,183.346c16.796-.019,28.16,2.68,38.889,8.057.323.162.638.342.97.484,1.842.785,3.556.205,4.625-1.603,1.013-1.713.125-2.841-1.225-3.833-13.826-10.166-29.303-16.122-46.336-18.101-4.679-.544-9.376-.749-14.086-.582-1.052.037-2.177.052-2.296-1.338-.106-1.245.919-1.46,1.876-1.662,27.671-5.828,53.511-1.473,77.24,14.074,6.785,4.445,7.382,13.284,1.472,18.866-9.358,8.839-18.798,17.593-28.233,26.35-3.76,3.489-8.374,3.703-12.939.872-12.123-7.518-24.963-8.748-37.952-2.995-13.791,6.108-21.957,16.865-21.912,32.234.044,15.37,8.26,26.125,22.101,32.104,14.637,6.323,28.583,4.178,41.218-5.607,4.806-3.722,9.832-3.655,14.272.477,7.677,7.143,15.356,14.286,23.01,21.454,6.502,6.09,5.801,14.83-1.599,19.7-12.528,8.245-26.249,13.311-41.129,15.25-.358.047-.714.129-1.073.156-.644.049-1.179-.193-1.366-.826-.207-.702.292-1.061.858-1.288.603-.243,1.226-.437,1.839-.653,12.381-4.361,23.408-10.958,33.003-19.915,2.276-2.125,2.278-3.226.041-5.336-5.612-5.292-4.403-4.661-10.523-1.368-15.887,8.548-32.764,10.929-50.477,7.76-.427-.076-.854-.166-1.27-.287-.605-.176-1.081-.522-.951-1.227.124-.669.653-.916,1.289-.907.723.01,1.446.067,2.169.087,15.988.455,30.41-4.015,43.16-13.708,2.783-2.116,2.562-3.033.253-5.718-3.103-3.61-5.955-3.866-10.475-1.985-16.137,6.713-32.089,5.488-46.993-3.654-29.461-18.07-29.503-58.295-.141-76.526,13.85-8.599,28.713-9.982,44.205-5.031.757.242,1.488.589,2.26.753,1.847.391,3.132-.483,3.79-2.113.631-1.565-.261-2.6-1.604-3.329-5.307-2.878-10.885-5.072-16.792-6.327-20.296-4.311-38.929-.622-55.726,11.707-.894.656-1.819,1.498-2.835.395-1.062-1.153-.021-1.97.73-2.727,14.72-14.824,32.671-21.884,48.663-22.132Z"/>
    <path class="cls-3" d="M296.662,182.557c10.576.057,20.278,2.691,28.665,9.453,13.264,10.692,17.156,38.037-3.509,51.905-17.889,12.004-43.637,8.103-56.893-3.279-10.301-8.843-12.306-20.141-9.15-32.69,3.183-12.654,12.134-19.547,24.158-23.081,5.449-1.602,11.044-2.28,16.73-2.307ZM322.605,215.65c-.051-1.598-.127-4.558-.627-7.487-.596-3.498-1.468-6.913-2.977-10.147-4.467-9.576-12.565-14.031-24.701-13.574-12.843.483-20.924,6.936-24.219,19.324-.727,2.732-1.09,5.521-1.348,8.325-.813,8.861.393,17.333,5.341,24.928,6.117,9.391,15.201,12.894,25.986,11.916,9.885-.897,15.997-7.049,19.735-15.829,2.185-5.132,2.919-10.549,2.809-17.456Z"/>
    <path class="cls-3" d="M424.678,215.519c8.657,2.026,12.904,8.393,16.151,15.757,1.514,3.432,2.942,6.902,4.443,10.34,1.639,3.754,3.884,6.81,8.476,7.024.594.028.978.269.952.91-.03.735-.594.705-1.102.697-6.365-.103-12.729-.226-19.094-.304-1.004-.012-1.128-.519-1.211-1.35-.723-7.248-2.942-14.098-5.71-20.786-1.026-2.478-2.398-4.772-4.218-6.773-2.253-2.476-4.946-3.912-8.405-3.759-1.804.08-3.618.004-5.424-.077-1.128-.051-1.511.378-1.496,1.504.115,8.52.143,17.04.291,25.559.044,2.513,1.122,3.476,3.627,3.659,1.298.095,2.602.094,3.902.166.745.041,1.681-.208,1.615,1.114-.064,1.28-.95,1.05-1.711,1.009-7.374-.404-14.753-.369-22.132-.292-1.951.021-3.902.151-5.853.203-.602.016-1.362.272-1.445-.777-.089-1.118.653-1.088,1.407-1.103,1.737-.034,3.469-.11,5.177-.483,2.645-.577,3.284-1.238,3.431-3.916.661-11.975.629-23.963.555-35.95-.032-5.199-.264-10.398-.206-15.595.027-2.469-.97-3.775-3.311-4.239-1.276-.253-2.546-.537-3.809-.848-.707-.175-1.713-.005-1.634-1.248.086-1.364,1.122-.857,1.795-.855,8.247.02,16.495.04,24.741.142,3.896.048,7.815-.423,11.684.429,4.411.971,8.342,2.846,11.497,6.137,5.708,5.953,5.175,13.552-1.27,18.676-3.429,2.725-7.396,4.148-11.713,5.028ZM408.277,201.074c0,3.967.044,7.934-.025,11.9-.023,1.295.363,1.815,1.704,1.766,1.948-.072,3.901.018,5.851.015,9.014-.014,14.544-6.005,13.852-14.995-.601-7.809-5.032-12.095-12.82-12.327-2.164-.065-4.335.087-6.5.028-1.573-.043-2.146.517-2.098,2.147.111,3.819.036,7.644.036,11.467Z"/>
    <path class="cls-3" d="M518.987,184.856c6.83.257,12.637-.194,18.395.443,5.77.638,10.876,2.918,14.956,7.155,7.376,7.659,5.869,19.089-3.37,24.329-7.367,4.178-15.441,4.591-23.602,3.305-2.141-.337-2.34.187-2.323,2.026.067,7.293.069,14.588-.075,21.879-.046,2.33,1.004,3.465,3.022,4.081,1.965.6,3.985.654,6.017.652.598,0,1.427-.253,1.428.795.001,1.037-.826.815-1.424.813-9.766-.038-19.533-.092-29.299-.143-.719-.004-1.556.126-1.523-.991.029-.982.797-.844,1.432-.86,2.028-.048,4.047-.148,6.025-.664,1.501-.391,2.293-1.189,2.321-2.888.298-18.052.265-36.102-.021-54.153-.023-1.475-.651-2.281-1.958-2.729-1.582-.543-3.206-.88-4.873-1.002-.774-.057-1.452-.155-1.361-1.214.088-1.018.833-.825,1.442-.827,5.281-.013,10.562-.007,14.795-.007ZM523.079,202.573c0,4.406.079,8.813-.04,13.215-.045,1.654.443,2.387,2.112,2.389,2.313.004,4.632.215,6.939.115,5.742-.25,9.933-3.447,11.913-8.847,1.391-3.794,1.252-7.7.65-11.557-.962-6.16-4.418-9.261-10.687-10.135-3.104-.433-6.212-.164-9.318-.253-1.24-.036-1.61.425-1.593,1.64.061,4.477.024,8.955.025,13.433Z"/>
    <path class="cls-3" d="M784.168,193.839c0,2.889-.016,5.777.009,8.665.008.888-.056,1.52-1.234,1.509-1.095-.009-1.342-.554-1.39-1.468-.034-.646-.266-1.286-.263-1.928.049-11.109-10.646-16.495-19.07-16.201-5.099.178-8.988,2.537-11.598,6.871-2.026,3.365-1.885,6.73.507,9.918,2.698,3.596,6.467,5.741,10.494,7.432,3.462,1.453,7.062,2.576,10.542,3.99,4.655,1.891,8.87,4.49,12.615,7.894,8.56,7.779,6.035,22.394-3.961,27.326-4.026,1.987-8.266,3.015-12.678,3.498-8.192.899-16.065.139-23.072-4.691-1.147-.791-1.951-.538-2.888.187-.935.724-1.617,1.648-2.219,2.638-.581.955-1.507.762-2.335.658-.959-.121-.679-.974-.671-1.567.07-5.342.167-10.684.26-16.026.011-.641-.105-1.362.921-1.335.792.02,1.597-.145,1.806,1.012.165.917.496,1.807.796,2.695,3.056,9.062,8.659,13.397,18.226,14.045,3.491.236,6.952,0,10.278-1.19,4.639-1.659,7.233-4.949,8.108-9.81.904-5.025-.974-8.727-4.921-11.625-3.607-2.648-7.714-4.24-11.943-5.543-4.879-1.504-9.488-3.532-13.474-6.784-8.246-6.725-9.654-17.53-3.246-25.142,3.215-3.819,7.635-5.331,12.372-6.096,7.666-1.238,14.873-.31,21.112,4.757.906.736,1.716.668,2.539.053.629-.47,1.169-1.06,1.747-1.599.771-.719.858-2.595,2.392-1.957,1.315.547.493,2.048.547,3.103.114,2.231.035,4.471.035,6.708-.113,0-.226,0-.339,0Z"/>
    <path class="cls-3" d="M202.88,193.617c0,3.034.007,6.068-.005,9.101-.003.77.173,1.624-1.11,1.645-.993.016-1.345-.352-1.58-1.295-2.514-10.06-9.74-14.52-19.358-16.031-3.293-.517-6.623-.726-9.954-.354-8.646.966-14.411,5.788-17.412,13.715-4.237,11.194-4.396,22.635-.595,33.961,2.83,8.433,8.94,13.335,17.839,14.399,9.038,1.08,17.526-.052,24.22-7.074,2.569-2.695,4.383-5.905,6.084-9.184.352-.679.532-1.911,1.775-.908.802.647,2.134.816,1.257,2.558-5.85,11.62-14.996,18.113-28.224,18.232-9.487.086-18.619-1.524-26.764-6.737-9.221-5.901-13.788-14.48-14.292-25.333-.476-10.263,2.257-19.315,10.075-26.373,5.569-5.027,12.287-7.784,19.564-9.285,8.615-1.777,17.121-1.425,25.458,1.481,1.494.521,2.947,1.209,4.334,1.973,1.983,1.092,3.166.832,4.191-1.209.319-.634.485-1.358.638-2.059.416-1.908,1.403-2.476,3.339-2.019,1.077.255.836,1.025.825,1.698-.023,1.516-.122,3.03-.15,4.546-.028,1.516-.006,3.034-.006,4.551-.05,0-.101,0-.151,0Z"/>
    <path class="cls-3" d="M666.706,211.097c0-6.715-.031-13.431.023-20.146.013-1.583-.687-2.36-2.128-2.784-2.022-.596-4.086-.927-6.163-1.222-.661-.094-1.627.105-1.543-1.019.08-1.063.974-.648,1.523-.615,7.522.445,15.041.455,22.563.001.624-.038,1.514-.432,1.611.797.093,1.178-.643,1.229-1.501,1.301-2.538.212-4.978.837-7.375,1.701-1.123.405-1.541,1.014-1.572,2.217-.285,10.98-.246,21.959.095,32.936.095,3.049-.088,6.069-.76,9.04-2.185,9.659-8.293,15.487-17.827,17.72-8.415,1.971-16.704,1.247-24.695-2.021-9.797-4.006-14.959-12.026-14.656-22.586.182-6.352.437-12.703.732-19.051.261-5.637-.117-11.262-.156-16.893-.009-1.274-.668-1.804-1.704-2.159-2.134-.73-4.348-1.071-6.573-1.372-.668-.091-1.663.096-1.603-.978.066-1.193,1.098-.68,1.697-.65,9.259.459,18.516.452,27.776.003.668-.032,1.707-.557,1.812.807.106,1.364-.909,1.208-1.754,1.292-1.95.193-3.858.549-5.702,1.253-1.241.474-1.81,1.263-1.814,2.608-.033,13.579-.454,27.168.373,40.731.635,10.428,6.201,15.829,16.598,16.766,2.761.249,5.499.158,8.228-.199,8.799-1.15,13.938-7.126,14.69-17.112.51-6.781.115-13.577-.195-20.365Z"/>
    <path class="cls-3" d="M452.922,290.63c4.578-.12,8.915.856,12.956,2.997,12.387,6.561,13.522,23.827,2.118,31.96-9.678,6.902-25.348,5.893-34.05-2.192-8.567-7.96-6.486-23.36,3.945-29.195,4.147-2.32,9.282-3.539,15.03-3.57ZM468.059,310.47c-.169-1.648-.3-3.301-.513-4.943-1.349-10.391-8.9-15.632-19.16-13.367-3.549.783-6.457,2.484-8.478,5.535-4.491,6.78-4.145,18.78.783,25.242,3.791,4.971,9.042,6.617,15.006,5.779,5.362-.754,8.656-4.286,10.647-9.138,1.196-2.913,1.646-5.964,1.714-9.108Z"/>
    <path class="cls-3" d="M526.596,309.576c6.284,1.8,8.378,6.574,10.386,11.42.359.867.729,1.729,1.078,2.6,1.087,2.709,2.473,5.098,5.737,5.181.103.645-.122.81-.433.807-3.473-.027-6.946-.112-10.418-.082-1.287.011-1.303-.766-1.429-1.662-.554-3.955-1.694-7.757-3.311-11.396-2.105-4.737-4.309-6.011-9.47-5.885-1.175.029-1.688.309-1.66,1.583.098,4.476.114,8.954.14,13.431.011,1.873.864,2.825,2.791,2.733.505-.024,1.013.01,1.519.033.432.019.956.01.963.6.006.562-.468.638-.928.637-5.353-.012-10.707-.024-16.06-.039-.36-.001-.809.003-.878-.433-.099-.618.434-.598.85-.681q4.92-.97,5.039-6.032c.202-8.45.106-16.899.065-25.349-.011-2.218-.842-3.191-2.884-3.444-.286-.035-.58-.083-.846-.187-.493-.193-1.373,0-1.317-.807.06-.858.878-.526,1.395-.529,1.809-.011,3.618.041,5.426.04,4.052-.002,8.105-.061,12.157-.022,3.438.033,6.586,1.011,9.151,3.382,4.048,3.741,3.646,8.612-.888,11.736-1.671,1.152-3.542,1.808-6.175,2.365ZM517.139,301.305v3.246q0,4.844,4.872,4.646c3.69-.151,6.301-2.134,7.193-5.465,1.744-6.515-2.255-10.797-9.489-10.349-1.951.121-2.885.571-2.618,2.733.211,1.706.042,3.458.042,5.189Z"/>
    <path class="cls-3" d="M392.737,312.989c2.605,0,5.21-.008,7.815.008.554.004,1.27-.089,1.266.778-.003.704-.63.634-1.108.757q-3.976,1.026-3.986,5.223c0,2.672.071,5.345.027,8.016-.01.622.598,1.581-.453,1.847-.878.223-.864-.785-1.229-1.261-.306-.4-.542-.869-.903-1.208-1.281-1.2-2.443-1.681-4.098-.239-8.833,7.698-30.205,4.076-33.483-10.375-1.943-8.565.643-19.356,12.331-23.518,7.343-2.615,14.595-2.974,21.41,1.6,1.349.906,2.133.394,2.814-.732.333-.551.587-1.159.807-1.766.219-.605.646-.687,1.195-.656.738.042.727.567.721,1.076-.038,3.394-.095,6.788-.118,10.182-.005.722-.291,1.068-1.012,1.081-.605.011-1.182-.004-1.358-.753-.033-.141-.054-.285-.099-.421-2.979-9.122-13.941-12.89-22.024-7.559-2.12,1.398-3.646,3.331-4.481,5.701-2.195,6.233-2.664,12.581-.475,18.893,3.294,9.502,15.044,12.376,22.602,5.642.803-.716,1.313-1.489,1.26-2.61-.04-.863.054-1.732.062-2.598.044-4.682-.097-4.824-4.808-5.573-.619-.098-1.729.327-1.704-.777.029-1.292,1.209-.711,1.868-.731,2.385-.075,4.775-.03,7.163-.029Z"/>
    <path class="cls-3" d="M275.702,297.281c0,1.227.055,2.458-.021,3.681-.044.71.447,1.885-.667,1.981-1.339.116-.833-1.255-1.047-1.971-.308-1.028-.274-2.165-.626-3.172-1.9-5.435-10.407-7.908-14.988-4.401-3.622,2.773-3.747,6.582-.262,9.505,2.195,1.841,4.79,2.936,7.49,3.819,3.46,1.132,6.762,2.601,9.548,4.997,6.308,5.424,4.885,14.33-2.951,17.151-6.242,2.247-12.632,2.623-18.613-1.071-1.531-.946-2.26-.107-3.028.903-.421.554-.833,1.077-1.588.768-.711-.291-.432-.997-.433-1.525-.008-2.6.014-5.2.068-7.8.012-.568-.341-1.425.719-1.487.925-.054.93.725,1.1,1.333,2.455,8.823,9.7,9.742,15.838,8.385,2.945-.652,4.788-2.539,5.387-5.56.623-3.14-.503-5.486-3.132-7.234-2.013-1.338-4.221-2.201-6.51-2.907-2.857-.881-5.547-2.103-7.869-4.021-3.296-2.722-4.711-6.139-3.711-10.389.97-4.123,3.752-6.388,7.753-7.259,4.61-1.003,9.102-.898,13.033,2.14,1.451,1.122,2.202.286,3.027-.718.342-.416.52-1.173,1.283-.84.592.259.337.889.347,1.358.031,1.443.011,2.888.011,4.332-.052,0-.105,0-.157,0Z"/>
    <path class="cls-3" d="M667.926,329.618c-2.678,0-5.356.007-8.034-.007-.464-.002-1.171.209-1.184-.533-.013-.723.686-.548,1.162-.599,4.018-.433,4.585-1.413,2.985-5.174-1.244-2.923-2.551-5.82-3.721-8.771-.439-1.107-1.011-1.549-2.227-1.523-3.473.076-6.95.077-10.423,0-1.208-.027-1.792.431-2.283,1.49-1.637,3.538-3.385,7.025-5.079,10.537-1.1,2.281-.813,2.872,1.627,3.404.424.092.856.144,1.284.218.379.066.716.195.634.673-.064.375-.405.373-.678.375-3.908.038-7.816.067-11.724.091-.372.002-.752-.066-.8-.529-.055-.535.248-.795.766-.81,3.614-.105,5.165-2.65,6.634-5.426,5.168-9.767,10.051-19.675,14.954-29.575.392-.792.571-1.756,1.879-1.774,1.374-.019,1.645.923,2.077,1.824,4.617,9.637,9.229,19.276,13.857,28.908,1.408,2.93,2.911,5.773,6.858,5.673.484-.012.83.229.77.797-.089.844-.726.746-1.301.747-2.678.001-5.355,0-8.033,0,0-.005,0-.01,0-.015ZM651.915,298.777c-1.973,4.087-3.737,7.788-5.549,11.466-.468.951-.275,1.278.782,1.27,3.456-.026,6.912-.01,10.7-.01-1.988-4.265-3.862-8.285-5.932-12.726Z"/>
    <path class="cls-3" d="M587.518,291.984c5.429,0,10.858.043,16.285-.03,1.37-.018,1.925.276,1.868,1.765-.1,2.596.036,5.201.016,7.802-.004.554.369,1.479-.688,1.493-.86.011-.629-.805-.715-1.327-.281-1.709-.514-3.427-1.245-5.026-.922-2.018-2.343-3.218-4.708-3.139-2.024.068-4.055.037-6.079-.045-1.058-.043-1.355.325-1.35,1.362.045,9.61.009,19.221.076,28.832.021,2.936,1.255,4.167,4.142,4.553.501.067,1.01.074,1.515.113.487.037,1.162-.065,1.1.671-.058.689-.733.562-1.214.566-1.882.015-3.764.007-5.647.007-4.126,0-8.253.014-12.379-.017-.555-.004-1.524.343-1.444-.714.063-.83.919-.466,1.427-.5,4.013-.266,5.22-1.511,5.247-5.547.061-9.103.067-18.207.194-27.309.023-1.617-.402-2.247-2.052-2.058-.998.114-2.023-.013-3.037-.022-4.554-.042-6.169,1.091-7.613,5.451-.361,1.09-.559,2.236-.795,3.363-.098.472-.252.837-.795.831-.572-.006-.713-.399-.7-.877.084-3.105.148-6.211.272-9.314.052-1.299,1.12-.87,1.816-.873,5.501-.029,11.002-.016,16.503-.016v.008Z"/>
    <path class="cls-3" d="M326.675,328.974c-.345.686-.903.527-1.382.531-4.916.044-9.832.088-14.748.098-.514,0-1.421.364-1.472-.378-.067-.975.947-.519,1.488-.64.631-.141,1.291-.15,1.937-.224,1.371-.155,2.03-.901,2.036-2.302.044-10.176.094-20.352.181-30.528.009-1.093-.501-1.574-1.449-1.799-1.153-.273-2.306-.543-3.454-.813.225-1.017.835-.729,1.271-.705,4.553.248,9.105.228,13.658.021.514-.023,1.319-.397,1.438.437.114.799-.699.74-1.244.848-3.446.684-3.457.684-3.463,4.233-.014,8.949-.039,17.898-.016,26.846.008,3.169.336,3.445,3.587,3.787.538.057,1.182-.157,1.63.589Z"/>
    <path class="cls-3" d="M317.947,280.582c2.439-.01,4.074,1.434,4.029,3.561-.044,2.106-1.57,3.444-3.915,3.432-2.149-.011-3.907-1.56-3.97-3.498-.064-2.002,1.571-3.484,3.855-3.494Z"/>
    <path class="cls-1" d="M322.605,215.65c.11,6.908-.625,12.324-2.809,17.456-3.738,8.78-9.85,14.932-19.735,15.829-10.785.978-19.869-2.525-25.986-11.916-4.947-7.595-6.154-16.067-5.341-24.928.257-2.804.621-5.593,1.348-8.325,3.295-12.388,11.376-18.841,24.219-19.324,12.136-.457,20.234,3.998,24.701,13.574,1.508,3.234,2.38,6.649,2.977,10.147.499,2.929.576,5.889.627,7.487Z"/>
    <path class="cls-1" d="M408.277,201.074c0-3.823.075-7.647-.036-11.467-.047-1.63.526-2.19,2.098-2.147,2.165.059,4.335-.093,6.5-.028,7.788.233,12.219,4.519,12.82,12.327.692,8.991-4.838,14.981-13.852,14.995-1.951.003-3.904-.088-5.851-.015-1.341.05-1.726-.47-1.704-1.766.069-3.966.025-7.933.025-11.9Z"/>
    <path class="cls-1" d="M523.079,202.573c0-4.478.036-8.956-.024-13.433-.017-1.216.353-1.676,1.593-1.64,3.105.089,6.213-.179,9.318.253,6.269.874,9.725,3.976,10.687,10.135.602,3.856.741,7.763-.65,11.557-1.98,5.4-6.171,8.597-11.913,8.847-2.307.101-4.626-.111-6.939-.115-1.669-.003-2.156-.735-2.112-2.389.119-4.402.04-8.81.04-13.215Z"/>
    <path class="cls-1" d="M468.059,310.47c-.069,3.144-.518,6.194-1.714,9.108-1.991,4.852-5.285,8.385-10.647,9.138-5.964.838-11.215-.808-15.006-5.779-4.929-6.462-5.274-18.462-.783-25.242,2.021-3.052,4.929-4.752,8.478-5.535,10.259-2.264,17.81,2.976,19.16,13.367.213,1.642.344,3.295.513,4.943Z"/>
    <path class="cls-1" d="M517.14,301.305c0-1.731.168-3.483-.042-5.189-.267-2.162.667-2.612,2.618-2.733,7.234-.448,11.233,3.835,9.489,10.349-.892,3.331-3.503,5.314-7.193,5.465q-4.872.199-4.872-4.646c0-1.082,0-2.164,0-3.246Z"/>
    <path class="cls-1" d="M651.915,298.777c2.07,4.442,3.944,8.461,5.932,12.726-3.788,0-7.244-.016-10.7.01-1.057.008-1.25-.319-.782-1.27,1.812-3.678,3.577-7.38,5.549-11.466Z"/>
  </g>
</svg>