<?xml version="1.0" encoding="UTF-8"?>
<svg id="Layer_1" data-name="Layer 1" xmlns="http://www.w3.org/2000/svg" viewBox="0 0 800 500">
  <defs>
    <style>
      .cls-1 {
        fill: #ea7425;
      }

      .cls-1, .cls-2, .cls-3, .cls-4 {
        stroke-width: 0px;
      }

      .cls-2 {
        fill: #43a247;
      }

      .cls-3 {
        fill: #046a37;
      }

      .cls-4 {
        fill: #94c940;
      }
    </style>
  </defs>
  <g id="doga-2">
    <path class="cls-4" d="M216.951,188.867c3.093-1.547,5.473-3.45,7.972-5.235,10.232-7.258,26.175-12.85,43.665-12.255,9.28.238,18.442,2.261,25.699,5.592-7.734-.833-15.943.714-20.583,3.926-3.688,2.618-5.116,6.068-8.328,8.804-5.83,5.116-18.323,7.615-29.745,6.068"/>
    <path class="cls-1" d="M401.196,293.958v-15.467c2.261-.357,4.164-1.071,5.711-2.023s3.093-2.261,4.64-3.926c2.38-2.618,3.688-5.83,3.926-9.637.119-3.807.357-6.901.476-9.518.357-4.164.833-7.139,1.309-8.923.714-2.618,1.904-5.354,3.688-7.972,2.856-4.283,5.949-7.377,9.399-9.399,3.569-2.142,7.853-3.331,12.731-3.331v15.943c-3.807.833-6.901,2.856-9.399,5.83-1.309,1.666-2.142,3.212-2.499,4.878-.357,1.666-.476,3.807-.476,6.306v3.45c0,5.473-.357,9.756-1.309,12.85-.833,3.093-2.618,6.306-5.354,9.756-3.093,3.926-6.544,6.782-9.994,8.447-3.569,1.785-7.853,2.737-12.85,2.737"/>
    <path class="cls-1" d="M453.07,227.806h15.11v65.676h-15.11v-65.676ZM460.804,223.523c-2.856,0-5.116-.952-6.663-2.736-1.666-1.785-2.38-4.045-2.38-6.544,0-2.38.833-4.521,2.38-6.187s3.807-2.618,6.663-2.618c2.618,0,4.759.952,6.306,2.856,1.428,1.666,2.142,3.807,2.142,6.187s-.714,4.521-2.261,6.306c-1.428,1.785-3.569,2.736-6.187,2.736"/>
    <path class="cls-1" d="M527.432,290.389c-4.283,2.023-9.161,3.093-14.396,3.093-8.447,0-16.181-2.499-22.963-7.496-7.139-5.235-11.184-11.779-12.136-19.631-.238-2.499-.476-4.759-.476-6.544,0-10.946,3.331-19.75,9.994-26.413,6.425-6.425,14.753-9.637,24.747-9.637,9.637,0,17.966,3.093,24.985,9.399,7.02,6.187,10.589,13.92,10.589,23.201v34.742c0,7.734-3.331,14.277-9.875,19.393-6.306,4.878-13.682,7.377-22.368,7.377h-1.309c-2.736,0-4.997-.119-6.782-.357s-3.807-.714-6.068-1.428v-14.872c2.261.714,4.283,1.19,5.949,1.428s3.807.357,6.306.357c2.142,0,4.402-.238,6.782-.714,2.38-.476,4.045-.952,4.997-1.428,2.38-1.19,4.045-2.261,4.997-3.331,1.547-1.666,2.261-3.807,2.261-6.425v-33.79c0-5.354-2.142-9.756-6.544-13.207-4.283-3.45-9.399-5.235-15.11-5.235-5.116,0-9.518,1.904-13.207,5.83-3.688,3.926-5.592,8.447-5.592,13.564,0,.833.119,1.785.238,2.856.833,5.473,3.45,9.756,7.615,12.85,3.807,2.856,8.21,4.402,13.207,4.402,5.949,0,10.708-1.904,14.277-5.83l-.119,17.847h0Z"/>
    <path class="cls-1" d="M591.204,238.157c-6.425,0-11.541,2.142-15.348,6.425-3.45,3.807-5.116,8.566-5.116,14.158,0,5.354,1.666,9.994,4.878,13.682,3.688,4.045,8.685,6.187,14.991,6.187,6.425,0,11.541-2.142,15.348-6.425,3.45-3.807,5.116-8.566,5.116-14.158,0-5.354-1.666-9.994-4.878-13.682-3.807-4.164-8.804-6.187-14.991-6.187M589.657,293.72c-10.946,0-19.631-3.569-25.937-10.827-5.711-6.425-8.566-14.396-8.566-23.915s2.974-17.728,8.804-24.272c6.544-7.377,15.467-11.184,26.651-11.184,10.946,0,19.631,3.569,25.937,10.827,5.711,6.425,8.685,14.396,8.685,23.915s-2.974,17.728-8.804,24.272c-6.782,7.496-15.586,11.184-26.77,11.184"/>
    <path class="cls-1" d="M648.908,293.72l-16.657-.119v-38.787c0-5.949,1.071-11.065,3.212-15.348,2.142-4.283,5.592-8.09,10.351-11.303,2.855-1.904,5.592-3.331,8.209-4.283,2.499-.833,5.354-1.309,8.328-1.309.714,0,1.666,0,2.736.119s2.261.238,3.688.476v15.705c-1.547-.357-2.974-.595-4.64-.595-3.093,0-6.068,1.071-8.923,3.093-2.023,1.547-3.688,3.212-4.759,5.116s-1.666,4.045-1.666,6.544l.119,40.69h0Z"/>
    <path class="cls-1" d="M676.987,204.724h14.991v17.847h10.351v15.705h-10.351v29.626c0,1.666.238,2.974.833,4.164s1.428,2.38,2.736,3.688c2.38,2.38,5.116,3.569,8.328,3.569h2.499v14.515h-2.499c-2.618,0-5.235-.357-7.853-1.309-3.093-.952-6.663-2.856-10.351-5.473-2.261-1.666-4.283-4.045-5.949-7.496-1.785-3.688-2.736-7.496-2.736-11.422v-63.415Z"/>
    <path class="cls-1" d="M768.719,273.851v18.323c-5.473,2.618-10.946,4.045-16.419,4.045-8.328,0-16.062-3.093-23.082-9.161-4.402-3.807-7.615-7.853-9.637-12.136-1.904-4.283-2.974-9.399-2.974-15.467,0-9.756,3.45-18.085,10.589-24.985,7.02-6.901,15.467-10.351,25.223-10.351,9.994,0,18.561,3.331,25.818,10.232,7.139,6.782,10.827,15.11,10.827,24.985v34.385h-15.705v-34.98c0-5.473-2.023-10.113-6.306-13.92-4.164-3.807-9.161-5.592-14.753-5.592-5.711,0-10.589,2.023-14.515,5.949-3.926,3.926-5.949,8.804-5.949,14.515,0,5.83,2.023,10.946,6.068,15.11,4.045,4.164,8.923,6.306,14.753,6.306,3.45,0,6.544-.595,9.042-1.666,2.38-1.19,4.759-3.093,7.02-5.592"/>
    <path class="cls-3" d="M33.487,276.435c0,.357.833.476,2.499.476,4.045,0,8.685-.833,13.801-2.499,6.901-2.261,12.493-5.354,16.538-9.518,5.354-5.354,7.972-11.898,7.972-19.75,0-8.685-3.807-15.705-11.422-21.178-8.923-6.306-18.561-9.518-28.912-9.518l-.476.238v61.75ZM11,196.125h22.368c17.49,0,32.481,4.759,44.974,14.277,12.493,9.518,18.799,21.178,18.799,34.98,0,13.563-5.711,25.342-17.014,35.099-11.422,9.875-25.223,14.753-41.642,14.753H11.119c-.119.119-.119-99.109-.119-99.109Z"/>
    <path class="cls-3" d="M148.42,218.849c-8.923,0-15.943,2.974-21.178,8.804-4.759,5.354-7.139,11.779-7.139,19.512,0,7.496,2.261,13.682,6.663,18.799,4.997,5.592,11.898,8.447,20.583,8.447,8.923,0,15.943-2.974,21.178-8.804,4.759-5.354,7.139-11.779,7.139-19.512,0-7.377-2.261-13.682-6.663-18.799-5.116-5.711-12.017-8.447-20.583-8.447M146.278,295.233c-14.991,0-26.889-4.878-35.693-14.753-7.972-8.923-11.898-19.869-11.898-32.838,0-13.088,4.045-24.272,12.136-33.433,9.042-10.232,21.178-15.348,36.526-15.348,14.991,0,26.889,4.878,35.693,14.872,7.972,8.923,11.898,19.869,11.898,32.838,0,13.088-4.045,24.272-12.136,33.433-8.923,10.113-21.178,15.229-36.526,15.229"/>
    <path class="cls-3" d="M276.797,287.381c-5.949,2.855-12.85,6.425-30.339,7.615-11.66.714-22.13-3.45-31.529-10.232-9.756-7.139-15.348-16.181-16.657-26.889-.357-3.45-.595-6.544-.595-9.042,0-15.11,4.64-27.246,13.801-36.288,8.923-8.804,20.226-13.207,34.028-13.207,13.207,0,24.628,4.283,34.266,12.85,9.637,8.566,14.515,19.155,14.515,31.886v47.829c0,10.708-4.521,19.631-13.563,26.651-8.566,6.782-18.799,10.113-30.696,10.113h-1.785c-3.688,0-6.782-.119-9.28-.476-2.499-.238-5.235-.952-8.447-2.023v-20.464c3.093.952,5.83,1.666,8.09,1.904,2.38.357,5.235.476,8.566.476,2.974,0,6.068-.357,9.28-1.071,3.212-.714,5.592-1.428,6.901-2.023,3.212-1.666,5.592-3.093,6.901-4.521,2.142-2.261,3.212-5.235,3.212-8.804v-46.52c0-7.377-2.974-13.445-8.923-18.204-5.949-4.759-12.85-7.139-20.821-7.139-7.02,0-13.088,2.736-18.204,8.09-5.116,5.354-7.734,11.66-7.734,18.68,0,1.19.119,2.499.357,3.926,1.19,7.496,4.64,13.445,10.351,17.728,5.235,4.045,11.303,5.949,18.085,5.949,8.209,0,23.915-3.807,28.793-9.28l1.428,22.487Z"/>
    <path class="cls-3" d="M378.285,265.965l.357,23.677c-7.615,3.688-22.844,8.923-30.22,8.923-11.422,0-22.011-4.164-31.767-12.612-6.068-5.235-10.47-10.827-13.207-16.657-2.736-5.949-4.045-12.969-4.045-21.178,0-13.445,4.878-24.985,14.515-34.385,9.637-9.518,21.178-14.277,34.623-14.277,13.801,0,25.58,4.64,35.455,14.039,9.875,9.399,14.753,20.821,14.753,34.266v47.353h-21.535v-47.948c0-7.615-2.855-13.92-8.566-19.155-5.711-5.116-12.493-7.734-20.345-7.734s-14.515,2.736-19.988,8.209c-5.473,5.473-8.209,12.136-8.209,19.988,0,8.09,2.736,14.991,8.209,20.702,5.473,5.711,12.255,8.566,20.226,8.566,4.759,0,8.804-1.19,12.374-2.261,7.496-2.261,14.277-6.068,17.371-9.518"/>
    <path class="cls-2" d="M284.769,173.638c-1.19.119-2.499,0-3.688,0-4.878,0-9.637.476-14.277,1.547-9.161,2.142-17.014,6.425-25.58,9.756-7.377,2.855-16.062,4.878-24.153,3.807-.119,0-.238.119-.238.119l18.799,6.782c11.303,1.666,23.796-.952,29.745-6.068,3.212-2.855,4.521-6.187,8.328-8.804,4.64-3.212,12.85-4.759,20.583-3.926-2.855-1.309-6.068-2.38-9.518-3.212"/>
  </g>
</svg>