<?xml version="1.0" encoding="UTF-8"?>
<svg id="Layer_1" data-name="Layer 1" xmlns="http://www.w3.org/2000/svg" viewBox="0 0 500 500">
  <defs>
    <style>
      .cls-1 {
        fill: #ea7425;
      }

      .cls-1, .cls-2, .cls-3, .cls-4 {
        stroke-width: 0px;
      }

      .cls-2 {
        fill: #43a247;
      }

      .cls-3 {
        fill: #046a37;
      }

      .cls-4 {
        fill: #94c940;
      }
    </style>
  </defs>
  <g id="doga-1">
    <path class="cls-4" d="M264.743,118.696c3.804-1.902,6.729-4.242,9.801-6.437,12.581-8.924,32.184-15.799,53.688-15.068,11.411.293,22.675,2.779,31.598,6.876-9.509-1.024-19.603.878-25.308,4.828-4.535,3.218-6.29,7.461-10.24,10.825-7.168,6.29-22.529,9.363-36.572,7.461"/>
    <path class="cls-1" d="M11.516,401.474v-19.018c2.78-.439,5.12-1.317,7.022-2.487s3.803-2.78,5.705-4.828c2.926-3.218,4.535-7.168,4.828-11.849.146-4.681.439-8.485.585-11.703.439-5.12,1.024-8.777,1.609-10.972.878-3.218,2.341-6.583,4.535-9.801,3.511-5.266,7.314-9.07,11.557-11.557,4.389-2.633,9.655-4.096,15.653-4.096v19.603c-4.681,1.024-8.485,3.511-11.557,7.168-1.609,2.048-2.633,3.95-3.072,5.998-.439,2.048-.585,4.681-.585,7.753v4.242c0,6.729-.439,11.996-1.609,15.799-1.024,3.803-3.218,7.753-6.583,11.996-3.803,4.828-8.046,8.339-12.288,10.387-4.389,2.194-9.655,3.365-15.799,3.365"/>
    <path class="cls-1" d="M75.298,320.137h18.579v80.752h-18.579v-80.752ZM84.807,314.87c-3.511,0-6.29-1.17-8.192-3.365-2.048-2.194-2.926-4.974-2.926-8.046,0-2.926,1.024-5.559,2.926-7.607s4.681-3.218,8.192-3.218c3.218,0,5.852,1.17,7.753,3.511,1.755,2.048,2.633,4.681,2.633,7.607s-.878,5.559-2.78,7.753c-1.755,2.194-4.389,3.365-7.607,3.365"/>
    <path class="cls-1" d="M166.729,397.085c-5.266,2.487-11.264,3.803-17.701,3.803-10.387,0-19.895-3.072-28.234-9.216-8.777-6.437-13.751-14.483-14.922-24.138-.293-3.072-.585-5.852-.585-8.046,0-13.459,4.096-24.284,12.288-32.476,7.9-7.9,18.14-11.849,30.428-11.849,11.849,0,22.09,3.803,30.721,11.557,8.631,7.607,13.02,17.116,13.02,28.526v42.716c0,9.509-4.096,17.555-12.142,23.845-7.753,5.998-16.823,9.07-27.502,9.07h-1.609c-3.365,0-6.144-.146-8.339-.439s-4.681-.878-7.461-1.755v-18.286c2.78.878,5.266,1.463,7.314,1.755s4.681.439,7.753.439c2.633,0,5.413-.293,8.339-.878,2.926-.585,4.974-1.17,6.144-1.755,2.926-1.463,4.974-2.78,6.144-4.096,1.902-2.048,2.78-4.681,2.78-7.9v-41.546c0-6.583-2.633-11.996-8.046-16.238-5.266-4.242-11.557-6.437-18.579-6.437-6.29,0-11.703,2.341-16.238,7.168s-6.876,10.387-6.876,16.677c0,1.024.146,2.194.293,3.511,1.024,6.729,4.242,11.996,9.363,15.799,4.681,3.511,10.094,5.413,16.238,5.413,7.314,0,13.166-2.341,17.555-7.168l-.147,21.943h0Z"/>
    <path class="cls-1" d="M245.14,332.864c-7.9,0-14.19,2.633-18.871,7.9-4.242,4.681-6.29,10.533-6.29,17.408,0,6.583,2.048,12.288,5.998,16.823,4.535,4.974,10.679,7.607,18.432,7.607,7.9,0,14.19-2.633,18.871-7.9,4.242-4.681,6.29-10.533,6.29-17.408,0-6.583-2.048-12.288-5.998-16.823-4.681-5.12-10.825-7.607-18.432-7.607M243.238,401.181c-13.459,0-24.138-4.389-31.891-13.312-7.022-7.9-10.533-17.701-10.533-29.404s3.657-21.797,10.825-29.843c8.046-9.07,19.018-13.751,32.769-13.751,13.459,0,24.138,4.389,31.891,13.312,7.022,7.9,10.679,17.701,10.679,29.404s-3.657,21.797-10.825,29.843c-8.339,9.216-19.164,13.751-32.915,13.751"/>
    <path class="cls-1" d="M316.09,401.181l-20.481-.146v-47.69c0-7.314,1.317-13.605,3.95-18.871s6.876-9.948,12.727-13.897c3.511-2.341,6.876-4.096,10.094-5.266,3.072-1.024,6.583-1.609,10.24-1.609.878,0,2.048,0,3.365.146s2.779.293,4.535.585v19.31c-1.902-.439-3.657-.731-5.705-.731-3.804,0-7.461,1.317-10.972,3.803-2.487,1.902-4.535,3.95-5.852,6.29s-2.048,4.974-2.048,8.046l.146,50.031h0Z"/>
    <path class="cls-1" d="M350.615,291.757h18.432v21.943h12.727v19.31h-12.727v36.426c0,2.048.293,3.657,1.024,5.12s1.755,2.926,3.365,4.535c2.926,2.926,6.29,4.389,10.24,4.389h3.072v17.847h-3.072c-3.218,0-6.437-.439-9.655-1.609-3.804-1.17-8.192-3.511-12.727-6.729-2.779-2.048-5.266-4.974-7.314-9.216-2.194-4.535-3.365-9.216-3.365-14.044v-77.972Z"/>
    <path class="cls-1" d="M463.404,376.751v22.529c-6.729,3.218-13.459,4.974-20.188,4.974-10.24,0-19.749-3.803-28.38-11.264-5.413-4.681-9.363-9.655-11.849-14.922-2.341-5.266-3.657-11.557-3.657-19.018,0-11.996,4.242-22.236,13.02-30.721,8.631-8.485,19.018-12.727,31.013-12.727,12.288,0,22.821,4.096,31.745,12.581,8.777,8.339,13.312,18.579,13.312,30.721v42.278h-19.31v-43.009c0-6.729-2.487-12.435-7.753-17.116-5.12-4.681-11.264-6.876-18.14-6.876-7.022,0-13.02,2.487-17.847,7.314-4.828,4.828-7.314,10.825-7.314,17.847,0,7.168,2.487,13.459,7.461,18.579,4.974,5.12,10.972,7.753,18.14,7.753,4.242,0,8.046-.731,11.118-2.048,2.926-1.463,5.852-3.803,8.631-6.876"/>
    <path class="cls-3" d="M39.165,226.365c0,.439,1.024.585,3.072.585,4.974,0,10.679-1.024,16.97-3.072,8.485-2.779,15.36-6.583,20.334-11.703,6.583-6.583,9.801-14.629,9.801-24.284,0-10.679-4.681-19.31-14.044-26.039-10.972-7.753-22.821-11.703-35.548-11.703l-.585.293v75.924ZM11.516,127.62h27.502c21.505,0,39.937,5.852,55.297,17.555,15.36,11.703,23.114,26.039,23.114,43.009,0,16.677-7.022,31.16-20.919,43.155-14.044,12.142-31.013,18.14-51.201,18.14H11.662c-.146.146-.146-121.859-.146-121.859Z"/>
    <path class="cls-3" d="M180.48,155.561c-10.972,0-19.603,3.657-26.039,10.825-5.852,6.583-8.777,14.483-8.777,23.991,0,9.216,2.78,16.823,8.192,23.114,6.144,6.876,14.629,10.387,25.308,10.387,10.972,0,19.603-3.657,26.039-10.825,5.852-6.583,8.777-14.483,8.777-23.991,0-9.07-2.78-16.823-8.192-23.114-6.29-7.022-14.775-10.387-25.308-10.387M177.847,249.479c-18.432,0-33.061-5.998-43.887-18.14-9.801-10.972-14.629-24.43-14.629-40.376,0-16.092,4.974-29.843,14.922-41.107,11.118-12.581,26.039-18.871,44.911-18.871,18.432,0,33.061,5.998,43.887,18.286,9.801,10.972,14.629,24.43,14.629,40.376,0,16.092-4.974,29.843-14.922,41.107-10.972,12.435-26.039,18.725-44.911,18.725"/>
    <path class="cls-3" d="M338.326,239.824c-7.314,3.511-15.799,7.9-37.304,9.363-14.336.878-27.21-4.242-38.767-12.581-11.996-8.777-18.871-19.895-20.481-33.061-.439-4.242-.731-8.046-.731-11.118,0-18.579,5.705-33.5,16.97-44.618,10.972-10.825,24.869-16.238,41.839-16.238,16.238,0,30.282,5.266,42.131,15.799,11.849,10.533,17.847,23.553,17.847,39.206v58.808c0,13.166-5.559,24.138-16.677,32.769-10.533,8.339-23.114,12.435-37.743,12.435h-2.194c-4.535,0-8.339-.146-11.411-.585-3.072-.293-6.437-1.17-10.387-2.487v-25.162c3.804,1.17,7.168,2.048,9.948,2.341,2.926.439,6.437.585,10.533.585,3.657,0,7.461-.439,11.411-1.317,3.95-.878,6.876-1.755,8.485-2.487,3.95-2.048,6.876-3.803,8.485-5.559,2.633-2.779,3.95-6.437,3.95-10.825v-57.199c0-9.07-3.657-16.531-10.972-22.382s-15.799-8.777-25.601-8.777c-8.631,0-16.092,3.365-22.382,9.948s-9.509,14.336-9.509,22.967c0,1.463.146,3.072.439,4.828,1.463,9.216,5.705,16.531,12.727,21.797,6.437,4.974,13.897,7.314,22.236,7.314,10.094,0,29.404-4.681,35.402-11.411l1.755,27.649Z"/>
    <path class="cls-3" d="M463.111,213.492l.439,29.112c-9.363,4.535-28.088,10.972-37.157,10.972-14.044,0-27.064-5.12-39.059-15.507-7.461-6.437-12.873-13.312-16.238-20.481-3.365-7.314-4.974-15.946-4.974-26.039,0-16.531,5.998-30.721,17.847-42.278,11.849-11.703,26.039-17.555,42.57-17.555,16.97,0,31.452,5.705,43.594,17.262,12.142,11.557,18.14,25.601,18.14,42.131v58.223h-26.478v-58.955c0-9.363-3.511-17.116-10.533-23.553-7.022-6.29-15.36-9.509-25.015-9.509s-17.847,3.365-24.577,10.094c-6.729,6.729-10.094,14.922-10.094,24.577,0,9.948,3.365,18.432,10.094,25.454,6.729,7.022,15.068,10.533,24.869,10.533,5.852,0,10.825-1.463,15.214-2.779,9.216-2.779,17.555-7.461,21.358-11.703"/>
    <path class="cls-2" d="M348.128,99.971c-1.463.146-3.072,0-4.535,0-5.998,0-11.849.585-17.555,1.902-11.264,2.633-20.919,7.9-31.452,11.996-9.07,3.511-19.749,5.998-29.697,4.681-.146,0-.293.146-.293.146l23.114,8.339c13.897,2.048,29.258-1.17,36.572-7.461,3.95-3.511,5.559-7.607,10.24-10.825,5.705-3.95,15.799-5.852,25.308-4.828-3.511-1.609-7.461-2.926-11.703-3.95"/>
  </g>
</svg>