<?xml version="1.0" encoding="UTF-8"?>
<svg id="Layer_1" data-name="Layer 1" xmlns="http://www.w3.org/2000/svg" xmlns:xlink="http://www.w3.org/1999/xlink" viewBox="0 0 500 500">
  <defs>
    <style>
      .cls-1 {
        fill: none;
      }

      .cls-1, .cls-2, .cls-3, .cls-4 {
        stroke-width: 0px;
      }

      .cls-2 {
        fill: #f0494b;
      }

      .cls-3 {
        fill: #666;
        fill-rule: evenodd;
      }

      .cls-5 {
        clip-path: url(#clippath);
      }

      .cls-4 {
        fill: #4f3293;
      }
    </style>
    <clipPath id="clippath">
      <rect class="cls-1" x="10.387" y="127.749" width="479.226" height="244.503"/>
    </clipPath>
  </defs>
  <g id="hepiyi-1">
    <g class="cls-5">
      <g>
        <path class="cls-2" d="M328.774,143.519c5.129-5.195,13.373-5.195,18.502,0,5.129,5.195,5.129,13.544,0,18.739-5.129,5.195-13.373,5.195-18.502,0-5.13-5.009-5.13-13.544,0-18.739ZM327.491,255.765v-73.656h21.067v94.991c-11.724,0-21.067-9.462-21.067-21.336Z"/>
        <path class="cls-2" d="M467.262,143.519c5.129-5.195,13.373-5.195,18.502,0,5.13,5.195,5.13,13.544,0,18.739-5.129,5.195-13.373,5.195-18.502,0-5.13-5.009-5.13-13.544,0-18.739ZM465.979,277.101v-94.991h21.067v73.656c0,11.874-9.343,21.336-21.067,21.336Z"/>
        <path class="cls-4" d="M240.294,269.494v40.075c0,11.874-9.526,21.336-21.067,21.336v-100.557c0-15.399,4.763-27.459,14.289-36.179,9.526-8.72,20.883-13.173,33.89-13.173,13.373,0,24.914,4.638,34.073,14.286,9.526,9.648,14.105,20.965,14.105,34.323,0,13.544-4.58,25.046-13.922,34.509-9.16,9.276-20.7,14.1-34.44,14.1-10.258,0-20.334-3.525-23.998-6.494l-2.931-2.226ZM267.406,201.59c-15.571,0-27.112,12.059-27.112,28.015,0,16.327,11.908,28.015,27.112,28.015s27.112-11.874,27.112-28.015c0-15.956-11.907-28.015-27.112-28.015Z"/>
        <path class="cls-4" d="M191.2,231.274c-.183,6.865-2.931,12.987-8.06,18.182-5.496,5.566-11.907,8.163-19.235,8.349-4.397-.185-8.427-1.113-12.274-3.339l51.66-52.32s-14.106-20.779-39.752-21.15c-13.373-.185-24.548,4.824-33.89,14.1-9.526,9.648-14.106,20.965-14.106,34.509s4.58,24.861,13.922,34.323c9.526,9.648,20.701,14.286,34.073,14.286,13.189-.186,24.364-4.824,33.89-14.472,8.976-9.091,13.556-19.852,14.106-32.653h-20.334v.186ZM143.937,209.567c5.495-5.566,11.907-8.163,19.235-7.978,3.664,0,7.877,1.299,11.358,2.783l-36.089,36.364c-1.832-3.711-2.564-7.421-2.564-11.503-.183-7.606,2.564-14.1,8.06-19.666Z"/>
        <path class="cls-4" d="M106.745,226.822c-.55-12.616-5.129-23.377-13.739-32.468-9.16-9.276-20.701-14.1-34.44-14.1-10.259,0-20.334,3.525-23.998,6.494l-3.114,2.226v-61.225c-11.541,0-21.067,9.648-21.067,21.336v128.016h21.067v-49.722c.733-15.399,12.274-26.531,27.112-26.531,14.655,0,26.379,11.132,27.112,26.531v49.722h21.067v-50.279Z"/>
        <path class="cls-4" d="M433.92,182.109v49.722c-.183,4.267-1.282,8.349-2.931,11.874-.183.371-.366.742-.549,1.113-4.58,8.349-13.373,13.544-23.449,13.544s-18.685-5.195-23.448-13.544c-.183-.371-.366-.742-.549-1.113-1.832-3.525-2.748-7.607-2.931-11.874v-49.722h-21.067v50.279c.549,12.616,5.129,23.377,13.739,32.468,8.793,8.905,19.601,13.544,32.425,14.1h4.03c12.823-.371,23.632-5.009,32.425-14.1,8.793-9.091,13.373-19.666,13.74-32.468v-50.279h-21.434Z"/>
        <path class="cls-4" d="M433.37,290.088c-.549,2.783-1.282,5.566-2.564,7.978-.183.371-.366.742-.55,1.113-4.58,8.349-13.373,13.544-23.448,13.544s-18.685-5.195-23.448-13.544c-.183-.371-.366-.742-.55-1.113-1.282-2.412-2.015-5.009-2.565-7.978h-21.25c1.099,11.132,5.679,20.779,13.556,29.128,8.793,8.905,19.601,13.544,32.425,13.915h4.03c12.824-.371,23.632-5.009,32.425-13.915,8.06-8.349,12.457-17.811,13.556-29.128h-21.617Z"/>
        <path class="cls-3" d="M325.108,350.411c0-1.481,1.099-2.591,2.565-2.591s2.565,1.111,2.565,2.591-1.099,2.591-2.565,2.591-2.565-1.295-2.565-2.591ZM325.108,354.113h4.946v17.584h-4.946v-17.584ZM309.537,365.959c0,3.332-2.198,6.108-7.877,6.108-4.58,0-7.511-2.591-7.511-2.591l1.832-4.072c2.565,2.036,5.679,2.036,5.679,2.036,1.465,0,2.931-.185,2.931-1.111,0-.74-.916-.926-3.114-1.296-4.763-.74-6.778-2.776-6.778-5.737,0-3.147,2.381-5.738,7.511-5.738,0,0,4.214,0,6.595,2.036l-2.015,3.702s-1.649-1.296-5.129-1.296c-1.649,0-2.015.37-2.015.926s.366.925,2.198,1.111l.343.072c3.408.72,7.351,1.553,7.351,5.85ZM354.785,372.252c5.129,0,8.976-4.257,8.976-9.254,0-.185-.021-.37-.041-.556-.041-.37-.082-.74.041-1.111h-9.892v3.702h4.763c-.733,1.666-2.199,2.592-3.847,2.592-2.381,0-4.397-2.036-4.397-4.627s2.015-4.627,4.397-4.627c1.282,0,2.564.556,3.297,1.666l4.763-1.296c-1.466-2.961-4.397-4.997-8.06-4.997-5.13,0-9.343,4.257-9.343,9.254,0,5.182,4.213,9.254,9.343,9.254ZM397.469,362.998c0,4.997-4.214,9.254-9.526,9.254s-9.526-4.072-9.526-9.254c0-4.998,4.214-9.254,9.526-9.254s9.526,4.072,9.526,9.254ZM392.522,362.998c0-2.591-2.015-4.627-4.58-4.627s-4.58,2.036-4.58,4.627,2.015,4.627,4.58,4.627,4.58-2.222,4.58-4.627ZM422.382,371.696h5.862l-4.397-5.923c2.198-.925,3.481-3.146,3.481-5.738,0-3.517-2.015-5.923-6.595-5.923h-7.877v17.583h4.946v-5.367h.916l3.664,5.367ZM420.184,358.37c1.283,0,2.199.556,2.199,1.851s-.916,1.851-2.199,1.851h-2.381v-3.702h2.381ZM456.272,354.113v4.627h-4.58v12.956h-5.129v-12.956h-4.397v-4.627h14.106ZM481.919,371.696h5.13l-7.511-17.583h-4.58l-7.144,17.583h5.129l1.099-2.961h6.778l1.099,2.961ZM477.706,360.036l1.832,4.997h-3.664l1.832-4.997Z"/>
      </g>
    </g>
  </g>
</svg>