<?xml version="1.0" encoding="UTF-8"?>
<svg id="Layer_1" data-name="Layer 1" xmlns="http://www.w3.org/2000/svg" viewBox="0 0 800 500">
  <defs>
    <style>
      .cls-1, .cls-2, .cls-3 {
        stroke-width: 0px;
      }

      .cls-1, .cls-3 {
        fill: #001689;
      }

      .cls-2 {
        fill: #ed1b31;
      }

      .cls-2, .cls-3 {
        fill-rule: evenodd;
      }
    </style>
  </defs>
  <g id="koru-2">
    <polygon class="cls-3" points="139.888 246.775 139.888 184.376 156.517 184.376 156.517 209.857 156.694 209.857 175.467 184.376 195.494 184.376 172.428 213.429 197.283 246.775 176.095 246.775 156.694 218.443 156.517 218.443 156.517 246.775 139.888 246.775"/>
    <path class="cls-3" d="M209.763,215.575c0,5.475,1.064,9.938,3.197,13.396,2.42,3.918,5.905,5.875,10.458,5.875s8.038-1.957,10.455-5.875c2.133-3.458,3.201-7.921,3.201-13.396,0-5.645-1.068-10.168-3.201-13.57-2.36-3.801-5.848-5.705-10.455-5.705s-8.098,1.904-10.458,5.705c-2.133,3.402-3.197,7.925-3.197,13.57ZM193.17,215.575c0-9.794,2.591-17.428,7.778-22.903,5.184-5.531,12.674-8.295,22.471-8.295s17.284,2.765,22.468,8.295c5.186,5.475,7.781,13.109,7.781,22.903,0,9.734-2.567,17.343-7.695,22.812-5.301,5.588-12.817,8.389-22.554,8.389s-17.227-2.764-22.471-8.299c-5.188-5.534-7.778-13.168-7.778-22.901Z"/>
    <path class="cls-3" d="M278.375,196.179v14.125h4.382c3.754,0,6.463-.328,8.132-.983,2.682-1.074,4.026-3.16,4.026-6.26,0-4.586-4.053-6.882-12.157-6.882h-4.382ZM261.747,246.775v-62.398h29.68c5.898,0,10.639,1.281,14.212,3.843,3.933,2.803,5.901,6.765,5.901,11.892,0,8.642-3.992,13.887-11.978,15.732v.186c2.382.656,4.171,2.14,5.362,4.468.297.595,1.461,3.688,3.487,9.295l6.081,16.982h-17.344l-3.577-11.263c-1.729-5.421-3.366-8.999-4.916-10.725-1.488-1.788-3.757-2.68-6.795-2.68h-3.485v24.668h-16.628Z"/>
    <path class="cls-3" d="M372.957,184.376v37.63c0,8.286-2.531,14.545-7.6,18.777-4.707,3.992-11.294,5.991-19.754,5.991s-15.052-1.999-19.761-5.991c-5.062-4.232-7.597-10.491-7.597-18.777v-37.63h16.626v34.858c0,10.138,3.577,15.2,10.732,15.2s10.725-5.062,10.725-15.2v-34.858h16.628Z"/>
    <g>
      <path class="cls-1" d="M493.578,302.449c-1.928,1.528-3.229,2.322-3.911,2.322-3.908,0-5.836-2.492-5.836-7.535,0-.852.34-2.493,1.078-4.931.849-2.774,1.302-4.59,1.472-5.554-1.075.852-3.174,3.232-6.289,7.029-2.721,3.397-4.308,5.096-4.705,5.096-.283,0-.679.229-1.075.229-1.191,0-1.757-.682-1.757-2.098,0-.112.793-2.21,2.324-6.289,1.869-4.984,3.059-8.269,3.683-9.915,1.078-3.062,2.38-6.912,3.967-11.502.226-1.187.453-2.439.738-3.685.396-1.47,1.357-2.21,2.774-2.21.908,0,1.361.682,1.361,2.098,0,.399-1.302,4.079-3.853,11.108-2.721,7.423-4.249,11.897-4.59,13.313,1.531-1.757,3.004-3.515,4.535-5.267,3.171-3.456,5.269-5.16,6.289-5.16,1.19,0,1.757.852,1.757,2.609,0,.282-.682,2.663-2.098,7.082-1.416,4.532-2.209,7.311-2.266,8.328-.17,2.04.964,3.685,2.266,3.685,1.078,0,2.381-.569,3.911-1.704,1.584-1.129,2.548-1.698,2.889-1.698.623,0,.849.282.679.905-.282.964-1.416,2.21-3.342,3.743Z"/>
      <path class="cls-1" d="M510.933,292.082c-3.57,3.056-6.8,4.702-9.689,4.872.115,1.246.738,2.322,1.869,3.169.908.681,1.814,1.022,2.777,1.022,1.075,0,2.721-.453,4.931-1.358,2.548-1.081,3.794-1.587,3.794-1.645.512-.112,1.02.058,1.416.453-.623.905-2.266,2.098-4.928,3.514-2.662,1.476-4.59,2.21-5.892,2.21-2.21,0-4.023-.852-5.439-2.492-1.19-1.476-1.814-3.174-1.872-5.16-.056-3.003,1.587-6.459,4.987-10.368,3.4-3.909,6.63-5.837,9.689-5.837.849,0,1.643.399,2.495,1.246.849.852,1.246,1.704,1.246,2.55,0,2.152-1.814,4.761-5.384,7.823ZM511.727,284.658c-1.643,0-3.512,1.018-5.666,3.115-1.813,1.811-3.003,3.456-3.627,4.985,1.135,0,2.21-.283,3.23-.847.509-.288,1.531-.964,3.059-2.098,1.587-1.193,2.833-2.721,3.797-4.703-.282-.282-.567-.453-.793-.453Z"/>
      <path class="cls-1" d="M537.692,296.501c-3.23,3.792-6.063,5.831-8.385,6.002-1.872.117-2.891-.676-3.003-2.433-.056-.57.17-1.246.623-2.098.508-.846,1.075-1.246,1.757-1.305.453-.053.735.229.905.74,0,.341,0,.676.055.964.115.112.285.171.456.171,1.643-.171,3.567-1.875,5.777-5.102,2.098-3.173,3.059-5.612,2.947-7.311-.17-1.981-1.416-3.115-3.059-3.056-2.38.17-4.872,2.492-7.479,7.082-1.928,3.345-3.797,7.647-5.61,12.919-1.361,4.021-2.155,6.684-2.325,8.047-.112.847-.453,2.093-.964,3.738-.679,2.21-1.02,3.402-1.075,3.568-.283.17-.737.399-1.361.623-.508.058-1.246-.564-2.21-1.811-.055-1.187.512-3.344,1.646-6.518,1.075-3.004,2.095-5.948,3.171-8.952l3.571-11.39c1.643-5.043,2.833-7.536,3.627-7.594.849-.053,1.134-.112.964-.112.849,0,1.302.794,1.36,2.38,1.584-3.115,5.099-5.325,8.555-5.384,1.361-.053,2.492.74,3.456,2.269.793,1.304,1.246,2.833,1.36,4.531.112,2.833-1.473,6.178-4.76,10.033Z"/>
      <path class="cls-1" d="M586.904,285.787c-1.305,1.475-2.666,2.95-3.967,4.366-.849,1.928-2.21,6.401-4.194,13.484-2.436,8.669-5.439,15.357-9.01,20.171-2.774,3.797-5.948,6.289-9.405,7.482-1.813.623-3.57.964-5.213.964-4.023,0-7.368-1.476-10.03-4.42-2.551-2.78-3.853-6.007-3.853-9.745,0-5.666,1.587-9.862,4.817-12.583.735-.735,1.132-1.076,1.246-1.129-.115.053.226.053.964.053-.397,1.757-1.305,3.403-2.833,5.043.055.74-.115,1.869-.456,3.456-.338,1.698-.509,2.95-.509,3.685,0,3.456.679,6.177,1.984,8.27,1.643,2.668,4.306,3.967,7.876,3.967,6.63,0,12.296-4.59,16.886-13.712,2.607-5.155,4.758-11.502,6.516-19.149.114-.058,0-.117-.341-.117-.056,0-1.587,1.363-4.532,4.025-2.947,2.663-4.76,4.021-5.384,4.021-.508,0-1.19-.394-1.925-1.246-.737-.793-1.078-1.416-1.078-1.869,0-2.039.964-4.931,2.891-8.669,2.04-3.909,3.115-6.289,3.171-7.024.341-.17.852-.282,1.476-.282.564,0,1.075.394,1.528,1.187.396.624.567,1.188.567,1.646,0-.058-.85,1.187-2.551,3.85-1.698,2.609-2.607,4.82-2.663,6.571,1.02-.505,2.155-1.299,3.4-2.375.964-.91,1.928-1.816,2.889-2.668,1.02-.905,2.607-2.374,4.705-4.361.964-1.981,1.869-4.021,2.833-6.06,2.152-3.914,4.194-5.837,6.118-5.837.511,0,.964.506,1.416,1.582.341.852.511,1.475.511,1.757,0,.852-1.304,2.78-3.852,5.666Z"/>
      <path class="cls-1" d="M620.86,296.043c-.226,1.534-1.699,3.291-4.362,5.213-2.663,1.928-4.705,2.892-6.121,2.892-.396,0-.679-.171-1.075-.171-.679,0-1.531-.394-2.492-1.246-.852-.735-1.361-1.305-1.587-1.816-.737-1.529-1.134-3.057-1.134-4.532,0-.511.055-1.076.17-1.587l-5.098,4.59c-2.098,1.646-4.082,2.493-5.895,2.493-.624,0-1.246-.564-1.869-1.699-.567-.964-.85-1.811-.85-2.492,0-2.322,1.869-5.554,5.666-9.692,3.797-4.132,6.8-6.172,8.954-6.119,1.302,0,1.643,1.135,2.095,2.04.282-.564.567-1.135.849-1.757.511-1.017,1.02-1.528,1.531-1.528.508,0,1.132.34,1.869,1.075.282.453.17,1.363-.283,2.663-.793,1.134-1.36,2.157-1.757,3.061-.396,1.023-.849,2.493-1.304,4.42-.397,1.699-.624,2.721-.624,3.115,0,1.305.285,2.492.852,3.573.735,1.416,1.699,2.093,3.001,2.093,1.078,0,2.495-.564,4.252-1.699,1.528-.964,3.001-1.928,4.476-2.891h.735ZM603.75,286.751c-.626,0-1.587.569-2.836,1.646-.735.681-1.528,1.357-2.266,2.098-.905.794-1.813,1.922-2.777,3.339-.905,1.416-1.416,2.609-1.584,3.573.168,0,.453.511.849.511.624,0,2.21-1.192,4.873-3.514,2.38-2.157,3.741-3.515,4.079-4.026.623-.964,1.078-1.981,1.36-3.057-.282,0-1.305-.569-1.698-.569Z"/>
      <path class="cls-1" d="M630.967,292.987c.567-2.21.849-3.233.849-3.174-1.757,1.869-3.174,3.397-4.249,4.644-1.984,2.327-3.345,4.249-4.079,5.666-.396,0-1.587.681-1.984.681s-.849-.282-1.36-.846c-.453-.57-.679-.91-.679-1.081,0-.282.453-2.21,1.357-5.889.964-3.686,1.757-6.63,2.381-8.729.226-.735,1.587-1.357,2.324-1.357.171,0,.453.112.85.34.511.336.793.506.849.506.115.74-.17,2.04-.849,3.914-.738,1.981-1.135,3.227-1.135,3.627,0,.165.058.335.17.453.85-.794,2.04-2.157,3.571-4.079,1.531-1.986,2.718-3.344,3.512-4.084,1.305-1.188,2.55-1.752,3.685-1.752.794,0,1.19.677,1.19,2.04s-.626,3.627-1.872,6.8c-1.19,3.168-1.813,5.325-1.813,6.459,0,1.981.737,2.998,2.268,2.998.623,0,2.436-.905,5.496-2.716.226.171.679.283.508.676-.508,1.081-1.587,2.268-3.115,3.573-1.531,1.246-2.721,1.869-3.627,1.869-3.004,0-4.646-2.039-4.987-6.065-.055-.847.171-2.322.738-4.473Z"/>
      <path class="cls-1" d="M656.706,298.653c-2.777,2.55-4.59,3.85-5.381,3.85-.171,0-.567,0-1.305.058-.679.058-1.135.112-1.303.112-1.19,0-2.268-.623-3.229-1.922-.964-1.304-1.475-2.55-1.475-3.743,0-1.416.849-4.079,2.55-7.988,1.757-4.079,3.004-6.118,3.853-6.118,1.19,0,2.095.735,2.718,2.151-.167.399-1.302,2.493-3.341,6.178-1.305,2.38-1.984,4.361-1.984,5.948,0,.341,0,.682.056.964.285.511.964.793,1.983.793,1.416,0,3.345-.964,5.78-2.891,2.889-2.21,4.532-3.456,5.043-3.627,0,.058.283.399.283.794,0,1.081-1.416,2.891-4.249,5.442Z"/>
      <path class="cls-1" d="M672.359,292.987c.567-2.21.849-3.233.849-3.174-1.757,1.869-3.174,3.397-4.249,4.644-1.984,2.327-3.344,4.249-4.079,5.666-.396,0-1.587.681-1.984.681s-.849-.282-1.36-.846c-.453-.57-.679-.91-.679-1.081,0-.282.453-2.21,1.358-5.889.964-3.686,1.757-6.63,2.38-8.729.226-.735,1.587-1.357,2.325-1.357.17,0,.453.112.849.34.511.336.794.506.849.506.115.74-.17,2.04-.849,3.914-.737,1.981-1.135,3.227-1.135,3.627,0,.165.059.335.171.453.849-.794,2.039-2.157,3.57-4.079,1.531-1.986,2.718-3.344,3.512-4.084,1.305-1.188,2.551-1.752,3.685-1.752.794,0,1.19.677,1.19,2.04s-.626,3.627-1.871,6.8c-1.19,3.168-1.814,5.325-1.814,6.459,0,1.981.737,2.998,2.268,2.998.624,0,2.436-.905,5.496-2.716.226.171.679.283.509.676-.509,1.081-1.587,2.268-3.115,3.573-1.531,1.246-2.721,1.869-3.627,1.869-3.003,0-4.646-2.039-4.987-6.065-.056-.847.17-2.322.737-4.473Z"/>
      <path class="cls-1" d="M698.098,298.653c-2.777,2.55-4.59,3.85-5.381,3.85-.17,0-.567,0-1.305.058-.679.058-1.134.112-1.302.112-1.19,0-2.268-.623-3.23-1.922-.964-1.304-1.475-2.55-1.475-3.743,0-1.416.849-4.079,2.551-7.988,1.757-4.079,3.003-6.118,3.852-6.118,1.191,0,2.095.735,2.719,2.151-.168.399-1.302,2.493-3.342,6.178-1.305,2.38-1.984,4.361-1.984,5.948,0,.341,0,.682.056.964.285.511.964.793,1.984.793,1.416,0,3.344-.964,5.78-2.891,2.889-2.21,4.532-3.456,5.043-3.627,0,.058.282.399.282.794,0,1.081-1.416,2.891-4.249,5.442Z"/>
      <path class="cls-1" d="M723.946,295.707c-2.322,1.3-4.42,2.21-6.289,2.774-1.36.394-3.738,1.476-7.138,3.174-3.003,1.529-4.705,2.322-5.101,2.322s-.905-.511-1.473-1.475c-.508-.847-.737-1.358-.737-1.528,1.023-1.188,2.439-3.174,4.308-5.837.849-1.528,3.174-5.043,6.968-10.597l-.338-.283c-.058,0-1.02.112-2.891.399-1.303.224-2.21.624-2.774,1.129-.058.852-.115,1.416-.229,1.645-.226.565-.735.852-1.528.852-.567,0-1.246-.399-2.098-1.134-.849-.74-1.246-1.416-1.246-1.928,0-2.268,2.721-3.568,8.161-3.856,1.302-.053,3.229-.335,5.666-.794.283-.053.849-.282,1.757-.623.905-.394,1.416-.564,1.587-.564.962,0,1.982,1.699,1.982,2.551,0,.282-.453.846-.509,1.075-.964.229-1.757.564-2.325,1.075-3.003,2.492-6.118,6.912-9.462,13.318-.112.053,0,.112.341.112.115,0,1.643-.623,4.646-1.811,3.004-1.192,5.384-1.816,7.027-1.816.509,0,1.075.229,1.699.624v1.192Z"/>
      <path class="cls-1" d="M760.114,295.932c0,.399-.567,1.358-1.701,3.003-.509.735-1.528,1.699-2.945,2.833-1.587,1.193-2.947,1.928-4.138,2.322-.509.171-1.303.118-2.381-.053-1.075-.171-1.869-.453-2.377-.74-2.439-1.529-3.627-4.532-3.627-8.893,0-1.364.112-2.609.396-3.738-.964,1.981-2.721,4.361-5.157,7.082-3.23,3.509-6.007,5.325-8.273,5.496-.511,0-1.19-.453-2.154-1.363-.905-.964-1.361-1.587-1.416-1.869-.171-2.604,1.701-6.459,5.554-11.502,4.023-5.267,7.535-7.935,10.482-8.1.623,0,.964.053,1.02.112.112.053.567.512,1.302,1.476,1.416-2.721,2.777-5.442,4.138-8.105,2.322-4.361,4.362-7.194,6.175-8.445.567.287,1.02.458,1.305.623,0,.288.679,1.305.679,1.587,0,.059,0,.171-.056.229-1.246,1.528-3.286,5.101-6.062,10.767-1.076,2.093-2.04,4.703-3.004,7.817-1.134,3.685-1.643,6.401-1.587,8.217.055,1.305.285,2.38.567,3.232.567,1.752,1.531,2.663,2.947,2.774,1.303.112,2.945-.569,4.873-1.986l4.59-3.398c.168-.17.394-.112.791.229.058.17.058.283.058.394ZM741.924,285.11c-.679-.117-1.473.171-2.378.794-.682.506-1.36,1.075-1.984,1.641-.964.681-2.38,2.327-4.308,4.99-2.21,2.945-3.23,4.984-3.172,6.06,0,.229.112.399.283.569,1.19-.17,2.607-1.081,4.249-2.721,1.305-1.305,2.436-2.609,3.345-4.026.793-1.017,1.587-2.039,2.322-3.003,1.36-1.869,2.039-3.115,1.983-3.627-.055-.283-.17-.506-.34-.677Z"/>
      <path class="cls-1" d="M789.032,296.043c-.226,1.534-1.698,3.291-4.361,5.213-2.663,1.928-4.705,2.892-6.121,2.892-.396,0-.679-.171-1.075-.171-.679,0-1.531-.394-2.492-1.246-.852-.735-1.361-1.305-1.587-1.816-.737-1.529-1.134-3.057-1.134-4.532,0-.511.055-1.076.17-1.587l-5.099,4.59c-2.098,1.646-4.081,2.493-5.894,2.493-.624,0-1.246-.564-1.869-1.699-.567-.964-.85-1.811-.85-2.492,0-2.322,1.869-5.554,5.666-9.692,3.797-4.132,6.8-6.172,8.954-6.119,1.302,0,1.643,1.135,2.095,2.04.282-.564.567-1.135.849-1.757.511-1.017,1.02-1.528,1.531-1.528.508,0,1.132.34,1.869,1.075.282.453.17,1.363-.283,2.663-.794,1.134-1.36,2.157-1.757,3.061-.396,1.023-.849,2.493-1.305,4.42-.396,1.699-.623,2.721-.623,3.115,0,1.305.285,2.492.852,3.573.735,1.416,1.699,2.093,3.001,2.093,1.078,0,2.495-.564,4.252-1.699,1.528-.964,3.001-1.928,4.476-2.891h.735ZM771.923,286.751c-.626,0-1.587.569-2.835,1.646-.735.681-1.529,1.357-2.266,2.098-.905.794-1.813,1.922-2.777,3.339-.905,1.416-1.416,2.609-1.584,3.573.168,0,.453.511.849.511.624,0,2.21-1.192,4.873-3.514,2.38-2.157,3.74-3.515,4.079-4.026.623-.964,1.078-1.981,1.36-3.057-.282,0-1.305-.569-1.699-.569Z"/>
    </g>
    <path class="cls-2" d="M10.968,167.746v95.659h95.659v-95.659H10.968ZM89.997,246.775H27.598v-62.399h62.399v62.399Z"/>
    <g>
      <path class="cls-3" d="M406.84,244.178l1.383-13.307c4.894,2.651,10.427,3.974,16.59,3.974,6.63,0,9.944-1.957,9.944-5.875,0-2.938-2.484-5.242-7.437-6.917-7.833-2.645-12.385-4.381-13.653-5.181-4.955-3.052-7.43-7.722-7.43-14.004,0-6.627,2.876-11.523,8.64-14.692,4.553-2.537,10.427-3.802,17.631-3.802,5.995,0,11.176.748,15.561,2.244l-1.04,12.448c-4.032-1.846-8.496-2.768-13.396-2.768-7.204,0-10.806,1.877-10.806,5.618,0,2.477,2.477,4.467,7.432,5.965,7.322,2.247,11.869,3.919,13.659,5.014,4.953,3.055,7.43,7.722,7.43,14.004,0,13.246-8.844,19.876-26.535,19.876-6.622,0-12.618-.861-17.973-2.597Z"/>
      <path class="cls-3" d="M462.318,246.775v-62.398h16.63v62.398h-16.63Z"/>
      <path class="cls-3" d="M546.171,210.451v33.535c-7.263,1.843-15.035,2.765-23.34,2.765-9.274,0-17.052-2.31-23.333-6.917-7.545-5.529-11.321-13.534-11.321-24.029,0-10.832,3.602-18.925,10.806-24.285,6.45-4.781,15.556-7.171,27.306-7.171,7.491,0,13.57.892,18.237,2.677l-1.293,13.14c-4.438-2.595-9.333-3.893-14.694-3.893-7.091,0-12.679,1.499-16.765,4.496-4.666,3.342-7,8.356-7,15.036,0,5.822,1.896,10.458,5.702,13.917,3.632,3.399,8.443,5.098,14.431,5.098,2.364,0,4.266-.347,5.708-1.035v-11.924h-9.423v-11.41h24.979Z"/>
      <path class="cls-3" d="M572.076,215.574c0,5.474,1.064,9.938,3.193,13.396,2.423,3.918,5.912,5.875,10.459,5.875s8.041-1.957,10.458-5.875c2.129-3.458,3.2-7.922,3.2-13.396,0-5.645-1.071-10.169-3.2-13.57-2.358-3.802-5.845-5.705-10.458-5.705s-8.095,1.903-10.459,5.705c-2.129,3.401-3.193,7.925-3.193,13.57ZM555.479,215.574c0-9.794,2.597-17.429,7.784-22.903,5.181-5.532,12.677-8.296,22.466-8.296s17.29,2.764,22.471,8.296c5.188,5.474,7.778,13.109,7.778,22.903,0,9.733-2.56,17.344-7.687,22.812-5.302,5.588-12.822,8.389-22.562,8.389s-17.226-2.765-22.466-8.299c-5.187-5.534-7.784-13.169-7.784-22.902Z"/>
      <path class="cls-3" d="M641.829,196.179v14.125h4.381c3.757,0,6.468-.329,8.14-.983,2.68-1.075,4.023-3.16,4.023-6.261,0-4.586-4.054-6.881-12.162-6.881h-4.381ZM625.199,246.775v-62.398h29.682c5.904,0,10.64,1.281,14.216,3.843,3.937,2.804,5.899,6.766,5.899,11.893,0,8.642-3.986,13.886-11.975,15.731v.187c2.381.655,4.171,2.14,5.365,4.468.297.594,1.462,3.688,3.485,9.295l6.077,16.982h-17.342l-3.576-11.263c-1.727-5.422-3.368-8.999-4.92-10.725-1.485-1.789-3.751-2.68-6.79-2.68h-3.49v24.668h-16.63Z"/>
      <polygon class="cls-3" points="695.114 246.775 695.114 196.267 679.736 196.267 679.736 184.376 727.116 184.376 727.116 196.267 711.744 196.267 711.744 246.775 695.114 246.775"/>
      <path class="cls-3" d="M761.183,221.854l-6.922-17.972h-.173l-6.823,17.972h13.918ZM720.91,246.775l23.691-62.398h20.382l24.05,62.398h-18.238l-4.607-11.93h-23.984l-4.398,11.93h-16.895Z"/>
      <rect class="cls-1" x="462.318" y="167.746" width="16.63" height="11.087"/>
    </g>
  </g>
</svg>