<?xml version="1.0" encoding="UTF-8"?>
<svg id="Layer_1" data-name="Layer 1" xmlns="http://www.w3.org/2000/svg" viewBox="0 0 500 500">
  <defs>
    <style>
      .cls-1, .cls-2, .cls-3 {
        stroke-width: 0px;
      }

      .cls-1, .cls-3 {
        fill: #001689;
      }

      .cls-2 {
        fill: #ed1b31;
      }

      .cls-2, .cls-3 {
        fill-rule: evenodd;
      }
    </style>
  </defs>
  <g id="koru-2">
    <polygon class="cls-3" points="101.06 264.355 101.06 186.921 121.696 186.921 121.696 218.541 121.915 218.541 145.211 186.921 170.064 186.921 141.441 222.975 172.284 264.355 145.991 264.355 121.915 229.196 121.696 229.196 121.696 264.355 101.06 264.355"/>
    <path class="cls-3" d="M187.772,225.637c0,6.794,1.321,12.332,3.968,16.623,3.003,4.862,7.328,7.29,12.978,7.29s9.975-2.428,12.974-7.29c2.647-4.291,3.972-9.83,3.972-16.623,0-7.005-1.325-12.618-3.972-16.839-2.929-4.717-7.258-7.079-12.974-7.079s-10.049,2.362-12.978,7.079c-2.647,4.222-3.968,9.834-3.968,16.839ZM167.18,225.637c0-12.154,3.215-21.627,9.652-28.421,6.433-6.863,15.728-10.294,27.886-10.294s21.449,3.431,27.882,10.294c6.436,6.794,9.656,16.267,9.656,28.421,0,12.079-3.186,21.522-9.549,28.308-6.578,6.935-15.906,10.41-27.989,10.41s-21.378-3.43-27.886-10.299c-6.438-6.867-9.652-16.34-9.652-28.419Z"/>
    <path class="cls-3" d="M272.916,201.568v17.529h5.438c4.658,0,8.021-.407,10.091-1.22,3.328-1.333,4.996-3.921,4.996-7.768,0-5.691-5.03-8.54-15.087-8.54h-5.438ZM252.281,264.355v-77.434h36.832c7.32,0,13.202,1.59,17.637,4.769,4.881,3.479,7.323,8.395,7.323,14.758,0,10.724-4.954,17.233-14.864,19.523v.231c2.956.814,5.176,2.656,6.655,5.545.368.738,1.813,4.577,4.327,11.534l7.546,21.074h-21.523l-4.439-13.977c-2.146-6.728-4.176-11.167-6.101-13.309-1.847-2.219-4.662-3.326-8.432-3.326h-4.324v30.612h-20.635Z"/>
    <path class="cls-3" d="M390.288,186.921v46.698c0,10.283-3.14,18.05-9.431,23.301-5.841,4.954-14.015,7.435-24.513,7.435s-18.679-2.481-24.522-7.435c-6.282-5.252-9.427-13.018-9.427-23.301v-46.698h20.632v43.257c0,12.581,4.439,18.862,13.317,18.862s13.309-6.282,13.309-18.862v-43.257h20.635Z"/>
    <g>
      <path class="cls-1" d="M273.937,415.393c-1.404,1.113-2.353,1.692-2.85,1.692-2.847,0-4.252-1.816-4.252-5.49,0-.621.248-1.816.786-3.593.619-2.021.948-3.344,1.072-4.046-.784.621-2.312,2.355-4.582,5.121-1.983,2.475-3.139,3.713-3.428,3.713-.206,0-.495.167-.784.167-.868,0-1.28-.497-1.28-1.529,0-.081.578-1.61,1.693-4.582,1.362-3.631,2.229-6.025,2.683-7.224.786-2.231,1.734-5.036,2.89-8.38.165-.865.33-1.777.538-2.685.289-1.071.989-1.61,2.021-1.61.662,0,.992.497.992,1.529,0,.291-.948,2.972-2.807,8.093-1.983,5.408-3.096,8.667-3.344,9.699,1.115-1.28,2.188-2.561,3.304-3.837,2.31-2.518,3.838-3.759,4.582-3.759.867,0,1.28.621,1.28,1.901,0,.205-.497,1.94-1.529,5.16-1.032,3.302-1.61,5.327-1.651,6.068-.124,1.486.702,2.685,1.651,2.685.786,0,1.735-.415,2.85-1.242,1.154-.822,1.856-1.237,2.105-1.237.454,0,.619.205.495.66-.205.702-1.032,1.61-2.435,2.727Z"/>
      <path class="cls-1" d="M286.581,407.84c-2.601,2.227-4.954,3.426-7.059,3.55.084.908.538,1.692,1.362,2.309.662.496,1.321.745,2.023.745.784,0,1.983-.33,3.593-.989,1.856-.787,2.764-1.156,2.764-1.198.373-.082.743.043,1.032.33-.454.659-1.651,1.528-3.591,2.56-1.939,1.075-3.344,1.61-4.293,1.61-1.61,0-2.931-.621-3.963-1.816-.867-1.075-1.321-2.312-1.364-3.76-.041-2.188,1.156-4.706,3.633-7.554,2.477-2.848,4.831-4.252,7.059-4.252.619,0,1.197.291,1.818.908.619.621.908,1.242.908,1.858,0,1.568-1.321,3.469-3.923,5.7ZM287.159,402.431c-1.197,0-2.559.742-4.128,2.27-1.321,1.319-2.188,2.518-2.642,3.632.827,0,1.61-.206,2.353-.617.371-.21,1.115-.702,2.229-1.528,1.156-.869,2.064-1.983,2.766-3.426-.205-.205-.413-.33-.578-.33Z"/>
      <path class="cls-1" d="M306.077,411.06c-2.353,2.762-4.417,4.249-6.109,4.373-1.364.085-2.106-.493-2.188-1.773-.041-.415.124-.908.454-1.529.37-.617.784-.907,1.28-.951.33-.039.535.167.66.539,0,.248,0,.493.04.702.084.081.207.124.332.124,1.197-.124,2.599-1.366,4.209-3.717,1.529-2.312,2.229-4.089,2.147-5.327-.124-1.443-1.032-2.269-2.229-2.227-1.734.124-3.55,1.816-5.449,5.16-1.404,2.437-2.766,5.572-4.087,9.412-.992,2.929-1.57,4.869-1.694,5.862-.081.617-.33,1.525-.702,2.724-.495,1.61-.743,2.479-.784,2.6-.206.124-.537.291-.992.454-.37.043-.907-.411-1.61-1.319-.04-.865.373-2.436,1.199-4.749.784-2.188,1.527-4.334,2.31-6.522l2.602-8.298c1.197-3.674,2.064-5.49,2.642-5.533.619-.039.826-.081.702-.081.619,0,.948.578.991,1.734,1.154-2.269,3.715-3.879,6.233-3.923.992-.038,1.816.539,2.518,1.653.578.95.907,2.064.991,3.301.081,2.064-1.073,4.501-3.468,7.309Z"/>
      <path class="cls-1" d="M341.931,403.254c-.951,1.075-1.942,2.149-2.891,3.181-.619,1.405-1.61,4.663-3.055,9.824-1.775,6.316-3.963,11.189-6.564,14.696-2.021,2.767-4.334,4.582-6.852,5.451-1.321.454-2.601.702-3.798.702-2.931,0-5.368-1.075-7.307-3.22-1.859-2.025-2.807-4.376-2.807-7.1,0-4.128,1.156-7.185,3.509-9.167.535-.536.825-.784.908-.823-.084.039.165.039.702.039-.289,1.28-.951,2.479-2.064,3.674.04.539-.084,1.362-.332,2.518-.246,1.237-.371,2.149-.371,2.685,0,2.518.495,4.5,1.445,6.025,1.197,1.944,3.137,2.89,5.738,2.89,4.831,0,8.958-3.344,12.303-9.99,1.899-3.755,3.467-8.38,4.747-13.951.083-.043,0-.085-.248-.085-.041,0-1.156.993-3.302,2.933-2.147,1.94-3.468,2.929-3.923,2.929-.37,0-.867-.287-1.402-.908-.537-.578-.786-1.032-.786-1.362,0-1.486.702-3.592,2.106-6.316,1.486-2.848,2.27-4.582,2.31-5.118.248-.124.621-.205,1.075-.205.411,0,.784.287,1.113.865.289.454.413.865.413,1.199,0-.043-.619.865-1.859,2.805-1.237,1.901-1.899,3.511-1.94,4.787.743-.368,1.57-.946,2.477-1.73.702-.663,1.405-1.323,2.105-1.944.743-.659,1.899-1.73,3.428-3.177.702-1.443,1.362-2.929,2.064-4.415,1.568-2.852,3.055-4.252,4.458-4.252.372,0,.702.369,1.032,1.153.248.621.372,1.075.372,1.28,0,.621-.95,2.026-2.807,4.128Z"/>
      <path class="cls-1" d="M366.67,410.726c-.165,1.118-1.238,2.397-3.178,3.798-1.94,1.405-3.428,2.107-4.46,2.107-.289,0-.495-.124-.784-.124-.495,0-1.115-.287-1.816-.907-.621-.536-.992-.951-1.156-1.323-.537-1.114-.826-2.227-.826-3.302,0-.372.04-.784.124-1.156l-3.715,3.344c-1.529,1.199-2.974,1.816-4.295,1.816-.454,0-.908-.411-1.362-1.238-.413-.702-.619-1.319-.619-1.816,0-1.692,1.362-4.046,4.128-7.061,2.766-3.011,4.954-4.497,6.524-4.458.948,0,1.197.827,1.527,1.486.205-.411.413-.827.619-1.28.372-.741.743-1.113,1.115-1.113.37,0,.825.248,1.362.784.205.33.124.993-.206,1.94-.578.826-.991,1.571-1.28,2.23-.289.745-.619,1.816-.95,3.22-.289,1.238-.454,1.983-.454,2.27,0,.951.207,1.816.621,2.603.536,1.032,1.238,1.525,2.186,1.525.786,0,1.818-.411,3.098-1.238,1.113-.702,2.186-1.404,3.261-2.106h.536ZM354.204,403.956c-.456,0-1.156.415-2.066,1.199-.536.496-1.113.989-1.651,1.528-.66.578-1.321,1.401-2.023,2.433-.66,1.032-1.032,1.901-1.154,2.603.122,0,.33.372.619.372.454,0,1.61-.869,3.55-2.56,1.734-1.571,2.726-2.561,2.972-2.933.454-.702.786-1.443.991-2.227-.205,0-.951-.415-1.237-.415Z"/>
      <path class="cls-1" d="M374.033,408.5c.413-1.61.619-2.355.619-2.312-1.28,1.362-2.312,2.475-3.096,3.383-1.445,1.695-2.437,3.096-2.972,4.128-.289,0-1.156.496-1.445.496s-.619-.205-.991-.617c-.33-.415-.495-.663-.495-.788,0-.205.33-1.61.989-4.291.703-2.685,1.28-4.831,1.735-6.359.165-.535,1.156-.989,1.693-.989.124,0,.33.081.619.248.372.245.578.369.619.369.084.539-.124,1.486-.619,2.852-.538,1.443-.827,2.351-.827,2.642,0,.12.043.244.124.33.619-.578,1.486-1.571,2.602-2.972,1.115-1.447,1.98-2.436,2.559-2.976.951-.865,1.858-1.277,2.685-1.277.578,0,.867.493.867,1.486s-.456,2.642-1.364,4.954c-.867,2.308-1.321,3.879-1.321,4.706,0,1.443.537,2.184,1.653,2.184.454,0,1.775-.66,4.004-1.979.165.124.495.206.37.493-.37.788-1.156,1.653-2.269,2.603-1.115.908-1.983,1.362-2.642,1.362-2.188,0-3.385-1.486-3.634-4.419-.04-.617.124-1.692.538-3.259Z"/>
      <path class="cls-1" d="M392.786,412.627c-2.023,1.858-3.344,2.805-3.92,2.805-.124,0-.413,0-.951.043-.495.043-.827.081-.949.081-.867,0-1.653-.454-2.353-1.401-.702-.95-1.075-1.858-1.075-2.727,0-1.032.619-2.972,1.858-5.819,1.28-2.972,2.188-4.458,2.807-4.458.867,0,1.527.535,1.98,1.567-.122.291-.948,1.816-2.434,4.501-.951,1.734-1.445,3.177-1.445,4.333,0,.248,0,.497.041.703.207.372.702.578,1.445.578,1.032,0,2.437-.702,4.211-2.106,2.105-1.61,3.302-2.518,3.674-2.642,0,.043.206.291.206.578,0,.787-1.032,2.106-3.096,3.965Z"/>
      <path class="cls-1" d="M404.19,408.5c.413-1.61.619-2.355.619-2.312-1.28,1.362-2.312,2.475-3.096,3.383-1.445,1.695-2.436,3.096-2.972,4.128-.289,0-1.156.496-1.445.496s-.619-.205-.991-.617c-.33-.415-.495-.663-.495-.788,0-.205.33-1.61.989-4.291.702-2.685,1.28-4.831,1.734-6.359.165-.535,1.156-.989,1.694-.989.124,0,.33.081.619.248.372.245.578.369.619.369.084.539-.124,1.486-.619,2.852-.537,1.443-.827,2.351-.827,2.642,0,.12.043.244.124.33.619-.578,1.486-1.571,2.601-2.972,1.115-1.447,1.98-2.436,2.559-2.976.951-.865,1.859-1.277,2.685-1.277.578,0,.867.493.867,1.486s-.456,2.642-1.363,4.954c-.867,2.308-1.321,3.879-1.321,4.706,0,1.443.537,2.184,1.653,2.184.454,0,1.775-.66,4.004-1.979.165.124.495.206.371.493-.371.788-1.156,1.653-2.27,2.603-1.115.908-1.983,1.362-2.642,1.362-2.188,0-3.385-1.486-3.633-4.419-.041-.617.124-1.692.537-3.259Z"/>
      <path class="cls-1" d="M422.942,412.627c-2.023,1.858-3.344,2.805-3.92,2.805-.124,0-.413,0-.951.043-.495.043-.826.081-.948.081-.867,0-1.653-.454-2.353-1.401-.702-.95-1.075-1.858-1.075-2.727,0-1.032.619-2.972,1.859-5.819,1.28-2.972,2.188-4.458,2.807-4.458.868,0,1.527.535,1.981,1.567-.122.291-.948,1.816-2.435,4.501-.951,1.734-1.445,3.177-1.445,4.333,0,.248,0,.497.041.703.207.372.702.578,1.445.578,1.032,0,2.436-.702,4.211-2.106,2.105-1.61,3.302-2.518,3.674-2.642,0,.043.205.291.205.578,0,.787-1.032,2.106-3.096,3.965Z"/>
      <path class="cls-1" d="M441.775,410.482c-1.692.947-3.22,1.61-4.582,2.021-.991.287-2.724,1.075-5.201,2.312-2.188,1.114-3.428,1.692-3.717,1.692s-.66-.372-1.073-1.075c-.37-.617-.537-.989-.537-1.113.745-.865,1.777-2.312,3.139-4.252.619-1.113,2.312-3.674,5.076-7.721l-.246-.206c-.043,0-.743.082-2.106.291-.949.163-1.61.454-2.021.823-.043.621-.084,1.032-.167,1.198-.165.412-.535.621-1.113.621-.413,0-.908-.291-1.529-.826-.619-.539-.907-1.032-.907-1.404,0-1.653,1.983-2.6,5.945-2.809.948-.039,2.353-.244,4.128-.578.206-.039.619-.205,1.28-.454.66-.287,1.032-.411,1.156-.411.701,0,1.444,1.238,1.444,1.859,0,.205-.33.617-.371.784-.702.166-1.28.411-1.694.784-2.188,1.816-4.458,5.036-6.894,9.703-.081.039,0,.081.248.081.084,0,1.197-.454,3.385-1.319,2.188-.869,3.923-1.323,5.119-1.323.371,0,.784.167,1.238.454v.869Z"/>
      <path class="cls-1" d="M468.125,410.645c0,.291-.413.989-1.239,2.188-.371.536-1.113,1.238-2.145,2.064-1.156.869-2.147,1.405-3.014,1.692-.371.124-.949.086-1.735-.038-.784-.124-1.362-.33-1.732-.539-1.777-1.114-2.642-3.302-2.642-6.479,0-.994.081-1.901.289-2.724-.702,1.443-1.983,3.177-3.757,5.16-2.353,2.556-4.377,3.879-6.027,4.004-.372,0-.867-.33-1.569-.993-.66-.702-.992-1.156-1.032-1.362-.124-1.897,1.239-4.706,4.046-8.38,2.931-3.837,5.49-5.781,7.637-5.901.454,0,.702.039.743.081.081.039.413.373.948,1.075,1.032-1.983,2.023-3.965,3.014-5.905,1.692-3.177,3.178-5.241,4.499-6.153.413.209.743.334.951.454,0,.21.495.951.495,1.156,0,.043,0,.124-.041.167-.907,1.113-2.394,3.717-4.417,7.844-.784,1.525-1.486,3.426-2.188,5.695-.826,2.685-1.197,4.663-1.156,5.986.04.951.207,1.734.413,2.355.413,1.277,1.115,1.94,2.147,2.021.949.081,2.146-.415,3.55-1.447l3.344-2.476c.122-.124.287-.081.576.167.043.124.043.206.043.287ZM454.872,402.761c-.495-.085-1.073.124-1.733.578-.497.369-.991.784-1.445,1.195-.702.496-1.734,1.695-3.138,3.635-1.61,2.145-2.353,3.631-2.311,4.415,0,.166.082.291.206.415.867-.124,1.899-.788,3.096-1.983.951-.951,1.775-1.901,2.437-2.933.578-.741,1.156-1.486,1.692-2.188.991-1.362,1.486-2.27,1.445-2.642-.04-.206-.124-.369-.248-.493Z"/>
      <path class="cls-1" d="M489.194,410.726c-.165,1.118-1.237,2.397-3.177,3.798-1.94,1.405-3.428,2.107-4.46,2.107-.289,0-.495-.124-.784-.124-.495,0-1.115-.287-1.816-.907-.621-.536-.992-.951-1.156-1.323-.537-1.114-.826-2.227-.826-3.302,0-.372.04-.784.124-1.156l-3.715,3.344c-1.528,1.199-2.974,1.816-4.294,1.816-.454,0-.908-.411-1.362-1.238-.413-.702-.619-1.319-.619-1.816,0-1.692,1.362-4.046,4.128-7.061,2.766-3.011,4.954-4.497,6.524-4.458.948,0,1.197.827,1.527,1.486.205-.411.413-.827.619-1.28.372-.741.743-1.113,1.115-1.113.37,0,.825.248,1.362.784.205.33.124.993-.206,1.94-.578.826-.991,1.571-1.28,2.23-.289.745-.619,1.816-.951,3.22-.289,1.238-.454,1.983-.454,2.27,0,.951.207,1.816.621,2.603.536,1.032,1.238,1.525,2.186,1.525.786,0,1.818-.411,3.098-1.238,1.113-.702,2.186-1.404,3.261-2.106h.535ZM476.728,403.956c-.456,0-1.156.415-2.066,1.199-.536.496-1.114.989-1.651,1.528-.66.578-1.321,1.401-2.023,2.433-.66,1.032-1.032,1.901-1.154,2.603.122,0,.33.372.619.372.454,0,1.61-.869,3.55-2.56,1.734-1.571,2.725-2.561,2.972-2.933.454-.702.786-1.443.991-2.227-.205,0-.951-.415-1.238-.415Z"/>
    </g>
    <path class="cls-2" d="M189.285,37.065v118.709h118.709V37.065h-118.709ZM287.356,135.136h-77.434V57.702h77.434v77.434Z"/>
    <g>
      <path class="cls-3" d="M11.873,376.421l1.716-16.513c6.073,3.29,12.94,4.931,20.588,4.931,8.227,0,12.34-2.428,12.34-7.291,0-3.646-3.083-6.505-9.229-8.583-9.72-3.282-15.369-5.436-16.943-6.43-6.149-3.787-9.221-9.582-9.221-17.378,0-8.224,3.569-14.3,10.721-18.232,5.65-3.148,12.94-4.718,21.879-4.718,7.44,0,13.869.929,19.311,2.785l-1.291,15.447c-5.004-2.291-10.543-3.435-16.624-3.435-8.939,0-13.409,2.329-13.409,6.972,0,3.074,3.074,5.543,9.222,7.403,9.086,2.788,14.729,4.863,16.95,6.222,6.147,3.791,9.221,9.582,9.221,17.378,0,16.438-10.975,24.665-32.929,24.665-8.218,0-15.659-1.069-22.304-3.223Z"/>
      <path class="cls-3" d="M80.718,379.644v-77.434h20.637v77.434h-20.637Z"/>
      <path class="cls-3" d="M184.776,334.567v41.616c-9.013,2.286-18.657,3.431-28.964,3.431-11.508,0-21.161-2.867-28.956-8.583-9.364-6.861-14.049-16.794-14.049-29.818,0-13.442,4.47-23.485,13.41-30.137,8.005-5.933,19.304-8.899,33.886-8.899,9.296,0,16.839,1.107,22.632,3.323l-1.605,16.306c-5.508-3.22-11.581-4.831-18.234-4.831-8.799,0-15.733,1.861-20.805,5.58-5.791,4.147-8.686,10.369-8.686,18.659,0,7.225,2.353,12.978,7.075,17.27,4.507,4.218,10.477,6.327,17.908,6.327,2.934,0,5.294-.431,7.083-1.285v-14.797h-11.693v-14.16h30.998Z"/>
      <path class="cls-3" d="M216.923,340.925c0,6.793,1.32,12.332,3.963,16.624,3.007,4.862,7.336,7.29,12.979,7.29s9.979-2.428,12.978-7.29c2.643-4.292,3.971-9.831,3.971-16.624,0-7.006-1.329-12.619-3.971-16.84-2.926-4.718-7.253-7.08-12.978-7.08s-10.046,2.361-12.979,7.08c-2.643,4.221-3.963,9.834-3.963,16.84ZM196.326,340.925c0-12.154,3.223-21.629,9.66-28.422,6.43-6.865,15.731-10.295,27.879-10.295s21.456,3.43,27.885,10.295c6.438,6.793,9.652,16.268,9.652,28.422,0,12.078-3.177,21.523-9.539,28.309-6.58,6.934-15.911,10.41-27.998,10.41s-21.376-3.431-27.879-10.299c-6.437-6.867-9.66-16.342-9.66-28.42Z"/>
      <path class="cls-3" d="M303.483,316.857v17.529h5.436c4.663,0,8.027-.408,10.101-1.22,3.326-1.333,4.992-3.921,4.992-7.769,0-5.691-5.03-8.539-15.093-8.539h-5.436ZM282.846,379.644v-77.434h36.834c7.327,0,13.204,1.59,17.642,4.768,4.885,3.48,7.32,8.396,7.32,14.759,0,10.724-4.946,17.232-14.86,19.522v.232c2.955.813,5.175,2.656,6.658,5.545.369.737,1.814,4.577,4.324,11.534l7.542,21.074h-21.521l-4.438-13.977c-2.144-6.729-4.179-11.168-6.106-13.309-1.843-2.22-4.655-3.326-8.426-3.326h-4.331v30.612h-20.637Z"/>
      <polygon class="cls-3" points="369.607 379.644 369.607 316.966 350.523 316.966 350.523 302.21 409.32 302.21 409.32 316.966 390.244 316.966 390.244 379.644 369.607 379.644"/>
      <path class="cls-3" d="M451.596,348.719l-8.59-22.303h-.215l-8.467,22.303h17.271ZM401.619,379.644l29.399-77.434h25.293l29.845,77.434h-22.633l-5.717-14.805h-29.763l-5.458,14.805h-20.966Z"/>
      <rect class="cls-1" x="80.717" y="281.572" width="20.637" height="13.759"/>
    </g>
  </g>
</svg>