<?xml version="1.0" encoding="UTF-8"?>
<svg id="Layer_1" data-name="Layer 1" xmlns="http://www.w3.org/2000/svg" viewBox="0 0 800 500">
  <defs>
    <style>
      .cls-1 {
        fill: #ed1c2e;
        fill-rule: evenodd;
      }

      .cls-1, .cls-2 {
        stroke-width: 0px;
      }

      .cls-2 {
        fill: #878787;
      }
    </style>
  </defs>
  <g id="mapfre-2">
    <g>
      <path class="cls-1" d="M91.277,173.484c44.334,0,80.273,35.94,80.273,80.275s-35.939,80.275-80.273,80.275S11,298.095,11,253.759s35.941-80.275,80.277-80.275h0ZM91.277,181.13c-40.112,0-72.63,32.518-72.63,72.629s32.518,72.63,72.63,72.63,72.628-32.517,72.628-72.63-32.516-72.629-72.628-72.629Z"/>
      <path class="cls-1" d="M95.217,269.322v24.601h-7.875v-24.601c-3.762-.002-8.675-.017-10.533-.082l-26.115.063c-2.212.113-4.486-.394-6.533-1.574-3.969-2.294-6.102-6.52-5.929-10.775.004-.632.073-1.18.15-1.617.93-5.205,2.761-10.335,5.546-15.155,2.798-4.846,6.345-9.016,10.414-12.433,2.731-2.015,6.555-3.028,10.074-2.411.993-3.358,3.328-6.135,6.365-7.717.576-.331,1.116-.559,1.563-.721,5.919-2.141,12.299-3.306,18.933-3.306s13.079,1.176,19.025,3.339c3.422,1.487,6.472,4.598,7.749,8.309,3.362-.771,6.837-.021,9.575,2.055,4.069,3.418,8.202,8.037,11,12.883,2.784,4.82,4.615,9.95,5.545,15.155.076.437.146.984.151,1.617.174,4.254-1.961,8.481-5.931,10.775-2.047,1.18-4.319,1.687-6.532,1.574l-26.116-.063c-1.857.066-6.764.081-10.526.082h0ZM123.018,233.683c-1.244-.943-2.986-1.107-4.423-.276-.755.434-1.314,1.08-1.648,1.82l-13.23,23.053c-.404.61-.454,1.418-.064,2.095.398.691,1.15,1.052,1.894.987l26.569.067c.788.07,1.602-.096,2.338-.519,1.385-.802,2.112-2.305,1.988-3.802.01-.105.002-.232-.025-.387-.77-4.322-2.292-8.581-4.612-12.601-2.331-4.04-5.281-7.501-8.658-10.338-.045-.036-.089-.069-.129-.098h0ZM59.534,233.683c-.041.029-.083.062-.13.098-3.378,2.837-6.326,6.299-8.658,10.338-2.318,4.02-3.84,8.279-4.611,12.601-.027.155-.033.282-.026.387-.124,1.497.604,3,1.989,3.802.737.423,1.551.589,2.337.519l26.567-.067c.747.066,1.497-.296,1.897-.987.388-.677.339-1.486-.065-2.095l-13.23-23.053c-.334-.74-.893-1.385-1.648-1.82-1.438-.831-3.177-.667-4.423.276h0ZM107.796,224.411c-.056-.025-.118-.053-.185-.077-5.097-1.853-10.597-2.863-16.333-2.863-5.705,0-11.18,1.001-16.256,2.838-.181.066-.321.136-.426.211-1.669.787-2.824,2.485-2.824,4.454,0,1.045.324,2.013.88,2.81l16.409,28.252c.39.834,1.237,1.412,2.218,1.412.96,0,1.791-.553,2.191-1.359l16.414-28.263c.584-.81.928-1.803.928-2.877,0-2.041-1.244-3.792-3.014-4.538Z"/>
    </g>
    <g>
      <g>
        <polygon class="cls-1" points="229.865 173.267 250.385 215.284 270.907 173.267 301.939 173.269 301.939 257.303 270.907 257.303 270.907 215.284 250.385 257.301 229.865 215.284 229.865 257.3 198.834 257.3 198.834 173.267 229.865 173.267"/>
        <path class="cls-1" d="M363.445,185.85l-12.598,43.87h25.198l-12.601-43.87h0ZM311.895,257.303l24.136-84.036h54.832l24.134,84.036h-31.029l-3.962-13.792h-33.118l-3.962,13.792h-31.031Z"/>
        <path class="cls-1" d="M463.172,182.928c6.994,0,13.791,3.741,13.791,11.355s-5.994,13.79-13.791,13.79h-6.73v-25.145h6.73ZM482.964,173.305h-58.074v83.998h31.024v-35.003h27.05c13.529,0,24.496-10.968,24.496-24.499s-10.967-24.496-24.496-24.496Z"/>
        <polygon class="cls-1" points="518.222 173.267 600.719 173.267 600.719 187.058 549.249 187.058 549.249 208.427 600.719 208.427 600.719 222.219 549.249 222.219 549.249 257.303 518.222 257.303 518.222 173.267"/>
        <polygon class="cls-1" points="736.816 243.51 788.29 243.51 788.29 257.301 705.785 257.301 705.785 173.264 788.29 173.264 788.29 187.056 736.816 187.056 736.816 208.426 788.29 208.426 788.29 222.217 736.816 222.217 736.816 243.51"/>
        <path class="cls-1" d="M649.848,182.94c6.818,0,13.79,3.74,13.79,11.354s-6.171,13.786-13.79,13.786h-6.726v-25.14h6.726ZM694.136,235.608v.691c0-.23.008-.46,0-.691h0ZM694.136,236.299c0-.23.008-.46,0-.691-.366-11.279-9.634-20.31-21.002-20.31,11.599,0,21.002-9.404,21.002-21.004s-9.403-21.002-21.002-21.002h-61.559v84.011l31.548-.002v-34.789h6.726c7.605,0,13.79,6.173,13.79,13.787,0,.227-.008.451-.018.676v20.326h30.515v-21.002Z"/>
      </g>
      <g>
        <path class="cls-2" d="M321.048,330.085c-.404.511-.643.803-.872,1.103-2.015,2.641-4.607,4.21-7.964,4.595-4.962.569-9.904.559-14.808-.378-6.782-1.297-9.88-4.708-10.079-11.841-.224-7.984-.347-15.984.129-23.972.087-1.456.425-2.869.833-4.264,1.277-4.362,4.455-6.483,8.689-7.345,5.458-1.111,10.956-1.12,16.458-.464,3.028.361,5.51,1.73,7.168,4.401.23.371.402.828.985,1.127,0-1.444.028-2.792-.012-4.139-.02-.658.179-.889.864-.884,4.019.028,8.038.025,12.057.003.623-.003.861.214.805.815-.02.212-.002.427-.002.641,0,15.861-.001,31.723.001,47.584,0,2.228-.125,4.441-.701,6.607-1.363,5.125-4.758,8.349-9.582,10.235-4.349,1.7-8.899,2.423-13.528,2.559-6.539.192-13.078.139-19.606-.433-.96-.084-1.325-.303-1.289-1.334.081-2.349.076-4.704.003-7.053-.032-1.038.262-1.308,1.293-1.171,5.683.754,11.387,1.209,17.128,1.087,1.673-.036,3.325-.217,4.957-.572,4.437-.966,6.769-3.524,7.041-8.059.171-2.848.032-5.714.032-8.85ZM301.542,311.685c-.017,3.586-.231,7.177.032,10.759.206,2.814,1.098,3.955,3.729,4.394,3.855.644,7.741.691,11.59-.074,2.767-.549,4.092-1.938,4.132-4.732.101-7.003.102-14.009,0-21.012-.042-2.888-1.251-4.148-4.127-4.666-3.55-.639-7.14-.676-10.713-.194-3.321.448-4.493,1.661-4.614,5.02-.125,3.497-.028,7.002-.028,10.503Z"/>
        <path class="cls-2" d="M228.988,271.042c5.991.056,11.952.6,17.916,1.107,1.019.087,1.329.42,1.298,1.467-.085,2.906-.061,5.816-.011,8.723.016.952-.097,1.293-1.235,1.162-6.835-.782-13.664-1.707-20.566-1.638-2.436.024-4.873.175-7.255.749-3.167.762-4.33,2.26-4.336,5.529-.002,1.283.002,2.566.009,3.849.01,1.764.863,2.99,2.416,3.766,1.244.621,2.576.898,3.951.966,4.443.22,8.896-.076,13.337.24,2.607.185,5.168.604,7.645,1.486,4.45,1.583,7.419,4.632,8.418,9.224,1.185,5.442,1.198,10.958-.313,16.367-1.104,3.955-3.646,6.785-7.344,8.594-4.296,2.101-8.885,2.992-13.603,3.313-9.175.625-18.274-.295-27.367-1.391-1-.12-1.128-.517-1.116-1.366.042-2.993.07-5.988-.012-8.98-.032-1.169.242-1.411,1.419-1.228,6.755,1.055,13.515,2.111,20.366,2.314,2.825.084,5.642-.044,8.382-.857,3.786-1.122,5.09-2.855,5.09-6.766,0-1.069.034-2.14-.013-3.207-.158-3.574-2.041-5.559-5.599-5.967-3.327-.382-6.665-.162-9.998-.188-3.694-.029-7.337-.329-10.857-1.552-6.151-2.137-9.619-6.695-9.926-13.224-.116-2.475-.119-4.961-.032-7.437.179-5.091,2.62-8.819,7.065-11.255,3.627-1.988,7.604-2.764,11.643-3.261,3.525-.434,7.071-.609,10.626-.537Z"/>
        <path class="cls-2" d="M346.491,311.98c-.055-3.375-.334-6.769.09-10.122.972-7.688,4.593-11.895,12.167-13.597,8.145-1.83,16.364-1.781,24.488.304,6.497,1.667,9.739,6.254,10.721,12.62.641,4.157.224,8.364.283,12.547.037,2.648.161,5.323-.14,7.941-.88,7.661-4.468,11.792-12.113,13.39-8.191,1.712-16.448,1.645-24.648-.304-7.515-1.786-10.394-7.713-10.808-13.424-.224-3.103-.04-6.236-.04-9.355ZM360.607,311.703h.011c0,3.204-.05,6.409.014,9.612.06,3.021,1.285,4.795,3.808,5.359,3.924.878,7.886.86,11.818-.004,2.115-.465,3.27-1.906,3.594-4.011.123-.799.2-1.613.203-2.421.017-5.639.017-11.279,0-16.918-.002-.808-.079-1.621-.196-2.421-.343-2.346-1.607-3.898-3.971-4.452-3.162-.742-6.358-.739-9.547-.294-4.169.582-5.691,2.36-5.731,6.578-.028,2.99-.005,5.981-.005,8.972Z"/>
        <path class="cls-2" d="M512.044,331.469c-2.099,2.836-4.924,3.973-8.222,4.318-4.527.473-9.047.569-13.556-.108-5.495-.825-7.605-2.79-8.616-8.259-.791-4.278-.8-8.601.129-12.869,1.065-4.897,4.098-7.403,9.467-8.095,3.54-.456,7.089-.216,10.634-.265,2.95-.041,5.902-.042,8.852.012.862.016,1.097-.255,1.05-1.079-.09-1.575.054-3.155-.251-4.729-.42-2.17-1.627-3.495-3.809-3.954-3.984-.839-8.003-.601-12.011-.36-3.283.197-6.558.547-9.833.874-.814.081-1.111-.086-1.087-.977.064-2.35.036-4.703.012-7.055-.006-.603.1-.891.811-.962,8.482-.855,16.973-1.201,25.481-.466,2.17.188,4.299.643,6.403,1.24,4.779,1.357,7.295,4.62,8.116,9.384.285,1.651.356,3.314.357,4.982.006,10.263-.015,20.526.03,30.789.005,1.092-.305,1.336-1.353,1.318-3.848-.065-7.697-.05-11.546-.008-.837.009-1.141-.221-1.074-1.072.07-.881.016-1.773.016-2.66ZM505.727,313.941c-2.348.026-4.698-.084-7.038.22-2.357.306-3.025.922-3.392,3.255-.347,2.209-.358,4.423.009,6.63.347,2.091.926,2.675,3.062,2.953,3.318.432,6.643.374,9.964.001,2.297-.258,3.379-1.379,3.415-3.668.045-2.818-.005-5.638.034-8.457.01-.715-.183-.97-.928-.948-1.707.051-3.417.016-5.125.014Z"/>
        <path class="cls-2" d="M448.24,310.759c0-4.19-.033-8.381.023-12.571.014-1.034-.217-1.417-1.325-1.377-2.392.086-4.789,0-7.183.04-.803.013-1.128-.178-1.102-1.066.067-2.221.056-4.447.005-6.669-.019-.829.209-1.116,1.071-1.097,2.436.054,4.875-.024,7.311.041.94.025,1.24-.21,1.224-1.194-.061-3.719.003-7.44-.044-11.159-.012-.953.169-1.333,1.246-1.313,3.933.072,7.868.058,11.801.007.936-.012,1.243.201,1.226,1.191-.062,3.762.014,7.526-.051,11.288-.017.99.281,1.197,1.216,1.182,3.548-.056,7.098,0,10.647-.039.827-.009,1.115.207,1.09,1.072-.061,2.179-.067,4.362.002,6.541.03.948-.222,1.244-1.201,1.227-3.463-.061-6.927.014-10.39-.047-1.018-.018-1.377.178-1.368,1.301.061,7.183.038,14.367.038,21.55,0,1.462.18,2.897.59,4.301.551,1.887,1.98,2.671,3.772,3.016,2.559.492,5.113.282,7.657-.075.692-.097.9.028.891.733-.031,2.437-.014,4.874-.012,7.312,0,.404-.004.728-.576.778-5.889.514-11.78.953-17.556-.786-5.509-1.658-8.487-5.48-8.884-11.232-.041-.597-.107-1.195-.108-1.792-.01-3.72-.005-7.44-.005-11.16h-.007Z"/>
        <path class="cls-2" d="M418.869,294.821c2.768-5.065,6.909-7.514,12.429-7.704,1.367-.047,2.737.013,4.104-.016.603-.013.825.193.821.811-.022,3.378-.033,6.756.005,10.133.01.848-.446.846-1.053.851-2.861.021-5.735-.164-8.569.381-.875.168-1.744.41-2.584.707-2.927,1.034-4.378,3.18-4.405,6.234-.049,5.515-.025,11.031-.029,16.547-.003,3.805-.021,7.611.016,11.416.008.78-.201,1.025-1.002,1.018-4.105-.039-8.21-.04-12.314.001-.824.008-.988-.28-.987-1.035.019-15.008.022-30.016-.007-45.024-.002-.935.314-1.132,1.176-1.123,3.762.041,7.526.048,11.288-.003.911-.012,1.162.26,1.13,1.148-.066,1.835-.02,3.673-.02,5.657Z"/>
        <path class="cls-2" d="M275.761,311.731c0,7.394-.016,14.788.02,22.182.005.968-.2,1.313-1.251,1.296-3.974-.067-7.95-.05-11.924-.008-.833.009-1.072-.216-1.071-1.062.025-15.002.027-30.003-.002-45.005-.002-.934.299-1.123,1.164-1.114,3.932.043,7.865.052,11.796-.004,1.005-.014,1.297.26,1.291,1.278-.042,7.479-.023,14.959-.023,22.438Z"/>
        <path class="cls-2" d="M268.565,282.551c-2.05,0-4.1-.024-6.149.013-.671.012-.881-.198-.876-.871.029-3.288.027-6.576,0-9.864-.005-.613.182-.801.796-.797,4.227.023,8.455.02,12.682.002.543-.002.754.151.75.717-.019,3.331-.027,6.661.005,9.992.007.737-.328.825-.933.817-2.092-.025-4.185-.01-6.277-.01Z"/>
      </g>
    </g>
  </g>
</svg>