<?xml version="1.0" encoding="UTF-8"?>
<svg id="Layer_1" data-name="Layer 1" xmlns="http://www.w3.org/2000/svg" viewBox="0 0 500 500">
  <defs>
    <style>
      .cls-1 {
        fill: #ed1c2e;
        fill-rule: evenodd;
      }

      .cls-1, .cls-2 {
        stroke-width: 0px;
      }

      .cls-2 {
        fill: #878787;
      }
    </style>
  </defs>
  <g id="mapfre-1">
    <g>
      <path class="cls-2" d="M219.717,383.431c-.293.37-.467.583-.633.8-1.461,1.916-3.342,3.054-5.776,3.333-3.599.413-7.184.406-10.741-.274-4.919-.94-7.166-3.415-7.311-8.589-.162-5.791-.252-11.594.093-17.388.063-1.056.308-2.081.604-3.093.926-3.164,3.232-4.702,6.303-5.328,3.959-.806,7.947-.813,11.938-.337,2.196.262,3.997,1.255,5.2,3.193.167.269.292.601.715.818,0-1.047.021-2.025-.009-3.002-.014-.477.13-.645.627-.641,2.915.02,5.83.018,8.745.002.452-.003.625.155.584.591-.014.154-.001.31-.001.465,0,11.505,0,23.01,0,34.515,0,1.616-.091,3.222-.509,4.793-.989,3.718-3.451,6.056-6.951,7.424-3.155,1.233-6.455,1.758-9.812,1.856-4.743.139-9.486.101-14.221-.314-.696-.061-.961-.22-.935-.967.059-1.704.055-3.412.002-5.116-.023-.753.19-.949.938-.85,4.122.547,8.26.877,12.424.788,1.214-.026,2.412-.157,3.595-.415,3.219-.701,4.91-2.556,5.107-5.846.124-2.066.023-4.145.023-6.419ZM205.568,370.084c-.012,2.601-.168,5.206.023,7.804.15,2.041.796,2.869,2.705,3.187,2.796.467,5.615.501,8.407-.053,2.007-.399,2.968-1.406,2.997-3.433.073-5.08.074-10.162,0-15.241-.031-2.095-.908-3.009-2.993-3.384-2.575-.464-5.179-.49-7.771-.141-2.409.325-3.259,1.205-3.347,3.642-.091,2.537-.02,5.079-.02,7.619Z"/>
      <path class="cls-2" d="M152.941,340.604c4.346.041,8.669.435,12.996.803.739.063.964.305.942,1.064-.061,2.108-.044,4.219-.008,6.327.012.691-.07.938-.896.843-4.958-.568-9.912-1.238-14.918-1.188-1.767.018-3.534.127-5.262.543-2.298.553-3.141,1.64-3.145,4.01-.002.931.002,1.861.007,2.792.007,1.279.626,2.169,1.752,2.731.902.451,1.868.651,2.866.701,3.223.16,6.453-.055,9.674.174,1.891.134,3.749.438,5.545,1.078,3.228,1.149,5.381,3.36,6.106,6.69.859,3.948.869,7.949-.227,11.872-.801,2.869-2.645,4.922-5.327,6.234-3.116,1.524-6.445,2.17-9.867,2.403-6.655.453-13.255-.214-19.851-1.009-.725-.087-.818-.375-.809-.99.03-2.171.051-4.344-.008-6.514-.023-.848.175-1.024,1.029-.89,4.9.765,9.803,1.531,14.772,1.678,2.049.061,4.092-.032,6.08-.621,2.746-.814,3.692-2.071,3.692-4.908,0-.775.025-1.552-.01-2.326-.114-2.592-1.48-4.032-4.061-4.328-2.413-.277-4.835-.118-7.252-.136-2.68-.021-5.322-.239-7.875-1.126-4.462-1.55-6.977-4.856-7.2-9.592-.084-1.795-.087-3.599-.023-5.395.13-3.693,1.9-6.397,5.125-8.164,2.631-1.442,5.515-2.005,8.446-2.366,2.557-.315,5.129-.442,7.707-.39Z"/>
      <path class="cls-2" d="M238.172,370.299c-.04-2.448-.242-4.91.065-7.342.705-5.577,3.332-8.628,8.826-9.863,5.908-1.327,11.87-1.292,17.763.22,4.713,1.209,7.064,4.536,7.776,9.154.465,3.016.163,6.067.205,9.101.027,1.921.117,3.861-.101,5.76-.638,5.557-3.241,8.554-8.786,9.712-5.942,1.242-11.931,1.193-17.879-.22-5.451-1.295-7.54-5.595-7.839-9.738-.163-2.251-.029-4.523-.029-6.786ZM248.411,370.098h.008c0,2.324-.036,4.649.01,6.972.044,2.191.932,3.478,2.762,3.887,2.847.637,5.721.624,8.572-.003,1.534-.337,2.372-1.382,2.607-2.909.089-.579.145-1.17.147-1.756.012-4.091.012-8.181,0-12.272-.002-.586-.057-1.176-.142-1.756-.248-1.702-1.166-2.827-2.88-3.23-2.294-.538-4.611-.536-6.925-.213-3.024.422-4.128,1.712-4.157,4.771-.02,2.169-.004,4.339-.004,6.508Z"/>
      <path class="cls-2" d="M358.257,384.435c-1.522,2.057-3.572,2.882-5.964,3.132-3.283.343-6.563.413-9.833-.078-3.986-.599-5.517-2.024-6.25-5.991-.573-3.103-.58-6.239.093-9.335.773-3.552,2.973-5.37,6.867-5.872,2.567-.331,5.142-.157,7.714-.192,2.14-.029,4.281-.03,6.421.009.625.011.796-.185.762-.783-.065-1.143.039-2.289-.182-3.43-.305-1.574-1.18-2.535-2.763-2.868-2.89-.608-5.805-.436-8.712-.261-2.382.143-4.757.396-7.132.634-.59.059-.806-.062-.788-.708.047-1.705.026-3.412.009-5.118-.004-.437.073-.646.588-.698,6.153-.62,12.312-.871,18.483-.338,1.574.136,3.118.466,4.644.9,3.466.984,5.292,3.351,5.887,6.807.206,1.198.258,2.404.259,3.614.005,7.444-.011,14.889.022,22.333.003.792-.221.969-.982.956-2.791-.047-5.583-.036-8.375-.006-.607.007-.828-.16-.779-.777.051-.639.011-1.286.011-1.929ZM353.675,371.721c-1.703.019-3.408-.061-5.105.159-1.709.222-2.194.668-2.461,2.361-.252,1.602-.259,3.208.006,4.809.252,1.517.672,1.94,2.221,2.142,2.407.313,4.819.271,7.228,0,1.666-.187,2.451-1,2.477-2.66.033-2.044-.003-4.09.025-6.134.007-.519-.133-.704-.673-.688-1.238.037-2.478.012-3.718.01Z"/>
      <path class="cls-2" d="M311.977,369.413c0-3.04-.024-6.079.017-9.118.01-.75-.157-1.028-.961-.999-1.735.062-3.473,0-5.21.029-.583.01-.818-.129-.799-.773.048-1.611.041-3.226.003-4.838-.014-.601.151-.81.777-.796,1.767.039,3.536-.018,5.303.03.682.018.9-.152.888-.866-.044-2.698.002-5.397-.032-8.095-.009-.691.123-.967.904-.953,2.853.052,5.707.042,8.56.005.679-.009.901.146.89.864-.045,2.729.01,5.459-.037,8.187-.012.718.204.868.882.857,2.574-.04,5.149,0,7.723-.029.6-.007.808.15.791.778-.044,1.581-.049,3.164.002,4.744.022.688-.161.902-.871.89-2.512-.044-5.025.01-7.536-.034-.738-.013-.999.129-.992.944.044,5.21.027,10.421.028,15.632,0,1.06.131,2.101.428,3.12.4,1.369,1.436,1.937,2.736,2.188,1.856.357,3.709.205,5.554-.055.502-.071.653.02.646.532-.023,1.768-.01,3.536-.009,5.304,0,.293-.003.528-.418.564-4.271.373-8.545.692-12.735-.57-3.996-1.203-6.156-3.975-6.444-8.147-.03-.433-.078-.867-.079-1.3-.007-2.698-.004-5.397-.004-8.095h-.005Z"/>
      <path class="cls-2" d="M290.672,357.853c2.008-3.674,5.012-5.45,9.015-5.588.991-.034,1.985.01,2.977-.011.437-.009.598.14.595.589-.016,2.45-.024,4.9.004,7.35.007.615-.323.614-.763.617-2.075.015-4.16-.119-6.216.276-.635.122-1.265.298-1.874.513-2.123.75-3.175,2.307-3.195,4.522-.036,4.001-.018,8.002-.021,12.002-.002,2.76-.015,5.521.012,8.281.005.566-.146.744-.727.738-2.977-.028-5.955-.029-8.932,0-.598.006-.717-.203-.716-.751.014-10.886.016-21.772-.005-32.658-.001-.678.228-.821.853-.814,2.729.03,5.459.034,8.188-.002.661-.009.843.189.82.833-.048,1.331-.014,2.665-.014,4.103Z"/>
      <path class="cls-2" d="M186.868,370.118c0,5.363-.012,10.727.015,16.09.003.702-.145.953-.907.94-2.882-.049-5.766-.036-8.649-.006-.604.006-.778-.157-.777-.771.018-10.881.02-21.763-.002-32.644-.001-.678.217-.815.844-.808,2.852.031,5.705.038,8.556-.003.729-.01.94.188.936.927-.03,5.425-.016,10.85-.016,16.276Z"/>
      <path class="cls-2" d="M181.648,348.952c-1.487,0-2.974-.017-4.46.01-.487.009-.639-.144-.635-.632.021-2.385.019-4.77,0-7.155-.003-.444.132-.581.577-.578,3.066.016,6.133.014,9.199.002.394-.002.547.109.544.52-.014,2.416-.02,4.832.004,7.248.005.534-.238.598-.677.593-1.518-.018-3.035-.007-4.553-.007Z"/>
    </g>
    <g>
      <path class="cls-1" d="M250.002,77.601c42.865,0,77.615,34.75,77.615,77.616s-34.749,77.616-77.615,77.616-77.618-34.749-77.618-77.616,34.751-77.616,77.618-77.616h0ZM250.002,84.994c-38.784,0-70.225,31.441-70.225,70.223s31.441,70.224,70.225,70.224,70.223-31.44,70.223-70.224-31.439-70.223-70.223-70.223Z"/>
      <path class="cls-1" d="M253.81,170.265v23.786h-7.614v-23.786c-3.637-.002-8.387-.016-10.184-.08l-25.25.061c-2.138.109-4.337-.381-6.317-1.522-3.838-2.218-5.9-6.304-5.733-10.418.004-.611.071-1.141.145-1.563.9-5.033,2.67-9.993,5.362-14.653,2.705-4.685,6.135-8.717,10.069-12.021,2.641-1.948,6.338-2.927,9.741-2.331.961-3.247,3.217-5.932,6.154-7.461.557-.32,1.079-.541,1.511-.697,5.723-2.07,11.891-3.196,18.306-3.196s12.645,1.137,18.395,3.228c3.308,1.438,6.258,4.445,7.493,8.034,3.25-.745,6.61-.021,9.258,1.987,3.934,3.305,7.93,7.771,10.635,12.457,2.692,4.66,4.462,9.62,5.361,14.653.074.422.142.952.146,1.563.168,4.113-1.896,8.2-5.734,10.418-1.98,1.141-4.176,1.631-6.315,1.522l-25.251-.061c-1.795.064-6.54.078-10.177.08h0ZM280.691,135.806c-1.203-.912-2.887-1.07-4.276-.267-.73.42-1.271,1.044-1.594,1.759l-12.792,22.289c-.391.589-.439,1.371-.062,2.026.385.668,1.112,1.017,1.831.954l25.689.065c.762.068,1.549-.093,2.26-.502,1.339-.775,2.042-2.229,1.922-3.676.01-.101.002-.224-.024-.374-.745-4.178-2.216-8.297-4.459-12.183-2.254-3.906-5.106-7.253-8.371-9.996-.043-.035-.086-.067-.125-.095h0ZM219.309,135.806c-.04.028-.081.06-.125.095-3.266,2.743-6.116,6.09-8.371,9.996-2.241,3.886-3.713,8.005-4.458,12.183-.026.15-.032.273-.025.374-.12,1.448.584,2.901,1.923,3.676.712.409,1.5.57,2.26.502l25.687-.065c.722.064,1.448-.286,1.834-.954.375-.655.328-1.437-.063-2.026l-12.792-22.289c-.323-.716-.863-1.34-1.593-1.759-1.39-.803-3.072-.645-4.276.267h0ZM265.972,126.841c-.054-.025-.114-.051-.179-.075-4.928-1.792-10.246-2.768-15.793-2.768-5.516,0-10.81.968-15.718,2.744-.175.064-.31.131-.412.204-1.614.761-2.731,2.403-2.731,4.306,0,1.011.313,1.946.851,2.717l15.865,27.317c.377.807,1.196,1.366,2.144,1.366.928,0,1.732-.535,2.119-1.314l15.871-27.327c.564-.783.897-1.743.897-2.782,0-1.973-1.203-3.667-2.915-4.388Z"/>
    </g>
    <g>
      <polygon class="cls-1" points="37.305 251.566 53.856 285.457 70.409 251.566 95.438 251.568 95.438 319.349 70.409 319.349 70.409 285.457 53.856 319.347 37.305 285.457 37.305 319.346 12.276 319.346 12.276 251.566 37.305 251.566"/>
      <path class="cls-1" d="M145.049,261.716l-10.161,35.385h20.325l-10.163-35.385h0ZM103.469,319.349l19.468-67.783h44.227l19.466,67.783h-25.028l-3.196-11.124h-26.713l-3.195,11.124h-25.029Z"/>
      <path class="cls-1" d="M225.488,259.359c5.641,0,11.123,3.017,11.123,9.159s-4.835,11.123-11.123,11.123h-5.428v-20.282h5.428ZM241.452,251.597h-46.841v67.752h25.024v-28.233h21.818c10.913,0,19.758-8.847,19.758-19.761s-8.846-19.758-19.758-19.758Z"/>
      <polygon class="cls-1" points="269.89 251.566 336.432 251.566 336.432 262.69 294.916 262.69 294.916 279.926 336.432 279.926 336.432 291.05 294.916 291.05 294.916 319.349 269.89 319.349 269.89 251.566"/>
      <polygon class="cls-1" points="446.206 308.224 487.724 308.224 487.724 319.347 421.177 319.347 421.177 251.564 487.724 251.564 487.724 262.688 446.206 262.688 446.206 279.925 487.724 279.925 487.724 291.049 446.206 291.049 446.206 308.224"/>
      <path class="cls-1" d="M376.058,259.368c5.499,0,11.123,3.016,11.123,9.158s-4.977,11.119-11.123,11.119h-5.425v-20.277h5.425ZM411.78,301.85v.558c0-.186.006-.371,0-.558h0ZM411.78,302.407c0-.186.006-.371,0-.558-.295-9.097-7.771-16.381-16.94-16.381,9.356,0,16.94-7.585,16.94-16.941s-7.584-16.94-16.94-16.94h-49.653v67.762l25.446-.002v-28.06h5.425c6.134,0,11.123,4.979,11.123,11.12,0,.183-.006.364-.014.545v16.395h24.613v-16.94Z"/>
    </g>
  </g>
</svg>