<?xml version="1.0" encoding="UTF-8"?>
<svg id="Layer_1" data-name="Layer 1" xmlns="http://www.w3.org/2000/svg" viewBox="0 0 500 500">
  <defs>
    <style>
      .cls-1 {
        fill: #fff;
      }

      .cls-1, .cls-2 {
        stroke-width: 0px;
      }

      .cls-2 {
        fill: #026b4e;
      }
    </style>
  </defs>
  <g id="neova-1">
    <g>
      <path class="cls-2" d="M134.37,317.334c1.456.971,3.64,1.941,6.187,1.941,2.305,0,3.761-.728,3.761-2.184,0-1.092-.728-1.699-2.669-2.184l-3.154-.849c-3.397-.849-4.974-2.669-4.974-5.338,0-3.276,2.426-5.823,7.643-5.823,2.79,0,5.46.728,6.915,1.577l-1.092,3.64c-1.456-.849-3.882-1.577-5.945-1.577-2.305,0-3.276.728-3.276,1.82s.728,1.456,2.062,1.82l3.518.971c3.518.971,5.217,2.669,5.217,5.46,0,3.64-3.397,6.187-8.007,6.187-2.79,0-5.824-.971-7.037-1.699l.849-3.761Z"/>
      <path class="cls-2" d="M173.315,296.952c1.335,0,2.305.485,2.305,1.941s-.971,1.941-2.305,1.941c-1.456,0-2.305-.485-2.305-1.941,0-1.335.971-1.941,2.305-1.941M171.374,303.261h4.004v19.412h-4.004v-19.412Z"/>
      <path class="cls-2" d="M216.87,320.246c-1.82,1.456-5.338,2.669-8.25,2.669-5.702,0-10.312-3.761-10.312-9.949,0-6.309,4.61-10.07,10.312-10.07,3.154,0,5.581,1.092,7.522,2.669l-1.82,3.033c-1.456-1.213-3.276-1.941-5.581-1.941-3.518,0-6.309,2.305-6.309,6.309s2.79,6.309,6.43,6.309c1.577,0,2.912-.364,4.004-.971v-3.518h-5.096v-3.397h9.099v8.856h0Z"/>
      <path class="cls-2" d="M248.899,302.897c5.702,0,10.07,4.246,10.07,10.07,0,5.702-4.246,9.949-10.07,9.949-5.702,0-9.949-4.246-9.949-9.949s4.246-10.07,9.949-10.07M248.899,319.154c3.518,0,6.066-2.669,6.066-6.187s-2.426-6.187-6.066-6.187c-3.518,0-6.066,2.669-6.066,6.187s2.548,6.187,6.066,6.187"/>
      <path class="cls-2" d="M281.778,303.261h8.493c4.732,0,7.765,1.941,7.765,6.309,0,3.033-2.184,5.338-5.096,5.945l6.187,6.43v.607h-4.489l-6.43-6.915h-2.426v7.037h-4.004v-19.412h0ZM285.781,306.658v5.823h4.974c1.82,0,3.154-1.092,3.154-2.912,0-1.941-1.335-2.912-3.154-2.912h-4.974Z"/>
      <polygon class="cls-2" points="329.579 306.779 329.579 322.672 325.575 322.672 325.575 306.779 319.145 306.779 319.145 303.261 335.766 303.261 335.766 306.779 329.579 306.779"/>
      <path class="cls-2" d="M361.851,303.261h4.732l7.522,19.412h-4.004l-1.456-3.882h-8.857l-1.577,3.882h-4.004l7.643-19.412ZM360.759,315.757h6.794l-3.276-8.614-3.518,8.614Z"/>
    </g>
    <polygon class="cls-2" points="120.782 264.923 176.227 264.923 176.227 252.184 134.613 252.184 134.613 235.32 168.704 235.32 168.704 222.581 134.613 222.581 134.613 207.537 176.227 207.537 176.227 194.798 120.782 194.798 120.782 264.923"/>
    <polygon class="cls-2" points="62.668 241.993 23.36 194.798 10.742 194.798 10.742 264.923 25.179 264.923 25.179 217.849 64.609 264.923 77.106 264.923 77.106 194.798 62.668 194.798 62.668 241.993"/>
    <g>
      <path class="cls-2" d="M236.524,228.162c0-12.254,9.949-22.081,22.081-22.081,12.254,0,22.081,9.949,22.081,22.081,0,12.254-9.949,22.081-22.081,22.081s-22.081-9.827-22.081-22.081"/>
      <path class="cls-1" d="M257.634,247.938l-2.184,1.335-1.456-3.518,3.64,2.184ZM253.995,238.232l3.518,2.184-2.063,1.456-1.456-3.64ZM253.995,230.588l3.761,2.305-2.305,1.456-1.456-3.761ZM259.818,236.776l3.64-2.305-1.456,3.761-2.184-1.456ZM253.995,241.993l6.794,4.125-2.063,1.335-3.518-1.941-1.213-3.518ZM256.664,242.235l6.794-4.125-1.092,3.276-3.518,2.426-2.184-1.577ZM253.995,234.592l6.915,4.004-2.305,1.577-3.397-2.063-1.213-3.518ZM256.542,234.835l6.915-4.125-1.213,3.518-3.397,2.063-2.305-1.456ZM256.421,230.831h4.61l-2.184,1.699-2.426-1.699ZM259.818,244.177l3.64-2.305-1.456,3.761-2.184-1.456ZM258.605,228.283s-3.64-10.676-4.368-12.739c-.243-.849-.364-1.577.121-2.305l4.246-5.581,4.246,5.581c.607.728.485,1.456.121,2.305-.607,2.063-4.368,12.739-4.368,12.739M279.594,229.496h-19.654l8.978-4.61c4.974-2.548,6.673-.364,8.493,1.82l2.184,2.79ZM259.575,228.526l6.187-11.04c.849-1.456,2.79-2.184,4.61-1.092l6.915,4.125h-3.518c-1.577,0-2.79.607-3.882,1.335l-10.312,6.673ZM237.737,229.496l2.184-2.79c1.82-2.305,3.518-4.368,8.493-1.82l8.978,4.61h-19.654ZM257.756,228.526l-10.434-6.673c-1.092-.728-2.305-1.335-3.882-1.335h-3.518l6.915-4.125c1.82-1.092,3.882-.364,4.61,1.092l6.309,11.04ZM256.3,250.121l7.158-4.246-1.335,4.125c-1.092.121-2.184.243-3.397.243-.849,0-1.699,0-2.426-.121"/>
      <path class="cls-2" d="M258.605,177.085c-28.147,0-51.077,22.93-51.077,51.077s22.93,51.077,51.077,51.077,51.077-22.93,51.077-51.077c.121-28.147-22.809-51.077-51.077-51.077M258.605,265.651c-20.746,0-37.489-16.864-37.489-37.489,0-20.746,16.864-37.489,37.489-37.489,20.746,0,37.489,16.864,37.489,37.489.121,20.746-16.743,37.489-37.489,37.489"/>
    </g>
    <polygon class="cls-2" points="365.126 251.577 344.623 194.798 328.851 194.798 356.027 264.923 374.104 264.923 402.009 194.798 386.237 194.798 365.126 251.577"/>
    <path class="cls-2" d="M462.913,194.798h-16.985l-27.904,70.125h14.68l5.46-14.073h31.787l5.338,14.073h14.68l-27.055-70.125ZM441.803,240.173l12.618-31.059,12.011,31.059h-24.629Z"/>
  </g>
</svg>