<?xml version="1.0" encoding="UTF-8"?>
<svg id="Layer_1" data-name="Layer 1" xmlns="http://www.w3.org/2000/svg" viewBox="0 0 800 500">
  <defs>
    <style>
      .cls-1 {
        fill: #fff;
      }

      .cls-1, .cls-2 {
        stroke-width: 0px;
      }

      .cls-2 {
        fill: #026b4e;
      }
    </style>
  </defs>
  <g id="neova-2">
    <g>
      <path class="cls-2" d="M211.254,359.575c2.369,1.579,5.923,3.159,10.069,3.159,3.751,0,6.12-1.185,6.12-3.554,0-1.777-1.185-2.764-4.344-3.554l-5.133-1.382c-5.528-1.382-8.095-4.344-8.095-8.687,0-5.331,3.949-9.477,12.438-9.477,4.541,0,8.884,1.185,11.254,2.567l-1.777,5.923c-2.369-1.382-6.318-2.567-9.674-2.567-3.751,0-5.331,1.185-5.331,2.961s1.185,2.369,3.356,2.961l5.726,1.579c5.726,1.579,8.49,4.344,8.49,8.884,0,5.923-5.528,10.069-13.031,10.069-4.541,0-9.477-1.579-11.451-2.764l1.382-6.12Z"/>
      <path class="cls-2" d="M274.63,326.406c2.172,0,3.751.79,3.751,3.159s-1.579,3.159-3.751,3.159c-2.369,0-3.751-.79-3.751-3.159,0-2.172,1.579-3.159,3.751-3.159M271.471,336.673h6.515v31.589h-6.515v-31.589Z"/>
      <path class="cls-2" d="M345.509,364.314c-2.961,2.369-8.687,4.344-13.425,4.344-9.279,0-16.782-6.12-16.782-16.19,0-10.267,7.502-16.387,16.782-16.387,5.133,0,9.082,1.777,12.241,4.344l-2.961,4.936c-2.369-1.974-5.331-3.159-9.082-3.159-5.726,0-10.267,3.751-10.267,10.267s4.541,10.267,10.464,10.267c2.567,0,4.738-.592,6.515-1.579v-5.726h-8.292v-5.528h14.807v14.412h0Z"/>
      <path class="cls-2" d="M397.631,336.081c9.279,0,16.387,6.91,16.387,16.387,0,9.279-6.91,16.19-16.387,16.19-9.279,0-16.19-6.91-16.19-16.19s6.91-16.387,16.19-16.387M397.631,362.537c5.726,0,9.872-4.344,9.872-10.069s-3.949-10.069-9.872-10.069c-5.726,0-9.872,4.344-9.872,10.069s4.146,10.069,9.872,10.069"/>
      <path class="cls-2" d="M451.135,336.673h13.82c7.7,0,12.636,3.159,12.636,10.267,0,4.936-3.554,8.687-8.292,9.674l10.069,10.464v.987h-7.305l-10.464-11.254h-3.949v11.451h-6.515v-31.589h0ZM457.65,342.201v9.477h8.095c2.961,0,5.133-1.777,5.133-4.738,0-3.159-2.172-4.738-5.133-4.738h-8.095Z"/>
      <polygon class="cls-2" points="528.924 342.399 528.924 368.262 522.408 368.262 522.408 342.399 511.944 342.399 511.944 336.673 538.993 336.673 538.993 342.399 528.924 342.399"/>
      <path class="cls-2" d="M581.441,336.673h7.7l12.241,31.589h-6.515l-2.369-6.318h-14.413l-2.567,6.318h-6.515l12.438-31.589ZM579.664,357.009h11.056l-5.331-14.018-5.726,14.018Z"/>
    </g>
    <polygon class="cls-2" points="189.142 274.284 279.369 274.284 279.369 253.554 211.649 253.554 211.649 226.111 267.128 226.111 267.128 205.38 211.649 205.38 211.649 180.899 279.369 180.899 279.369 160.168 189.142 160.168 189.142 274.284"/>
    <polygon class="cls-2" points="94.572 236.969 30.603 160.168 10.07 160.168 10.07 274.284 33.565 274.284 33.565 197.68 97.731 274.284 118.066 274.284 118.066 160.168 94.572 160.168 94.572 236.969"/>
    <g>
      <path class="cls-2" d="M377.493,214.462c0-19.941,16.19-35.933,35.933-35.933,19.941,0,35.933,16.19,35.933,35.933,0,19.941-16.19,35.933-35.933,35.933s-35.933-15.992-35.933-35.933"/>
      <path class="cls-1" d="M411.846,246.644l-3.554,2.172-2.369-5.726,5.923,3.554ZM405.923,230.849l5.726,3.554-3.356,2.369-2.369-5.923ZM405.923,218.411l6.12,3.751-3.751,2.369-2.369-6.12ZM415.4,228.48l5.923-3.751-2.369,6.12-3.554-2.369ZM405.923,236.969l11.056,6.713-3.356,2.172-5.726-3.159-1.974-5.726ZM410.267,237.364l11.056-6.713-1.777,5.331-5.726,3.949-3.554-2.567ZM405.923,224.926l11.254,6.515-3.751,2.567-5.528-3.356-1.974-5.725ZM410.069,225.321l11.254-6.713-1.974,5.726-5.528,3.356-3.751-2.369ZM409.872,218.806h7.502l-3.554,2.764-3.949-2.764ZM415.4,240.523l5.923-3.751-2.369,6.12-3.554-2.369ZM413.425,214.66s-5.923-17.374-7.108-20.73c-.395-1.382-.592-2.567.197-3.751l6.91-9.082,6.91,9.082c.987,1.185.79,2.369.197,3.751-.987,3.356-7.108,20.73-7.108,20.73M447.581,216.634h-31.984l14.61-7.502c8.095-4.146,10.859-.592,13.82,2.961l3.554,4.541ZM415.005,215.054l10.069-17.966c1.382-2.369,4.541-3.554,7.502-1.777l11.254,6.713h-5.726c-2.567,0-4.541.987-6.318,2.172l-16.782,10.859ZM379.467,216.634l3.554-4.541c2.961-3.751,5.726-7.108,13.82-2.961l14.61,7.502h-31.984ZM412.043,215.054l-16.979-10.859c-1.777-1.185-3.751-2.172-6.318-2.172h-5.726l11.254-6.713c2.961-1.777,6.318-.592,7.502,1.777l10.267,17.966ZM409.674,250.197l11.649-6.91-2.172,6.713c-1.777.197-3.554.395-5.528.395-1.382,0-2.764,0-3.949-.197"/>
      <path class="cls-2" d="M413.425,131.343c-45.804,0-83.119,37.315-83.119,83.119s37.315,83.119,83.119,83.119,83.119-37.315,83.119-83.119c.197-45.804-37.117-83.119-83.119-83.119M413.425,275.469c-33.761,0-61.007-27.443-61.007-61.007,0-33.761,27.443-61.007,61.007-61.007,33.761,0,61.007,27.443,61.007,61.007.197,33.761-27.246,61.007-61.007,61.007"/>
    </g>
    <polygon class="cls-2" points="586.771 252.567 553.405 160.168 527.739 160.168 571.964 274.284 601.381 274.284 646.791 160.168 621.125 160.168 586.771 252.567"/>
    <path class="cls-2" d="M745.902,160.168h-27.641l-45.41,114.116h23.889l8.884-22.902h51.727l8.687,22.902h23.889l-44.027-114.116ZM711.549,234.008l20.533-50.543,19.546,50.543h-40.079Z"/>
  </g>
</svg>