<?xml version="1.0" encoding="UTF-8"?>
<svg id="Layer_1" data-name="Layer 1" xmlns="http://www.w3.org/2000/svg" viewBox="0 0 800 500">
  <defs>
    <style>
      .cls-1 {
        fill: #e81f76;
      }

      .cls-1, .cls-2, .cls-3 {
        stroke-width: 0px;
      }

      .cls-2 {
        fill: #93d500;
      }

      .cls-3 {
        fill: #182049;
      }
    </style>
  </defs>
  <g id="quick-2">
    <path class="cls-3" d="M91.47,307.636c-23.416,0-42.682-7.557-57.799-22.672-15.114-15.114-22.671-34.38-22.671-57.797,0-23.132,6.669-42.577,20.011-58.329,6.812-7.948,15.114-14.264,24.908-18.947,10.5-4.967,21.501-7.451,32.997-7.451,22.139,0,41.156,7.523,57.051,22.565,7.238,6.812,13.02,15.577,17.351,26.291,4.326,10.718,6.493,21.821,6.493,33.316,0,8.802-1.277,17.6-3.833,26.398-2.554,8.802-3.83,13.624-3.83,14.477,0,4.543.708,8.019,2.128,10.431.14.286,2.268,3.053,6.387,8.302,3.688,4.684,5.535,8.516,5.535,11.496,0,4.826-1.778,8.94-5.323,12.346-3.55,3.406-8.162,5.11-13.837,5.11-4.827,0-10.505-1.457-17.032-4.364-6.529-2.911-12.208-4.365-17.029-4.365-4.97,0-10.007.532-15.114,1.597-5.11,1.064-10.575,1.596-16.394,1.596ZM55.706,222.483c0,14.761,3.618,26.398,10.855,34.912,6.101,7.099,13.126,10.644,21.075,10.644,12.205,0,21.643-4.397,28.316-13.199,5.818-7.663,8.727-17.456,8.727-29.377,0-12.488-3.055-22.636-9.153-30.444-6.387-8.372-15.26-12.559-26.61-12.559-9.086,0-16.749,3.479-22.993,10.431-6.812,7.523-10.217,17.386-10.217,29.591Z"/>
    <path class="cls-3" d="M296.693,143.358c-17.877,0-23.048,12.022-23.048,31.537v66.394c0,22.404-21.663,22.919-21.663,22.919,0,0-21.663-.515-21.663-22.919v-66.394c0-19.515-5.171-31.537-23.048-31.537,0,0-24.56-.217-24.56,31.775v80.679c0,14.347,12.612,52.249,69.272,52.249s69.271-37.902,69.271-52.249v-80.679c0-31.992-24.56-31.775-24.56-31.775Z"/>
    <path class="cls-3" d="M382.274,233.816c.001-3.403.002-5.267.002-5.267h-.003c-.003-14.596-.007-37.061-.007-54.96,0-29.026-15.918-30.23-22.364-30.23,0,0-25.235.031-25.235,32.492v99.719c0,32.461,25.235,32.492,25.235,32.492,6.446,0,22.364-1.204,22.364-30.23,0-13.777.002-25.576.005-34.174h.005s0-3.776-.002-9.841Z"/>
    <path class="cls-3" d="M649.153,225.572c10.872-14.585,22.652-30.406,30.2-40.599,17.274-23.326,5.198-33.767.018-37.603,0,0-20.298-14.993-39.616,11.095-11.924,16.102-30.216,40.626-42.479,57.05-.002-13.153-.004-28.769-.004-41.925,0-29.026-15.918-30.23-22.364-30.23,0,0-25.235.031-25.235,32.492v52.698h0v47.021c0,32.461,25.235,32.492,25.235,32.492,3.628,0,10.255-.382,15.357-5.889,3.034-2.396,6.241-5.711,9.593-10.237,7.735-10.445,14.42-19.47,19.45-26.258,6.996,9.096,14.249,18.632,20.448,27.002,19.318,26.087,39.616,11.095,39.616,11.095,5.18-3.836,17.256-14.277-.018-37.603-7.548-10.193-19.328-26.014-30.2-40.599Z"/>
    <path class="cls-3" d="M526.664,246.528c-20.925-9.617-28.808,7.426-28.808,7.426,0,0-5.879,9.319-18.452,12.046-12.573,2.727-25.958-.656-35.079-15.193-3.593-5.727-5.281-11.938-6.013-17.367h.018s-.062-.361-.143-1.002c-.271-2.344-.371-4.523-.373-6.423.002-1.901.101-4.08.373-6.424.081-.641.143-1.002.143-1.002h-.018c.732-5.429,2.42-11.64,6.013-17.367,9.12-14.537,22.505-17.92,35.079-15.193,12.573,2.727,18.452,12.046,18.452,12.046,0,0,7.883,17.043,28.808,7.426,20.925-9.617,8.298-31.711,3.475-36.34-4.823-4.628-23.731-24.995-59.521-24.995s-56.31,25.036-60.234,30.857c-2.88,4.272-10.691,13.934-14.65,33.322-.244,1.302-.762,4.163-1.236,7.429-.124.932-.258,1.844-.364,2.814h-.015c-.329,2.644-.572,5.312-.573,7.433,0,2.117.243,4.779.571,7.418h.017c.11,1.007.248,1.955.378,2.922.458,3.14.953,5.893,1.202,7.228,3.953,19.452,11.785,29.137,14.67,33.416,3.924,5.821,24.444,30.857,60.234,30.857s54.697-20.367,59.521-24.995c4.823-4.628,17.45-26.722-3.475-36.34Z"/>
    <path class="cls-2" d="M782.521,240.546l-.942.691c-10.105,7.823-26.543,3.849-34.408-6.291l-7.319-9.395-35.177,45.154c-7.865,10.141-6.05,24.703,4.054,32.526,10.105,7.823,24.673,5.945,32.539-4.196l39.852-51.846c3.148-4.059,5.761-9.405,7.061-14.89-.97,3.208-2.778,6.066-5.66,8.246Z"/>
    <path class="cls-1" d="M781.58,209.864l.942.691c2.883,2.179,4.691,5.037,5.66,8.245-1.3-5.485-3.913-10.831-7.061-14.89l-39.852-51.845c-7.866-10.141-22.434-12.019-32.539-4.196-10.105,7.823-11.92,22.386-4.054,32.526l35.177,45.155,7.319-9.395c7.866-10.141,24.304-14.115,34.408-6.291Z"/>
    <path class="cls-3" d="M789.064,225.551c0-.037-.001-.073,0-.11-.044-2.186-.357-4.424-.882-6.64-.97-3.208-2.778-6.066-5.66-8.245l-.942-.691c-10.105-7.823-26.543-3.849-34.408,6.291l-7.319,9.395,7.319,9.395c7.866,10.141,24.304,14.115,34.408,6.291l.942-.691c2.883-2.18,4.691-5.037,5.66-8.246.525-2.216.838-4.454.882-6.64,0-.037,0-.073,0-.109Z"/>
    <g>
      <path class="cls-3" d="M494.904,337.359c6.989,1.584,8.759,5.73,8.759,9.644,0,6.056-4.566,10.575-13.791,10.575-9.69,0-14.023-4.845-14.023-8.479,0-1.863,1.351-3.168,3.215-3.168,4.146,0,3.075,6.057,10.808,6.057,3.96,0,6.15-2.19,6.15-4.426,0-1.351-.653-2.842-3.262-3.494l-8.619-2.19c-6.942-1.77-8.2-5.591-8.2-9.178,0-7.454,6.895-10.249,13.371-10.249,5.963,0,12.998,3.354,12.998,7.827,0,1.91-1.63,3.028-3.494,3.028-3.541,0-2.888-4.985-10.016-4.985-3.541,0-5.497,1.631-5.497,3.96s2.796,3.075,5.218,3.634l6.382,1.444Z"/>
      <path class="cls-3" d="M512.185,322.451c1.957,0,3.541,1.584,3.541,3.541s-1.584,3.541-3.541,3.541-3.541-1.584-3.541-3.541,1.584-3.541,3.541-3.541ZM508.784,335.216c0-1.817.746-3.401,3.401-3.401s3.401,1.584,3.401,3.401v18.776c0,1.817-.746,3.401-3.401,3.401s-3.401-1.584-3.401-3.401v-18.776Z"/>
      <path class="cls-3" d="M553.321,354.83c0,1.398-1.071,2.562-2.609,2.562-2.19,0-2.796-1.351-3.262-4.333-2.189,2.749-5.218,4.519-9.97,4.519-11.834,0-16.353-8.153-16.353-17.564,0-11.321,7.081-17.564,17.471-17.564,8.479,0,12.998,5.078,12.998,8.06,0,2.656-1.957,3.355-3.587,3.355-3.774,0-2.376-5.264-9.83-5.264-5.264,0-9.411,3.447-9.411,11.927,0,6.615,3.262,11.181,9.504,11.181,4.054,0,7.595-2.749,7.967-6.849h-4.985c-1.63,0-3.447-.605-3.447-2.935,0-1.863,1.071-2.935,2.982-2.935h9.41c2.237,0,3.122,1.118,3.122,3.215v12.626Z"/>
      <path class="cls-3" d="M575.632,322.451c10.995,0,16.958,7.314,16.958,17.145,0,9.458-5.497,17.983-16.958,17.983-12.02,0-16.958-7.827-16.958-17.983,0-9.83,5.963-17.145,16.958-17.145ZM575.632,351.429c6.942,0,9.318-5.404,9.318-11.833s-3.075-10.995-9.318-10.995-9.318,4.566-9.318,10.995,2.144,11.833,9.318,11.833Z"/>
      <path class="cls-3" d="M598.175,327.715c0-3.401,1.771-4.473,4.473-4.473h12.719c9.085,0,11.507,4.985,11.507,9.318,0,3.634-2.143,7.221-5.777,8.06v.093c3.914.559,4.613,3.401,4.613,6.802,0,3.867,1.025,5.311,1.025,6.895,0,1.771-1.817,2.982-3.588,2.982-4.193,0-4.519-4.053-4.519-5.404,0-5.87-1.071-8.247-5.264-8.247h-7.548v9.83c0,2.283-1.49,3.82-3.82,3.82s-3.821-1.537-3.821-3.82v-25.857ZM605.816,338.151h7.641c2.889,0,5.777-.745,5.777-4.519,0-3.588-2.19-4.519-5.545-4.519h-7.874v9.038Z"/>
      <path class="cls-3" d="M640.056,329.672h-7.222c-2.189,0-3.96-1.118-3.96-3.215s1.771-3.215,3.96-3.215h22.084c2.189,0,3.959,1.118,3.959,3.215s-1.77,3.215-3.959,3.215h-7.222v23.9c0,2.283-1.491,3.82-3.821,3.82s-3.82-1.537-3.82-3.82v-23.9Z"/>
      <path class="cls-3" d="M667.912,324.967c.653-1.724,1.864-2.329,3.728-2.329h1.816c1.724,0,3.262.419,4.101,2.795l9.224,25.67c.28.745.746,2.097.746,2.935,0,1.863-1.631,3.354-3.588,3.354-1.677,0-2.888-.605-3.447-2.096l-1.957-5.591h-12.3l-2.003,5.591c-.512,1.491-1.584,2.096-3.401,2.096-2.096,0-3.541-1.304-3.541-3.354,0-.838.466-2.19.745-2.935l9.877-26.136ZM672.525,330.93h-.094l-4.519,13.464h8.945l-4.332-13.464Z"/>
    </g>
  </g>
</svg>