<?xml version="1.0" encoding="UTF-8"?>
<svg id="Layer_1" data-name="Layer 1" xmlns="http://www.w3.org/2000/svg" viewBox="0 0 500 500">
  <defs>
    <style>
      .cls-1 {
        fill: #e81f76;
      }

      .cls-1, .cls-2, .cls-3 {
        stroke-width: 0px;
      }

      .cls-2 {
        fill: #93d500;
      }

      .cls-3 {
        fill: #182049;
      }
    </style>
  </defs>
  <g id="quick-1">
    <path class="cls-3" d="M59.95,285.494c-14.422,0-26.289-4.655-35.599-13.964-9.309-9.309-13.964-21.176-13.964-35.599,0-14.247,4.108-26.224,12.325-35.926,4.196-4.895,9.309-8.786,15.341-11.67,6.467-3.059,13.243-4.589,20.324-4.589,13.636,0,25.349,4.634,35.139,13.898,4.458,4.196,8.019,9.594,10.687,16.193,2.664,6.602,3.999,13.44,3.999,20.52,0,5.421-.786,10.84-2.361,16.259-1.573,5.421-2.359,8.392-2.359,8.917,0,2.798.436,4.939,1.311,6.425.086.176,1.397,1.881,3.934,5.113,2.271,2.885,3.409,5.245,3.409,7.081,0,2.972-1.095,5.506-3.278,7.604-2.187,2.098-5.027,3.147-8.523,3.147-2.973,0-6.47-.898-10.49-2.688-4.022-1.793-7.519-2.689-10.489-2.689-3.061,0-6.163.328-9.309.984-3.147.655-6.514.983-10.097.983ZM37.923,233.046c0,9.092,2.228,16.259,6.686,21.503,3.758,4.373,8.085,6.556,12.981,6.556,7.517,0,13.331-2.708,17.44-8.129,3.584-4.72,5.375-10.752,5.375-18.094,0-7.691-1.881-13.942-5.637-18.751-3.934-5.156-9.399-7.735-16.39-7.735-5.596,0-10.316,2.143-14.162,6.425-4.196,4.634-6.293,10.708-6.293,18.226Z"/>
    <path class="cls-3" d="M186.351,184.312c-11.011,0-14.196,7.404-14.196,19.424v40.893c0,13.799-13.343,14.116-13.343,14.116,0,0-13.343-.317-13.343-14.116v-40.893c0-12.02-3.185-19.424-14.196-19.424,0,0-15.127-.134-15.127,19.571v49.692c0,8.837,7.768,32.181,42.666,32.181s42.666-23.345,42.666-32.181v-49.692c0-19.704-15.127-19.571-15.127-19.571Z"/>
    <path class="cls-3" d="M239.062,240.027c0-2.096.001-3.244.001-3.244h-.002c-.002-8.99-.004-22.827-.004-33.851,0-17.878-9.804-18.619-13.774-18.619,0,0-15.543.019-15.543,20.013v61.419c0,19.993,15.543,20.013,15.543,20.013,3.97,0,13.774-.742,13.774-18.619,0-8.486.001-15.753.003-21.048h.003s0-2.326-.001-6.061Z"/>
    <path class="cls-3" d="M403.438,234.949c6.697-8.983,13.952-18.728,18.601-25.006,10.639-14.367,3.202-20.798.011-23.161,0,0-12.502-9.234-24.4,6.833-7.344,9.918-18.611,25.022-26.164,35.138-.001-8.101-.003-17.719-.003-25.822,0-17.878-9.804-18.62-13.774-18.62,0,0-15.543.019-15.543,20.013v32.458h0v28.961c0,19.993,15.543,20.013,15.543,20.013,2.234,0,6.316-.235,9.459-3.627,1.869-1.476,3.844-3.518,5.908-6.305,4.764-6.434,8.882-11.992,11.98-16.173,4.309,5.602,8.776,11.476,12.594,16.631,11.898,16.068,24.4,6.833,24.4,6.833,3.191-2.363,10.628-8.793-.011-23.161-4.649-6.278-11.904-16.022-18.601-25.006Z"/>
    <path class="cls-3" d="M327.995,247.856c-12.888-5.923-17.744,4.574-17.744,4.574,0,0-3.621,5.74-11.365,7.42-7.744,1.68-15.988-.404-21.606-9.358-2.213-3.527-3.253-7.353-3.703-10.697h.011s-.038-.222-.088-.617c-.167-1.444-.229-2.786-.23-3.956.001-1.171.063-2.513.23-3.956.05-.395.088-.617.088-.617h-.011c.451-3.344,1.491-7.169,3.703-10.697,5.617-8.954,13.862-11.038,21.606-9.358,7.744,1.68,11.365,7.42,11.365,7.42,0,0,4.855,10.497,17.744,4.574,12.888-5.923,5.111-19.532,2.14-22.382-2.971-2.851-14.617-15.395-36.66-15.395s-34.683,15.42-37.099,19.005c-1.774,2.631-6.585,8.582-9.023,20.524-.15.802-.47,2.564-.761,4.576-.077.574-.159,1.136-.224,1.733h-.009c-.202,1.628-.352,3.272-.353,4.578,0,1.304.15,2.944.352,4.569h.01c.067.62.153,1.204.233,1.8.282,1.934.587,3.629.74,4.452,2.434,11.981,7.259,17.946,9.036,20.582,2.417,3.585,15.056,19.005,37.099,19.005s33.689-12.544,36.66-15.395c2.971-2.851,10.748-16.459-2.14-22.382Z"/>
    <path class="cls-2" d="M485.583,244.171l-.58.426c-6.224,4.818-16.348,2.371-21.193-3.875l-4.508-5.787-21.666,27.812c-4.844,6.246-3.726,15.215,2.497,20.034,6.224,4.818,15.197,3.662,20.041-2.584l24.545-31.933c1.939-2.5,3.548-5.793,4.349-9.171-.597,1.976-1.711,3.736-3.486,5.079Z"/>
    <path class="cls-1" d="M485.003,225.274l.58.426c1.776,1.342,2.889,3.102,3.486,5.079-.801-3.379-2.41-6.671-4.349-9.171l-24.545-31.933c-4.845-6.246-13.817-7.403-20.041-2.584-6.224,4.819-7.342,13.788-2.497,20.034l21.666,27.812,4.508-5.787c4.845-6.246,14.969-8.694,21.193-3.875Z"/>
    <path class="cls-3" d="M489.613,234.936c0-.023,0-.045,0-.068-.027-1.346-.22-2.725-.543-4.09-.597-1.976-1.711-3.736-3.486-5.079l-.58-.426c-6.224-4.819-16.348-2.371-21.193,3.875l-4.508,5.787,4.508,5.787c4.845,6.246,14.969,8.694,21.193,3.875l.58-.426c1.776-1.342,2.889-3.103,3.486-5.079.323-1.365.516-2.743.543-4.09,0-.023,0-.045,0-.067Z"/>
    <g>
      <path class="cls-3" d="M308.434,303.801c4.305.976,5.395,3.529,5.395,5.94,0,3.73-2.812,6.514-8.494,6.514-5.968,0-8.637-2.984-8.637-5.222,0-1.148.832-1.951,1.98-1.951,2.554,0,1.894,3.731,6.657,3.731,2.439,0,3.788-1.349,3.788-2.726,0-.832-.402-1.751-2.009-2.152l-5.308-1.349c-4.276-1.09-5.051-3.444-5.051-5.653,0-4.591,4.247-6.313,8.236-6.313,3.673,0,8.006,2.066,8.006,4.821,0,1.177-1.004,1.865-2.152,1.865-2.181,0-1.779-3.07-6.169-3.07-2.181,0-3.386,1.004-3.386,2.439s1.722,1.894,3.214,2.238l3.931.89Z"/>
      <path class="cls-3" d="M319.077,294.619c1.205,0,2.181.976,2.181,2.181s-.976,2.181-2.181,2.181-2.181-.976-2.181-2.181.976-2.181,2.181-2.181ZM316.982,302.481c0-1.119.459-2.095,2.095-2.095s2.095.976,2.095,2.095v11.564c0,1.119-.459,2.095-2.095,2.095s-2.095-.976-2.095-2.095v-11.564Z"/>
      <path class="cls-3" d="M344.414,314.562c0,.861-.66,1.578-1.607,1.578-1.349,0-1.722-.832-2.009-2.669-1.348,1.693-3.214,2.783-6.141,2.783-7.289,0-10.072-5.022-10.072-10.818,0-6.973,4.362-10.818,10.761-10.818,5.222,0,8.006,3.128,8.006,4.964,0,1.636-1.205,2.066-2.209,2.066-2.325,0-1.464-3.242-6.055-3.242-3.242,0-5.796,2.123-5.796,7.346,0,4.075,2.009,6.887,5.854,6.887,2.497,0,4.678-1.693,4.907-4.218h-3.07c-1.004,0-2.123-.373-2.123-1.808,0-1.148.66-1.808,1.836-1.808h5.796c1.378,0,1.923.689,1.923,1.98v7.776Z"/>
      <path class="cls-3" d="M358.155,294.619c6.772,0,10.445,4.505,10.445,10.56,0,5.825-3.386,11.076-10.445,11.076-7.403,0-10.445-4.821-10.445-11.076,0-6.055,3.673-10.56,10.445-10.56ZM358.155,312.467c4.276,0,5.739-3.328,5.739-7.288s-1.894-6.772-5.739-6.772-5.739,2.812-5.739,6.772,1.32,7.288,5.739,7.288Z"/>
      <path class="cls-3" d="M372.04,297.861c0-2.095,1.091-2.755,2.755-2.755h7.834c5.595,0,7.088,3.07,7.088,5.739,0,2.238-1.32,4.448-3.558,4.964v.057c2.41.345,2.841,2.095,2.841,4.19,0,2.382.631,3.271.631,4.247,0,1.091-1.119,1.836-2.21,1.836-2.582,0-2.783-2.496-2.783-3.328,0-3.616-.66-5.079-3.242-5.079h-4.649v6.055c0,1.406-.918,2.353-2.353,2.353s-2.353-.947-2.353-2.353v-15.926ZM376.746,304.289h4.706c1.779,0,3.558-.459,3.558-2.783,0-2.21-1.349-2.783-3.415-2.783h-4.85v5.567Z"/>
      <path class="cls-3" d="M397.835,299.066h-4.448c-1.348,0-2.439-.689-2.439-1.98s1.091-1.98,2.439-1.98h13.602c1.348,0,2.438.689,2.438,1.98s-1.09,1.98-2.438,1.98h-4.448v14.721c0,1.406-.918,2.353-2.353,2.353s-2.353-.947-2.353-2.353v-14.721Z"/>
      <path class="cls-3" d="M414.993,296.168c.402-1.062,1.148-1.435,2.296-1.435h1.119c1.062,0,2.009.258,2.526,1.722l5.681,15.811c.172.459.459,1.291.459,1.808,0,1.148-1.005,2.066-2.21,2.066-1.033,0-1.779-.373-2.123-1.291l-1.205-3.444h-7.576l-1.234,3.444c-.316.918-.976,1.291-2.095,1.291-1.291,0-2.181-.803-2.181-2.066,0-.516.287-1.349.459-1.808l6.083-16.098ZM417.834,299.841h-.058l-2.783,8.293h5.509l-2.668-8.293Z"/>
    </g>
  </g>
</svg>