<?xml version="1.0" encoding="UTF-8"?>
<svg id="Layer_1" data-name="Layer 1" xmlns="http://www.w3.org/2000/svg" viewBox="0 0 800 500">
  <defs>
    <style>
      .cls-1 {
        fill: #fff;
      }

      .cls-1, .cls-2, .cls-3 {
        fill-rule: evenodd;
        stroke-width: 0px;
      }

      .cls-2 {
        fill: #231f20;
      }

      .cls-3 {
        fill: #ed1c24;
      }
    </style>
  </defs>
  <g id="Ray-2">
    <path class="cls-3" d="M59.173,247.879c0-62.984,51.057-114.041,114.043-114.041s114.042,51.057,114.042,114.041-51.057,114.047-114.042,114.047-114.043-51.057-114.043-114.047h0Z"/>
    <path class="cls-1" d="M117.527,256.603c11.027-1.956,17.004-11.231,17.004-21.951,0-16.596-11.645-23.916-27.007-23.916h-30.198v77.723h20.204v-29.898h.206l19.069,29.898h25.15l-24.427-31.855h0ZM97.53,226.195h1.957c6.597,0,14.018,1.24,14.018,9.694s-7.421,9.689-14.018,9.689h-1.957v-19.383h0Z"/>
    <path class="cls-1" d="M189.371,274.96l5.053,13.499h21.541l-29.274-77.723h-22.057l-29.893,77.723h21.438l5.363-13.499h27.828ZM183.91,259.495h-16.802l8.347-24.741h.21l8.245,24.741h0Z"/>
    <polygon class="cls-1" points="232.067 251.142 232.067 288.459 252.271 288.459 252.271 251.142 280.926 210.736 256.701 210.736 242.17 231.869 227.634 210.736 203.41 210.736 232.067 251.142 232.067 251.142"/>
    <path class="cls-2" d="M351.123,215.385c-6.912-3.919-16.498-6.39-24.324-6.39-15.568,0-26.804,10.307-26.804,26.078,0,15.051,8.351,18.349,21.025,21.954,4.335,1.238,12.278,3.195,12.278,8.867,0,5.466-5.063,7.836-9.801,7.836-6.902,0-12.88-3.608-17.933-8.042l-8.663,16.29c7.94,5.564,17.531,8.859,27.313,8.859,7.843,0,15.976-2.162,22.061-7.316,6.193-5.259,8.042-13.193,8.042-20.921,0-12.579-8.347-18.044-19.172-21.24l-5.152-1.543c-3.5-1.032-8.975-2.886-8.975-7.422,0-4.327,4.954-6.495,8.669-6.495,4.936,0,9.685,2.06,13.392,5.157l8.042-15.671h0Z"/>
    <path class="cls-2" d="M378.453,211.056h-20.203v77.716h20.203v-77.716h0ZM368.464,185.802c-5.673,0-10.214,4.537-10.214,10.102,0,5.669,4.541,10.103,10.214,10.103,5.563,0,10.096-4.434,10.096-10.103,0-5.564-4.533-10.102-10.096-10.102h0Z"/>
    <path class="cls-2" d="M423.384,245.381v15.873h16.497c-.827,8.966-7.531,13.507-16.292,13.507-13.292,0-20.509-12.267-20.509-24.327,0-11.855,6.902-24.534,20.203-24.534,8.141,0,14.02,4.951,16.801,12.369l19.172-8.037c-6.704-14.536-19.072-21.752-35.049-21.752-25.05,0-42.156,16.596-42.156,41.851,0,24.431,17.007,41.028,41.438,41.028,12.988,0,24.432-4.641,32.052-15.259,6.91-9.694,7.737-19.378,7.942-30.717h-40.101Z"/>
    <path class="cls-2" d="M506.182,208.479c-22.366,0-42.975,16.493-42.975,39.994,0,25.149,18.033,42.885,42.975,42.885s42.983-17.736,42.983-42.885c0-23.502-20.607-39.994-42.983-39.994h0ZM506.182,228.067c12.063,0,21.954,9.788,21.954,20.508,0,13.405-9.89,23.197-21.954,23.197s-21.954-9.792-21.954-23.197c0-10.719,9.899-20.508,21.954-20.508h0Z"/>
    <path class="cls-2" d="M593.1,256.927c11.031-1.961,17.008-11.236,17.008-21.957,0-16.595-11.641-23.914-26.998-23.914h-30.203v77.716h20.196v-29.888h.205l19.073,29.888h25.149l-24.431-31.845h0ZM573.104,226.519h1.965c6.597,0,14.02,1.239,14.02,9.688s-7.424,9.689-14.02,9.689h-1.965v-19.378h0Z"/>
    <polygon class="cls-2" points="648.255 228.166 664.949 228.166 664.949 211.056 611.348 211.056 611.348 228.166 628.051 228.166 628.051 288.772 648.255 288.772 648.255 228.166 648.255 228.166"/>
    <path class="cls-2" d="M714.234,275.274l5.044,13.498h21.549l-29.277-77.716h-22.063l-29.888,77.716h21.441l5.36-13.498h27.833ZM708.766,259.809h-16.802l8.347-24.736h.207l8.248,24.736h0Z"/>
  </g>
</svg>