<?xml version="1.0" encoding="UTF-8"?>
<svg id="Layer_1" data-name="Layer 1" xmlns="http://www.w3.org/2000/svg" viewBox="0 0 500 500">
  <defs>
    <style>
      .cls-1 {
        fill: #fff;
      }

      .cls-1, .cls-2, .cls-3 {
        fill-rule: evenodd;
        stroke-width: 0px;
      }

      .cls-2 {
        fill: #231f20;
      }

      .cls-3 {
        fill: #ed1c24;
      }
    </style>
  </defs>
  <g id="Ray-1">
    <path class="cls-3" d="M31.176,249.998c0-40.438,32.78-73.218,73.22-73.218s73.219,32.78,73.219,73.218-32.78,73.223-73.219,73.223-73.22-32.78-73.22-73.223h0Z"/>
    <path class="cls-1" d="M68.642,255.599c7.08-1.256,10.917-7.211,10.917-14.094,0-10.655-7.477-15.355-17.339-15.355h-19.388v49.901h12.972v-19.196h.132l12.243,19.196h16.147l-15.683-20.452h0ZM55.803,236.076h1.256c4.235,0,9,.796,9,6.224s-4.765,6.221-9,6.221h-1.256v-12.445h0Z"/>
    <path class="cls-1" d="M114.769,267.384l3.244,8.667h13.83l-18.795-49.901h-14.161l-19.192,49.901h13.764l3.443-8.667h17.867ZM111.262,257.456h-10.787l5.359-15.885h.135l5.293,15.885h0Z"/>
    <polygon class="cls-1" points="142.181 252.093 142.181 276.051 155.153 276.051 155.153 252.093 173.55 226.15 157.997 226.15 148.667 239.719 139.335 226.15 123.782 226.15 142.181 252.093 142.181 252.093"/>
    <path class="cls-2" d="M218.619,229.136c-4.438-2.516-10.593-4.103-15.617-4.103-9.995,0-17.209,6.618-17.209,16.743,0,9.664,5.362,11.78,13.499,14.095,2.783.795,7.883,2.051,7.883,5.693,0,3.51-3.251,5.031-6.293,5.031-4.432,0-8.269-2.317-11.514-5.163l-5.562,10.459c5.098,3.572,11.255,5.688,17.536,5.688,5.036,0,10.257-1.388,14.164-4.697,3.976-3.376,5.164-8.471,5.164-13.432,0-8.076-5.359-11.585-12.309-13.637l-3.308-.99c-2.247-.663-5.762-1.853-5.762-4.765,0-2.778,3.181-4.17,5.566-4.17,3.169,0,6.218,1.323,8.598,3.311l5.164-10.062h0Z"/>
    <path class="cls-2" d="M236.166,226.356h-12.971v49.897h12.971v-49.897h0ZM229.753,210.142c-3.642,0-6.558,2.913-6.558,6.486,0,3.639,2.915,6.486,6.558,6.486,3.572,0,6.482-2.847,6.482-6.486,0-3.573-2.91-6.486-6.482-6.486h0Z"/>
    <path class="cls-2" d="M265.013,248.394v10.191h10.592c-.531,5.757-4.835,8.672-10.46,8.672-8.534,0-13.167-7.876-13.167-15.619,0-7.612,4.431-15.752,12.971-15.752,5.227,0,9.001,3.179,10.787,7.941l12.309-5.16c-4.304-9.332-12.245-13.966-22.503-13.966-16.083,0-27.066,10.655-27.066,26.87,0,15.685,10.919,26.341,26.605,26.341,8.339,0,15.686-2.98,20.578-9.797,4.437-6.224,4.967-12.441,5.099-19.722h-25.746Z"/>
    <path class="cls-2" d="M318.173,224.701c-14.36,0-27.592,10.589-27.592,25.678,0,16.146,11.578,27.534,27.592,27.534s27.597-11.387,27.597-27.534c0-15.089-13.23-25.678-27.597-25.678h0ZM318.173,237.278c7.745,0,14.095,6.285,14.095,13.167,0,8.607-6.35,14.893-14.095,14.893s-14.095-6.287-14.095-14.893c0-6.882,6.356-13.167,14.095-13.167h0Z"/>
    <path class="cls-2" d="M373.978,255.807c7.082-1.259,10.92-7.214,10.92-14.097,0-10.655-7.474-15.354-17.334-15.354h-19.391v49.897h12.966v-19.189h.132l12.246,19.189h16.146l-15.685-20.446h0ZM361.139,236.284h1.261c4.235,0,9.001.796,9.001,6.22s-4.766,6.221-9.001,6.221h-1.261v-12.441h0Z"/>
    <polygon class="cls-2" points="409.389 237.341 420.107 237.341 420.107 226.356 385.693 226.356 385.693 237.341 396.417 237.341 396.417 276.252 409.389 276.252 409.389 237.341 409.389 237.341"/>
    <path class="cls-2" d="M451.75,267.586l3.239,8.666h13.835l-18.797-49.897h-14.165l-19.189,49.897h13.766l3.441-8.666h17.87ZM448.239,257.657h-10.787l5.359-15.882h.133l5.296,15.882h0Z"/>
  </g>
</svg>