<?xml version="1.0" encoding="UTF-8"?>
<svg id="Layer_1" data-name="Layer 1" xmlns="http://www.w3.org/2000/svg" xmlns:xlink="http://www.w3.org/1999/xlink" viewBox="0 0 500 500">
  <defs>
    <style>
      .cls-1 {
        fill: url(#linear-gradient);
      }

      .cls-1, .cls-2, .cls-3, .cls-4, .cls-5 {
        stroke-width: 0px;
      }

      .cls-6 {
        clip-path: url(#clippath-2);
      }

      .cls-7 {
        clip-path: url(#clippath-1);
      }

      .cls-3 {
        clip-rule: evenodd;
        fill: none;
      }

      .cls-4 {
        fill: url(#linear-gradient-2);
      }

      .cls-5 {
        fill: url(#linear-gradient-3);
      }

      .cls-8 {
        clip-path: url(#clippath);
      }
    </style>
    <clipPath id="clippath">
      <path class="cls-3" d="M167.291,169.601c0,44.925,36.415,81.343,81.337,81.343s81.353-36.418,81.35-81.343c.003-44.928-36.418-81.35-81.35-81.35s-81.337,36.421-81.337,81.35"/>
    </clipPath>
    <linearGradient id="linear-gradient" x1="248.636" y1="250.944" x2="248.636" y2="88.251" gradientUnits="userSpaceOnUse">
      <stop offset="0" stop-color="#630711"/>
      <stop offset="1" stop-color="#ea1a43"/>
    </linearGradient>
    <clipPath id="clippath-1">
      <path class="cls-3" d="M210.252,136.243c0-39.611,32.11-71.726,71.739-71.726s71.726,32.115,71.726,71.726-32.117,71.731-71.722,71.731-71.742-32.11-71.742-71.731ZM200.64,136.243c0,44.928,36.421,81.353,81.352,81.353s81.338-36.421,81.338-81.353-36.415-81.34-81.338-81.34-81.352,36.421-81.352,81.34Z"/>
    </clipPath>
    <linearGradient id="linear-gradient-2" x1="281.984" y1="217.596" x2="281.984" y2="54.903" gradientUnits="userSpaceOnUse">
      <stop offset="0" stop-color="#c7cccd"/>
      <stop offset=".09" stop-color="#a4a9ad"/>
      <stop offset=".4" stop-color="#3f4346"/>
      <stop offset=".5" stop-color="#dfe1e1"/>
      <stop offset="1" stop-color="#bbbfc1"/>
    </linearGradient>
    <clipPath id="clippath-2">
      <path class="cls-3" d="M215.175,136.243c0-36.896,29.912-66.804,66.816-66.804s66.805,29.908,66.805,66.804-29.912,66.814-66.805,66.814-66.816-29.908-66.816-66.814ZM208.053,136.243c0,40.831,33.099,73.93,73.941,73.93s73.915-33.099,73.915-73.93-33.096-73.921-73.918-73.921-73.938,33.096-73.938,73.921Z"/>
    </clipPath>
    <linearGradient id="linear-gradient-3" x1="281.981" y1="210.173" x2="281.981" y2="62.322" gradientUnits="userSpaceOnUse">
      <stop offset="0" stop-color="#575b5e"/>
      <stop offset=".27" stop-color="#999fa3"/>
      <stop offset=".5" stop-color="#dfe1e1"/>
      <stop offset=".86" stop-color="#999fa3"/>
      <stop offset="1" stop-color="#3f4346"/>
    </linearGradient>
  </defs>
  <g id="sompo-1">
    <g>
      <polygon class="cls-2" points="249.35 331.166 228.572 278.104 213.812 278.104 213.812 341.246 223.16 341.246 223.16 286.039 244.808 341.246 253.899 341.246 275.547 286.039 275.547 341.246 284.894 341.246 284.894 278.104 270.122 278.104 249.35 331.166"/>
      <path class="cls-2" d="M114.07,306.122l-5.555-2.178c-7.138-2.77-12.4-5.6-12.4-10.797,0-6.564,7.244-9.654,15.071-9.654,6.045,0,11.782,1.214,16.836,3.004l.72-6.889c-5.911-1.677-11.268-2.435-17.743-2.435-12.256,0-25.833,4.979-25.833,17.024,0,8.515,7.482,13.038,15.154,16.066l5.719,2.229c7.946,2.977,14.296,6.425,14.296,12.775,0,7.564-7.983,10.667-15.823,10.667-7.076,0-13.914-1.852-19.584-4.423l-.587,7.352c5.582,1.92,14.634,3.39,20.785,3.39,14.609,0,26.402-6.176,26.402-18.388,0-9.447-8.12-14.247-17.456-17.743"/>
      <path class="cls-2" d="M318.379,278.11h-19.677v63.14h10.285v-25.195h8.652c14.678,0,27.159-5.105,27.159-19.776,0-14.108-12.581-18.169-26.42-18.169M319.041,309.549h-10.054v-25.025h10.054c8.641,0,14.929,3.534,14.929,11.837s-5.67,13.188-14.929,13.188Z"/>
      <path class="cls-2" d="M383.603,277.122c-21.266,0-32.059,14.94-32.059,32.609s11.005,32.598,32.059,32.598,32.057-14.214,32.057-32.598-10.378-32.609-32.057-32.609M383.603,335.501c-15.117,0-21.116-14.269-21.116-25.771s6.207-25.782,21.116-25.782c15.221,0,21.123,14.033,21.123,25.782s-6.001,25.771-21.123,25.771Z"/>
      <path class="cls-2" d="M170.887,277.122c-21.259,0-32.046,14.94-32.046,32.609s10.998,32.598,32.046,32.598,32.057-14.214,32.057-32.598-10.378-32.609-32.057-32.609M170.887,335.501c-15.117,0-21.109-14.269-21.109-25.771s6.211-25.782,21.109-25.782c15.221,0,21.127,14.033,21.127,25.782s-5.999,25.771-21.127,25.771Z"/>
    </g>
    <g>
      <polygon class="cls-2" points="387.12 380.855 333.497 380.855 333.497 387.825 355.194 387.825 355.194 444.002 365.417 444.002 365.417 387.825 387.12 387.825 387.12 380.855"/>
      <path class="cls-2" d="M83.955,408.89l-5.551-2.178c-7.151-2.77-12.406-5.6-12.406-10.797,0-6.564,7.257-9.654,15.066-9.654,6.043,0,11.782,1.214,16.836,3.004l.726-6.889c-5.906-1.677-11.268-2.435-17.757-2.435-12.243,0-25.833,4.986-25.833,17.024,0,8.515,7.489,13.038,15.159,16.066l5.719,2.229c7.952,2.977,14.302,6.425,14.302,12.775,0,7.564-7.97,10.667-15.834,10.667-7.076,0-13.916-1.852-19.578-4.423l-.594,7.363c5.586,1.909,14.634,3.379,20.785,3.379,14.62,0,26.413-6.176,26.413-18.381,0-9.453-8.133-14.254-17.454-17.75"/>
      <path class="cls-2" d="M236.92,379.89c-21.273,0-32.066,14.94-32.066,32.609s11.007,32.598,32.066,32.598,32.059-14.208,32.059-32.598-10.387-32.609-32.059-32.609M236.92,438.27c-15.117,0-21.123-14.269-21.123-25.771s6.213-25.782,21.123-25.782c15.216,0,21.116,14.033,21.116,25.782s-5.988,25.771-21.116,25.771Z"/>
      <path class="cls-2" d="M169.9,416.022h14.172v20.679c-3.86,1.044-6.889,1.327-11.162,1.327-16.788,0-26.323-10.956-26.323-25.59s11.318-25.689,27.786-25.689c6.149,0,12.713.951,18.143,3.509l.627-7.582c-5.951-2.185-13.133-2.834-19.496-2.834-21.048,0-37.996,13.3-37.996,32.595s15.704,32.609,36.846,32.609c7.763,0,14.071-1.194,21.259-3.659v-32.189h-23.857v6.825Z"/>
      <rect class="cls-2" x="113.535" y="396.652" width="9.685" height="47.357"/>
      <rect class="cls-2" x="113.535" y="379.941" width="9.685" height="8.133"/>
      <path class="cls-2" d="M311.699,413.113c8.652-2.54,14.684-8.584,14.684-16.198,0-12.707-11.243-16.042-25.085-16.042h-20.739v63.143h10.285v-28.536h7.012c7.44.093,10.175,1.876,12.334,7.07,2.671,6.357,9.041,21.467,9.041,21.467h11.619s-7.597-17.47-10.074-22.593c-2.253-4.668-4.719-7.114-9.078-8.31M300.5,408.972h-9.654v-21.679h9.654c9.164,0,15.34,2.739,15.34,10.367s-6.081,11.312-15.34,11.312Z"/>
      <path class="cls-2" d="M419.729,380.873h-14.958l-26.034,63.136h10.773l6.8-16.986h31.872l6.789,16.986h10.817l-26.06-63.136ZM399.008,420.295l13.245-33.108,13.239,33.108h-26.484Z"/>
    </g>
    <g>
      <g class="cls-8">
        <rect class="cls-1" x="167.291" y="88.251" width="162.69" height="162.693"/>
      </g>
      <g class="cls-7">
        <rect class="cls-4" x="200.64" y="54.903" width="162.69" height="162.693"/>
      </g>
      <g class="cls-6">
        <rect class="cls-5" x="208.053" y="62.322" width="147.856" height="147.851"/>
      </g>
    </g>
  </g>
</svg>