<?xml version="1.0" encoding="UTF-8"?>
<svg id="Layer_1" data-name="Layer 1" xmlns="http://www.w3.org/2000/svg" xmlns:xlink="http://www.w3.org/1999/xlink" viewBox="0 0 800 500">
  <defs>
    <style>
      .cls-1 {
        fill: url(#linear-gradient);
      }

      .cls-1, .cls-2, .cls-3, .cls-4, .cls-5 {
        stroke-width: 0px;
      }

      .cls-2 {
        fill: #040404;
      }

      .cls-3 {
        fill: none;
      }

      .cls-4 {
        fill: url(#linear-gradient-2);
      }

      .cls-5 {
        fill: url(#linear-gradient-3);
      }
    </style>
    <linearGradient id="linear-gradient" x1="-326.015" y1="-395.242" x2="-326.015" y2="-396.917" gradientTransform="translate(26933.829 32917.432) scale(82.371 82.44)" gradientUnits="userSpaceOnUse">
      <stop offset="0" stop-color="#e21d3a"/>
      <stop offset="1" stop-color="#691614"/>
    </linearGradient>
    <linearGradient id="linear-gradient-2" x1="-325.396" y1="-414.409" x2="-325.396" y2="-412.768" gradientTransform="translate(24397.081 31113.124) scale(74.643 74.66)" gradientUnits="userSpaceOnUse">
      <stop offset="0" stop-color="#606264"/>
      <stop offset=".358" stop-color="#a5a8ab"/>
      <stop offset=".514" stop-color="#e7e8e8"/>
      <stop offset=".854" stop-color="#a5a8ab"/>
      <stop offset="1" stop-color="#48484a"/>
    </linearGradient>
    <linearGradient id="linear-gradient-3" x1="-325.914" y1="-412.85" x2="-325.914" y2="-414.481" gradientTransform="translate(27188.153 34613.989) scale(83.088 83.106)" gradientUnits="userSpaceOnUse">
      <stop offset="0" stop-color="#d2d3d5"/>
      <stop offset=".139" stop-color="#b1b4b7"/>
      <stop offset=".454" stop-color="#48484a"/>
      <stop offset=".563" stop-color="#e7e8e8"/>
      <stop offset="1" stop-color="#c7c8c9"/>
    </linearGradient>
  </defs>
  <g id="sompo-2">
    <path class="cls-2" d="M335.455,272.748l-16.234-41.269h-11.344v49.093h7.237v-43.03l16.821,43.03h7.041l16.821-43.03v43.03h7.237v-49.093h-11.54l-16.038,41.269ZM230.424,253.189l-4.303-1.76c-5.477-2.152-9.584-4.303-9.584-8.41,0-5.085,5.672-7.432,11.735-7.432,4.694,0,9.193.978,13.105,2.347l.587-5.281c-4.694-1.369-8.802-1.956-13.887-1.956-9.584,0-20.146,3.912-20.146,13.3,0,6.65,5.868,10.171,11.735,12.518l4.499,1.76c6.259,2.347,11.149,5.085,11.149,9.975,0,5.868-6.259,8.41-12.322,8.41-5.477,0-10.757-1.369-15.256-3.521l-.391,5.672c4.303,1.565,11.344,2.738,16.234,2.738,11.344,0,20.537-4.89,20.537-14.278-.196-7.628-6.454-11.344-13.691-14.082M389.829,255.927h-7.824v-19.559h7.824c6.65,0,11.54,2.738,11.54,9.193.196,6.65-4.303,10.366-11.54,10.366M389.438,231.479h-15.256v49.093h8.019v-19.559h6.846c11.344,0,21.124-3.912,21.124-15.452-.196-10.953-9.975-14.082-20.732-14.082M439.9,276.073c-11.735,0-16.43-11.149-16.43-20.146s4.89-20.146,16.43-20.146c11.931,0,16.43,10.953,16.43,20.146s-4.694,20.146-16.43,20.146M439.9,230.501c-16.625,0-25.035,11.54-25.035,25.427,0,13.691,8.606,25.427,25.035,25.427s25.035-11.149,25.035-25.427-8.215-25.427-25.035-25.427M274.431,276.073c-11.735,0-16.43-11.149-16.43-20.146s4.89-20.146,16.43-20.146c11.931,0,16.43,10.953,16.43,20.146,0,9.193-4.694,20.146-16.43,20.146M274.431,230.501c-16.625,0-25.036,11.54-25.036,25.427,0,13.691,8.606,25.427,25.036,25.427s25.036-11.149,25.036-25.427-8.215-25.427-25.036-25.427M743.651,230.501h-41.661v5.476h16.821v43.812h8.019v-43.812h16.821v-5.476ZM507.77,252.211l-4.303-1.76c-5.672-2.152-9.584-4.303-9.584-8.41,0-5.085,5.672-7.432,11.735-7.432,4.694,0,9.193.978,13.105,2.347l.587-5.281c-4.694-1.369-8.802-1.956-13.887-1.956-9.584,0-20.146,3.912-20.146,13.3,0,6.65,5.868,10.171,11.735,12.518l4.499,1.76c6.259,2.347,11.149,5.085,11.149,9.975,0,5.868-6.259,8.41-12.322,8.41-5.476,0-10.757-1.369-15.256-3.521l-.391,5.672c4.303,1.565,11.344,2.738,16.234,2.738,11.344,0,20.537-4.89,20.537-14.278,0-7.628-6.455-11.344-13.691-14.082"/>
    <path class="cls-2" d="M627.023,275.392c-11.735,0-16.43-11.149-16.43-20.146s4.89-20.146,16.43-20.146c11.931,0,16.43,10.953,16.43,20.146s-4.694,20.146-16.43,20.146M627.023,229.82c-16.625,0-25.035,11.54-25.035,25.427,0,13.691,8.606,25.427,25.035,25.427s25.035-11.149,25.035-25.427c-.196-14.278-8.215-25.427-25.035-25.427"/>
    <path class="cls-2" d="M574.857,257.883h10.953v16.038c-2.934.782-5.281.978-8.606.978-13.105,0-20.537-8.606-20.537-19.95s8.802-19.95,21.71-19.95c4.694,0,9.975.782,14.082,2.738l.391-5.868c-4.694-1.76-10.171-2.152-15.256-2.152-16.43,0-29.534,10.366-29.534,25.427s12.127,25.427,28.752,25.427c6.063,0,10.953-.978,16.625-2.934v-25.035h-18.581v5.281h0ZM530.85,279.594h7.628v-36.966h-7.628v36.966ZM530.85,236.173h7.628v-6.259h-7.628v6.259ZM676.564,252.407h-7.432v-16.821h7.432c7.237,0,11.931,2.152,11.931,8.019,0,6.063-4.694,8.802-11.931,8.802M685.366,255.732c6.65-1.956,11.344-6.65,11.344-12.518,0-9.975-8.802-12.518-19.559-12.518h-16.038v49.093h8.019v-22.297h5.476c5.868,0,7.824,1.369,9.584,5.476,2.347,5.476,4.694,11.149,7.041,16.625h8.997s-5.868-13.691-7.824-17.603c-1.76-3.521-3.716-5.281-7.041-6.259M753.04,261.208l10.366-25.818,10.366,25.818h-20.732ZM769.078,230.501h-11.54l-20.341,49.093h8.41l5.281-13.3h24.84l5.281,13.3h8.41l-20.341-49.093h0Z"/>
    <path class="cls-1" d="M10.581,264.61c0,38.14,30.903,69.043,69.043,69.043s69.043-30.903,69.043-69.043-30.903-69.043-69.043-69.043S10.581,226.47,10.581,264.61"/>
    <path class="cls-3" d="M107.433,167.75c-38.14,0-69.043,30.903-69.043,69.043s30.903,69.043,69.043,69.043,69.043-30.903,69.043-69.043-30.903-69.043-69.043-69.043ZM46.604,236.793c0-33.641,27.187-60.828,60.828-60.828s60.828,27.187,60.828,60.828-27.187,60.828-60.828,60.828-60.828-27.187-60.828-60.828Z"/>
    <path class="cls-3" d="M44.799,235.952c0,34.619,28.165,62.784,62.98,62.784s62.98-28.165,62.98-62.784-28.165-62.589-62.98-62.589-62.98,27.969-62.98,62.589M50.862,235.952c0-31.294,25.427-56.721,56.917-56.721s56.917,25.427,56.917,56.721-25.427,56.721-56.917,56.721-56.917-25.427-56.917-56.721"/>
    <path class="cls-4" d="M108.571,298.37c-34.619,0-62.589-27.969-62.589-62.589s27.969-62.589,62.589-62.589,62.589,27.969,62.589,62.589-27.969,62.589-62.589,62.589ZM108.767,293.285c31.49,0,57.112-25.622,57.112-57.112s-25.622-57.112-57.112-57.112-57.112,25.622-57.112,57.112,25.622,57.112,57.112,57.112h0Z"/>
    <path class="cls-5" d="M108.571,305.607c-38.531,0-69.63-31.099-69.63-69.63s31.099-69.63,69.63-69.63,69.63,31.099,69.63,69.63c0,38.336-31.099,69.63-69.63,69.63ZM108.571,297.979c34.228,0,62.002-27.774,62.002-62.002s-27.774-62.002-62.002-62.002-62.002,27.774-62.002,62.002c0,34.228,27.774,62.002,62.002,62.002h0Z"/>
  </g>
</svg>