<?xml version="1.0" encoding="UTF-8"?>
<svg id="Layer_1" data-name="Layer 1" xmlns="http://www.w3.org/2000/svg" xmlns:xlink="http://www.w3.org/1999/xlink" viewBox="0 0 500 500">
  <defs>
    <style>
      .cls-1 {
        fill: url(#linear-gradient-3);
      }

      .cls-1, .cls-2, .cls-3 {
        fill-rule: evenodd;
      }

      .cls-1, .cls-2, .cls-3, .cls-4 {
        stroke-width: 0px;
      }

      .cls-2 {
        fill: url(#linear-gradient);
      }

      .cls-3 {
        fill: url(#linear-gradient-2);
      }

      .cls-4 {
        fill: #231f20;
      }
    </style>
    <linearGradient id="linear-gradient" x1="333.805" y1="124.074" x2="253.213" y2="222.883" gradientUnits="userSpaceOnUse">
      <stop offset=".175" stop-color="#89cc9e"/>
      <stop offset=".182" stop-color="#7bc896"/>
      <stop offset=".204" stop-color="#4fbc7d"/>
      <stop offset=".225" stop-color="#2db26a"/>
      <stop offset=".246" stop-color="#14ab5c"/>
      <stop offset=".264" stop-color="#05a753"/>
      <stop offset=".279" stop-color="#00a651"/>
      <stop offset=".67" stop-color="#00ac5b"/>
      <stop offset=".697" stop-color="#0aaf61"/>
      <stop offset=".745" stop-color="#28b772"/>
      <stop offset=".807" stop-color="#57c58e"/>
      <stop offset=".881" stop-color="#98d8b4"/>
      <stop offset=".937" stop-color="#cee8d4"/>
    </linearGradient>
    <linearGradient id="linear-gradient-2" x1="166.883" y1="157.173" x2="290.533" y2="157.173" gradientUnits="userSpaceOnUse">
      <stop offset=".089" stop-color="#7e79b1"/>
      <stop offset=".138" stop-color="#736eac"/>
      <stop offset=".223" stop-color="#5654a0"/>
      <stop offset=".29" stop-color="#3b3b95"/>
      <stop offset=".731" stop-color="#2e3192"/>
      <stop offset=".801" stop-color="#51509f"/>
      <stop offset=".879" stop-color="#726dac"/>
      <stop offset=".921" stop-color="#7f79b1"/>
    </linearGradient>
    <linearGradient id="linear-gradient-3" x1="191.193" y1="173.9" x2="281.722" y2="264.428" gradientUnits="userSpaceOnUse">
      <stop offset=".188" stop-color="#fbb783"/>
      <stop offset=".327" stop-color="#f79a4e"/>
      <stop offset=".432" stop-color="#f5882c"/>
      <stop offset=".489" stop-color="#f58220"/>
      <stop offset=".603" stop-color="#f48222"/>
      <stop offset=".657" stop-color="#f38629"/>
      <stop offset=".699" stop-color="#f08b36"/>
      <stop offset=".734" stop-color="#ec9349"/>
      <stop offset=".765" stop-color="#e79e60"/>
      <stop offset=".793" stop-color="#e1aa7d"/>
      <stop offset=".796" stop-color="#e1ac81"/>
    </linearGradient>
  </defs>
  <g id="turknippon-1">
    <path class="cls-4" d="M20.809,349.523v-37.505h-10.841v-11.612h34.871v11.612h-10.841v37.505h-13.188ZM50.976,300.406h13.154v23.889c0,3.641.09,6.195.26,7.65.181,1.454.496,2.748.948,3.893.451,1.134,1.32,2.05,2.594,2.714,1.275.676,2.81,1.008,4.591,1.008.881,0,1.704-.081,2.483-.241.767-.149,1.466-.4,2.076-.733,1.274-.676,2.177-1.638,2.674-2.886.406-1.008.699-2.314.879-3.905.192-1.603.283-4.1.283-7.501v-23.889h13.121v25.962c0,2.69-.079,5.016-.238,6.997-.146,1.981-.394,3.63-.721,4.947-.643,2.6-1.715,4.775-3.238,6.551-1.635,1.958-3.903,3.447-6.802,4.454-2.911,1.008-6.419,1.512-10.515,1.512-4.185,0-7.704-.492-10.548-1.489-2.832-.996-5.11-2.497-6.803-4.477-1.455-1.775-2.515-3.951-3.193-6.551-.666-2.588-1.004-6.574-1.004-11.944v-25.962h0ZM74.216,288.932c0-1.271.474-2.382,1.41-3.332.936-.95,2.053-1.432,3.351-1.432,1.252,0,2.358.47,3.306,1.397s1.422,2.05,1.422,3.367c0,1.386-.452,2.543-1.354,3.47-.903.928-2.03,1.398-3.373,1.398-1.297,0-2.436-.47-3.407-1.409-.903-.962-1.354-2.119-1.354-3.459h0ZM61.299,288.932c0-1.271.485-2.382,1.455-3.332.971-.95,2.088-1.432,3.34-1.432,1.297,0,2.403.47,3.317,1.397.914.928,1.376,2.05,1.376,3.367,0,1.409-.44,2.577-1.309,3.493-.869.916-1.997,1.374-3.384,1.374-1.297,0-2.425-.47-3.373-1.409-.948-.939-1.422-2.096-1.422-3.459h0ZM104.067,349.523v-49.117h13.786c5.46,0,9.228.241,11.293.733,2.076.492,3.903,1.352,5.494,2.554,1.693,1.317,3.024,3.034,3.983,5.153.959,2.107,1.433,4.397,1.433,6.86,0,3.779-.914,6.86-2.742,9.242-1.828,2.381-4.524,3.974-8.067,4.775l13.188,19.8h-14.903l-11.1-19.227v19.227h-12.365ZM116.432,323.619h2.448c2.842,0,4.918-.492,6.227-1.477,1.309-.985,1.964-2.531,1.964-4.626,0-2.462-.61-4.214-1.84-5.257-1.217-1.042-3.271-1.557-6.159-1.557h-2.64v12.917h0ZM147.467,349.523v-49.117h13.053v22.308l15.309-22.308h15.365l-17.881,23.957,19.438,25.159h-16.46l-15.771-22.044v22.044h-13.053ZM217.739,349.523v-49.117h12.726l18.277,25.263c.281.424.857,1.466,1.714,3.114.801,1.546,1.692,3.39,2.685,5.543-.135-.939-.271-1.913-.395-2.909-.136-.985-.203-1.832-.203-2.531l-.17-4.226v-24.255h12.658v49.117h-12.658l-18.276-25.366c-.395-.561-.993-1.591-1.782-3.103-.802-1.511-1.67-3.332-2.618-5.485.158,1.19.294,2.233.395,3.16.113.916.169,1.683.169,2.314.136,1.58.203,2.989.203,4.225v24.255h-12.726ZM275.739,349.523v-49.117h13.323v49.117h-13.323ZM277.589,288.989c0-1.317.496-2.486,1.488-3.505.993-1.019,2.11-1.523,3.374-1.523,1.365,0,2.527.492,3.497,1.477.97.985,1.456,2.165,1.456,3.551,0,1.419-.463,2.599-1.399,3.561-.937.961-2.122,1.443-3.554,1.443-1.331,0-2.471-.492-3.429-1.489-.96-.996-1.433-2.164-1.433-3.515h0ZM312.065,349.523h-12.365v-49.117h13.787c5.347,0,9.138.264,11.349.801,2.212.538,4.073,1.455,5.573,2.76,1.783,1.466,3.137,3.344,4.073,5.612.937,2.279,1.41,4.775,1.41,7.501,0,2.908-.463,5.485-1.388,7.719-.925,2.233-2.29,4.065-4.096,5.497-1.365,1.077-2.978,1.844-4.828,2.314-1.85.469-4.817.709-8.89.709h-4.625v16.204h0ZM312.065,322.52h2.516c3.17,0,5.381-.435,6.634-1.306,1.253-.87,1.884-2.382,1.884-4.535,0-2.039-.62-3.493-1.85-4.375-1.229-.882-3.418-1.328-6.543-1.328h-2.64v11.544h0ZM354.969,349.523h-12.365v-49.117h13.787c5.347,0,9.138.264,11.349.801,2.211.538,4.073,1.455,5.573,2.76,1.782,1.466,3.136,3.344,4.073,5.612.936,2.279,1.41,4.775,1.41,7.501,0,2.908-.463,5.485-1.387,7.719-.926,2.233-2.29,4.065-4.096,5.497-1.364,1.077-2.978,1.844-4.828,2.314-1.85.469-4.817.709-8.89.709h-4.625v16.204h0ZM354.969,322.52h2.515c3.17,0,5.382-.435,6.633-1.306,1.253-.87,1.885-2.382,1.885-4.535,0-2.039-.621-3.493-1.851-4.375-1.23-.882-3.419-1.328-6.543-1.328h-2.639v11.544h0ZM435.18,325.062c0,3.538-.632,6.848-1.895,9.928-1.275,3.092-3.125,5.84-5.573,8.257-2.448,2.416-5.28,4.283-8.518,5.6-3.227,1.316-6.51,1.981-9.86,1.981-3.464,0-6.78-.653-9.95-1.959-3.17-1.317-5.968-3.172-8.394-5.588-2.426-2.416-4.287-5.188-5.584-8.326-1.298-3.126-1.951-6.424-1.951-9.894,0-3.516.643-6.803,1.918-9.883,1.274-3.069,3.17-5.852,5.685-8.338,2.358-2.393,5.134-4.248,8.326-5.565,3.193-1.317,6.509-1.982,9.95-1.982,3.486,0,6.803.653,9.961,1.948,3.17,1.294,5.956,3.16,8.382,5.588,2.425,2.428,4.276,5.187,5.573,8.303,1.286,3.103,1.929,6.412,1.929,9.929h0ZM409.335,339.491c3.632,0,6.655-1.374,9.059-4.111,2.403-2.737,3.598-6.183,3.598-10.318,0-2.062-.293-3.939-.891-5.634-.598-1.707-1.512-3.264-2.741-4.672-2.426-2.749-5.438-4.123-9.025-4.123-3.61,0-6.623,1.375-9.037,4.111-2.414,2.737-3.622,6.184-3.622,10.318,0,4.225,1.173,7.695,3.532,10.386,2.358,2.691,5.404,4.043,9.127,4.043h0ZM443.449,349.523v-49.117h12.726l18.276,25.263c.281.424.857,1.466,1.714,3.114.801,1.546,1.692,3.39,2.685,5.543-.135-.939-.27-1.913-.395-2.909-.135-.985-.203-1.832-.203-2.531l-.17-4.226v-24.255h12.658v49.117h-12.658l-18.276-25.366c-.395-.561-.993-1.591-1.782-3.103-.801-1.511-1.67-3.332-2.618-5.485.158,1.19.294,2.233.395,3.16.113.916.169,1.683.169,2.314.136,1.58.203,2.989.203,4.225v24.255h-12.726Z"/>
    <path class="cls-4" d="M118.532,417.129l5.908-2.915c.563,2.135,1.594,3.773,3.081,4.926,1.499,1.141,3.412,1.717,5.728,1.717,2.2,0,3.954-.655,5.249-1.954,1.297-1.299,1.945-3.039,1.945-5.231,0-2.825-2.221-5.355-6.663-7.604l-1.434-.734c-4.973-2.554-8.31-4.903-9.999-7.05-1.69-2.135-2.54-4.722-2.54-7.74,0-3.931,1.265-7.128,3.783-9.581,2.518-2.463,5.824-3.695,9.914-3.695,3.347,0,6.142.69,8.406,2.057,2.263,1.367,3.847,3.355,4.739,5.954l-5.802,3.175c-.893-1.491-1.893-2.598-2.987-3.321-1.105-.712-2.358-1.073-3.772-1.073-2.009,0-3.602.554-4.761,1.65-1.158,1.107-1.743,2.587-1.743,4.44,0,2.915,2.572,5.627,7.726,8.146l.935.463c4.474,2.181,7.566,4.328,9.256,6.451,1.69,2.113,2.54,4.757,2.54,7.909,0,4.564-1.361,8.202-4.081,10.925-2.721,2.711-6.387,4.067-11.02,4.067-3.878,0-7.056-.949-9.522-2.847-2.465-1.898-4.102-4.61-4.888-8.135h0ZM156.267,426.823v-48.458h7.407v48.458h-7.407ZM156.076,368.197c0-1.13.393-2.101,1.18-2.949.797-.836,1.711-1.254,2.774-1.254s1.976.406,2.773,1.208c.786.802,1.179,1.808,1.179,2.994,0,1.164-.372,2.158-1.115,2.982-.755.814-1.701,1.221-2.838,1.221-1.116,0-2.062-.407-2.816-1.209s-1.137-1.808-1.137-2.994h0ZM199.56,402h18.055l.032,1.39.096,3.175c0,6.824-1.839,12.112-5.505,15.885-3.677,3.773-8.852,5.66-15.536,5.66-3.804,0-7.152-.577-10.042-1.741-2.89-1.152-5.43-2.903-7.598-5.242-2.168-2.339-3.837-5.107-4.995-8.316-1.159-3.197-1.743-6.575-1.743-10.123,0-3.684.584-7.061,1.764-10.123,1.168-3.073,2.88-5.784,5.132-8.135,2.253-2.35,4.888-4.124,7.917-5.344,3.039-1.209,6.216-1.819,9.564-1.819,3.57,0,6.769.701,9.606,2.09,2.827,1.39,5.366,3.513,7.609,6.383l-5.42,4.338c-1.509-1.876-3.241-3.288-5.185-4.225-1.934-.938-4.102-1.401-6.482-1.401-4.899,0-8.915,1.683-12.061,5.051-3.145,3.367-4.718,7.739-4.718,13.117,0,5.457,1.562,9.886,4.687,13.309,3.124,3.424,7.173,5.13,12.157,5.13,4.25,0,7.588-1.051,10-3.141,2.423-2.102,3.623-4.948,3.623-8.575v-.69h-10.956v-6.655h0ZM264.53,402.69c0-2.486-.414-4.824-1.243-7.016-.83-2.181-2.03-4.124-3.582-5.819-1.551-1.706-3.348-3.017-5.366-3.943-2.03-.927-4.166-1.39-6.429-1.39s-4.389.452-6.398,1.344c-1.998.893-3.804,2.203-5.398,3.954-1.519,1.65-2.72,3.604-3.613,5.853-.414,1.129-.722,2.259-.935,3.377-.202,1.131-.308,2.339-.308,3.639,0,2.474.414,4.79,1.243,6.959.415,1.119.914,2.158,1.499,3.107.574.949,1.286,1.864,2.114,2.745,1.531,1.706,3.316,3.006,5.356,3.92,2.03.916,4.176,1.379,6.44,1.379,2.242,0,4.356-.452,6.364-1.356,1.998-.904,3.773-2.203,5.325-3.909,1.541-1.695,2.752-3.661,3.623-5.875.872-2.215,1.307-4.542,1.307-6.971h0ZM272.256,402.69c0,3.491-.606,6.745-1.807,9.784-1.2,3.028-2.964,5.74-5.292,8.124-2.326,2.384-4.973,4.225-7.959,5.547-2.976,1.311-6.067,1.966-9.287,1.966-3.284,0-6.408-.644-9.384-1.932-2.986-1.3-5.611-3.13-7.895-5.503-2.285-2.373-4.039-5.095-5.26-8.191-1.222-3.084-1.839-6.35-1.839-9.795s.606-6.711,1.807-9.795c1.201-3.096,2.965-5.83,5.281-8.225,2.306-2.395,4.941-4.225,7.885-5.502,2.954-1.265,6.078-1.898,9.405-1.898,3.24,0,6.322.633,9.266,1.887,2.933,1.254,5.557,3.096,7.885,5.513,2.327,2.418,4.102,5.163,5.345,8.259,1.233,3.085,1.85,6.338,1.85,9.762h0ZM288.164,399.018h1.339c3.921,0,6.525-.486,7.811-1.458,1.285-.972,1.934-2.689,1.934-5.164,0-2.621-.691-4.496-2.083-5.604-1.392-1.119-3.942-1.672-7.662-1.672h-1.339v13.897h0ZM287.696,405.141v21.682h-6.939v-48.458h10.34c3.05,0,5.399.204,7.067.61,1.658.407,3.082,1.108,4.261,2.102,1.413,1.175,2.497,2.689,3.273,4.542.351.881.627,1.842.839,2.893.202,1.051.308,2.112.308,3.197,0,3.875-.871,6.915-2.614,9.095-1.743,2.192-4.357,3.513-7.842,3.977l15.685,22.043h-8.374l-15.154-21.682h-.85ZM331.192,385.053v41.77h-7.407v-41.77h-12.114v-6.689h31.571v6.689h-12.05ZM353.889,407.785h12.689l-4.665-11.05-.839-2.418-.871-3.073c-.138.61-.276,1.141-.383,1.581-.117.44-.255.904-.425,1.39-.223.858-.51,1.706-.839,2.519l-4.666,11.05h0ZM374.389,426.811l-5.197-12.473h-18.044l-5.292,12.484h-7.789l22.071-50.378,22.039,50.378-7.789-.011h0Z"/>
    <g>
      <path class="cls-2" d="M284.722,107.85s33.926,71.424-22.766,95.529c0,0-22.32,3.124-27.677-11.16,0,0-3.125,40.176,45.533,45.979,0,0,48.657.893,54.014-61.156,0,0,.893-40.176-41.515-65.174l-4.819-2.643-2.77-1.374h0Z"/>
      <path class="cls-3" d="M169.264,202.13s37.491-66.817,93.997-38.362c0,0,16.959,14.895,8.542,27.189,0,0,35.381-20.961,8.887-60.748,0,0-30.572-36.939-85.557-4.962,0,0-33.944,22.632-27.416,68.873l.906,5.14.641,2.871h0Z"/>
      <path class="cls-1" d="M304.586,248.839s-74.404.866-77.877-59.985c0,0,4.304-21.321,18.731-20.213,0,0-34.8-19.44-55.421,21.817,0,0-16.247,43.29,37.332,73.79,0,0,35.509,17.437,71.246-10.263l3.885-3.229,2.104-1.917h0Z"/>
    </g>
  </g>
</svg>