<?xml version="1.0" encoding="UTF-8"?>
<svg id="Layer_1" data-name="Layer 1" xmlns="http://www.w3.org/2000/svg" viewBox="0 0 500 500">
  <defs>
    <style>
      .cls-1 {
        fill: #00afbc;
      }

      .cls-1, .cls-2, .cls-3, .cls-4 {
        stroke-width: 0px;
      }

      .cls-2 {
        fill: #fff;
      }

      .cls-3 {
        fill: #e24833;
      }

      .cls-4 {
        fill: #223368;
      }
    </style>
  </defs>
  <g id="türkiye-1">
    <g>
      <path class="cls-2" d="M265.237,56.47c-40.097-8.457-79.464,17.351-87.921,57.447-8.457,40.097,17.351,79.464,57.447,87.921,40.097,8.457,79.464-17.351,87.921-57.447,8.457-40.243-17.351-79.61-57.447-87.921Z"/>
      <path class="cls-1" d="M231.118,121.791c-22.017,6.415-40.388-7.582-45.929-18.518-1.458,3.645-2.624,7.582-3.499,11.519-.292,1.604-.583,3.208-.875,4.957,0,.437-.146.729-.146,1.167,0,.583-.146,1.166-.146,1.75-.146.875-.146,1.75-.146,2.479v.437c0,1.166-.146,2.333-.146,3.499,0,2.333.146,4.812.292,7.145v.146c.146,1.021.292,2.187.437,3.208,0,.292.146.437.146.729.146.729.292,1.458.437,2.187.146.583.292,1.021.292,1.604.146.437.146.729.292,1.167.146.875.437,1.75.729,2.625v.146c2.041,7.145,5.103,13.852,9.186,19.975,9.915,14.726,25.516,25.516,43.45,29.307h.146c1.604.292,3.208.583,4.666.875h.146c1.166.146,2.187.292,3.353.437.583,0,1.166.146,1.75.146h1.166c1.021,0,2.042.146,3.062.146,1.167,0,2.187,0,3.354-.146h.583c1.021,0,2.187-.146,3.208-.292h.292c.875-.146,1.75-.146,2.625-.292.292,0,.583-.146,1.021-.146.875-.146,1.75-.292,2.625-.437.437-.146,1.02-.146,1.458-.292.437-.146.875-.146,1.312-.292,2.042-.437,4.083-1.02,5.978-1.75h.146c6.416-2.187,12.394-5.249,17.788-9.04.146-.146.292-.146.292-.292,1.604-1.166,3.062-2.333,4.52-3.499.292-.292.729-.583,1.021-.875s.729-.583,1.021-.875c.583-.583,1.312-1.166,1.895-1.75.146-.146.437-.437.583-.583.583-.583,1.02-1.166,1.604-1.604.146-.146.292-.437.583-.583.146-.146.146-.292.292-.292-40.388,34.119-92.878-13.414-70.862-54.094Z"/>
      <path class="cls-3" d="M250.073,59.386c-24.35,0-45.783,12.539-58.322,31.494-2.041,3.062-3.791,6.415-5.395,9.769,18.372,13.269,39.076,6.853,55.26,0,18.226-7.582,47.97-12.247,67.508,14.435-6.999-6.999-17.059-10.935-27.703-10.061-19.392,1.604-33.827,18.663-32.223,38.056,1.604,19.392,18.663,33.535,38.055,32.223,12.539-.729,32.515-12.539,32.515-46.366,0-38.347-31.202-69.549-69.695-69.549Z"/>
    </g>
    <g>
      <path class="cls-4" d="M10,260.406h22.6v63.571h19.392v-63.571h22.6v-16.476H10v16.476Z"/>
      <path class="cls-4" d="M231.186,323.977l-20.849-34.264c5.249-1.604,9.333-4.229,12.248-7.874,2.915-3.645,4.374-8.311,4.374-13.706,0-4.666-.875-8.457-2.625-11.519-1.75-3.062-4.084-5.541-6.999-7.436-2.915-1.896-6.124-3.208-9.77-4.083-3.643-.729-7.436-1.166-11.226-1.166h-30.473v80.047h18.953v-31.786h6.561l17.353,31.786h22.452ZM206.547,273.382c-.875,1.312-2.043,2.333-3.356,2.916-1.312.729-2.915,1.166-4.518,1.458-1.606.292-3.356.437-4.958.437h-9.186v-18.663h10.351c1.459,0,2.918.146,4.521.292,1.603.292,2.915.729,4.227,1.312,1.312.583,2.334,1.604,3.062,2.77.731,1.166,1.169,2.625,1.169,4.52,0,2.041-.437,3.791-1.312,4.957Z"/>
      <path class="cls-4" d="M274.347,280.818l34.556-36.889h-24.205l-28.723,32.515h-.294v-32.515h-18.809v80.047h18.809v-36.889h.294l29.745,36.889h25.223l-36.596-43.159Z"/>
      <path class="cls-4" d="M367.224,323.977h19.393v-33.973l30.763-46.075h-22.599l-17.059,29.599-17.059-29.599h-23.474l30.035,46.075v33.973Z"/>
      <path class="cls-4" d="M476.579,307.501h-37.181v-16.622h33.244v-15.455h-33.244v-15.164h35.14v-16.33h-53.803v80.047h55.843v-16.476Z"/>
      <path class="cls-4" d="M133.206,323.831c4.229-1.604,7.874-3.791,10.935-6.561,3.062-2.77,5.395-6.27,6.999-10.206,1.604-3.937,2.479-8.311,2.479-13.123v-33.244h-19.392v31.494c0,2.187-.292,4.228-.729,6.269-.583,1.896-1.458,3.645-2.625,5.249-1.166,1.604-2.77,2.77-4.666,3.645-1.896.875-4.229,1.312-6.999,1.312s-5.103-.437-6.999-1.312c-1.896-.875-3.499-2.187-4.666-3.645-1.167-1.604-2.041-3.353-2.625-5.249-.583-1.895-.875-4.082-.875-6.269v-31.494h-19.246v33.098c0,4.812.729,9.186,2.333,13.123,1.604,3.937,3.791,7.29,6.853,10.206,2.916,2.77,6.561,5.103,10.79,6.561,4.228,1.604,9.04,2.333,14.289,2.333,5.103.146,9.915-.729,14.143-2.187Z"/>
      <path class="cls-4" d="M333.836,243.929h-19.393v11.81h19.393v-11.81Z"/>
      <path class="cls-4" d="M104.045,243.929h-19.246v11.81h19.246v-11.81Z"/>
      <path class="cls-4" d="M153.473,243.929h-19.246v11.81h19.246v-11.81Z"/>
      <path class="cls-4" d="M333.836,260.697h-19.393v63.28h19.393v-63.28Z"/>
      <g id="logo-sigorta">
        <path class="cls-4" d="M38.214,378.362c1.031-.59,2.212-1.032,3.537-1.327,1.328-.295,2.656-.295,3.834-.295,2.506,0,5.012.59,7.811,1.916,2.656,1.179,4.865,2.948,6.486,5.012l12.382-12.971c-3.537-3.243-7.664-5.749-12.382-7.37-4.718-1.622-9.286-2.506-13.857-2.506-3.831,0-7.517.442-11.201,1.474-3.684.885-7.077,2.359-10.023,4.422-2.949,2.064-5.305,4.569-7.077,7.812-1.768,3.095-2.653,6.928-2.653,11.35,0,3.685.591,6.633,1.768,9.286,1.181,2.506,2.656,4.717,4.571,6.486,1.915,1.769,4.127,3.243,6.486,4.422,2.506,1.179,5.012,2.064,7.517,2.948,2.653.885,5.012,1.621,7.074,2.358,2.065.737,3.834,1.474,5.158,2.359,1.328.884,2.506,1.769,3.243,2.948.737,1.032,1.181,2.358,1.181,3.832,0,1.622-.297,2.948-.884,4.127-.591,1.179-1.475,2.064-2.359,2.653-1.031.737-2.212,1.179-3.537,1.474-1.328.295-2.803.442-4.127.442-3.096,0-6.339-.737-9.583-2.359-3.243-1.621-5.749-3.685-7.811-6.043l-12.679,12.824c3.54,3.685,7.961,6.486,13.416,8.549,5.305,2.063,10.907,2.948,16.656,2.948,3.977,0,7.664-.59,11.348-1.621,3.687-1.032,6.93-2.653,9.876-4.864,2.803-2.211,5.158-5.012,6.78-8.254,1.622-3.39,2.506-7.37,2.506-11.94,0-3.98-.737-7.37-2.359-10.023-1.618-2.653-3.537-4.864-6.043-6.781-2.359-1.769-5.158-3.243-7.958-4.422-2.949-1.032-5.749-2.064-8.552-2.948-1.915-.59-3.537-1.179-5.158-1.769-1.475-.59-2.799-1.179-3.831-1.916-1.034-.737-1.918-1.474-2.506-2.358-.591-.885-.887-2.064-.887-3.39,0-1.621.297-2.948,1.034-3.832.884-1.179,1.768-2.064,2.799-2.653Z"/>
        <path class="cls-4" d="M151.125,411.233h15.328v14.593c-1.768.737-3.684,1.327-5.602,1.621-2.062.295-4.127.442-6.483.442-3.981,0-7.371-.59-10.467-1.916-3.096-1.179-5.602-2.948-7.664-5.159-2.065-2.211-3.687-4.864-4.718-7.96-1.031-3.095-1.622-6.486-1.622-10.171s.591-6.928,1.768-10.023c1.181-3.095,2.803-5.749,4.865-7.959,2.065-2.211,4.571-3.98,7.517-5.159,2.803-1.179,6.046-1.916,9.436-1.916,3.977,0,7.367.737,10.464,2.063,3.096,1.327,5.602,3.243,7.517,5.307l12.235-13.856c-3.39-3.243-7.814-5.896-13.266-7.812-5.455-1.916-11.351-2.948-17.687-2.948-6.046,0-11.792,1.032-17.1,2.948-5.305,1.916-9.876,4.717-13.854,8.402-3.981,3.685-6.93,8.107-9.289,13.266-2.209,5.159-3.39,11.055-3.39,17.393s1.034,12.087,3.243,17.246c2.212,5.159,5.158,9.581,9.139,13.266,3.834,3.685,8.548,6.486,13.857,8.549,5.452,2.063,11.348,3.095,17.687,3.095,6.19,0,11.938-.59,17.1-1.916,5.305-1.327,9.873-2.948,13.707-5.012v-42.009h-33.019v15.624h.297Z"/>
        <path class="cls-4" d="M266.538,372.024c-3.831-3.685-8.549-6.338-13.854-8.402-5.308-1.916-11.204-2.948-17.394-2.948s-12.088,1.032-17.394,2.948c-5.308,1.916-9.876,4.717-13.857,8.402-3.83,3.685-6.927,7.96-9.139,13.119-2.209,5.159-3.243,10.908-3.243,17.393,0,6.338,1.034,12.087,3.243,17.393,2.212,5.307,5.158,9.729,9.139,13.413,3.834,3.685,8.549,6.633,13.857,8.697,5.305,2.064,11.054,3.095,17.394,3.095,6.189,0,12.085-1.032,17.394-3.095,5.305-2.064,10.023-4.864,13.854-8.697,3.834-3.685,6.93-8.254,9.139-13.413,2.212-5.307,3.243-11.055,3.243-17.393s-1.031-12.234-3.243-17.393c-2.209-5.159-5.305-9.581-9.139-13.119ZM256.515,412.56c-1.178,3.096-2.653,5.601-4.715,7.812-2.065,2.211-4.424,3.832-7.224,5.159-2.799,1.179-5.896,1.916-9.286,1.916s-6.486-.59-9.286-1.916c-2.803-1.179-5.161-2.948-7.224-5.159-2.065-2.211-3.537-4.864-4.718-7.812-1.178-3.095-1.768-6.338-1.768-10.023,0-3.538.591-6.781,1.622-9.729,1.031-2.948,2.653-5.601,4.718-7.812,2.062-2.211,4.421-3.832,7.22-5.159,2.803-1.179,5.899-1.916,9.289-1.916s6.483.59,9.286,1.916c2.799,1.179,5.305,2.948,7.221,5.159,2.065,2.211,3.54,4.717,4.718,7.812,1.181,2.948,1.768,6.191,1.768,9.729.147,3.537-.441,6.928-1.622,10.023Z"/>
        <path class="cls-4" d="M344.514,400.767c2.949-3.685,4.421-8.254,4.421-13.708,0-4.569-.884-8.402-2.653-11.497-1.768-3.096-3.98-5.601-6.927-7.518-2.949-1.916-6.193-3.243-9.876-3.98-3.684-.737-7.371-1.179-11.201-1.179h-30.513v80.039h18.868v-31.839h6.633l17.39,31.839h22.555l-20.934-34.345c5.308-1.474,9.289-4.127,12.235-7.812ZM328.595,392.366c-.884,1.326-1.915,2.211-3.39,2.948-1.328.737-2.949,1.179-4.571,1.474-1.622.295-3.24.442-4.862.442h-9.139v-18.867h10.317c1.475,0,2.949.147,4.421.295,1.622.295,2.949.59,4.274,1.327,1.181.59,2.212,1.474,3.096,2.653.737,1.179,1.181,2.653,1.181,4.569-.15,2.211-.591,3.832-1.328,5.159Z"/>
        <path class="cls-4" d="M416.595,362.885h-64.563v16.509h22.552v63.53h19.459v-63.53h22.552v-16.509Z"/>
        <path class="cls-4" d="M456.687,362.885h-18.718l-33.609,80.039h21.077l5.899-15.772h30.954l6.19,15.772h21.521l-33.313-80.039ZM436.788,411.675l10.17-27.417,10.023,27.417h-20.193Z"/>
        <path class="cls-4" d="M100.268,362.885h-19.456v11.94h19.456v-11.94Z"/>
        <path class="cls-4" d="M100.268,379.542h-19.456v63.383h19.456v-63.383Z"/>
      </g>
    </g>
  </g>
</svg>