<?xml version="1.0" encoding="UTF-8"?>
<svg id="Layer_1" data-name="Layer 1" xmlns="http://www.w3.org/2000/svg" xmlns:xlink="http://www.w3.org/1999/xlink" viewBox="0 0 800 500">
  <defs>
    <style>
      .cls-1 {
        fill: url(#linear-gradient-3);
      }

      .cls-1, .cls-2, .cls-3 {
        fill-rule: evenodd;
      }

      .cls-1, .cls-2, .cls-3, .cls-4 {
        stroke-width: 0px;
      }

      .cls-2 {
        fill: url(#linear-gradient);
      }

      .cls-3 {
        fill: url(#linear-gradient-2);
      }

      .cls-4 {
        fill: #231f20;
      }
    </style>
    <linearGradient id="linear-gradient" x1="205.239" y1="196.982" x2="111.255" y2="312.209" gradientUnits="userSpaceOnUse">
      <stop offset=".175" stop-color="#89cc9e"/>
      <stop offset=".182" stop-color="#7bc896"/>
      <stop offset=".204" stop-color="#4fbc7d"/>
      <stop offset=".225" stop-color="#2db26a"/>
      <stop offset=".246" stop-color="#14ab5c"/>
      <stop offset=".264" stop-color="#05a753"/>
      <stop offset=".279" stop-color="#00a651"/>
      <stop offset=".67" stop-color="#00ac5b"/>
      <stop offset=".697" stop-color="#0aaf61"/>
      <stop offset=".745" stop-color="#28b772"/>
      <stop offset=".807" stop-color="#57c58e"/>
      <stop offset=".881" stop-color="#98d8b4"/>
      <stop offset=".937" stop-color="#cee8d4"/>
    </linearGradient>
    <linearGradient id="linear-gradient-2" x1="10.581" y1="235.581" x2="154.777" y2="235.581" gradientUnits="userSpaceOnUse">
      <stop offset=".089" stop-color="#7e79b1"/>
      <stop offset=".138" stop-color="#736eac"/>
      <stop offset=".223" stop-color="#5654a0"/>
      <stop offset=".29" stop-color="#3b3b95"/>
      <stop offset=".731" stop-color="#2e3192"/>
      <stop offset=".801" stop-color="#51509f"/>
      <stop offset=".879" stop-color="#726dac"/>
      <stop offset=".921" stop-color="#7f79b1"/>
    </linearGradient>
    <linearGradient id="linear-gradient-3" x1="38.93" y1="255.087" x2="144.501" y2="360.658" gradientUnits="userSpaceOnUse">
      <stop offset=".188" stop-color="#fbb783"/>
      <stop offset=".327" stop-color="#f79a4e"/>
      <stop offset=".432" stop-color="#f5882c"/>
      <stop offset=".489" stop-color="#f58220"/>
      <stop offset=".603" stop-color="#f48222"/>
      <stop offset=".657" stop-color="#f38629"/>
      <stop offset=".699" stop-color="#f08b36"/>
      <stop offset=".734" stop-color="#ec9349"/>
      <stop offset=".765" stop-color="#e79e60"/>
      <stop offset=".793" stop-color="#e1aa7d"/>
      <stop offset=".796" stop-color="#e1ac81"/>
    </linearGradient>
  </defs>
  <g id="turknippon-2">
    <path class="cls-4" d="M241.401,256.972v-43.737h-12.643v-13.542h40.666v13.542h-12.643v43.737h-15.38ZM276.58,199.694h15.34v27.858c0,4.246.105,7.225.303,8.921.211,1.696.579,3.205,1.105,4.54.526,1.322,1.539,2.391,3.025,3.165,1.487.788,3.277,1.175,5.354,1.175,1.027,0,1.987-.094,2.896-.281.894-.174,1.71-.467,2.42-.854,1.486-.788,2.539-1.91,3.118-3.365.473-1.175.815-2.698,1.025-4.554.224-1.87.33-4.781.33-8.747v-27.858h15.301v30.276c0,3.138-.092,5.849-.277,8.159-.17,2.31-.459,4.233-.841,5.769-.75,3.031-2,5.569-3.776,7.639-1.907,2.284-4.552,4.02-7.933,5.194-3.395,1.175-7.486,1.763-12.262,1.763-4.88,0-8.984-.574-12.3-1.736-3.302-1.162-5.959-2.912-7.933-5.221-1.697-2.07-2.933-4.608-3.723-7.639-.776-3.018-1.171-7.666-1.171-13.929v-30.276h0ZM303.682,186.313c0-1.482.553-2.778,1.645-3.886,1.092-1.108,2.395-1.669,3.907-1.669,1.46,0,2.75.548,3.855,1.629s1.658,2.39,1.658,3.926c0,1.616-.527,2.965-1.579,4.046-1.053,1.082-2.368,1.63-3.934,1.63-1.513,0-2.841-.548-3.973-1.643-1.053-1.122-1.579-2.471-1.579-4.033h0ZM288.618,186.313c0-1.482.566-2.778,1.697-3.886,1.132-1.108,2.435-1.669,3.895-1.669,1.512,0,2.802.548,3.868,1.629,1.066,1.082,1.605,2.39,1.605,3.926,0,1.643-.513,3.005-1.526,4.074-1.013,1.068-2.328,1.603-3.947,1.603-1.513,0-2.828-.548-3.934-1.643-1.105-1.096-1.658-2.444-1.658-4.033h0ZM338.493,256.972v-57.278h16.077c6.367,0,10.762.281,13.17.855,2.421.574,4.552,1.576,6.407,2.979,1.974,1.535,3.527,3.539,4.644,6.009,1.118,2.457,1.671,5.128,1.671,7.999,0,4.407-1.066,7.999-3.197,10.777-2.131,2.777-5.276,4.634-9.407,5.569l15.379,23.09h-17.379l-12.945-22.422v22.422h-14.42ZM352.913,226.764h2.855c3.314,0,5.735-.574,7.261-1.722,1.527-1.148,2.29-2.951,2.29-5.395,0-2.872-.711-4.915-2.146-6.13-1.42-1.216-3.814-1.816-7.182-1.816h-3.078v15.063h0ZM389.105,256.972v-57.278h15.222v26.015l17.853-26.015h17.918l-20.853,27.938,22.668,29.34h-19.195l-18.392-25.707v25.707h-15.222ZM471.053,256.972v-57.278h14.841l21.314,29.461c.328.494.999,1.709,1.999,3.632.934,1.803,1.973,3.953,3.131,6.464-.158-1.096-.316-2.23-.46-3.392-.158-1.149-.237-2.137-.237-2.952l-.198-4.928v-28.285h14.761v57.278h-14.761l-21.313-29.581c-.461-.654-1.158-1.856-2.078-3.619-.935-1.762-1.948-3.886-3.053-6.396.184,1.388.343,2.604.46,3.685.132,1.069.197,1.963.197,2.698.159,1.843.237,3.486.237,4.927v28.285h-14.841ZM538.69,256.972v-57.278h15.537v57.278h-15.537ZM540.848,186.38c0-1.536.578-2.899,1.736-4.087,1.158-1.188,2.46-1.776,3.935-1.776,1.592,0,2.947.574,4.078,1.722,1.131,1.149,1.698,2.525,1.698,4.141,0,1.655-.54,3.031-1.631,4.153-1.092,1.121-2.474,1.682-4.144,1.682-1.552,0-2.882-.574-3.999-1.736-1.119-1.162-1.671-2.524-1.671-4.1h0ZM581.053,256.972h-14.42v-57.278h16.077c6.235,0,10.657.308,13.235.935,2.579.628,4.75,1.697,6.499,3.219,2.079,1.71,3.658,3.9,4.75,6.544,1.092,2.657,1.644,5.569,1.644,8.747,0,3.392-.54,6.397-1.618,9.001-1.079,2.604-2.671,4.74-4.776,6.41-1.592,1.255-3.473,2.15-5.631,2.698-2.158.547-5.618.827-10.367.827h-5.394v18.897h0ZM581.053,225.482h2.934c3.697,0,6.275-.508,7.736-1.523,1.461-1.015,2.197-2.778,2.197-5.288,0-2.377-.724-4.073-2.157-5.102-1.434-1.028-3.986-1.549-7.63-1.549h-3.079v13.462h0ZM631.086,256.972h-14.42v-57.278h16.077c6.236,0,10.657.308,13.235.935,2.579.628,4.749,1.697,6.499,3.219,2.079,1.71,3.657,3.9,4.75,6.544,1.092,2.657,1.644,5.569,1.644,8.747,0,3.392-.539,6.397-1.618,9.001-1.079,2.604-2.671,4.74-4.776,6.41-1.591,1.255-3.473,2.15-5.631,2.698-2.158.547-5.618.827-10.367.827h-5.393v18.897h0ZM631.086,225.482h2.933c3.697,0,6.276-.508,7.735-1.523,1.461-1.015,2.198-2.778,2.198-5.288,0-2.377-.724-4.073-2.158-5.102-1.434-1.028-3.987-1.549-7.631-1.549h-3.078v13.462h0ZM724.625,228.447c0,4.126-.736,7.986-2.21,11.578-1.487,3.606-3.644,6.811-6.499,9.629-2.855,2.818-6.157,4.995-9.933,6.531-3.763,1.535-7.591,2.31-11.498,2.31-4.039,0-7.907-.761-11.604-2.284-3.697-1.536-6.96-3.699-9.788-6.517-2.829-2.818-4.999-6.05-6.512-9.709-1.514-3.645-2.276-7.492-2.276-11.538,0-4.1.75-7.933,2.236-11.525,1.486-3.579,3.697-6.825,6.63-9.723,2.75-2.79,5.987-4.954,9.71-6.489,3.723-1.536,7.591-2.311,11.604-2.311,4.065,0,7.934.761,11.617,2.271,3.697,1.509,6.946,3.686,9.775,6.517,2.828,2.831,4.987,6.049,6.499,9.682,1.5,3.619,2.25,7.478,2.25,11.578h0ZM694.485,245.274c4.236,0,7.761-1.602,10.564-4.794,2.802-3.192,4.196-7.211,4.196-12.032,0-2.405-.341-4.594-1.039-6.57-.697-1.99-1.763-3.806-3.196-5.449-2.829-3.205-6.342-4.808-10.525-4.808-4.21,0-7.723,1.603-10.538,4.794-2.815,3.192-4.223,7.212-4.223,12.033,0,4.927,1.368,8.974,4.119,12.112,2.749,3.139,6.302,4.715,10.643,4.715h0ZM734.269,256.972v-57.278h14.84l21.313,29.461c.328.494,1,1.709,1.999,3.632.934,1.803,1.973,3.953,3.131,6.464-.158-1.096-.315-2.23-.46-3.392-.157-1.149-.237-2.137-.237-2.952l-.198-4.928v-28.285h14.762v57.278h-14.762l-21.313-29.581c-.461-.654-1.158-1.856-2.078-3.619-.934-1.762-1.947-3.886-3.053-6.396.184,1.388.343,2.604.461,3.685.131,1.069.197,1.963.197,2.698.158,1.843.237,3.486.237,4.927v28.285h-14.84Z"/>
    <path class="cls-4" d="M230.566,335.812l6.89-3.399c.657,2.49,1.859,4.4,3.594,5.744,1.748,1.331,3.979,2.002,6.68,2.002,2.565,0,4.611-.764,6.122-2.279,1.512-1.515,2.268-3.544,2.268-6.1,0-3.294-2.59-6.245-7.77-8.867l-1.673-.856c-5.799-2.978-9.691-5.718-11.661-8.222-1.97-2.49-2.962-5.507-2.962-9.026,0-4.585,1.475-8.313,4.412-11.172,2.937-2.872,6.792-4.309,11.562-4.309,3.903,0,7.163.804,9.803,2.398,2.64,1.594,4.486,3.913,5.527,6.943l-6.766,3.702c-1.041-1.739-2.207-3.03-3.483-3.873-1.289-.83-2.75-1.252-4.399-1.252-2.343,0-4.201.646-5.552,1.924-1.351,1.291-2.033,3.017-2.033,5.178,0,3.4,2.999,6.562,9.01,9.5l1.09.54c5.217,2.543,8.823,5.047,10.794,7.523,1.971,2.464,2.962,5.547,2.962,9.223,0,5.323-1.587,9.565-4.759,12.741-3.173,3.162-7.448,4.743-12.851,4.743-4.523,0-8.229-1.107-11.104-3.32-2.874-2.214-4.783-5.376-5.7-9.486h0ZM274.571,347.117v-56.51h8.637v56.51h-8.637ZM274.348,278.749c0-1.318.459-2.45,1.376-3.439.93-.975,1.995-1.462,3.234-1.462s2.305.474,3.234,1.409c.916.935,1.375,2.108,1.375,3.492,0,1.357-.434,2.517-1.301,3.478-.88.949-1.983,1.424-3.309,1.424-1.301,0-2.404-.475-3.284-1.41s-1.326-2.108-1.326-3.491h0ZM325.057,318.17h21.055l.037,1.621.111,3.703c0,7.958-2.144,14.124-6.42,18.525-4.288,4.4-10.323,6.601-18.117,6.601-4.437,0-8.34-.672-11.711-2.03-3.371-1.343-6.332-3.386-8.86-6.113-2.528-2.728-4.474-5.955-5.825-9.697-1.351-3.728-2.032-7.668-2.032-11.805,0-4.296.681-8.235,2.057-11.806,1.362-3.584,3.358-6.746,5.985-9.486,2.627-2.74,5.7-4.809,9.232-6.232,3.544-1.41,7.249-2.121,11.153-2.121,4.163,0,7.893.817,11.202,2.438,3.297,1.621,6.258,4.097,8.873,7.444l-6.321,5.059c-1.759-2.187-3.779-3.834-6.047-4.927-2.255-1.094-4.783-1.634-7.56-1.634-5.713,0-10.397,1.963-14.065,5.89-3.667,3.926-5.502,9.025-5.502,15.297,0,6.364,1.822,11.529,5.466,15.521,3.643,3.993,8.365,5.982,14.177,5.982,4.957,0,8.848-1.226,11.661-3.663,2.825-2.452,4.226-5.771,4.226-10v-.804h-12.777v-7.761h0ZM400.824,318.974c0-2.899-.483-5.626-1.449-8.182-.968-2.544-2.368-4.81-4.177-6.786-1.809-1.99-3.904-3.518-6.258-4.598-2.367-1.081-4.858-1.621-7.497-1.621s-5.119.527-7.461,1.568c-2.33,1.041-4.436,2.569-6.295,4.611-1.771,1.924-3.172,4.203-4.213,6.826-.483,1.317-.842,2.634-1.09,3.939-.235,1.318-.359,2.728-.359,4.243,0,2.885.483,5.586,1.449,8.116.483,1.305,1.066,2.517,1.748,3.624.669,1.107,1.499,2.173,2.465,3.201,1.785,1.989,3.867,3.505,6.246,4.572,2.367,1.068,4.87,1.608,7.51,1.608,2.614,0,5.08-.527,7.422-1.581,2.33-1.054,4.4-2.569,6.209-4.558,1.797-1.977,3.21-4.269,4.225-6.851,1.017-2.583,1.524-5.297,1.524-8.129h0ZM409.833,318.974c0,4.071-.707,7.865-2.107,11.41-1.399,3.531-3.457,6.694-6.171,9.474-2.713,2.78-5.8,4.927-9.281,6.469-3.471,1.529-7.076,2.293-10.831,2.293-3.83,0-7.473-.751-10.943-2.253-3.483-1.516-6.543-3.65-9.207-6.417-2.665-2.767-4.71-5.942-6.135-9.552-1.425-3.597-2.144-7.405-2.144-11.423s.706-7.827,2.107-11.423c1.4-3.61,3.457-6.799,6.159-9.592,2.69-2.793,5.763-4.927,9.196-6.417,3.445-1.476,7.088-2.213,10.967-2.213,3.779,0,7.372.738,10.806,2.201,3.42,1.462,6.481,3.61,9.195,6.43,2.714,2.82,4.783,6.021,6.233,9.631,1.438,3.597,2.157,7.391,2.157,11.384h0ZM428.385,314.692h1.562c4.572,0,7.609-.567,9.109-1.7,1.499-1.134,2.255-3.136,2.255-6.022,0-3.056-.805-5.243-2.429-6.535-1.623-1.305-4.598-1.949-8.935-1.949h-1.562v16.206h0ZM427.839,321.833v25.284h-8.092v-56.51h12.058c3.556,0,6.296.238,8.241.711,1.933.475,3.594,1.292,4.97,2.451,1.648,1.37,2.912,3.136,3.816,5.296.41,1.027.732,2.148.979,3.373.235,1.225.359,2.463.359,3.728,0,4.519-1.016,8.064-3.049,10.606-2.033,2.556-5.081,4.097-9.145,4.638l18.292,25.706h-9.766l-17.671-25.284h-.991ZM478.562,298.407v48.71h-8.638v-48.71h-14.127v-7.8h36.817v7.8h-14.053ZM505.031,324.916h14.797l-5.441-12.886-.979-2.82-1.016-3.583c-.161.711-.322,1.331-.447,1.844-.136.514-.297,1.054-.496,1.621-.26,1.001-.595,1.989-.979,2.938l-5.441,12.886h0ZM528.936,347.103l-6.06-14.546h-21.042l-6.171,14.559h-9.083l25.739-58.75,25.701,58.75-9.083-.013h0Z"/>
    <path class="cls-2" d="M148,178.062s39.564,83.292-26.549,111.403c0,0-26.028,3.644-32.276-13.015,0,0-3.644,46.852,53.099,53.619,0,0,56.742,1.041,62.989-71.318,0,0,1.041-46.852-48.413-76.004l-5.619-3.083-3.23-1.602h0Z"/>
    <path class="cls-3" d="M13.357,288.008s43.72-77.92,109.616-44.737c0,0,19.778,17.37,9.962,31.707,0,0,41.26-24.444,10.363-70.842,0,0-35.652-43.076-99.773-5.786,0,0-39.585,26.392-31.972,80.317l1.056,5.994.748,3.348h0Z"/>
    <path class="cls-1" d="M171.165,342.478s-86.767,1.01-90.818-69.953c0,0,5.019-24.864,21.844-23.571,0,0-40.583-22.671-64.63,25.442,0,0-18.946,50.483,43.535,86.051,0,0,41.409,20.335,83.085-11.969l4.531-3.765,2.454-2.235h0Z"/>
  </g>
</svg>