<?xml version="1.0" encoding="UTF-8"?>
<svg id="Layer_1" data-name="Layer 1" xmlns="http://www.w3.org/2000/svg" viewBox="0 0 800 500">
  <defs>
    <style>
      .cls-1 {
        fill: #00afbc;
      }

      .cls-1, .cls-2, .cls-3, .cls-4 {
        stroke-width: 0px;
      }

      .cls-2 {
        fill: #fff;
      }

      .cls-3 {
        fill: #e24833;
      }

      .cls-4 {
        fill: #223368;
      }
    </style>
  </defs>
  <g id="türkiye-2">
    <path class="cls-2" d="M69.947,201.532c-26.738-5.639-52.99,11.57-58.629,38.308-5.639,26.738,11.57,52.99,38.308,58.629,26.738,5.639,52.99-11.57,58.629-38.308,5.639-26.835-11.57-53.087-38.308-58.629Z"/>
    <path class="cls-1" d="M47.195,245.09c-14.681,4.278-26.932-5.056-30.627-12.348-.972,2.431-1.75,5.056-2.333,7.681-.194,1.069-.389,2.139-.583,3.306,0,.292-.097.486-.097.778,0,.389-.097.778-.097,1.167-.097.583-.097,1.167-.097,1.653v.292c0,.778-.097,1.556-.097,2.333,0,1.556.097,3.209.194,4.764v.097c.097.681.194,1.458.292,2.139,0,.194.097.292.097.486.097.486.194.972.292,1.458.097.389.194.681.194,1.069.097.292.097.486.194.778.097.583.292,1.167.486,1.75v.097c1.361,4.764,3.403,9.237,6.125,13.32,6.612,9.82,17.015,17.015,28.974,19.543h.097c1.069.194,2.139.389,3.111.583h.097c.778.097,1.458.194,2.236.292.389,0,.778.097,1.167.097h.778c.681,0,1.361.097,2.042.097.778,0,1.458,0,2.236-.097h.389c.681,0,1.458-.097,2.139-.194h.194c.583-.097,1.167-.097,1.75-.194.195,0,.389-.097.681-.097.583-.097,1.167-.194,1.75-.292.292-.097.68-.097.972-.194.292-.097.583-.097.875-.195,1.361-.292,2.722-.68,3.987-1.167h.097c4.278-1.458,8.265-3.5,11.862-6.028.097-.097.195-.097.195-.194,1.069-.778,2.042-1.556,3.014-2.333.195-.194.486-.389.681-.583s.486-.389.681-.583c.389-.389.875-.778,1.264-1.167.097-.097.292-.292.389-.389.389-.389.68-.778,1.069-1.069.097-.097.194-.292.389-.389.097-.097.097-.194.194-.194-26.932,22.752-61.935-8.945-47.253-36.072Z"/>
    <path class="cls-3" d="M59.835,203.476c-16.237,0-30.53,8.362-38.891,21.001-1.361,2.042-2.528,4.278-3.597,6.514,12.251,8.848,26.057,4.57,36.85,0,12.154-5.056,31.988-8.167,45.017,9.626-4.667-4.667-11.376-7.292-18.474-6.709-12.931,1.07-22.557,12.445-21.487,25.377,1.069,12.931,12.445,22.362,25.377,21.487,8.362-.486,21.682-8.362,21.682-30.919,0-25.571-20.807-46.378-46.475-46.378Z"/>
    <path class="cls-4" d="M118.366,234.298h15.07v42.392h12.932v-42.392h15.07v-10.987h-43.072v10.987Z"/>
    <path class="cls-4" d="M265.861,276.689l-13.903-22.849c3.5-1.07,6.223-2.82,8.167-5.25,1.944-2.431,2.917-5.542,2.917-9.14,0-3.111-.583-5.639-1.75-7.681-1.167-2.042-2.723-3.695-4.667-4.959s-4.084-2.139-6.515-2.722c-2.429-.486-4.959-.778-7.486-.778h-20.32v53.379h12.638v-21.196h4.375l11.572,21.196h14.972ZM249.431,242.951c-.583.875-1.363,1.556-2.238,1.945-.875.486-1.944.778-3.013.972-1.071.195-2.238.292-3.306.292h-6.125v-12.445h6.903c.973,0,1.946.097,3.015.194,1.069.195,1.944.486,2.819.875.875.389,1.556,1.07,2.042,1.847.488.778.779,1.75.779,3.014,0,1.361-.292,2.528-.875,3.306Z"/>
    <path class="cls-4" d="M294.643,247.91l23.043-24.599h-16.141l-19.153,21.682h-.196v-21.682h-12.543v53.379h12.543v-24.599h.196l19.835,24.599h16.82l-24.404-28.78Z"/>
    <path class="cls-4" d="M356.576,276.689h12.932v-22.654l20.514-30.724h-15.07l-11.376,19.737-11.376-19.737h-15.653l20.028,30.724v22.654Z"/>
    <path class="cls-4" d="M429.498,265.703h-24.793v-11.084h22.168v-10.306h-22.168v-10.112h23.433v-10.89h-35.878v53.379h37.238v-10.987Z"/>
    <path class="cls-4" d="M200.524,276.592c2.82-1.069,5.25-2.528,7.292-4.375s3.598-4.181,4.667-6.806c1.069-2.625,1.653-5.542,1.653-8.751v-22.168h-12.931v21.001c0,1.458-.194,2.82-.486,4.181-.389,1.264-.972,2.431-1.75,3.5-.778,1.07-1.847,1.847-3.111,2.431-1.264.583-2.82.875-4.667.875s-3.403-.292-4.667-.875c-1.264-.583-2.333-1.458-3.111-2.431-.778-1.069-1.361-2.236-1.75-3.5-.389-1.264-.583-2.722-.583-4.181v-21.001h-12.834v22.071c0,3.209.486,6.125,1.556,8.751,1.069,2.625,2.528,4.861,4.57,6.806,1.945,1.847,4.375,3.403,7.195,4.375,2.82,1.07,6.028,1.556,9.528,1.556,3.403.097,6.612-.486,9.431-1.458Z"/>
    <path class="cls-4" d="M334.312,223.311h-12.932v7.876h12.932v-7.876Z"/>
    <path class="cls-4" d="M181.079,223.311h-12.834v7.876h12.834v-7.876Z"/>
    <path class="cls-4" d="M214.039,223.311h-12.834v7.876h12.834v-7.876Z"/>
    <path class="cls-4" d="M334.312,234.492h-12.932v42.197h12.932v-42.197Z"/>
    <g id="logo-sigorta">
      <path class="cls-4" d="M475.641,233.661c.688-.393,1.475-.688,2.359-.885.885-.196,1.771-.196,2.556-.196,1.671,0,3.342.393,5.209,1.278,1.771.786,3.244,1.966,4.325,3.342l8.257-8.65c-2.358-2.162-5.111-3.833-8.257-4.915-3.146-1.081-6.192-1.671-9.24-1.671-2.554,0-5.013.295-7.469.983-2.456.59-4.719,1.573-6.684,2.949-1.967,1.376-3.538,3.047-4.719,5.21-1.179,2.064-1.769,4.62-1.769,7.569,0,2.457.394,4.423,1.179,6.192.788,1.671,1.771,3.145,3.048,4.325,1.277,1.18,2.752,2.162,4.325,2.949,1.671.787,3.342,1.376,5.013,1.966,1.769.59,3.342,1.081,4.717,1.573,1.377.491,2.556.983,3.44,1.573.885.59,1.671,1.179,2.163,1.966.492.688.788,1.573.788,2.556,0,1.081-.198,1.966-.59,2.752-.394.786-.983,1.376-1.573,1.769-.688.491-1.475.786-2.359.983-.885.197-1.869.295-2.752.295-2.065,0-4.227-.491-6.39-1.573-2.163-1.081-3.834-2.457-5.209-4.03l-8.455,8.551c2.361,2.457,5.309,4.325,8.946,5.701,3.538,1.376,7.273,1.966,11.107,1.966,2.652,0,5.111-.393,7.567-1.081,2.458-.688,4.621-1.769,6.586-3.244,1.869-1.474,3.44-3.342,4.521-5.504,1.081-2.261,1.671-4.915,1.671-7.962,0-2.654-.492-4.915-1.573-6.684-1.079-1.769-2.358-3.244-4.029-4.522-1.573-1.179-3.44-2.162-5.307-2.949-1.967-.688-3.834-1.376-5.702-1.966-1.277-.393-2.358-.786-3.44-1.18-.983-.393-1.867-.786-2.554-1.278-.69-.491-1.279-.983-1.671-1.573-.394-.59-.592-1.376-.592-2.261,0-1.081.198-1.966.69-2.556.59-.786,1.179-1.376,1.867-1.769Z"/>
      <path class="cls-4" d="M550.934,255.581h10.222v9.731c-1.179.491-2.456.885-3.736,1.081-1.375.197-2.752.295-4.323.295-2.654,0-4.915-.393-6.98-1.278-2.065-.787-3.736-1.966-5.111-3.44-1.377-1.474-2.459-3.244-3.146-5.308-.688-2.064-1.081-4.325-1.081-6.782s.394-4.62,1.179-6.684c.788-2.064,1.869-3.833,3.244-5.308,1.377-1.474,3.048-2.654,5.013-3.44,1.869-.787,4.032-1.278,6.292-1.278,2.652,0,4.913.491,6.978,1.376,2.065.885,3.736,2.162,5.013,3.539l8.159-9.239c-2.261-2.162-5.211-3.932-8.846-5.21-3.638-1.278-7.569-1.966-11.795-1.966-4.032,0-7.863.688-11.403,1.966-3.538,1.278-6.586,3.145-9.238,5.603-2.654,2.457-4.621,5.406-6.194,8.846-1.473,3.44-2.261,7.372-2.261,11.599s.69,8.06,2.163,11.5c1.475,3.44,3.44,6.389,6.094,8.846,2.556,2.457,5.7,4.325,9.24,5.701,3.636,1.376,7.567,2.064,11.795,2.064,4.127,0,7.961-.393,11.403-1.278,3.538-.885,6.584-1.966,9.14-3.342v-28.013h-22.018v10.419h.198Z"/>
      <path class="cls-4" d="M627.895,229.435c-2.554-2.457-5.7-4.227-9.238-5.603-3.54-1.278-7.471-1.966-11.599-1.966s-8.061.688-11.599,1.966c-3.54,1.278-6.586,3.145-9.24,5.603-2.554,2.457-4.619,5.308-6.094,8.748-1.473,3.44-2.163,7.274-2.163,11.599,0,4.227.69,8.06,2.163,11.599,1.475,3.539,3.44,6.487,6.094,8.945,2.556,2.457,5.7,4.423,9.24,5.799,3.538,1.376,7.371,2.064,11.599,2.064,4.127,0,8.059-.688,11.599-2.064,3.538-1.376,6.684-3.244,9.238-5.799,2.556-2.457,4.621-5.504,6.094-8.945,1.475-3.539,2.163-7.372,2.163-11.599s-.688-8.158-2.163-11.599c-1.473-3.44-3.538-6.389-6.094-8.748ZM621.211,256.465c-.786,2.064-1.769,3.735-3.144,5.21-1.377,1.474-2.95,2.556-4.817,3.44-1.867.787-3.932,1.278-6.192,1.278s-4.325-.393-6.192-1.278c-1.869-.786-3.442-1.966-4.817-3.44-1.377-1.474-2.359-3.244-3.146-5.21-.785-2.064-1.179-4.227-1.179-6.684,0-2.359.394-4.522,1.081-6.487s1.769-3.735,3.146-5.21c1.375-1.474,2.948-2.556,4.815-3.44,1.869-.786,3.934-1.278,6.194-1.278s4.323.393,6.192,1.278c1.867.786,3.538,1.966,4.815,3.44,1.377,1.474,2.361,3.145,3.146,5.21.788,1.966,1.179,4.128,1.179,6.487.098,2.359-.294,4.62-1.081,6.684Z"/>
      <path class="cls-4" d="M679.893,248.602c1.967-2.457,2.948-5.504,2.948-9.141,0-3.047-.59-5.603-1.769-7.667-1.179-2.064-2.654-3.735-4.619-5.013-1.967-1.278-4.13-2.162-6.586-2.654-2.456-.491-4.915-.786-7.469-.786h-20.347v53.373h12.582v-21.231h4.423l11.597,21.231h15.041l-13.959-22.902c3.54-.983,6.194-2.752,8.159-5.21ZM669.277,242.999c-.59.884-1.277,1.474-2.261,1.966-.885.491-1.967.786-3.048.983-1.081.196-2.161.295-3.242.295h-6.094v-12.582h6.88c.983,0,1.967.098,2.948.197,1.081.196,1.967.393,2.85.885.788.393,1.475.983,2.065,1.769.492.786.788,1.769.788,3.047-.1,1.474-.394,2.556-.885,3.44Z"/>
      <path class="cls-4" d="M727.958,223.341h-43.053v11.009h15.039v42.364h12.976v-42.364h15.039v-11.009Z"/>
      <path class="cls-4" d="M754.694,223.341h-12.482l-22.412,53.373h14.055l3.934-10.517h20.641l4.127,10.517h14.351l-22.214-53.373ZM741.424,255.876l6.782-18.283,6.684,18.283h-13.466Z"/>
      <path class="cls-4" d="M517.021,223.341h-12.974v7.962h12.974v-7.962Z"/>
      <path class="cls-4" d="M517.021,234.448h-12.974v42.266h12.974v-42.266Z"/>
    </g>
  </g>
</svg>