<?xml version="1.0" encoding="UTF-8"?>
<svg id="Layer_1" data-name="Layer 1" xmlns="http://www.w3.org/2000/svg" viewBox="0 0 500 500">
  <defs>
    <style>
      .cls-1 {
        fill: #f68632;
      }

      .cls-1, .cls-2, .cls-3 {
        fill-rule: evenodd;
        stroke-width: 0px;
      }

      .cls-2 {
        fill: #88d5f2;
      }

      .cls-3 {
        fill: #3baae1;
      }
    </style>
  </defs>
  <g id="unico-1">
    <path class="cls-1" d="M435.523,178.611c-4.498.535-5.65.22-10.502,1.68-8.071,2.43-17.488,8.425-22.599,14.171-7.32,8.229-13.797,20.962-12.23,36.239,1.509,14.71,8.629,25.579,16.73,32.16,10.757,8.738,22.64,12.374,37.028,11.416,12.436-.827,25.407-7.233,33.165-15.683,7.493-8.161,13.69-20.43,12.304-36.307-.36-4.128-.727-6.632-1.879-10.322-4.736-15.17-15.964-25.58-30.488-30.724-5.809-2.058-14.653-3.448-21.528-2.63h0ZM437.174,205.87c-3.674.647-4.555.705-7.39,2.459-2.066,1.278-3.667,2.826-5.16,4.823-3.476,4.65-4.165,8.935-3.782,16,.63,11.625,11.269,19.535,21.525,17.798,11.329-1.919,17.195-12.281,16.083-23.088-.553-5.379-3.321-10.315-6.477-13.29-2.966-2.795-9.183-5.69-14.799-4.702h0Z"/>
    <path class="cls-3" d="M111.076,180.472c-.25,1.902-.051,42.997-.051,46.137,0,7.694-.014,15.389-.021,23.083l.047,20.149c-.022,4.016-1.673,2.851,15.221,2.875,4.804.007,10.464.261,15.17-.056.498-1.634-.215-35.325.243-41.795.66.028,5.146,5.89,5.839,6.765l17.263,21.476c1.883,2.402,3.883,4.66,5.792,7.122l4.222,5.361c.765.993.825,1.056,2.325,1.091,3.184.074,24.674.32,25.895-.218l.154-80.672c0-2.721.338-9.22-.085-11.489-1.555-.25-22.928-.048-26.74-.032-.653.003-1.308.002-1.96-.001-.508-.002-1.455-.117-1.746.198-.599,1.171-.007,34.669-.164,39.372-1.087-.267-2.126-1.948-3.161-3.22l-25.301-31.424c-4.737-5.972-3.063-4.995-7.77-4.976-3.355.013-23.749-.295-25.173.256h0Z"/>
    <path class="cls-3" d="M70.308,180.41c-.237,3.079-.068,6.854-.071,10.009l.028,30.321c.017,5.984.502,13.596-1.659,18.414-3.55,7.914-12.965,9.892-20.401,5.663-7.534-4.285-6.289-16.326-6.301-24.077-.004-2.577.191-39.014-.036-40.409-.97-.22-29.557-.22-31.316.012-.311,1.253-.087,36.228-.099,38.637-.066,13.317-.738,23.82,4.362,34.586,4.128,8.712,10.877,14.595,20.718,17.983,9.676,3.33,24.269,3.819,34.739,1.398,6.162-1.424,9.443-2.492,14.149-5.243,3.399-1.987,7.808-6.184,9.921-9.457,6.132-9.497,7.254-17.998,7.262-31.637.008-14.288-.256-29.458.01-43.623.068-3.605,1.349-2.717-11.924-2.741-3.456-.006-17.013-.215-19.384.165h0Z"/>
    <path class="cls-1" d="M388.979,249.3c-1.114-.643-2.12-1.032-3.216-1.661-1.114-.64-2.06-1.224-3.08-1.806-2.952-1.684-18.247-10.429-19.322-10.564-.839,1.124-.949,1.979-3.19,4.774-10.395,12.964-31.07,6.353-31.122-13.043-.058-21.592,20.757-26.457,30.571-14.648,1.04,1.251,2.484,3.366,3.357,4.849.232-.045,24.267-13.859,25.184-14.849-.418-1.591-3.09-5.243-3.871-6.256-4.496-5.836-9.728-10.412-16.977-13.533-30.658-13.199-69.997,5.345-69.544,44.829.196,17.077,8.466,31.335,21.512,39.581,14.802,9.356,33.804,9.611,49.145,2.656,7.198-3.263,12.102-8.202,16.628-13.894.603-.759,3.815-5.677,3.925-6.434h0Z"/>
    <path class="cls-3" d="M213.652,180.379c-.383,2.217-.138,42.675-.138,46.034,0,5.044-.292,44.966.217,46.166.604.187,30.31.412,30.805-.082.273-.273.063-4.73.06-5.2l-.043-17.41c.005-4.529.281-68.412-.092-69.675-2.753-.252-29.498-.219-30.809.166h0Z"/>
    <path class="cls-3" d="M271.783,178.197c-6.458.849-10.448,3.293-13.565,6.844-2.852,3.25-5.746,9.1-5.107,15.356.549,5.377,3.473,10.632,6.744,13.525,3.755,3.32,8.543,5.336,15.48,5.006,17.074-.811,25.705-23.784,11.659-35.668-3.363-2.845-9.012-5.877-15.211-5.063h0Z"/>
    <path class="cls-3" d="M241.548,286.05c-5.145,1.026-9.031,3.464-11.373,6.7-9.467,13.08.778,31.801,17.716,28.85,10.177-1.773,16.585-11.834,14.762-20.869-2.126-10.535-11.956-16.507-21.105-14.681h0ZM243.144,292.742c-6.556,1.412-9.803,7.151-8.869,12.66.522,3.076,1.754,5.529,3.598,7.182,4.063,3.641,11.245,3.432,15.014-1.809,3.465-4.82,2.793-12.351-1.579-15.736-1.775-1.374-5.186-2.939-8.164-2.297h0Z"/>
    <path class="cls-3" d="M278.64,291.945l-.053,29.225c3.832.302,3.959.249,7.529.177.162-1.462.078-2.927.064-4.364-.044-4.462-.938-4.296,3.254-4.254,1.216.012,1.287.434,1.893,1.362l4.006,6.183c.651,1.093.672,1.203,2.292,1.191,1.79-.014,5.278.194,6.826-.01-.23-2.48-6.604-9.075-6.425-11.123,1.999-1.574,2.538-1.361,4.014-3.611,1.145-1.744,1.548-3.336,2.018-5.582.851-4.061-1.64-9.315-3.73-11.108-5.381-4.615-11.809-3.622-19.322-3.62-2.898,0-2.379-.857-2.366,5.532h0ZM286.296,306.219c1.785.219,5.979-.377,7.304-1.097,3.605-1.959,4.241-8.88-.072-11.024-1.531-.761-5.166-1.333-7.134-1.054-.346.86-.321,11.846-.098,13.174h0Z"/>
    <path class="cls-3" d="M211.099,317.724l.082-14.44c-.038-.321.015-.495-.272-.737-.478-.306-13.679-.386-14.628-.039-.653.467-.463,5.829-.392,6.471,2.329.182,7.714-.308,8.279.559.385.748.388,2.884.018,3.814-.315.792-1.779,1.109-2.743,1.313-19.871,4.209-19.354-24.577-2.662-21.641,1.034.182,2.142.562,3.037,1.038.868.462,1.801,1.46,2.703,1.618.72-.473,4.64-4.434,4.852-5.104-.805-.914-2.769-2.17-3.84-2.773-6.816-3.84-19.1-2.468-24.035,5.968-2.229,3.809-2.738,5.559-2.734,10.695.012,16.889,20.806,21.925,32.337,13.259h0Z"/>
    <path class="cls-3" d="M352.474,321.398l6.975.065c.896-.992,1.33-2.91,2.102-3.916l13.531.01c1.559,2.245.531,3.762,2.741,3.842,1.761.064,5.035.254,6.549.146.249-1.091-3.013-7.721-3.646-9.016-.65-1.331-1.375-3.004-1.987-4.467l-6.123-13.428c-.682-1.468-3.237-8.205-4.363-8.734-.934.653-3.479,7.068-4.146,8.559l-9.752,22.504c-.41.96-1.889,3.65-1.881,4.434h0ZM364.057,311.011l8.171.053c.045-.662-3.575-10.013-4.171-10.66l-1.913,5.452c-.424,1.019-2.135,4.332-2.087,5.155h0Z"/>
    <path class="cls-3" d="M122.36,310.778c-.272.072-5.759,3.075-5.876,3.467-.347,1.167,5.113,8.63,14.294,7.594,6.261-.707,11.503-4.177,10.792-11.303-.674-6.752-5.702-8.415-11.065-10.896-2.059-.953-6.324-2.575-4.068-5.766,1.723-2.438,5.031-1.456,7.028,1.418,1.3.029,4.711-2.45,5.937-3.305-.066-2.692-6.838-8.316-14.899-5.323-5.297,1.966-7.794,8.459-4.552,14.337,2.993,5.428,10.55,5.84,13.233,8.678,1.948,2.062.147,5.586-4.179,5.378-4.536-.218-5.823-3.588-6.644-4.279h0Z"/>
    <path class="cls-3" d="M317.623,292.923c1.309.363,6.734.039,8.783.113.166.006.403.013.56.048.684.151.171-.085.583.262.75,1.215-.246,23.989.215,27.926l7.15.236.179-28.301c1.112-1.027,9.475,1.149,9.82-.888l-.173-5.798c-2.218-.3-5.964-.062-8.373-.101l-16.828.018c-2.165-.003-2.004-.053-1.984,2.18.012,1.33-.217,3.057.068,4.305h0Z"/>
    <path class="cls-2" d="M163.514,321.371c.574-.92.111-17.045.21-19.449.03-.743.31-2.213-.337-2.717-.556-.343-6.235-.267-7.24-.071-.248,1.207-.107,12.776-.094,14.916.007,1.049-.236,6.823.158,7.236.562.589,2.636.317,3.512.319,1.195.003,2.88.256,3.791-.234h0Z"/>
    <path class="cls-3" d="M156.409,321.109c1.459.177,5.709.516,6.839-.002.488-.833.129-9.028.122-10.774-.013-3.317.268-7.735-.01-10.89-.856-.267-6.405-.349-6.802.077-.269.288-.135.05-.194.613l-.006,2.766c-.019,5.595-.23,13.044.051,18.209h0Z"/>
    <path class="cls-3" d="M159.045,287.086c-6.576,1.861-3.418,10.296,1.878,8.838,2.013-.554,4.083-2.541,3.418-5.474-.462-2.036-2.771-4.079-5.296-3.364h0Z"/>
  </g>
</svg>