<?xml version="1.0" encoding="UTF-8"?>
<svg id="Layer_1" data-name="Layer 1" xmlns="http://www.w3.org/2000/svg" viewBox="0 0 800 500">
  <defs>
    <style>
      .cls-1 {
        fill: #f68632;
      }

      .cls-1, .cls-2, .cls-3 {
        fill-rule: evenodd;
        stroke-width: 0px;
      }

      .cls-2 {
        fill: #88d5f2;
      }

      .cls-3 {
        fill: #3baae1;
      }
    </style>
  </defs>
  <g id="unico-2">
    <path class="cls-1" d="M701.929,133.818c-7.32.871-9.196.358-17.091,2.734-13.135,3.955-28.461,13.711-36.779,23.062-11.913,13.392-22.453,34.115-19.904,58.977,2.456,23.94,14.043,41.629,27.226,52.338,17.507,14.221,36.846,20.137,60.261,18.579,20.238-1.347,41.348-11.772,53.974-25.523,12.195-13.282,22.279-33.249,20.023-59.087-.587-6.718-1.183-10.793-3.058-16.799-7.708-24.688-25.981-41.63-49.617-50.002-9.454-3.349-23.847-5.611-35.035-4.28h0ZM704.615,178.181c-5.979,1.052-7.413,1.148-12.027,4.002-3.363,2.079-5.968,4.6-8.397,7.85-5.657,7.568-6.778,14.541-6.155,26.038,1.026,18.919,18.34,31.792,35.031,28.965,18.438-3.123,27.983-19.986,26.174-37.574-.9-8.754-5.404-16.787-10.541-21.629-4.826-4.549-14.944-9.26-24.085-7.651h0Z"/>
    <path class="cls-3" d="M173.909,136.847c-.407,3.095-.083,69.975-.084,75.085-.001,12.522-.022,25.045-.034,37.566l.077,32.791c-.036,6.535-2.723,4.64,24.772,4.679,7.818.011,17.03.425,24.688-.091.811-2.659-.349-57.49.395-68.018,1.074.046,8.375,9.586,9.502,11.01l28.094,34.95c3.065,3.909,6.319,7.583,9.426,11.59l6.872,8.725c1.245,1.616,1.343,1.719,3.784,1.775,5.182.12,40.155.521,42.143-.355l.251-131.29c-.001-4.428.55-15.005-.138-18.698-2.53-.406-37.313-.078-43.517-.052-1.062.005-2.128.003-3.191-.002-.827-.004-2.367-.191-2.842.323-.975,1.906-.012,56.422-.267,64.076-1.769-.435-3.46-3.17-5.144-5.24l-41.175-51.141c-7.709-9.72-4.985-8.129-12.645-8.098-5.46.022-38.65-.48-40.968.417h0Z"/>
    <path class="cls-3" d="M107.561,136.747c-.386,5.012-.11,11.155-.115,16.289l.046,49.345c.028,9.738.817,22.127-2.7,29.968-5.777,12.88-21.1,16.099-33.202,9.216-12.262-6.973-10.235-26.57-10.254-39.184-.007-4.194.311-63.493-.058-65.764-1.579-.358-48.102-.359-50.965.02-.506,2.039-.141,58.959-.161,62.879-.108,21.673-1.202,38.766,7.099,56.286,6.718,14.178,17.701,23.753,33.718,29.266,15.747,5.42,39.497,6.215,56.536,2.275,10.028-2.318,15.367-4.055,23.027-8.533,5.531-3.233,12.707-10.065,16.146-15.391,9.98-15.456,11.806-29.29,11.819-51.488.014-23.252-.417-47.941.016-70.994.11-5.867,2.196-4.423-19.405-4.46-5.625-.01-27.688-.35-31.547.269h0Z"/>
    <path class="cls-1" d="M626.181,248.861c-1.813-1.047-3.451-1.679-5.234-2.703-1.813-1.041-3.352-1.992-5.013-2.939-4.804-2.74-29.696-16.972-31.445-17.193-1.366,1.828-1.544,3.221-5.191,7.769-16.917,21.098-50.565,10.339-50.649-21.227-.094-35.14,33.78-43.058,49.753-23.838,1.692,2.036,4.042,5.477,5.464,7.892.378-.073,39.494-22.554,40.985-24.166-.681-2.588-5.029-8.532-6.3-10.182-7.317-9.497-15.831-16.945-27.63-22.025-49.894-21.481-113.917,8.698-113.18,72.957.319,27.792,13.778,50.996,35.009,64.416,24.09,15.227,55.014,15.642,79.981,4.323,11.714-5.311,19.695-13.348,27.06-22.612.982-1.235,6.208-9.24,6.388-10.47h0Z"/>
    <path class="cls-3" d="M340.846,136.696c-.624,3.608-.224,69.451-.224,74.918,0,8.209-.475,73.179.353,75.132.984.305,49.328.671,50.133-.133.445-.445.103-7.698.098-8.462l-.07-28.334c.007-7.371.458-111.337-.15-113.391-4.48-.411-48.006-.357-50.14.271h0Z"/>
    <path class="cls-3" d="M435.45,133.145c-10.51,1.381-17.004,5.359-22.076,11.139-4.641,5.289-9.352,14.809-8.311,24.99.894,8.75,5.652,17.303,10.975,22.011,6.11,5.404,13.903,8.684,25.192,8.147,27.788-1.32,41.833-38.706,18.974-58.048-5.472-4.631-14.666-9.565-24.755-8.239h0Z"/>
    <path class="cls-3" d="M386.245,308.669c-8.373,1.671-14.698,5.638-18.508,10.904-15.406,21.286,1.266,51.755,28.832,46.952,16.563-2.886,26.991-19.26,24.024-33.963-3.46-17.144-19.457-26.864-34.348-23.892h0ZM388.843,319.56c-10.669,2.299-15.954,11.638-14.433,20.603.85,5.006,2.855,8.999,5.856,11.689,6.612,5.926,18.301,5.586,24.434-2.944,5.64-7.844,4.545-20.1-2.57-25.609-2.89-2.236-8.439-4.783-13.287-3.739h0Z"/>
    <path class="cls-3" d="M446.611,318.263l-.087,47.563c6.236.491,6.442.405,12.253.289.263-2.38.127-4.763.104-7.102-.071-7.261-1.527-6.992,5.296-6.923,1.979.02,2.094.706,3.081,2.216l6.519,10.063c1.06,1.779,1.094,1.957,3.73,1.938,2.914-.022,8.589.316,11.109-.016-.375-4.036-10.747-14.77-10.457-18.102,3.253-2.561,4.13-2.216,6.532-5.876,1.863-2.839,2.519-5.428,3.285-9.085,1.384-6.61-2.669-15.16-6.07-18.077-8.758-7.511-19.218-5.894-31.446-5.891-4.716,0-3.872-1.395-3.85,9.004h0ZM459.07,341.493c2.905.356,9.73-.613,11.888-1.785,5.867-3.189,6.902-14.451-.117-17.941-2.492-1.239-8.407-2.169-11.61-1.715-.564,1.4-.522,19.279-.16,21.44h0Z"/>
    <path class="cls-3" d="M336.691,360.217l.134-23.5c-.062-.522.024-.806-.443-1.199-.778-.499-22.263-.628-23.807-.063-1.063.76-.754,9.486-.638,10.531,3.79.296,12.555-.501,13.473.911.626,1.218.631,4.693.029,6.207-.513,1.289-2.895,1.805-4.464,2.137-32.339,6.85-31.497-39.997-4.331-35.22,1.683.296,3.485.914,4.942,1.689,1.413.752,2.931,2.376,4.399,2.632,1.172-.77,7.552-7.216,7.896-8.307-1.311-1.487-4.507-3.531-6.25-4.513-11.092-6.25-31.083-4.016-39.116,9.712-3.627,6.199-4.456,9.047-4.45,17.405.02,27.486,33.86,35.681,52.627,21.578h0Z"/>
    <path class="cls-3" d="M566.771,366.196l11.351.106c1.458-1.614,2.165-4.735,3.42-6.373l22.021.017c2.537,3.653.864,6.122,4.46,6.253,2.866.105,8.194.413,10.657.237.405-1.775-4.904-12.565-5.934-14.674-1.057-2.166-2.237-4.889-3.233-7.269l-9.965-21.853c-1.111-2.39-5.269-13.354-7.101-14.214-1.52,1.063-5.661,11.502-6.747,13.929l-15.87,36.625c-.668,1.562-3.074,5.94-3.061,7.216h0ZM585.621,349.292l13.299.086c.074-1.077-5.818-16.295-6.789-17.348l-3.113,8.873c-.69,1.658-3.475,7.05-3.397,8.389h0Z"/>
    <path class="cls-3" d="M192.274,348.913c-.442.117-9.373,5.004-9.563,5.643-.565,1.899,8.32,14.045,23.262,12.358,10.189-1.15,18.721-6.798,17.563-18.395-1.097-10.988-9.279-13.695-18.007-17.733-3.351-1.55-10.291-4.19-6.62-9.385,2.803-3.968,8.188-2.37,11.437,2.309,2.115.047,7.667-3.986,9.662-5.378-.107-4.382-11.129-13.534-24.248-8.663-8.62,3.2-12.684,13.766-7.409,23.332,4.871,8.833,17.17,9.504,21.536,14.124,3.171,3.355.239,9.091-6.801,8.753-7.382-.354-9.477-5.84-10.813-6.963h0Z"/>
    <path class="cls-3" d="M510.052,319.855c2.13.59,10.96.064,14.293.184.271.01.655.021.912.078,1.112.246.278-.139.949.427,1.22,1.978-.4,39.04.35,45.448l11.637.385.292-46.059c1.81-1.671,15.421,1.87,15.981-1.445l-.281-9.435c-3.61-.488-9.707-.1-13.627-.165l-27.386.028c-3.523-.004-3.261-.086-3.229,3.548.02,2.164-.352,4.976.111,7.007h0Z"/>
    <path class="cls-2" d="M259.249,366.152c.933-1.498.181-27.74.341-31.653.05-1.209.505-3.601-.548-4.422-.904-.559-10.147-.435-11.783-.115-.403,1.965-.175,20.793-.152,24.276.011,1.707-.384,11.104.257,11.776.914.959,4.29.516,5.716.519,1.944.004,4.687.416,6.169-.381h0Z"/>
    <path class="cls-3" d="M247.686,365.726c2.374.288,9.291.839,11.131-.003.794-1.356.21-14.692.199-17.533-.021-5.399.436-12.589-.016-17.724-1.393-.435-10.423-.567-11.071.126-.438.469-.22.082-.316.998l-.01,4.502c-.03,9.105-.374,21.229.083,29.634h0Z"/>
    <path class="cls-3" d="M251.975,310.356c-10.701,3.028-5.562,16.756,3.056,14.384,3.276-.902,6.645-4.136,5.563-8.909-.751-3.313-4.51-6.638-8.618-5.475h0Z"/>
  </g>
</svg>