<?xml version="1.0" encoding="UTF-8"?>
<svg id="Layer_1" data-name="Layer 1" xmlns="http://www.w3.org/2000/svg" viewBox="0 0 500 500">
  <defs>
    <style>
      .cls-1 {
        fill: #223166;
      }

      .cls-1, .cls-2 {
        stroke-width: 0px;
      }

      .cls-2 {
        fill: #075ca9;
      }
    </style>
  </defs>
  <g id="zurich-1">
    <path class="cls-2" d="M230.079,47.159c-42.284,0-76.56,34.279-76.56,76.556,0,17.463,5.851,33.546,15.686,46.412l63.643-83.624-6.851.01h-6.797c-7.271,0-14.09.491-18.983,1.46-2.987.582-5.646,1.662-7.802,3.19-2.547,1.776-5.732,5.541-7.802,9.268-.235.423-.575,1.09-1.029,1.973l-3.735-.831,6.238-24.019h79.725l-63.342,84.69c4.128-.386,5.76-.445,9.094-.445,2.571,0,6.487.166,11.703.467l11.258.667c4.045.249,7.484.369,10.07.369,5.829,0,9.603-.452,13.343-1.596,2.918-.889,5.656-2.221,8.193-3.959,4.429-3.07,8.77-8.007,11.341-12.951.259-.484.679-1.246,1.163-2.261l3.373.87c-1.09,4.189-1.677,5.775-3.373,9.539-3.388,7.599-7.225,12.688-12.505,16.611-5.44,4.008-11.448,5.988-18.556,6.093l-1.073.008c-5.269,0-9.344-.438-21.941-2.374-12.814-1.965-19.338-2.615-25.778-2.615-4.326,0-8.332.317-12.475.989-5.497.871-7.653,1.52-12.648,3.803,13.993,15.249,34.089,24.798,56.421,24.798,42.283,0,76.56-34.272,76.56-76.541s-34.277-76.556-76.56-76.556"/>
    <path class="cls-1" d="M89.565,253.223H30.898l-7.213,15.911c2.405-1.275,3.365-1.72,5.475-2.561,3.317-1.325,7-2.371,10.537-2.991,3.077-.533,5.912-.787,10.517-.914,2.065-.064,3.991-.083,5.79-.083h8.689l-45.642,65.22h64.511l7.462-17.017c-2.593,1.501-3.515,1.98-5.504,2.87-3.742,1.696-7.846,2.967-12.057,3.7-3.319.582-7.068.905-11.72,1.037-1.564.034-3.547.059-5.981.059h-11.422"/>
    <path class="cls-1" d="M283.474,327.804c-1.134-1.012-1.54-1.467-2.283-2.615-.469-.748-.861-1.506-1.149-2.278-.65-1.706-1.027-4.184-1.027-6.575v-44.913l.029-4.404c.015-4.972.152-6.335.787-8.369.254-.792.601-1.569,1.056-2.337.772-1.261,1.3-1.828,2.811-3.096h-23.948c1.574,1.366,2.058,1.875,2.767,2.955.499.762.89,1.589,1.164,2.41.562,1.818.728,3.617.772,8.056,0,2.259.014,3.769.014,4.473v44.684c0,2.591-.44,5.402-1.178,7.201-.303.758-.699,1.506-1.183,2.195-.571.806-.948,1.261-2.282,2.615"/>
    <path class="cls-1" d="M358.426,255.764c-1.843-.599-2.571-.804-4.58-1.205-4.282-.922-8.423-1.337-13.096-1.337-8.012,0-14.924,1.293-21.259,3.945-3.764,1.599-7.196,3.637-10.266,6.086-9.195,7.411-14.186,18.136-14.186,30.484,0,11.991,4.825,22.369,13.624,29.32,7.274,5.729,16.62,8.643,27.868,8.643,7.029,0,13.58-1.051,20.942-3.368.274-.073.665-.195,1.212-.376v-13.55c-1.799,1.183-2.391,1.569-3.481,2.219-1.452.831-2.962,1.579-4.595,2.273-4.478,1.892-8.589,2.767-13.018,2.767-7.729,0-14.323-2.757-19.221-8.037-4.839-5.201-7.44-12.475-7.44-20.663,0-7.807,2.434-15.066,6.731-20.13,1.887-2.199,4.155-4.067,6.776-5.529,4.218-2.371,9.117-3.583,14.44-3.583,4.551,0,8.98.894,13.394,2.699,2.752,1.119,3.764,1.686,6.154,3.363"/>
    <path class="cls-1" d="M423.807,293.947v18.209c0,4.033-.059,5.509-.303,7.601-.166,1.129-.421,2.219-.802,3.217-.543,1.374-1.403,2.654-2.689,3.891-.23.229-.562.533-1.046.939h23.845c-.997-.993-1.344-1.384-1.994-2.298-.606-.841-1.076-1.643-1.394-2.449-.723-1.745-.919-3.065-.982-6.746-.029-2.205-.044-3.49-.044-3.857l.044-41.032v-4.448c0-3.275.273-5.812.831-7.885.259-.968.65-1.882,1.183-2.752.787-1.285,1.359-1.875,2.962-3.114h-24.344c1.408,1.149,1.872,1.701,2.723,3.031.527.87.933,1.745,1.236,2.61.577,1.72.772,3.915.772,7.821v18.131h-33.431v-13.624c0-4.097.074-6.81.21-8.809.078-1.247.288-2.337.592-3.265.513-1.618,1.872-3.823,3.099-5.104.166-.195.455-.445.831-.792h-23.904c1.437,1.474,1.799,1.926,2.449,2.85.543.777.968,1.642,1.271,2.542.665,1.887.772,2.908.831,7.89l.058,4.717v40.832c0,4.17-.058,5.988-.288,7.875-.117.973-.361,1.965-.753,2.962-.591,1.608-1.481,2.894-2.86,4.194-.181.161-.455.401-.816.719h23.606c-1.032-1.056-1.393-1.511-1.999-2.44-.435-.728-.846-1.491-1.164-2.351-.787-1.955-1.026-3.339-1.09-6.511-.044-1.593-.074-3.069-.074-4.478v-18.077"/>
    <path class="cls-1" d="M204.843,312.478c0,1.369.025,2.61.039,3.75.069,3.47.31,5.24.968,6.883.325.792.748,1.549,1.276,2.283.66.9.976,1.251,2.065,2.41h-23.708c1.368-1.247,1.799-1.701,2.464-2.591.545-.714.983-1.52,1.3-2.371.621-1.637.855-3.671.855-7.2v-48.961c0-3.954-.212-6.266-.726-7.933-.296-.929-.733-1.853-1.3-2.728-.719-1.066-1.188-1.61-2.51-2.796h19.24c2.388,0,4.695.015,6.924.076,5.927.166,9.42.513,12.754,1.315,4.786,1.112,9.051,3.478,12.121,6.689,3.341,3.485,5.064,7.66,5.064,12.255,0,1.921-.318,3.847-.922,5.734-1.105,3.368-2.933,6.037-5.866,8.521-2.61,2.165-5.46,3.832-9.202,5.304-1.322.538-1.882.713-3.319,1.158l11.59,13.614c1.406,1.657,3.214,3.701,5.429,6.096,3.485,3.788,5.837,6.169,8.452,8.662,1.141,1.066,2.217,2.033,3.229,2.918.961.831,1.459,1.241,2.713,2.239h-9.366c-1.383,0-2.676-.015-3.879-.059-3.244-.108-5.262-.567-7.408-1.73-2.488-1.369-5.035-3.368-7.704-6.12-.831-.85-2.048-2.185-3.644-4.019-1.413-1.613-2.442-2.82-3.099-3.593l-13.829-16.586M206.053,289.435c1.09,0,2.383-.098,3.893-.318,4.03-.606,6.744-1.471,9.412-3.041,1.369-.831,2.564-1.784,3.47-2.821,1.921-2.146,2.911-5.015,2.911-8.403,0-3.896-1.315-7.024-3.857-9.17-1.452-1.232-3.16-2.151-5.028-2.684-2.835-.816-6.387-1.271-10.063-1.271-.604,0-1.012.004-1.95.054v27.624c.582.029.841.029,1.21.029"/>
    <path class="cls-1" d="M173.348,253.223h-23.799c1.459,1.127,1.965,1.67,2.698,2.879.499.792.871,1.643,1.112,2.513.514,1.803.665,3.617.665,7.821v28.376c0,6.101-.181,9.659-.635,12.641-.296,1.98-.954,3.847-1.921,5.465-1.814,3.04-5.186,5.392-9.178,6.404-1.611.406-3.388.606-5.277.606-6.411,0-11.922-2.386-14.577-6.316-2.048-3.06-2.63-5.964-2.721-13.609l-.083-6.144v-22.472c0-4.399.054-6.472.196-8.701.108-1.32.288-2.479.574-3.417.501-1.701,1.777-3.999,2.994-5.397.137-.159.332-.357.613-.65h-24.253c1.474,1.225,1.98,1.799,2.706,3.031.477.802.831,1.662,1.059,2.571.288,1.134.455,2.293.484,3.441.022.738.039,2.283.054,4.619l.022,4.336v21.357c0,7.909.047,9.943.303,13.12.43,5.451,2.109,9.811,5.231,13.726,5.663,7.122,14.714,10.867,26.318,10.867,5.548,0,10.879-.855,14.975-2.39,4.311-1.589,8.288-4.238,11.106-7.401,3.449-3.847,5.436-8.613,6.035-14.479.369-3.417.521-7.459.521-13.34v-21.459l-.061-4.233v-.845c0-3.192.176-5.089.613-6.814.271-1.071.711-2.078,1.293-3.006.794-1.278,1.345-1.86,2.933-3.099"/>
    <path class="cls-2" d="M168.306,377.473c-3.266-.9-4.551-1.168-8.037-1.686-3.569-.528-6.956-.792-10.17-.792-7.386,0-14.537,1.369-20.555,3.915-3.644,1.55-7.015,3.593-10.026,6.047-5.602,4.585-9.532,10.27-11.891,17.207-1.415,4.17-2.124,8.477-2.124,12.758,0,11.375,5.064,22.316,13.501,29.12,4.959,3.999,10.918,6.511,18.41,7.802,3.243.553,6.523.831,9.806.831,6.357,0,13.443-1.119,19.565-3.069,2.814-.905,3.999-1.369,6.956-2.752-.56-1.467-.726-2.117-.953-3.446-.332-2.107-.469-4.576-.491-7.812l-.029-4.649v-3.656c0-2.18.076-4.243.242-6.208.135-1.574.416-3.011.816-4.292.469-1.515,1.012-2.371,2.517-3.964h-21.616c1.549,1.535,2.094,2.229,2.874,3.715.499.948.853,1.887,1.066,2.786.393,1.633.521,2.997.635,6.717.044,1.389.059,2.469.059,3.285v11.17c-2.041.929-2.894,1.203-4.959,1.603-1.821.347-3.771.519-5.829.519-8.066,0-14.448-2.591-19.338-7.885-4.786-5.162-7.333-12.284-7.333-20.448,0-7.675,2.261-14.557,6.524-19.724,1.882-2.288,4.099-4.189,6.562-5.622,4.06-2.342,9.397-3.671,14.645-3.671,4.436,0,8.995.929,13.123,2.669,2.307.968,3.351,1.535,6.049,3.241"/>
    <path class="cls-2" d="M292.439,435.551c0,1.711,0,2.958.015,3.73.078,3.324.352,5.299.968,6.853.303.733.728,1.501,1.286,2.268.65.919.997,1.335,2.043,2.4h-23.606c1.379-1.242,1.848-1.711,2.498-2.586.543-.733.983-1.53,1.3-2.346.606-1.638.845-3.642.845-7.172v-48.697c0-3.984-.195-6.139-.757-7.885-.284-.963-.724-1.867-1.267-2.708-.699-1.07-1.183-1.603-2.512-2.796h19.157c2.513,0,4.81.029,6.883.088,5.759.161,9.435.533,12.7,1.295,4.703,1.105,8.936,3.456,12.021,6.668,3.344,3.51,5.035,7.606,5.035,12.196,0,1.926-.318,3.847-.909,5.705-1.085,3.329-2.962,6.066-5.837,8.471-2.6,2.151-5.621,3.901-9.161,5.274-1.075.416-1.662.635-3.28,1.158l11.507,13.526c1.374,1.618,3.187,3.627,5.426,6.071,3.495,3.764,5.778,6.12,8.393,8.594,1.163,1.119,2.239,2.092,3.207,2.908.831.728,1.344,1.168,2.689,2.234h-9.298c-6.428,0-8.603-.347-11.219-1.784-2.464-1.339-5.128-3.456-7.684-6.081-.724-.748-1.916-2.087-3.613-4.013-1.574-1.794-2.6-2.992-3.07-3.578l-13.76-16.474M293.514,412.645c1.134,0,2.464-.113,4.023-.332,3.945-.577,6.683-1.467,9.342-3.031,1.378-.811,2.556-1.764,3.465-2.791,1.902-2.209,2.884-5.025,2.884-8.344,0-3.842-1.33-6.971-3.837-9.127-1.423-1.212-3.129-2.126-5.02-2.669-2.845-.816-6.291-1.246-10.163-1.246-.528,0-.905.005-1.77.035v27.482c.532.015.743.025,1.075.025"/>
    <path class="cls-2" d="M263.29,423.902c-1.588,6.457-5.035,12.861-9.29,17.304-2.676,2.811-5.858,5.187-9.427,7.044-5.791,3.025-12.27,4.502-19.717,4.502-3.644,0-7.054-.357-10.214-1.061-7.44-1.687-14.076-5.426-19.059-10.725-2.29-2.444-4.263-5.265-5.888-8.374-3.04-5.885-4.576-12.343-4.576-19.323,0-4.082.506-7.968,1.513-11.59,1.694-6.105,4.663-11.135,9.148-15.51,2.66-2.601,5.685-4.801,8.987-6.516,6.027-3.163,13.064-4.82,20.551-4.82,3.969,0,7.704.455,11.15,1.354,6.509,1.711,12.671,5.211,17.185,9.777,2.564,2.586,4.691,5.617,6.372,8.95,2.703,5.529,4.414,12.861,4.414,19.074,0,3.48-.396,6.805-1.149,9.914M244.226,397.667c-1.332-2.63-3.091-4.967-5.186-6.902-4.067-3.725-8.747-5.563-14.212-5.563-1.99,0-3.994.274-5.966.787-4.598,1.222-8.383,3.671-11.378,7.337-4.008,4.893-6.277,11.82-6.277,19.108,0,6.086,1.552,12.436,4.304,17.578,1.457,2.718,3.385,5.123,5.675,7.034,3.94,3.334,8.733,5.034,14.085,5.034,5.385,0,9.759-1.647,13.804-5.206,1.709-1.52,3.2-3.261,4.431-5.182,2.955-4.6,4.673-10.788,4.673-16.752s-1.484-12.392-3.955-17.275"/>
    <path class="cls-2" d="M10.275,435.674c2.752,1.759,5.511,3.196,7.704,4.179,4.294,1.77,9.586,2.865,14.091,2.865,7.924,0,13.548-4.62,13.548-11.234,0-2.19-.77-4.384-2.215-5.925-.87-1.114-2.07-2.102-3.409-2.972-2.305-1.55-3.847-2.312-9.792-5.064-7.816-3.535-11.113-5.279-13.978-7.934-4.179-3.847-6.169-8.246-6.169-14.078,0-12.783,10.358-20.809,26.749-20.809,6.047,0,12.656,1.217,18.5,3.309v13.751c-5.512-4.512-12.566-7.151-19.052-7.151-7.046,0-11.778,3.524-11.778,8.921,0,2.307.99,4.517,2.752,6.047,1.542,1.433,2.532,1.975,7.264,4.297l4.619,2.19,5.179,2.43c10.026,4.727,15.415,12.103,15.415,21.025,0,14.635-11.016,23.322-29.726,23.322-6.594,0-13.096-.875-19.702-2.742"/>
    <path class="cls-2" d="M461.412,433.366c.968,2.043,1.633,3.222,1.721,3.652,1.515,3.134,2.816,5.499,4.326,7.88,1.633,2.561,2.796,3.872,5.064,5.91h-25.311c1.711-2.038,2.361-3.554,2.361-5.91,0-2.816-.528-5.612-3.221-11.204l-.983-2.048h-26.704l-.86,2.048c-2.796,6.57-3.431,8.618-3.431,10.764,0,2.474.635,4.204,2.571,6.35h-23.468c1.936-1.608,3.011-2.796,4.414-4.737.968-1.403,2.361-3.881,3.554-6.238.865-1.515,2.463-4.962,3.661-7.655l25.507-55.458h4.746M422.433,423.022h19.187l-9.586-21.743-9.601,21.743Z"/>
    <path class="cls-2" d="M400.734,376.613h-22.256v-.01h-36.804l-6.848,14.675c3.202-1.994,6.53-3.319,10.055-4.316,3.642-.983,7.587-1.315,13.878-1.413,1.076,0,2.845-.074,5.157-.113v50.056c0,5.289,0,5.724-.225,7.377-.23,1.105-.44,2.209-.772,3.085-.772,1.999-1.755,3.417-3.402,4.854h23.361c-2.42-2.41-3.084-3.539-3.632-5.509-.557-1.877-.767-11.478-.767-12.015v-47.832c2.312.024,4.082.098,5.152.098,6.291.098,10.256.43,13.897,1.427,3.524.983,6.834,2.307,10.026,4.302"/>
    <path class="cls-2" d="M91.554,384.097c0,5.201-4.226,9.445-9.444,9.445s-9.434-4.243-9.434-9.445,4.226-9.444,9.434-9.444,9.444,4.229,9.444,9.444"/>
    <path class="cls-2" d="M91.569,448.246c-.462-.728-.838-1.476-1.141-2.244-.621-1.642-1.007-4.204-1.007-6.526v-12.822h.017v-7.108l.015-4.355c.03-4.996.159-6.291.802-8.34.249-.806.604-1.603,1.066-2.337.77-1.29,1.3-1.872,2.796-3.084h-23.875c1.579,1.349,2.087,1.867,2.796,2.953.494.762.892,1.569,1.134,2.4.538,1.75.697,3.426.758,8.002.015.953.022,1.721.029,2.386v21.728c0,2.532-.491,5.407-1.21,7.19-.286.748-.679,1.476-1.149,2.156-.596.86-1.022,1.33-2.276,2.63h23.549c-1.163-1.051-1.571-1.511-2.305-2.63"/>
    <polyline class="cls-1" points="464.722 366.299 466.237 366.299 466.237 351.096 471.106 351.096 471.106 349.683 459.853 349.683 459.853 351.096 464.722 351.096 464.722 366.299"/>
    <polyline class="cls-1" points="473.071 366.299 474.596 366.299 474.596 351.326 474.626 351.326 480.917 366.299 482.31 366.299 488.401 351.326 488.43 351.326 488.43 366.299 489.945 366.299 489.945 349.683 487.721 349.683 481.596 364.314 475.52 349.683 473.071 349.683 473.071 366.299"/>
  </g>
</svg>