<?xml version="1.0" encoding="UTF-8"?>
<svg id="Layer_1" data-name="Layer 1" xmlns="http://www.w3.org/2000/svg" viewBox="0 0 800 500">
  <defs>
    <style>
      .cls-1 {
        fill: #223166;
      }

      .cls-1, .cls-2 {
        stroke-width: 0px;
      }

      .cls-2 {
        fill: #075ca9;
      }
    </style>
  </defs>
  <g id="zurich-2">
    <path class="cls-2" d="M66.9,195.927c-30.107,0-54.513,24.408-54.513,54.509,0,12.434,4.166,23.885,11.169,33.046l45.315-59.542-4.878.007h-4.84c-5.177,0-10.033.35-13.516,1.039-2.127.414-4.02,1.183-5.555,2.271-1.813,1.265-4.081,3.945-5.555,6.599-.167.301-.409.776-.733,1.405l-2.659-.592,4.441-17.102h56.766l-45.101,60.301c2.939-.275,4.102-.317,6.475-.317,1.831,0,4.619.118,8.333.333l8.016.475c2.88.177,5.329.263,7.17.263,4.15,0,6.837-.322,9.5-1.137,2.078-.633,4.027-1.582,5.833-2.819,3.154-2.186,6.244-5.701,8.075-9.222.184-.345.484-.887.828-1.61l2.402.619c-.776,2.983-1.194,4.112-2.402,6.792-2.412,5.411-5.144,9.034-8.904,11.827-3.874,2.854-8.151,4.264-13.212,4.339l-.764.005c-3.752,0-6.653-.312-15.623-1.69-9.124-1.399-13.769-1.862-18.355-1.862-3.08,0-5.932.226-8.882.704-3.914.62-5.449,1.082-9.006,2.708,9.963,10.858,24.272,17.657,40.173,17.657,30.107,0,54.513-24.402,54.513-54.499s-24.406-54.509-54.513-54.509"/>
    <g>
      <path class="cls-1" d="M184.267,222.495h-41.772l-5.136,11.329c1.712-.908,2.396-1.225,3.898-1.824,2.362-.943,4.984-1.688,7.502-2.13,2.191-.38,4.21-.561,7.489-.651,1.471-.045,2.842-.059,4.123-.059h6.187l-32.498,46.438h45.933l5.313-12.116c-1.847,1.069-2.503,1.41-3.919,2.043-2.665,1.208-5.586,2.113-8.585,2.635-2.363.414-5.033.644-8.345.738-1.114.024-2.525.042-4.258.042h-8.133"/>
      <path class="cls-1" d="M322.334,275.599c-.808-.721-1.096-1.044-1.626-1.862-.334-.532-.613-1.072-.818-1.622-.463-1.215-.731-2.979-.731-4.681v-31.979l.021-3.136c.01-3.54.108-4.511.56-5.959.181-.564.428-1.117.752-1.664.55-.898.926-1.302,2.001-2.205h-17.051c1.121.973,1.465,1.335,1.97,2.104.355.543.634,1.131.829,1.716.4,1.295.519,2.576.55,5.736,0,1.608.01,2.684.01,3.185v31.816c0,1.845-.313,3.846-.839,5.127-.216.54-.498,1.072-.842,1.563-.407.574-.675.898-1.625,1.862"/>
      <path class="cls-1" d="M375.701,224.305c-1.312-.426-1.831-.572-3.261-.858-3.049-.656-5.997-.952-9.324-.952-5.705,0-10.626.921-15.137,2.809-2.68,1.138-5.123,2.59-7.309,4.333-6.547,5.277-10.101,12.913-10.101,21.705,0,8.538,3.435,15.927,9.701,20.876,5.179,4.079,11.834,6.154,19.843,6.154,5.005,0,9.669-.748,14.911-2.398.195-.052.473-.139.863-.268v-9.648c-1.281.842-1.702,1.117-2.479,1.58-1.034.592-2.109,1.124-3.271,1.618-3.189,1.347-6.115,1.97-9.269,1.97-5.503,0-10.198-1.963-13.686-5.722-3.445-3.703-5.297-8.882-5.297-14.712,0-5.559,1.733-10.727,4.793-14.333,1.344-1.566,2.959-2.896,4.824-3.936,3.003-1.688,6.491-2.551,10.281-2.551,3.24,0,6.394.637,9.537,1.921,1.96.797,2.68,1.201,4.382,2.394"/>
      <path class="cls-1" d="M422.254,251.492v12.965c0,2.871-.042,3.923-.216,5.412-.118.804-.299,1.58-.571,2.29-.386.978-.999,1.89-1.914,2.771-.164.163-.4.379-.745.668h16.978c-.71-.707-.957-.985-1.42-1.636-.432-.599-.766-1.17-.992-1.744-.515-1.242-.654-2.182-.699-4.803-.021-1.57-.031-2.485-.031-2.746l.031-29.216v-3.167c0-2.332.195-4.138.592-5.614.184-.689.463-1.34.842-1.96.56-.915.968-1.335,2.109-2.217h-17.333c1.003.818,1.333,1.211,1.939,2.158.376.619.665,1.242.88,1.859.411,1.225.55,2.788.55,5.569v12.909h-23.804v-9.7c0-2.917.052-4.849.15-6.272.056-.888.205-1.664.421-2.325.365-1.152,1.333-2.722,2.206-3.634.118-.139.324-.317.592-.564h-17.02c1.023,1.05,1.281,1.372,1.744,2.029.386.553.689,1.169.905,1.81.473,1.343.55,2.071.592,5.618l.042,3.359v29.073c0,2.969-.042,4.264-.205,5.607-.083.693-.257,1.399-.536,2.109-.421,1.145-1.055,2.06-2.036,2.986-.129.115-.324.285-.581.512h16.808c-.735-.752-.992-1.076-1.424-1.737-.31-.519-.602-1.061-.829-1.674-.56-1.392-.731-2.377-.776-4.636-.031-1.134-.052-2.186-.052-3.188v-12.871"/>
      <path class="cls-1" d="M266.347,264.687c0,.975.018,1.859.028,2.67.049,2.471.221,3.731.689,4.901.232.564.533,1.103.909,1.625.47.64.695.891,1.471,1.716h-16.881c.974-.888,1.281-1.211,1.754-1.845.388-.508.7-1.082.926-1.688.442-1.166.609-2.614.609-5.127v-34.862c0-2.816-.151-4.462-.517-5.649-.211-.661-.522-1.319-.926-1.942-.512-.759-.846-1.147-1.787-1.991h13.699c1.7,0,3.343.011,4.93.054,4.22.118,6.707.365,9.081.936,3.408.792,6.444,2.476,8.63,4.763,2.379,2.482,3.606,5.454,3.606,8.726,0,1.368-.226,2.739-.656,4.083-.787,2.398-2.088,4.299-4.177,6.067-1.858,1.542-3.888,2.729-6.552,3.776-.942.383-1.34.508-2.363.825l8.252,9.693c1.001,1.18,2.288,2.635,3.865,4.34,2.482,2.697,4.156,4.392,6.018,6.168.813.759,1.578,1.448,2.299,2.078.684.592,1.039.884,1.932,1.594h-6.669c-.985,0-1.906-.011-2.762-.042-2.31-.077-3.747-.403-5.275-1.232-1.772-.974-3.585-2.398-5.485-4.357-.592-.606-1.458-1.556-2.595-2.861-1.006-1.148-1.739-2.008-2.207-2.558l-9.847-11.81M267.209,248.28c.776,0,1.696-.07,2.772-.226,2.87-.432,4.802-1.048,6.702-2.165.974-.592,1.826-1.27,2.471-2.008,1.368-1.528,2.073-3.571,2.073-5.983,0-2.774-.936-5.001-2.746-6.529-1.034-.877-2.25-1.531-3.58-1.911-2.019-.581-4.547-.905-7.165-.905-.43,0-.72.003-1.389.038v19.669c.414.021.598.021.862.021"/>
      <path class="cls-1" d="M243.922,222.495h-16.945c1.039.802,1.399,1.189,1.921,2.05.355.564.62,1.17.792,1.789.366,1.284.473,2.575.473,5.569v20.204c0,4.344-.129,6.878-.452,9.001-.211,1.41-.679,2.739-1.368,3.891-1.291,2.165-3.693,3.839-6.535,4.56-1.147.289-2.412.432-3.757.432-4.565,0-8.489-1.699-10.379-4.497-1.458-2.179-1.873-4.246-1.937-9.69l-.059-4.375v-16c0-3.132.038-4.608.139-6.195.077-.94.205-1.765.409-2.433.357-1.211,1.265-2.847,2.132-3.843.097-.113.237-.254.437-.463h-17.269c1.05.872,1.41,1.281,1.926,2.158.34.571.592,1.183.754,1.831.205.807.324,1.632.345,2.45.015.525.028,1.625.038,3.289l.016,3.087v15.207c0,5.632.033,7.08.216,9.342.307,3.881,1.502,6.986,3.724,9.773,4.032,5.071,10.476,7.737,18.739,7.737,3.951,0,7.746-.609,10.663-1.702,3.07-1.131,5.901-3.018,7.908-5.27,2.456-2.739,3.871-6.133,4.297-10.31.263-2.433.371-5.311.371-9.499v-15.28l-.044-3.014v-.602c0-2.273.125-3.623.437-4.852.193-.762.506-1.479.921-2.141.566-.91.957-1.324,2.089-2.207"/>
    </g>
    <g>
      <path class="cls-2" d="M555.373,223.493c-2.325-.64-3.24-.832-5.722-1.201-2.541-.376-4.953-.564-7.242-.564-5.259,0-10.351.974-14.636,2.788-2.595,1.103-4.995,2.558-7.139,4.306-3.989,3.265-6.787,7.313-8.467,12.252-1.008,2.969-1.512,6.035-1.512,9.084,0,8.099,3.606,15.889,9.613,20.734,3.531,2.847,7.774,4.636,13.108,5.555,2.309.393,4.645.592,6.982.592,4.526,0,9.572-.797,13.931-2.185,2.003-.644,2.847-.975,4.953-1.96-.399-1.044-.517-1.507-.679-2.454-.237-1.5-.334-3.258-.35-5.562l-.021-3.31v-2.603c0-1.552.054-3.021.172-4.421.096-1.121.296-2.144.581-3.056.334-1.079.72-1.688,1.792-2.823h-15.391c1.103,1.093,1.491,1.587,2.047,2.645.355.675.607,1.343.759,1.984.28,1.163.371,2.134.452,4.782.031.989.042,1.758.042,2.339v7.953c-1.453.661-2.06.856-3.531,1.142-1.297.247-2.685.369-4.15.369-5.743,0-10.287-1.845-13.769-5.614-3.408-3.676-5.221-8.747-5.221-14.559,0-5.464,1.61-10.365,4.645-14.044,1.34-1.629,2.918-2.983,4.673-4.003,2.891-1.667,6.691-2.614,10.428-2.614,3.158,0,6.404.661,9.344,1.9,1.643.689,2.386,1.093,4.307,2.308"/>
      <path class="cls-2" d="M643.758,264.846c0,1.218,0,2.106.01,2.656.056,2.367.251,3.773.689,4.88.216.522.519,1.069.915,1.615.463.654.71.95,1.455,1.709h-16.808c.982-.884,1.316-1.218,1.779-1.841.386-.522.7-1.089.926-1.67.432-1.166.602-2.593.602-5.106v-34.673c0-2.837-.139-4.371-.539-5.614-.202-.685-.515-1.329-.902-1.928-.498-.762-.842-1.142-1.789-1.991h13.64c1.789,0,3.425.021,4.901.063,4.1.115,6.718.38,9.042.922,3.348.787,6.363,2.461,8.559,4.747,2.381,2.499,3.585,5.416,3.585,8.684,0,1.371-.226,2.739-.648,4.062-.773,2.37-2.109,4.319-4.156,6.032-1.852,1.531-4.002,2.777-6.523,3.756-.765.296-1.183.452-2.335.825l8.193,9.631c.978,1.152,2.269,2.583,3.864,4.323,2.489,2.68,4.114,4.357,5.976,6.119.828.797,1.594,1.489,2.283,2.071.592.519.957.832,1.915,1.591h-6.62c-4.577,0-6.126-.247-7.988-1.27-1.754-.954-3.651-2.461-5.471-4.33-.515-.532-1.364-1.486-2.572-2.857-1.121-1.277-1.852-2.13-2.186-2.548l-9.798-11.73M644.524,248.536c.808,0,1.754-.08,2.864-.237,2.809-.411,4.758-1.044,6.652-2.158.981-.578,1.82-1.256,2.467-1.987,1.354-1.573,2.054-3.578,2.054-5.941,0-2.736-.947-4.963-2.732-6.498-1.013-.863-2.228-1.514-3.574-1.9-2.026-.581-4.48-.887-7.236-.887-.376,0-.644.004-1.26.025v19.568c.379.01.529.018.766.018"/>
      <path class="cls-2" d="M623.003,256.552c-1.131,4.598-3.585,9.157-6.615,12.321-1.906,2.001-4.171,3.693-6.712,5.016-4.123,2.154-8.736,3.206-14.039,3.206-2.595,0-5.022-.254-7.273-.755-5.297-1.201-10.022-3.864-13.571-7.637-1.631-1.74-3.035-3.749-4.192-5.962-2.165-4.191-3.258-8.788-3.258-13.759,0-2.906.36-5.673,1.078-8.253,1.206-4.347,3.32-7.929,6.514-11.044,1.894-1.852,4.048-3.418,6.399-4.64,4.292-2.252,9.302-3.432,14.633-3.432,2.826,0,5.485.324,7.939.964,4.634,1.218,9.022,3.71,12.236,6.961,1.826,1.841,3.34,3.999,4.537,6.373,1.925,3.937,3.143,9.157,3.143,13.581,0,2.478-.282,4.845-.818,7.059M609.429,237.872c-.948-1.873-2.201-3.536-3.693-4.914-2.896-2.652-6.228-3.961-10.12-3.961-1.417,0-2.844.195-4.248.561-3.274.87-5.969,2.614-8.101,5.224-2.854,3.484-4.469,8.416-4.469,13.606,0,4.333,1.105,8.855,3.065,12.516,1.037,1.935,2.41,3.648,4.041,5.009,2.805,2.374,6.218,3.585,10.029,3.585,3.834,0,6.949-1.173,9.829-3.707,1.216-1.082,2.278-2.322,3.155-3.69,2.104-3.275,3.327-7.681,3.327-11.928s-1.056-8.823-2.816-12.3"/>
      <path class="cls-2" d="M442.851,264.933c1.96,1.253,3.924,2.276,5.485,2.976,3.058,1.26,6.826,2.04,10.033,2.04,5.642,0,9.646-3.289,9.646-7.999,0-1.559-.548-3.122-1.577-4.218-.619-.793-1.474-1.497-2.428-2.116-1.641-1.103-2.739-1.646-6.972-3.606-5.565-2.517-7.913-3.759-9.953-5.649-2.976-2.739-4.392-5.872-4.392-10.024,0-9.102,7.375-14.817,19.046-14.817,4.306,0,9.011.867,13.172,2.356v9.791c-3.924-3.213-8.947-5.092-13.566-5.092-5.017,0-8.386,2.509-8.386,6.352,0,1.643.705,3.216,1.96,4.305,1.098,1.02,1.803,1.406,5.172,3.06l3.289,1.559,3.688,1.73c7.139,3.365,10.976,8.618,10.976,14.97,0,10.421-7.844,16.605-21.165,16.605-4.695,0-9.324-.623-14.028-1.952"/>
      <path class="cls-2" d="M764.071,263.29c.689,1.455,1.163,2.294,1.225,2.6,1.079,2.231,2.005,3.916,3.08,5.611,1.163,1.824,1.991,2.757,3.606,4.208h-18.022c1.218-1.451,1.681-2.531,1.681-4.208,0-2.005-.376-3.996-2.294-7.977l-.7-1.458h-19.014l-.613,1.458c-1.991,4.678-2.443,6.136-2.443,7.664,0,1.761.452,2.993,1.831,4.521h-16.71c1.378-1.145,2.144-1.991,3.143-3.373.689-.999,1.681-2.764,2.531-4.441.616-1.079,1.754-3.533,2.607-5.451l18.162-39.487h3.38M736.317,255.925h13.661l-6.825-15.481-6.836,15.481Z"/>
      <path class="cls-2" d="M720.867,222.881h-15.847v-.007h-26.205l-4.876,10.449c2.28-1.42,4.65-2.363,7.159-3.073,2.593-.7,5.402-.936,9.881-1.006.766,0,2.026-.052,3.672-.08v35.641c0,3.766,0,4.076-.16,5.252-.164.787-.313,1.573-.55,2.196-.55,1.423-1.25,2.433-2.423,3.456h16.634c-1.723-1.716-2.196-2.52-2.586-3.923-.397-1.336-.546-8.172-.546-8.555v-34.057c1.646.017,2.906.069,3.668.069,4.479.069,7.302.306,9.895,1.016,2.509.7,4.866,1.643,7.139,3.063"/>
      <path class="cls-2" d="M500.724,228.209c0,3.703-3.009,6.725-6.724,6.725s-6.717-3.021-6.717-6.725,3.009-6.724,6.717-6.724,6.724,3.011,6.724,6.724"/>
      <path class="cls-2" d="M500.735,273.885c-.329-.519-.597-1.051-.813-1.598-.442-1.169-.717-2.993-.717-4.647v-9.129h.012v-5.061l.01-3.101c.021-3.557.113-4.48.571-5.938.177-.574.43-1.142.759-1.664.548-.919.926-1.333,1.991-2.196h-16.999c1.125.961,1.486,1.33,1.991,2.102.352.543.635,1.117.808,1.709.383,1.246.496,2.44.54,5.697.01.679.016,1.225.021,1.699v15.471c0,1.803-.35,3.85-.861,5.12-.204.533-.484,1.051-.818,1.535-.424.612-.727.947-1.62,1.873h16.768c-.828-.748-1.119-1.076-1.641-1.873"/>
      <polyline class="cls-1" points="766.428 215.537 767.506 215.537 767.506 204.712 770.973 204.712 770.973 203.706 762.961 203.706 762.961 204.712 766.428 204.712 766.428 215.537"/>
      <polyline class="cls-1" points="772.372 215.537 773.458 215.537 773.458 204.876 773.479 204.876 777.959 215.537 778.95 215.537 783.287 204.876 783.308 204.876 783.308 215.537 784.387 215.537 784.387 203.706 782.804 203.706 778.442 214.124 774.116 203.706 772.372 203.706 772.372 215.537"/>
    </g>
  </g>
</svg>